<?xml version="1.0" encoding="UTF-8" standalone="no"?>
<svg
   xmlns:dc="http://purl.org/dc/elements/1.1/"
   xmlns:cc="http://creativecommons.org/ns#"
   xmlns:rdf="http://www.w3.org/1999/02/22-rdf-syntax-ns#"
   xmlns:svg="http://www.w3.org/2000/svg"
   xmlns="http://www.w3.org/2000/svg"
   xmlns:sodipodi="http://sodipodi.sourceforge.net/DTD/sodipodi-0.dtd"
   xmlns:inkscape="http://www.inkscape.org/namespaces/inkscape"
   height="450.0mm"
   version="1.1"
   viewBox="0 0 450.0 450.0"
   width="450.0mm"
   id="svg3947"
   sodipodi:docname="layout.svg"
   inkscape:version="1.0 (1.0+r73+1)">
  <metadata
     id="metadata3951">
    <rdf:RDF>
      <cc:Work
         rdf:about="">
        <dc:format>image/svg+xml</dc:format>
        <dc:type
           rdf:resource="http://purl.org/dc/dcmitype/StillImage" />
        <dc:title></dc:title>
      </cc:Work>
    </rdf:RDF>
  </metadata>
  <sodipodi:namedview
     showborder="true"
     inkscape:showpageshadow="false"
     pagecolor="#ffffff"
     bordercolor="#0000ff"
     borderopacity="1"
     objecttolerance="10"
     gridtolerance="10"
     guidetolerance="10"
     inkscape:pageopacity="0"
     inkscape:pageshadow="2"
     inkscape:window-width="1848"
     inkscape:window-height="1016"
     id="namedview3949"
     showgrid="true"
     inkscape:zoom="0.5"
     inkscape:cx="567.87199"
     inkscape:cy="1322.1254"
     inkscape:window-x="72"
     inkscape:window-y="27"
     inkscape:window-maximized="1"
     inkscape:current-layer="svg3947"
     inkscape:document-rotation="0"
     inkscape:document-units="mm">
    <inkscape:grid
       type="xygrid"
       id="grid8368" />
  </sodipodi:namedview>
  <defs
     id="defs3713" />
  <rect
     height="450.0"
     width="450.0"
     x="0"
     y="0"
     id="rect3715"
     fill="rgb(255,255,255)"
     style="stroke-width:1.000125;stroke-miterlimit:4;stroke-dasharray:none;fill:#ffffff;fill-opacity:0.01174468" />
  <g
     id="text3717"
     style="font-size:22px;font-family:Arial;text-anchor:middle;fill:#0000ff"
     aria-label="E"
     transform="translate(-0.82082342,-0.34591844)">
    <path
       inkscape:connector-curvature="0"
       id="path4597"
       d="M 69.392578,86 V 70.251953 h 11.386719 v 1.858399 h -9.302735 v 4.823242 h 8.711915 v 1.847656 h -8.711915 v 5.360352 h 9.667969 V 86 Z" />
  </g>
  <g
     id="text3719"
     style="font-size:22px;font-family:Arial;text-anchor:middle;fill:#0000ff"
     aria-label="S"
     transform="translate(-0.82082342,-0.34591844)">
    <path
       inkscape:connector-curvature="0"
       id="path4600"
       d="m 98.640625,80.94043 1.965825,-0.171875 q 0.13964,1.18164 0.64453,1.944336 0.51562,0.751953 1.58984,1.224609 1.07422,0.461914 2.41699,0.461914 1.19239,0 2.10547,-0.354492 0.91309,-0.354492 1.35352,-0.966797 0.45117,-0.623047 0.45117,-1.353516 0,-0.741211 -0.42969,-1.289062 -0.42969,-0.558594 -1.41797,-0.93457 -0.63379,-0.247071 -2.80371,-0.762696 -2.16992,-0.526367 -3.04004,-0.988281 -1.12793,-0.59082 -1.686521,-1.460938 -0.547852,-0.880859 -0.547852,-1.96582 0,-1.192383 0.676758,-2.223633 0.676755,-1.041992 1.976565,-1.579101 1.2998,-0.53711 2.88965,-0.53711 1.75097,0 3.083,0.569336 1.34278,0.558594 2.0625,1.654297 0.71973,1.095703 0.77344,2.481446 l -1.99805,0.15039 q -0.16113,-1.493164 -1.0957,-2.255859 -0.92383,-0.762696 -2.73926,-0.762696 -1.89062,0 -2.76074,0.698243 -0.85937,0.6875 -0.85937,1.665039 0,0.848633 0.6123,1.396484 0.60156,0.547852 3.13672,1.12793 2.5459,0.569336 3.49121,0.999023 1.375,0.633789 2.03027,1.611328 0.65528,0.966797 0.65528,2.234375 0,1.256836 -0.71973,2.374024 -0.71973,1.106445 -2.07324,1.729492 -1.34277,0.612305 -3.0293,0.612305 -2.13769,0 -3.58789,-0.623047 Q 100.32715,85.022461 99.5,83.776367 98.683594,82.519531 98.640625,80.94043 Z" />
  </g>
  <g
     id="text3721"
     style="font-size:22px;font-family:Arial;text-anchor:middle;fill:#0000ff"
     aria-label="K"
     transform="translate(-0.82082342,-0.34591844)">
    <path
       inkscape:connector-curvature="0"
       id="path4603"
       d="M 129.26367,86 V 70.251953 h 2.08399 v 7.80957 l 7.82031,-7.80957 h 2.82519 L 135.38672,76.632812 142.2832,86 h -2.75 l -5.60742,-7.970703 -2.57812,2.513672 V 86 Z" />
  </g>
  <g
     id="text3723"
     style="font-size:22px;font-family:Arial;text-anchor:middle;fill:#0000ff"
     aria-label="I"
     transform="translate(-0.82082342,-0.34591844)">
    <path
       inkscape:connector-curvature="0"
       id="path4606"
       d="M 164.00098,86 V 70.251953 h 2.08398 V 86 Z" />
  </g>
  <g
     id="text3725"
     style="font-size:22px;font-family:Arial;text-anchor:middle;fill:#0000ff"
     aria-label="S"
     transform="translate(-0.82082342,-0.34591844)">
    <path
       inkscape:connector-curvature="0"
       id="path4609"
       d="m 188.64062,80.94043 1.96583,-0.171875 q 0.13964,1.18164 0.64453,1.944336 0.51562,0.751953 1.58984,1.224609 1.07422,0.461914 2.41699,0.461914 1.19239,0 2.10547,-0.354492 0.91309,-0.354492 1.35352,-0.966797 0.45117,-0.623047 0.45117,-1.353516 0,-0.741211 -0.42969,-1.289062 -0.42969,-0.558594 -1.41797,-0.93457 -0.63379,-0.247071 -2.80371,-0.762696 -2.16992,-0.526367 -3.04004,-0.988281 -1.12793,-0.59082 -1.68652,-1.460938 -0.54785,-0.880859 -0.54785,-1.96582 0,-1.192383 0.67676,-2.223633 0.67675,-1.041992 1.97656,-1.579101 1.2998,-0.53711 2.88965,-0.53711 1.75097,0 3.083,0.569336 1.34278,0.558594 2.0625,1.654297 0.71973,1.095703 0.77344,2.481446 l -1.99805,0.15039 q -0.16113,-1.493164 -1.0957,-2.255859 -0.92383,-0.762696 -2.73926,-0.762696 -1.89062,0 -2.76074,0.698243 -0.85937,0.6875 -0.85937,1.665039 0,0.848633 0.6123,1.396484 0.60156,0.547852 3.13672,1.12793 2.5459,0.569336 3.49121,0.999023 1.375,0.633789 2.03027,1.611328 0.65528,0.966797 0.65528,2.234375 0,1.256836 -0.71973,2.374024 -0.71973,1.106445 -2.07324,1.729492 -1.34277,0.612305 -3.0293,0.612305 -2.13769,0 -3.58789,-0.623047 -1.43945,-0.623047 -2.2666,-1.869141 -0.81641,-1.256836 -0.85938,-2.835937 z" />
  </g>
  <g
     id="text3727"
     style="font-size:22px;font-family:Arial;text-anchor:middle;fill:#0000ff"
     aria-label="T"
     transform="translate(-0.82082342,-0.34591844)">
    <path
       inkscape:connector-curvature="0"
       id="path4612"
       d="M 223.97949,86 V 72.110352 h -5.18847 v -1.858399 h 12.48242 v 1.858399 h -5.20996 V 86 Z" />
  </g>
  <g
     id="text3729"
     style="font-size:22px;font-family:Arial;text-anchor:middle;fill:#0000ff"
     aria-label="L"
     transform="translate(-0.82082342,-0.34591844)">
    <path
       inkscape:connector-curvature="0"
       id="path4615"
       d="M 250.48828,86 V 70.251953 h 2.08399 v 13.889649 h 7.75585 V 86 Z" />
  </g>
  <g
     id="text3731"
     style="font-size:22px;font-family:Arial;text-anchor:middle;fill:#0000ff"
     aria-label="F"
     transform="translate(-0.82082342,-0.34591844)">
    <path
       inkscape:connector-curvature="0"
       id="path4618"
       d="M 280.08008,86 V 70.251953 h 10.62402 v 1.858399 h -8.54004 v 4.876953 h 7.39063 v 1.858398 h -7.39063 V 86 Z" />
  </g>
  <g
     id="text3733"
     style="font-size:22px;font-family:Arial;text-anchor:middle;fill:#0000ff"
     aria-label="Ü"
     transform="translate(-0.82082342,-0.34591844)">
    <path
       inkscape:connector-curvature="0"
       id="path4621"
       d="m 319.08203,70.251953 h 2.08399 v 9.098633 q 0,2.374023 -0.53711,3.770508 -0.53711,1.396484 -1.94434,2.277343 -1.39648,0.870118 -3.67383,0.870118 -2.21289,0 -3.62012,-0.762696 -1.40722,-0.762695 -2.00878,-2.202148 -0.60157,-1.450195 -0.60157,-3.953125 v -9.098633 h 2.08399 v 9.087891 q 0,2.051758 0.37597,3.029297 0.38672,0.966796 1.31055,1.493164 0.93457,0.526367 2.27734,0.526367 2.29883,0 3.27637,-1.041992 0.97754,-1.041993 0.97754,-4.006836 z m -7.1543,-0.966797 v -2.202148 h 2.01954 v 2.202148 z m 4.00684,0 v -2.202148 h 2.01953 v 2.202148 z" />
  </g>
  <g
     id="text3735"
     style="font-size:22px;font-family:Arial;text-anchor:middle;fill:#0000ff"
     aria-label="N"
     transform="translate(-0.82082342,-0.34591844)">
    <path
       inkscape:connector-curvature="0"
       id="path4624"
       d="M 338.72656,86 V 70.251953 h 2.1377 l 8.27148,12.364258 V 70.251953 h 1.99805 V 86 h -2.1377 L 340.72461,73.625 V 86 Z" />
  </g>
  <g
     id="text3737"
     style="font-size:22px;font-family:Arial;text-anchor:middle;fill:#0000ff"
     aria-label="F"
     transform="translate(-0.82082342,-0.34591844)">
    <path
       inkscape:connector-curvature="0"
       id="path4627"
       d="M 370.08008,86 V 70.251953 h 10.62402 v 1.858399 h -8.54004 v 4.876953 h 7.39063 v 1.858398 h -7.39063 V 86 Z" />
  </g>
  <g
     id="text3739"
     style="font-size:22px;font-family:Arial;text-anchor:middle;fill:#0000ff"
     aria-label="Z"
     transform="translate(-0.82082342,-0.34591844)">
    <path
       inkscape:connector-curvature="0"
       id="path4657"
       d="m 68.71582,119.33334 v -1.93359 l 8.067383,-10.08691 q 0.859375,-1.07422 1.632813,-1.86914 h -8.78711 v -1.8584 h 11.279297 v 1.8584 l -8.84082,10.9248 -0.956055,1.10645 h 10.054688 v 1.85839 z" />
  </g>
  <g
     id="text3741"
     style="font-size:22px;font-family:Arial;text-anchor:middle;fill:#0000ff"
     aria-label="E"
     transform="translate(-0.82082342,-0.34591844)">
    <path
       inkscape:connector-curvature="0"
       id="path4654"
       d="M 99.392578,119.33334 V 103.5853 H 110.7793 v 1.8584 h -9.30274 v 4.82324 h 8.71192 v 1.84765 h -8.71192 v 5.36036 h 9.66797 v 1.85839 z" />
  </g>
  <g
     id="text3743"
     style="font-size:22px;font-family:Arial;text-anchor:middle;fill:#0000ff"
     aria-label="H"
     transform="translate(-0.82082342,-0.34591844)">
    <path
       inkscape:connector-curvature="0"
       id="path4651"
       d="M 128.8125,119.33334 V 103.5853 h 2.08398 v 6.46679 h 8.18555 v -6.46679 h 2.08399 v 15.74804 h -2.08399 v -7.42285 h -8.18555 v 7.42285 z" />
  </g>
  <g
     id="text3745"
     style="font-size:22px;font-family:Arial;text-anchor:middle;fill:#0000ff"
     aria-label="N"
     transform="translate(-0.82082342,-0.34591844)">
    <path
       inkscape:connector-curvature="0"
       id="path4648"
       d="M 158.72656,119.33334 V 103.5853 h 2.1377 l 8.27148,12.36425 V 103.5853 h 1.99805 v 15.74804 h -2.1377 l -8.27148,-12.375 v 12.375 z" />
  </g>
  <g
     id="text3747"
     style="font-size:22px;font-family:Arial;text-anchor:middle;fill:#0000ff"
     aria-label="Z"
     transform="translate(-0.82082342,-0.34591844)">
    <path
       inkscape:connector-curvature="0"
       id="path4645"
       d="m 188.71582,119.33334 v -1.93359 l 8.06738,-10.08691 q 0.85938,-1.07422 1.63282,-1.86914 h -8.78711 v -1.8584 h 11.27929 v 1.8584 l -8.84082,10.9248 -0.95605,1.10645 h 10.05469 v 1.85839 z" />
  </g>
  <g
     id="text3749"
     style="font-size:22px;font-family:Arial;text-anchor:middle;fill:#0000ff"
     aria-label="W"
     transform="translate(-0.82082342,-0.34591844)">
    <path
       inkscape:connector-curvature="0"
       id="path4642"
       d="M 219.07031,119.33334 214.8916,103.5853 h 2.1377 l 2.3955,10.32324 q 0.38672,1.62207 0.66602,3.22266 0.60156,-2.52442 0.70898,-2.91114 l 2.99707,-10.63476 h 2.51368 l 2.25586,7.9707 q 0.84863,2.96484 1.22461,5.5752 0.30078,-1.49317 0.78418,-3.42676 l 2.4707,-10.11914 h 2.09472 l -4.31835,15.74804 h -2.00879 l -3.31934,-11.99902 Q 225.0752,105.83041 225,105.48666 q -0.24707,1.08496 -0.46191,1.84766 l -3.34082,11.99902 z" />
  </g>
  <path
     sodipodi:nodetypes="cccccccccccccc"
     inkscape:connector-curvature="0"
     id="text3751"
     d="m 252.84711,103.23918 -6.0477,15.74839 h 2.21279 c 1.33489,-3.71144 2.81235,-7.75133 4.06073,-11.08614 0.35354,-1.01883 0.53108,-1.48331 0.87776,-2.458 0.35457,0.84637 0.58671,1.39099 1.08801,2.71586 l 1.64331,4.36149 h -3.35948 l -0.61288,1.69706 h 4.61677 l 1.83709,4.76973 h 2.37402 l -6.44508,-15.74839 z"
     style="font-size:22px;font-family:Arial;text-anchor:middle;fill:#0000ff;stroke-width:1" />
  <g
     id="text3753"
     style="font-size:22px;font-family:Arial;text-anchor:middle;fill:#0000ff"
     aria-label="N"
     transform="translate(-0.82082342,-0.34591844)">
    <path
       inkscape:connector-curvature="0"
       id="path4639"
       d="M 278.72656,119.33334 V 103.5853 h 2.1377 l 8.27148,12.36425 V 103.5853 h 1.99805 v 15.74804 h -2.1377 l -8.27148,-12.375 v 12.375 z" />
  </g>
  <g
     id="text3755"
     style="font-size:22px;font-family:Arial;text-anchor:middle;fill:#0000ff"
     aria-label="Z"
     transform="translate(-0.82082342,-0.34591844)">
    <path
       inkscape:connector-curvature="0"
       id="path4636"
       d="m 308.71582,119.33334 v -1.93359 l 8.06738,-10.08691 q 0.85938,-1.07422 1.63282,-1.86914 h -8.78711 v -1.8584 h 11.27929 v 1.8584 l -8.84082,10.9248 -0.95605,1.10645 h 10.05469 v 1.85839 z" />
  </g>
  <g
     id="text3757"
     style="font-size:22px;font-family:Arial;text-anchor:middle;fill:#0000ff"
     aria-label="I"
     transform="translate(-0.82082342,-0.34591844)">
    <path
       inkscape:connector-curvature="0"
       id="path4633"
       d="M 344.00098,119.33334 V 103.5853 h 2.08398 v 15.74804 z" />
  </g>
  <g
     id="text3759"
     style="font-size:22px;font-family:Arial;text-anchor:middle;fill:#0000ff"
     aria-label="G"
     transform="translate(-0.82082342,-0.34591844)">
    <path
       inkscape:connector-curvature="0"
       id="path4630"
       d="m 375.51562,113.15659 v -1.84766 l 6.6709,-0.0107 v 5.84375 q -1.53613,1.22461 -3.16894,1.84765 -1.63281,0.61231 -3.35156,0.61231 -2.32032,0 -4.22168,-0.98828 -1.89063,-0.99903 -2.85743,-2.87891 -0.96679,-1.87988 -0.96679,-4.20019 0,-2.29883 0.95605,-4.28614 0.9668,-1.99804 2.77149,-2.96484 1.80468,-0.9668 4.15722,-0.9668 1.70801,0 3.08301,0.5586 1.38574,0.54785 2.16992,1.53613 0.78418,0.98828 1.19239,2.57812 l -1.87989,0.51563 q -0.35449,-1.20313 -0.88086,-1.89063 -0.52636,-0.6875 -1.5039,-1.0957 -0.97754,-0.41894 -2.16993,-0.41894 -1.42871,0 -2.4707,0.44042 -1.04199,0.42969 -1.68652,1.13868 -0.63379,0.70898 -0.98828,1.55761 -0.60157,1.46094 -0.60157,3.16895 0,2.10547 0.71973,3.52344 0.73047,1.41797 2.11621,2.10547 1.38574,0.6875 2.94336,0.6875 1.35352,0 2.64258,-0.51563 1.28906,-0.52637 1.95508,-1.11719 v -2.93261 z" />
  </g>
  <path
     inkscape:connector-curvature="0"
     id="text3761"
     d="m 67.927121,136.57255 v 10.05158 h 2.084113 v -8.19278 h 3.308323 c 1.238933,0 2.137884,0.1071 2.696477,0.32194 0.773438,0.30078 1.428663,0.89533 1.965773,1.78336 0.544269,0.88085 0.816485,2.14488 0.816485,3.79201 0,1.1888 -0.139798,2.20223 -0.419094,3.04013 -0.272138,0.83073 -0.655143,1.49281 -1.149284,1.98695 -0.350912,0.35092 -0.823601,0.62313 -1.418003,0.81649 -0.58724,0.19336 -1.400199,0.28991 -2.438609,0.28991 h -3.362068 v -0.001 h -2.084113 v 1.85983 h 5.682859 c 0.952473,0 1.793925,-0.0897 2.524392,-0.26871 0.737632,-0.17904 1.364364,-0.4407 1.879989,-0.78445 0.522788,-0.35092 1.00234,-0.82678 1.439191,-1.42834 0.436848,-0.60872 0.795054,-1.37526 1.074351,-2.29909 0.279297,-0.92382 0.419097,-1.98368 0.419097,-3.17965 0,-1.40364 -0.207854,-2.64973 -0.623218,-3.73827 -0.408204,-1.0957 -1.027557,-1.99414 -1.858285,-2.69596 -0.637371,-0.54427 -1.407594,-0.92041 -2.309937,-1.1281 -0.64453,-0.15038 -1.578838,-0.22582 -2.803446,-0.22582 z"
     style="font-size:22px;font-family:Arial;text-anchor:middle;fill:#0000ff;stroke-width:1" />
  <path
     inkscape:connector-curvature="0"
     id="text3763"
     d="m 97.959397,136.57254 c 0,0.57947 0,1.15894 0,1.7384 2.497213,0.008 4.992663,-0.0111 7.491293,0.0133 1.12593,0.0216 2.38655,0.50231 2.79385,1.64385 0.49322,1.25412 -0.17624,2.8508 -1.48723,3.26449 -1.38814,0.43606 -2.85974,0.24892 -4.29162,0.29042 -1.50492,0.002 -3.001883,-0.004 -4.506293,-0.003 0,2.9335 0,5.867 0,8.8005 0.694703,0 1.38941,0 2.084113,0 0,-2.33113 0,-4.66225 0,-6.99337 1.19219,0.0235 2.39116,-0.0606 3.57704,0.0754 1.45581,0.35619 2.21978,1.76785 3.02477,2.8962 0.87418,1.32964 1.71366,2.68172 2.57179,4.02173 0.87368,0 1.74735,0 2.62103,0 -1.05517,-1.62681 -2.06457,-3.28425 -3.15311,-4.88875 -0.67943,-0.93196 -1.48776,-1.82155 -2.57212,-2.27671 1.55191,-0.18505 3.22023,-0.84643 3.96899,-2.3133 1.04588,-1.97745 0.31144,-4.851 -1.80338,-5.78476 -1.71769,-0.66529 -3.59122,-0.4432 -5.39374,-0.48488 -1.64179,0 -3.283593,0 -4.925383,0 z"
     style="font-size:22px;font-family:Arial;text-anchor:middle;fill:#0000ff;stroke-width:1" />
  <g
     id="text3765"
     style="font-size:22px;font-family:Arial;text-anchor:middle;fill:#0000ff"
     aria-label="E"
     transform="translate(-0.82082342,-0.34591844)">
    <path
       inkscape:connector-curvature="0"
       id="path4660"
       d="m 129.39258,152.66667 v -15.74805 h 11.38672 v 1.8584 h -9.30274 v 4.82325 h 8.71192 v 1.84765 h -8.71192 v 5.36035 h 9.66797 v 1.8584 z" />
  </g>
  <g
     id="text3767"
     style="font-size:22px;font-family:Arial;text-anchor:middle;fill:#0000ff"
     aria-label="I"
     transform="translate(-0.82082342,-0.34591844)">
    <path
       inkscape:connector-curvature="0"
       id="path4663"
       d="m 164.00098,152.66667 v -15.74805 h 2.08398 v 15.74805 z" />
  </g>
  <g
     id="text3769"
     style="font-size:22px;font-family:Arial;text-anchor:middle;fill:#0000ff"
     aria-label="V"
     transform="translate(-0.82082342,-0.34591844)">
    <path
       inkscape:connector-curvature="0"
       id="path4666"
       d="m 193.85059,152.66667 -6.10157,-15.74805 h 2.25586 l 4.09278,11.44043 q 0.49414,1.375 0.82714,2.57813 0.36524,-1.28906 0.84864,-2.57813 l 4.2539,-11.44043 h 2.12696 l -6.16602,15.74805 z" />
  </g>
  <g
     id="text3771"
     style="font-size:22px;font-family:Arial;text-anchor:middle;fill:#0000ff"
     aria-label="I"
     transform="translate(-0.82082342,-0.34591844)">
    <path
       inkscape:connector-curvature="0"
       id="path4669"
       d="m 224.00098,152.66667 v -15.74805 h 2.08398 v 15.74805 z" />
  </g>
  <g
     id="text3773"
     style="font-size:22px;font-family:Arial;text-anchor:middle;fill:#0000ff"
     aria-label="E"
     transform="translate(-0.82082342,-0.34591844)">
    <path
       inkscape:connector-curvature="0"
       id="path4672"
       d="m 249.39258,152.66667 v -15.74805 h 11.38672 v 1.8584 h -9.30274 v 4.82325 h 8.71192 v 1.84765 h -8.71192 v 5.36035 h 9.66797 v 1.8584 z" />
  </g>
  <path
     inkscape:connector-curvature="0"
     id="text3775"
     d="m 277.95927,136.57254 c 0,0.58016 0,1.16031 0,1.74047 2.53069,0.0106 5.06238,-0.022 7.59241,0.0176 1.09548,0.0369 2.29891,0.53406 2.69303,1.63753 0.51237,1.29175 -0.22346,2.93196 -1.59067,3.29962 -1.40422,0.39184 -2.87536,0.21458 -4.31448,0.25529 -1.46063,3.9e-4 -2.91971,-8.3e-4 -4.38029,-5.1e-4 0,2.93281 0,5.86562 0,8.79843 0.69469,0 1.38941,0 2.0841,0 0,-2.33113 0,-4.66225 0,-6.99337 1.19219,0.0235 2.39117,-0.0606 3.57706,0.0754 1.45606,0.35579 2.2202,1.76754 3.02485,2.8962 0.87408,1.3298 1.71397,2.68171 2.57223,4.02173 0.87368,0 1.74733,0 2.62101,0 -1.05534,-1.62682 -2.06499,-3.28419 -3.15362,-4.88875 -0.67942,-0.93196 -1.48775,-1.82154 -2.57212,-2.27671 1.55191,-0.18517 3.22075,-0.84613 3.96936,-2.3133 1.04526,-1.97764 0.31112,-4.85097 -1.80377,-5.78476 -1.71768,-0.6653 -3.59122,-0.4432 -5.39374,-0.48488 -1.6418,0 -3.28356,0 -4.92536,0 z"
     style="font-size:22px;font-family:Arial;text-anchor:middle;fill:#0000ff;stroke-width:1" />
  <g
     id="text3777"
     style="font-size:22px;font-family:Arial;text-anchor:middle;fill:#0000ff"
     aria-label="T"
     transform="translate(-0.82082342,-0.34591844)">
    <path
       inkscape:connector-curvature="0"
       id="path4675"
       d="m 313.97949,152.66667 v -13.88965 h -5.18847 v -1.8584 h 12.48242 v 1.8584 h -5.20996 v 13.88965 z" />
  </g>
  <g
     id="text3779"
     style="font-size:22px;font-family:Arial;text-anchor:middle;fill:#0000ff"
     aria-label="E"
     transform="translate(-0.82082342,-0.34591844)">
    <path
       inkscape:connector-curvature="0"
       id="path4678"
       d="m 339.39258,152.66667 v -15.74805 h 11.38672 v 1.8584 h -9.30274 v 4.82325 h 8.71192 v 1.84765 h -8.71192 v 5.36035 h 9.66797 v 1.8584 z" />
  </g>
  <g
     id="text3781"
     style="font-size:22px;font-family:Arial;text-anchor:middle;fill:#0000ff"
     aria-label="L"
     transform="translate(-0.82082342,-0.34591844)">
    <path
       inkscape:connector-curvature="0"
       id="path4681"
       d="m 370.48828,152.66667 v -15.74805 h 2.08399 v 13.88965 h 7.75585 v 1.8584 z" />
  </g>
  <g
     id="text3783"
     style="font-size:22px;font-family:Arial;text-anchor:middle;fill:#0000ff"
     aria-label="T"
     transform="translate(-0.82082342,-0.34591844)">
    <path
       inkscape:connector-curvature="0"
       id="path4708"
       d="m 73.979492,186 v -13.88965 h -5.188476 v -1.8584 h 12.482421 v 1.8584 h -5.20996 V 186 Z" />
  </g>
  <g
     id="text3785"
     style="font-size:22px;font-family:Arial;text-anchor:middle;fill:#0000ff"
     aria-label="G"
     transform="translate(-0.82082342,-0.34591844)">
    <path
       inkscape:connector-curvature="0"
       id="path4705"
       d="m 105.51563,179.82324 v -1.84765 l 6.67089,-0.0108 v 5.84375 q -1.53613,1.22461 -3.16894,1.84766 -1.63281,0.6123 -3.35156,0.6123 -2.32032,0 -4.22168,-0.98828 -1.890629,-0.99902 -2.857426,-2.8789 -0.966797,-1.87989 -0.966797,-4.2002 0,-2.29883 0.956055,-4.28613 0.966797,-1.99805 2.771488,-2.96484 1.80468,-0.9668 4.15722,-0.9668 1.70801,0 3.08301,0.55859 1.38574,0.54785 2.16992,1.53613 0.78418,0.98829 1.19239,2.57813 l -1.87989,0.51562 q -0.35449,-1.20312 -0.88086,-1.89062 -0.52636,-0.6875 -1.5039,-1.0957 -0.97754,-0.41895 -2.16992,-0.41895 -1.42872,0 -2.47071,0.44043 -1.04199,0.42969 -1.68652,1.13867 -0.63379,0.70899 -0.98828,1.55762 -0.601565,1.46094 -0.601565,3.16895 0,2.10546 0.719725,3.52343 0.73047,1.41797 2.11621,2.10547 1.38574,0.6875 2.94336,0.6875 1.35352,0 2.64258,-0.51562 1.28906,-0.52637 1.95508,-1.11719 v -2.93262 z" />
  </g>
  <g
     id="text3787"
     style="font-size:22px;font-family:Arial;text-anchor:middle;fill:#0000ff"
     aria-label="N"
     transform="translate(-0.82082342,-0.34591844)">
    <path
       inkscape:connector-curvature="0"
       id="path4702"
       d="m 128.72656,186 v -15.74805 h 2.1377 l 8.27148,12.36426 v -12.36426 h 1.99805 V 186 h -2.1377 l -8.27148,-12.375 V 186 Z" />
  </g>
  <path
     sodipodi:nodetypes="cccccccccccccc"
     inkscape:connector-curvature="0"
     id="text3789"
     d="m 162.84691,169.90591 -6.04769,15.7484 h 2.21278 c 1.39498,-3.88103 2.72718,-7.52372 4.06074,-11.08615 0.34769,-1.01298 0.52523,-1.49552 0.8836,-2.52867 0.32534,0.85806 0.58087,1.46166 1.08217,2.78654 l 1.64383,4.36149 h -3.35639 l -0.61443,1.69705 h 4.61522 l 1.83658,4.76974 h 2.37402 l -6.44509,-15.7484 z"
     style="font-size:22px;font-family:Arial;text-anchor:middle;fill:#0000ff;stroke-width:1" />
  <g
     id="text3791"
     style="font-size:22px;font-family:Arial;text-anchor:middle;fill:#0000ff"
     aria-label="C"
     transform="translate(-0.82082342,-0.34591844)">
    <path
       inkscape:connector-curvature="0"
       id="path4696"
       d="m 199.98437,180.47852 2.08399,0.52636 q -0.65527,2.56739 -2.36328,3.9209 -1.69727,1.34277 -4.15723,1.34277 -2.5459,0 -4.14648,-1.03125 -1.58985,-1.04199 -2.42774,-3.00781 -0.82715,-1.96582 -0.82715,-4.22168 0,-2.45996 0.93457,-4.28613 0.94532,-1.83691 2.67481,-2.78223 1.74023,-0.95605 3.82422,-0.95605 2.36328,0 3.97461,1.20312 1.61133,1.20313 2.24511,3.38379 l -2.05175,0.4834 q -0.54785,-1.71875 -1.58985,-2.50293 -1.04199,-0.78418 -2.62109,-0.78418 -1.81543,0 -3.04004,0.87012 -1.21387,0.87012 -1.70801,2.3418 -0.49414,1.46093 -0.49414,3.01855 0,2.00879 0.58008,3.5127 0.59082,1.49316 1.82617,2.23437 1.23535,0.74121 2.67481,0.74121 1.75097,0 2.96484,-1.00976 1.21387,-1.00977 1.64355,-2.99707 z" />
  </g>
  <g
     id="text3793"
     style="font-size:22px;font-family:Arial;text-anchor:middle;fill:#0000ff"
     aria-label="H"
     transform="translate(-0.82082342,-0.34591844)">
    <path
       inkscape:connector-curvature="0"
       id="path4693"
       d="m 218.8125,186 v -15.74805 h 2.08398 v 6.4668 h 8.18555 v -6.4668 h 2.08399 V 186 h -2.08399 v -7.42285 h -8.18555 V 186 Z" />
  </g>
  <g
     id="text3795"
     style="font-size:22px;font-family:Arial;text-anchor:middle;fill:#0000ff"
     aria-label="V"
     transform="translate(-0.82082342,-0.34591844)">
    <path
       inkscape:connector-curvature="0"
       id="path4690"
       d="m 253.85059,186 -6.10157,-15.74805 h 2.25586 l 4.09278,11.44043 q 0.49414,1.375 0.82714,2.57813 0.36524,-1.28906 0.84864,-2.57813 l 4.2539,-11.44043 h 2.12696 L 255.98828,186 Z" />
  </g>
  <path
     inkscape:connector-curvature="0"
     id="text3797"
     d="m 284.23278,169.62686 c -2.22004,0 -4.03167,0.74122 -5.43531,2.22364 -1.40367,1.47526 -2.10582,3.51954 -2.10582,6.13347 0,1.38216 0.30123,2.69313 0.90279,3.93206 0.45878,0.9449 1.08331,1.73631 1.87118,2.37712 l 1.01029,-1.67483 c -0.0368,-0.0371 -0.0739,-0.0732 -0.11007,-0.11163 -1.01692,-1.0957 -1.52548,-2.59237 -1.52548,-4.49016 0,-2.37044 0.52967,-4.06073 1.58956,-5.07049 1.06707,-1.01693 2.33847,-1.52549 3.81371,-1.52549 0.94932,0 1.81067,0.22424 2.58641,0.66714 l 0.97514,-1.61592 c -1.07545,-0.56144 -2.26544,-0.84491 -3.5724,-0.84491 z m 5.09323,1.90996 -1.06556,1.76527 c 0.26808,0.33766 0.49927,0.71516 0.68832,1.1374 0.43685,0.95247 0.65526,2.06931 0.65526,3.35121 0,2.02669 -0.50855,3.59142 -1.52548,4.69429 -1.00978,1.10287 -2.29859,1.65468 -3.86696,1.65468 -0.81029,0 -1.5489,-0.15224 -2.21639,-0.45372 l -0.95343,1.57975 c 0.96467,0.4358 2.02375,0.65681 3.18016,0.65681 1.36785,0 2.64293,-0.32234 3.82458,-0.96687 1.18163,-0.65169 2.09484,-1.60762 2.73936,-2.86804 0.64453,-1.26042 0.96634,-2.68904 0.96634,-4.28605 0,-1.57551 -0.30755,-2.98251 -0.92345,-4.22144 -0.38743,-0.79311 -0.88902,-1.47357 -1.50275,-2.04329 z"
     style="font-size:22px;font-family:Arial;text-anchor:middle;fill:#0000ff;stroke-width:1" />
  <path
     inkscape:connector-curvature="0"
     id="text3799"
     d="m 307.95951,169.90591 c 0,0.57998 0,1.15996 0,1.73995 2.49713,0.007 4.99406,-0.0136 7.49125,0.0118 1.12596,0.0216 2.38604,0.50269 2.79368,1.64386 0.51229,1.29165 -0.22267,2.93208 -1.59014,3.29962 -1.40423,0.39183 -2.87536,0.21458 -4.31446,0.25529 -1.46179,0.001 -2.91875,-0.002 -4.38033,-0.002 0,2.93315 0,5.86631 0,8.79946 0.69471,0 1.3894,0 2.08412,0 0,-2.33112 0,-4.66224 0,-6.99337 1.19219,0.0234 2.39109,-0.0603 3.57703,0.0749 1.45548,0.35694 2.21981,1.76794 3.02435,2.89672 0.87408,1.32979 1.71394,2.68171 2.5722,4.02172 0.87368,0 1.74736,0 2.62104,0 -1.05529,-1.62682 -2.06504,-3.28411 -3.15354,-4.88875 -0.67913,-0.93206 -1.48738,-1.82162 -2.5717,-2.2767 1.55192,-0.18505 3.22025,-0.84644 3.96899,-2.3133 1.04598,-1.97756 0.31136,-4.85138 -1.80388,-5.78477 -1.71751,-0.66531 -3.59089,-0.44319 -5.39324,-0.48487 -1.64179,0 -3.28358,0 -4.92537,0 z"
     style="font-size:22px;font-family:Arial;text-anchor:middle;fill:#0000ff;stroke-width:1" />
  <g
     id="text3801"
     style="font-size:22px;font-family:Arial;text-anchor:middle;fill:#0000ff"
     aria-label="J"
     transform="translate(-0.82082342,-0.34591844)">
    <path
       inkscape:connector-curvature="0"
       id="path4687"
       d="m 340.13379,181.53125 1.87988,-0.25781 q 0.0752,1.80468 0.67676,2.4707 0.60156,0.66602 1.66504,0.66602 0.78418,0 1.35351,-0.3545 0.56934,-0.36523 0.78418,-0.97754 0.21485,-0.62304 0.21485,-1.97656 v -10.84961 h 2.08398 v 10.73145 q 0,1.97656 -0.4834,3.06152 -0.47265,1.08496 -1.51464,1.6543 -1.03125,0.56933 -2.42774,0.56933 -2.07324,0 -3.17969,-1.19238 -1.0957,-1.19238 -1.05273,-3.54492 z" />
  </g>
  <g
     id="text3803"
     style="font-size:22px;font-family:Arial;text-anchor:middle;fill:#0000ff"
     aria-label="M"
     transform="translate(-0.82082342,-0.34591844)">
    <path
       inkscape:connector-curvature="0"
       id="path4684"
       d="m 367.45898,186 v -15.74805 h 3.13672 l 3.72754,11.15039 q 0.51563,1.55762 0.75196,2.33106 0.26855,-0.85938 0.83789,-2.52442 l 3.7705,-10.95703 h 2.80371 V 186 h -2.00878 V 172.81934 L 375.90234,186 h -1.87988 l -4.55469,-13.40625 V 186 Z" />
  </g>
  <g
     id="text3805"
     style="font-size:22px;font-family:Arial;text-anchor:middle;fill:#0000ff"
     aria-label="H"
     transform="translate(-0.82082342,-0.34591844)">
    <path
       inkscape:connector-curvature="0"
       id="path4711"
       d="m 68.8125,219.33333 v -15.74805 h 2.083984 v 6.4668 h 8.185547 v -6.4668 h 2.083985 v 15.74805 h -2.083985 v -7.42285 h -8.185547 v 7.42285 z" />
  </g>
  <path
     sodipodi:nodetypes="cccccccccccccc"
     inkscape:connector-curvature="0"
     id="text3807"
     d="m 102.84695,203.23928 -6.047688,15.74788 h 2.212785 c 1.403333,-3.91042 2.719483,-7.5011 4.060733,-11.08563 0.3487,-1.01198 0.51471,-1.46857 0.86849,-2.47833 0.3554,0.85806 0.59598,1.41132 1.09728,2.73619 l 1.64331,4.36098 h -3.35845 l -0.61288,1.69757 h 4.61625 l 1.83659,4.76922 h 2.37401 l -6.44508,-15.74788 z"
     style="font-size:22px;font-family:Arial;text-anchor:middle;fill:#0000ff;stroke-width:1" />
  <g
     id="text3809"
     style="font-size:22px;font-family:Arial;text-anchor:middle;fill:#0000ff"
     aria-label="L"
     transform="translate(-0.82082342,-0.34591844)">
    <path
       inkscape:connector-curvature="0"
       id="path4714"
       d="m 130.48828,219.33333 v -15.74805 h 2.08399 v 13.88965 h 7.75585 v 1.8584 z" />
  </g>
  <path
     inkscape:connector-curvature="0"
     id="text3811"
     d="m 164.44578,203.23876 c -0.55601,-0.01 -1.11358,0.002 -1.66915,5.3e-4 v 1.85829 c 1.16267,0.001 2.345,-0.0705 3.46284,0.28576 1.32067,0.52855 1.65084,2.40419 0.8723,3.50625 -0.71001,0.95292 -2.01907,0.95589 -3.09387,0.96687 -0.41377,2.6e-4 -0.8275,3e-5 -1.24127,0 v 1.86242 c 1.30543,0.004 2.63836,-0.10628 3.88659,0.33537 1.20748,0.44452 1.74467,1.88573 1.43402,3.07682 -0.20167,0.99044 -1.07151,1.73149 -2.05517,1.88774 -1.17815,0.1888 -2.3789,0.0816 -3.56775,0.11007 h -1.94768 c 7.9e-4,-4.63159 -5.3e-4,-9.25913 0.001,-13.88959 h -2.08463 v 15.74788 c 2.27105,-0.0111 4.54305,0.0238 6.81354,-0.0202 1.58832,-0.0669 3.39382,-0.49553 4.29483,-1.93374 1.09103,-1.60319 1.10893,-4.02166 -0.35554,-5.40949 -0.50578,-0.49243 -1.15272,-0.81955 -1.82624,-1.01544 1.5094,-0.65936 2.48046,-2.37827 2.14095,-4.00957 -0.27205,-1.5256 -1.49799,-2.81052 -3.01842,-3.13056 -0.6729,-0.16669 -1.358,-0.21739 -2.04639,-0.22945 z"
     style="font-size:22px;font-family:Arial;text-anchor:middle;fill:#0000ff;stroke-width:1" />
  <path
     inkscape:connector-curvature="0"
     id="text3813"
     d="m 194.11477,202.96023 c -1.43945,0 -2.74304,0.33289 -3.91036,0.9989 -1.16015,0.66602 -2.05541,1.6362 -2.68562,2.91093 -0.63021,1.27475 -0.94516,2.68912 -0.94516,4.24316 0,1.56119 0.31178,2.96502 0.93483,4.21111 0.39008,0.7713 0.88223,1.43484 1.47536,1.99213 l 1.04438,-1.73065 c -0.87019,-1.08054 -1.30586,-2.57123 -1.30586,-4.47259 0,-2.11263 0.51173,-3.69847 1.53582,-4.75837 1.02409,-1.06705 2.31343,-1.60093 3.86746,-1.60093 0.78112,0 1.5032,0.15023 2.1668,0.4501 l 0.9679,-1.60404 c -0.96143,-0.42453 -2.00906,-0.63975 -3.14555,-0.63975 z m 4.73305,1.5937 -1.03043,1.7079 c 0.4131,0.42071 0.75168,0.92009 1.01337,1.50017 0.43685,0.95247 0.65526,2.06614 0.65526,3.34088 0,2.24154 -0.61249,3.92075 -1.8371,5.03794 -0.7806,-0.66602 -1.7724,-1.1672 -2.97553,-1.50379 l -0.50488,1.51464 c 0.72331,0.17904 1.41072,0.47974 2.06241,0.90227 -0.65885,0.2793 -1.3605,0.41858 -2.1053,0.41858 -1.00354,0 -1.8932,-0.22311 -2.67012,-0.66766 l -0.95705,1.58647 c 1.08095,0.57397 2.27127,0.86454 3.57343,0.86454 1.41081,0 2.69963,-0.32551 3.86695,-0.9772 1.12435,0.88086 2.25226,1.52501 3.38377,1.93322 l 0.61237,-1.45004 c -0.81641,-0.30795 -1.70798,-0.79488 -2.67477,-1.4609 0.79491,-0.76627 1.38947,-1.66522 1.78335,-2.69647 0.39388,-1.03841 0.59066,-2.20538 0.59066,-3.5016 0,-1.5612 -0.30809,-2.96133 -0.92398,-4.20026 -0.46067,-0.94302 -1.08182,-1.72559 -1.86241,-2.34869 z"
     style="font-size:22px;font-family:Arial;text-anchor:middle;fill:#0000ff;stroke-width:1" />
  <g
     id="text3815"
     style="font-size:22px;font-family:Arial;text-anchor:middle;fill:#0000ff"
     aria-label="Z"
     transform="translate(-0.82082342,-0.34591844)">
    <path
       inkscape:connector-curvature="0"
       id="path4737"
       d="m 218.71582,219.33333 v -1.9336 l 8.06738,-10.08691 q 0.85938,-1.07422 1.63282,-1.86914 h -8.78711 v -1.8584 h 11.27929 v 1.8584 l -8.84082,10.9248 -0.95605,1.10645 h 10.05469 v 1.8584 z" />
  </g>
  <g
     id="text3817"
     style="font-size:22px;font-family:Arial;text-anchor:middle;fill:#0000ff"
     aria-label="W"
     transform="translate(-0.82082342,-0.34591844)">
    <path
       inkscape:connector-curvature="0"
       id="path4740"
       d="m 249.07031,219.33333 -4.17871,-15.74805 h 2.1377 l 2.3955,10.32324 q 0.38672,1.62207 0.66602,3.22266 0.60156,-2.52441 0.70898,-2.91113 l 2.99707,-10.63477 h 2.51368 l 2.25586,7.9707 q 0.84863,2.96485 1.22461,5.5752 0.30078,-1.49316 0.78418,-3.42676 l 2.4707,-10.11914 h 2.09472 l -4.31835,15.74805 h -2.00879 L 255.49414,207.3343 Q 255.0752,205.8304 255,205.48665 q -0.24707,1.08496 -0.46191,1.84765 l -3.34082,11.99903 z" />
  </g>
  <path
     inkscape:connector-curvature="0"
     id="text3819"
     d="m 281.17147,200.07048 v 2.20193 h 2.01951 v -2.20193 z m 4.00648,0 v 2.20193 h 2.02004 v -2.20193 z m -0.94517,2.88975 c -2.22004,0 -4.03167,0.74121 -5.43531,2.22363 -1.40367,1.47526 -2.10582,3.51955 -2.10582,6.13348 0,1.38216 0.30123,2.69261 0.90279,3.93154 0.41957,0.86415 0.97999,1.59832 1.67484,2.20814 l 1.02473,-1.69861 c -0.96817,-1.0881 -1.45365,-2.55678 -1.45365,-4.40852 0,-2.37044 0.52967,-4.06072 1.58956,-5.07049 1.06707,-1.01692 2.33847,-1.52548 3.81371,-1.52548 0.85844,0 1.64462,0.18406 2.36111,0.54622 l 0.971,-1.60921 c -1.01478,-0.48506 -2.12815,-0.7307 -3.34296,-0.7307 z m 4.89789,1.73891 -1.04333,1.72909 c 0.34422,0.38695 0.6328,0.83346 0.86143,1.34411 0.43685,0.95247 0.65526,2.06983 0.65526,3.35173 0,2.02669 -0.50855,3.59142 -1.52548,4.69429 -1.00978,1.10286 -2.29859,1.65416 -3.86696,1.65416 -0.90504,0 -1.72051,-0.18924 -2.4474,-0.56534 l -0.95496,1.58182 c 1.026,0.50924 2.16263,0.76687 3.4127,0.76687 1.36785,0 2.64293,-0.32233 3.82458,-0.96686 1.18163,-0.65169 2.09484,-1.60763 2.73936,-2.86805 0.64453,-1.26041 0.96634,-2.68903 0.96634,-4.28604 0,-1.57552 -0.30755,-2.98303 -0.92345,-4.22196 -0.42732,-0.8748 -0.99544,-1.6108 -1.69809,-2.21382 z"
     style="font-size:22px;font-family:Arial;text-anchor:middle;fill:#0000ff;stroke-width:1" />
  <g
     id="text3821"
     style="font-size:22px;font-family:Arial;text-anchor:middle;fill:#0000ff"
     aria-label="L"
     transform="translate(-0.82082342,-0.34591844)">
    <path
       inkscape:connector-curvature="0"
       id="path4743"
       d="m 310.48828,219.33333 v -15.74805 h 2.08399 v 13.88965 h 7.75585 v 1.8584 z" />
  </g>
  <g
     id="text3823"
     style="font-size:22px;font-family:Arial;text-anchor:middle;fill:#0000ff"
     aria-label="F"
     transform="translate(-0.82082342,-0.34591844)">
    <path
       inkscape:connector-curvature="0"
       id="path4746"
       d="m 340.08008,219.33333 v -15.74805 h 10.62402 v 1.8584 h -8.54004 v 4.87695 h 7.39063 v 1.8584 h -7.39063 v 7.1543 z" />
  </g>
  <path
     sodipodi:nodetypes="cccccccccccccc"
     inkscape:connector-curvature="0"
     id="text3825"
     d="m 374.95698,203.23669 c -0.76094,-0.007 -1.52617,0.0232 -2.27068,0.003 h -4.15737 v 15.74788 h 2.08359 c 0,-4.63505 0,-9.25527 0,-13.88959 1.88444,0.0274 3.7742,-0.0678 5.65393,0.0791 1.61952,0.16814 2.44597,2.02025 2.05156,3.47472 -0.21879,1.26719 -1.49686,1.98143 -2.69751,2.0283 -0.78467,0.064 -1.57189,0.0533 -2.35902,0.0486 v 1.85208 c 1.8715,0.011 3.82323,0.1144 5.45753,-0.91002 2.44433,-1.74396 2.48592,-6.0452 -0.11213,-7.67033 -1.12612,-0.63332 -2.38173,-0.75095 -3.6499,-0.76326 z"
     style="font-size:22px;font-family:Arial;text-anchor:middle;fill:#0000ff;stroke-width:1" />
  <g
     id="text3827"
     style="font-size:22px;font-family:Arial;text-anchor:middle;fill:#0000ff"
     aria-label="Z"
     transform="translate(-0.82082342,-0.34591844)">
    <path
       inkscape:connector-curvature="0"
       id="path4776"
       d="m 68.71582,252.66667 v -1.93359 l 8.067383,-10.08692 q 0.859375,-1.07421 1.632813,-1.86914 h -8.78711 v -1.8584 h 11.279297 v 1.8584 l -8.84082,10.92481 -0.956055,1.10644 h 10.054688 v 1.8584 z" />
  </g>
  <g
     id="text3829"
     style="font-size:22px;font-family:Arial;text-anchor:middle;fill:#0000ff"
     aria-label="W"
     transform="translate(-0.82082342,-0.34591844)">
    <path
       inkscape:connector-curvature="0"
       id="path4773"
       d="m 99.070312,252.66667 -4.17871,-15.74805 h 2.137695 l 2.395508,10.32325 q 0.386718,1.62207 0.666015,3.22265 0.60156,-2.52441 0.70898,-2.91113 l 2.99708,-10.63477 h 2.51367 l 2.25586,7.97071 q 0.84863,2.96484 1.22461,5.57519 0.30078,-1.49316 0.78418,-3.42675 l 2.4707,-10.11915 h 2.09473 l -4.31836,15.74805 h -2.00879 l -3.31934,-11.99902 Q 105.0752,239.16374 105,238.81999 q -0.24707,1.08496 -0.46191,1.84766 l -3.34082,11.99902 z" />
  </g>
  <g
     id="text3831"
     style="font-size:22px;font-family:Arial;text-anchor:middle;fill:#0000ff"
     aria-label="E"
     transform="translate(-0.82082342,-0.34591844)">
    <path
       inkscape:connector-curvature="0"
       id="path4770"
       d="m 129.39258,252.66667 v -15.74805 h 11.38672 v 1.8584 h -9.30274 v 4.82325 h 8.71192 v 1.84765 h -8.71192 v 5.36035 h 9.66797 v 1.8584 z" />
  </g>
  <g
     id="text3833"
     style="font-size:22px;font-family:Arial;text-anchor:middle;fill:#0000ff"
     aria-label="I"
     transform="translate(-0.82082342,-0.34591844)">
    <path
       inkscape:connector-curvature="0"
       id="path4767"
       d="m 164.00098,252.66667 v -15.74805 h 2.08398 v 15.74805 z" />
  </g>
  <g
     id="text3835"
     style="font-size:22px;font-family:Arial;text-anchor:middle;fill:#0000ff"
     aria-label="N"
     transform="translate(-0.82082342,-0.34591844)">
    <path
       inkscape:connector-curvature="0"
       id="path4764"
       d="m 188.72656,252.66667 v -15.74805 h 2.1377 l 8.27148,12.36426 v -12.36426 h 1.99805 v 15.74805 h -2.1377 l -8.27148,-12.375 v 12.375 z" />
  </g>
  <g
     id="text3837"
     style="font-size:22px;font-family:Arial;text-anchor:middle;fill:#0000ff"
     aria-label="S"
     transform="translate(-0.82082342,-0.34591844)">
    <path
       inkscape:connector-curvature="0"
       id="path4761"
       d="m 218.64062,247.6071 1.96583,-0.17187 q 0.13964,1.18164 0.64453,1.94433 0.51562,0.75196 1.58984,1.22461 1.07422,0.46192 2.41699,0.46192 1.19239,0 2.10547,-0.3545 0.91309,-0.35449 1.35352,-0.96679 0.45117,-0.62305 0.45117,-1.35352 0,-0.74121 -0.42969,-1.28906 -0.42969,-0.5586 -1.41797,-0.93457 -0.63379,-0.24707 -2.80371,-0.7627 -2.16992,-0.52636 -3.04004,-0.98828 -1.12793,-0.59082 -1.68652,-1.46094 -0.54785,-0.88086 -0.54785,-1.96582 0,-1.19238 0.67676,-2.22363 0.67675,-1.04199 1.97656,-1.5791 1.2998,-0.53711 2.88965,-0.53711 1.75097,0 3.083,0.56934 1.34278,0.55859 2.0625,1.65429 0.71973,1.09571 0.77344,2.48145 l -1.99805,0.15039 q -0.16113,-1.49317 -1.0957,-2.25586 -0.92383,-0.7627 -2.73926,-0.7627 -1.89062,0 -2.76074,0.69825 -0.85937,0.6875 -0.85937,1.66504 0,0.84863 0.6123,1.39648 0.60156,0.54785 3.13672,1.12793 2.5459,0.56934 3.49121,0.99902 1.375,0.63379 2.03027,1.61133 0.65528,0.9668 0.65528,2.23438 0,1.25683 -0.71973,2.37402 -0.71973,1.10644 -2.07324,1.72949 -1.34277,0.61231 -3.0293,0.61231 -2.13769,0 -3.58789,-0.62305 -1.43945,-0.62305 -2.2666,-1.86914 -0.81641,-1.25684 -0.85938,-2.83594 z" />
  </g>
  <g
     id="text3839"
     style="font-size:22px;font-family:Arial;text-anchor:middle;fill:#0000ff"
     aria-label="I"
     transform="translate(-0.82082342,-0.34591844)">
    <path
       inkscape:connector-curvature="0"
       id="path4758"
       d="m 254.00098,252.66667 v -15.74805 h 2.08398 v 15.74805 z" />
  </g>
  <g
     id="text3841"
     style="font-size:22px;font-family:Arial;text-anchor:middle;fill:#0000ff"
     aria-label="E"
     transform="translate(-0.82082342,-0.34591844)">
    <path
       inkscape:connector-curvature="0"
       id="path4755"
       d="m 279.39258,252.66667 v -15.74805 h 11.38672 v 1.8584 h -9.30274 v 4.82325 h 8.71192 v 1.84765 h -8.71192 v 5.36035 h 9.66797 v 1.8584 z" />
  </g>
  <path
     inkscape:connector-curvature="0"
     id="text3843"
     d="m 314.44439,236.57213 c -0.55655,-0.01 -1.11461,0.002 -1.67071,5.3e-4 v 1.85828 c 1.16353,0.001 2.34674,-0.0707 3.46543,0.28577 1.32114,0.52812 1.65145,2.40409 0.87281,3.50625 -0.71022,0.95259 -2.01904,0.95597 -3.09388,0.96687 -0.41476,2.6e-4 -0.82955,3e-5 -1.24436,0 v 1.86241 c 1.3064,0.004 2.64049,-0.10653 3.88969,0.33539 1.20748,0.44451 1.74466,1.88573 1.43401,3.07681 -0.20166,0.99065 -1.0718,1.73166 -2.05568,1.88774 -1.17813,0.1888 -2.37886,0.0816 -3.56774,0.11007 h -1.94718 c 0,-4.63186 0,-9.26028 -0.003,-13.88959 h -2.08204 v 15.74787 c 2.27105,-0.0111 4.54306,0.0238 6.81353,-0.0202 1.58824,-0.0672 3.3942,-0.49512 4.29485,-1.93373 1.09132,-1.60335 1.10934,-4.02159 -0.35555,-5.40949 -0.50559,-0.49243 -1.15231,-0.81961 -1.82573,-1.01544 1.50934,-0.65935 2.48073,-2.3783 2.14095,-4.00957 -0.27276,-1.5252 -1.49778,-2.81074 -3.01842,-3.13056 -0.67339,-0.16674 -1.35905,-0.21741 -2.04792,-0.22945 z"
     style="font-size:22px;font-family:Arial;text-anchor:middle;fill:#0000ff;stroke-width:1" />
  <g
     id="text3845"
     style="font-size:22px;font-family:Arial;text-anchor:middle;fill:#0000ff"
     aria-label="E"
     transform="translate(-0.82082342,-0.34591844)">
    <path
       inkscape:connector-curvature="0"
       id="path4752"
       d="m 339.39258,252.66667 v -15.74805 h 11.38672 v 1.8584 h -9.30274 v 4.82325 h 8.71192 v 1.84765 h -8.71192 v 5.36035 h 9.66797 v 1.8584 z" />
  </g>
  <g
     id="text3847"
     style="font-size:22px;font-family:Arial;text-anchor:middle;fill:#0000ff"
     aria-label="N"
     transform="translate(-0.82082342,-0.34591844)">
    <path
       inkscape:connector-curvature="0"
       id="path4749"
       d="m 368.72656,252.66667 v -15.74805 h 2.1377 l 8.27148,12.36426 v -12.36426 h 1.99805 v 15.74805 h -2.1377 l -8.27148,-12.375 v 12.375 z" />
  </g>
  <g
     id="text3849"
     style="font-size:22px;font-family:Arial;text-anchor:middle;fill:#0000ff"
     aria-label="K"
     transform="translate(-0.82082342,-0.34591844)">
    <path
       inkscape:connector-curvature="0"
       id="path4779"
       d="m 69.263672,286 v -15.74805 h 2.083984 v 7.80957 l 7.820313,-7.80957 h 2.825195 L 75.386719,276.63281 82.283203,286 h -2.75 l -5.607422,-7.9707 -2.578125,2.51367 V 286 Z" />
  </g>
  <path
     inkscape:connector-curvature="0"
     id="text3851"
     d="m 97.927359,269.90601 c 0,3.35519 0,6.71037 0,10.06555 0.694531,0 1.389058,0 2.083601,0 0,-2.73577 0,-5.47151 0,-8.20727 1.60887,0.0218 3.22171,-0.0566 4.82694,0.0709 1.22717,0.048 2.34524,0.7639 2.98997,1.79289 1.01681,1.51511 1.03485,3.44112 0.92112,5.19766 -0.14784,1.55917 -0.62644,3.27607 -1.96498,4.22503 -1.46786,0.93324 -3.26439,0.71326 -4.9225,0.74483 -1.31285,9.5e-4 -2.621093,-0.003 -3.934151,-0.002 0,0.61994 0,1.23989 0,1.85983 2.153131,-0.0116 4.307151,0.0248 6.459651,-0.0212 1.74366,-0.0779 3.60564,-0.61058 4.73105,-2.03264 1.6102,-1.94506 1.97999,-4.60782 1.77934,-7.05287 -0.1748,-2.21456 -1.10238,-4.54519 -3.06849,-5.74868 -1.69803,-1.04074 -3.7519,-0.87307 -5.66218,-0.89252 -1.41312,0 -2.826243,0 -4.239371,0 z"
     style="font-size:22px;font-family:Arial;text-anchor:middle;fill:#0000ff;stroke-width:1" />
  <path
     inkscape:connector-curvature="0"
     id="text3853"
     d="m 127.95964,269.90601 c 0,0.58 0,1.15996 0,1.73996 2.49719,0.007 4.99405,-0.0136 7.49127,0.0117 1.12596,0.0214 2.38633,0.5022 2.79365,1.64367 0.51223,1.29159 -0.22311,2.93193 -1.59015,3.29983 -1.39033,0.38936 -2.84729,0.21503 -4.27241,0.25479 -1.4747,4e-4 -2.94775,-8.4e-4 -4.42236,-5.3e-4 0,2.93281 0,5.86563 0,8.79843 0.69453,0 1.38906,0 2.08359,0 0,-2.33095 0,-4.6619 0,-6.99286 1.19236,0.0234 2.39145,-0.0603 3.57756,0.0749 1.45547,0.35695 2.21982,1.76795 3.02435,2.89674 0.87398,1.32967 1.71396,2.68134 2.57221,4.02119 0.87367,0 1.74735,0 2.62103,0 -1.05533,-1.62666 -2.06506,-3.28379 -3.15363,-4.88823 -0.67943,-0.93197 -1.48776,-1.82152 -2.57212,-2.27671 1.55192,-0.18516 3.22076,-0.84611 3.96936,-2.31328 1.04524,-1.97765 0.31113,-4.85098 -1.80375,-5.78477 -1.71768,-0.66529 -3.5912,-0.4432 -5.3937,-0.48488 -1.64164,0 -3.28327,0 -4.9249,0 z"
     style="font-size:22px;font-family:Arial;text-anchor:middle;fill:#0000ff;stroke-width:1" />
  <g
     id="text3855"
     style="font-size:22px;font-family:Arial;text-anchor:middle;fill:#0000ff"
     aria-label="E"
     transform="translate(-0.82082342,-0.34591844)">
    <path
       inkscape:connector-curvature="0"
       id="path4782"
       d="m 159.39258,286 v -15.74805 h 11.38672 v 1.8584 h -9.30274 v 4.82324 h 8.71192 v 1.84766 h -8.71192 v 5.36035 h 9.66797 V 286 Z" />
  </g>
  <g
     id="text3857"
     style="font-size:22px;font-family:Arial;text-anchor:middle;fill:#0000ff"
     aria-label="I"
     transform="translate(-0.82082342,-0.34591844)">
    <path
       inkscape:connector-curvature="0"
       id="path4785"
       d="m 194.00098,286 v -15.74805 h 2.08398 V 286 Z" />
  </g>
  <path
     inkscape:connector-curvature="0"
     id="text3859"
     d="m 217.95931,269.90601 c 0,0.58103 0,1.16203 0,1.74305 2.52995,0.009 5.06042,-0.0256 7.59243,0.0149 1.09552,0.0366 2.29921,0.53359 2.69302,1.63735 0.51236,1.29183 -0.22337,2.93214 -1.59067,3.29983 -1.39034,0.38936 -2.84732,0.21503 -4.27245,0.25479 -1.47363,10e-4 -2.9466,0.003 -4.42233,0.002 0,2.93195 0,5.86388 0,8.79583 0.69471,0 1.38941,0 2.08412,0 0,-2.33095 0,-4.6619 0,-6.99286 1.19218,0.0234 2.3911,-0.0603 3.57704,0.0749 1.45587,0.35648 2.21961,1.76832 3.02477,2.89674 0.87409,1.32951 1.71366,2.68134 2.57179,4.02119 0.87384,0 1.74769,0 2.62154,0 -1.05533,-1.62666 -2.06506,-3.28379 -3.15363,-4.88823 -0.67942,-0.93197 -1.48776,-1.82152 -2.57212,-2.27671 1.55193,-0.18516 3.22076,-0.84611 3.96937,-2.31328 1.04523,-1.97765 0.31112,-4.85098 -1.80376,-5.78477 -1.71769,-0.66529 -3.59121,-0.4432 -5.39373,-0.48488 -1.6418,0 -3.28359,0 -4.92539,0 z"
     style="font-size:22px;font-family:Arial;text-anchor:middle;fill:#0000ff;stroke-width:1" />
  <g
     id="text3861"
     style="font-size:22px;font-family:Arial;text-anchor:middle;fill:#0000ff"
     aria-label="H"
     transform="translate(-0.82082342,-0.34591844)">
    <path
       inkscape:connector-curvature="0"
       id="path4788"
       d="m 248.8125,286 v -15.74805 h 2.08398 v 6.4668 h 8.18555 v -6.4668 h 2.08399 V 286 h -2.08399 v -7.42285 h -8.18555 V 286 Z" />
  </g>
  <g
     id="text3863"
     style="font-size:22px;font-family:Arial;text-anchor:middle;fill:#0000ff"
     aria-label="F"
     transform="translate(-0.82082342,-0.34591844)">
    <path
       inkscape:connector-curvature="0"
       id="path4791"
       d="m 280.08008,286 v -15.74805 h 10.62402 v 1.8584 h -8.54004 v 4.87695 h 7.39063 v 1.8584 h -7.39063 V 286 Z" />
  </g>
  <g
     id="text3865"
     style="font-size:22px;font-family:Arial;text-anchor:middle;fill:#0000ff"
     aria-label="Ü"
     transform="translate(-0.82082342,-0.34591844)">
    <path
       inkscape:connector-curvature="0"
       id="path4794"
       d="m 319.08203,270.25195 h 2.08399 v 9.09864 q 0,2.37402 -0.53711,3.7705 -0.53711,1.39649 -1.94434,2.27735 -1.39648,0.87011 -3.67383,0.87011 -2.21289,0 -3.62012,-0.76269 -1.40722,-0.7627 -2.00878,-2.20215 -0.60157,-1.45019 -0.60157,-3.95312 v -9.09864 h 2.08399 v 9.08789 q 0,2.05176 0.37597,3.0293 0.38672,0.9668 1.31055,1.49316 0.93457,0.52637 2.27734,0.52637 2.29883,0 3.27637,-1.04199 0.97754,-1.04199 0.97754,-4.00684 z m -7.1543,-0.96679 v -2.20215 h 2.01954 v 2.20215 z m 4.00684,0 v -2.20215 h 2.01953 v 2.20215 z" />
  </g>
  <g
     id="text3867"
     style="font-size:22px;font-family:Arial;text-anchor:middle;fill:#0000ff"
     aria-label="N"
     transform="translate(-0.82082342,-0.34591844)">
    <path
       inkscape:connector-curvature="0"
       id="path4797"
       d="m 338.72656,286 v -15.74805 h 2.1377 l 8.27148,12.36426 v -12.36426 h 1.99805 V 286 h -2.1377 l -8.27148,-12.375 V 286 Z" />
  </g>
  <g
     id="text3869"
     style="font-size:22px;font-family:Arial;text-anchor:middle;fill:#0000ff"
     aria-label="F"
     transform="translate(-0.82082342,-0.34591844)">
    <path
       inkscape:connector-curvature="0"
       id="path4800"
       d="m 370.08008,286 v -15.74805 h 10.62402 v 1.8584 h -8.54004 v 4.87695 h 7.39063 v 1.8584 h -7.39063 V 286 Z" />
  </g>
  <g
     id="text3871"
     style="font-size:22px;font-family:Arial;text-anchor:middle;fill:#0000ff"
     aria-label="E"
     transform="translate(-0.82082342,-0.34591844)">
    <path
       inkscape:connector-curvature="0"
       id="path4830"
       d="M 69.392578,319.33334 V 303.5853 h 11.386719 v 1.8584 h -9.302735 v 4.82324 h 8.711915 v 1.84765 h -8.711915 v 5.36036 h 9.667969 v 1.85839 z" />
  </g>
  <g
     id="text3873"
     style="font-size:22px;font-family:Arial;text-anchor:middle;fill:#0000ff"
     aria-label="L"
     transform="translate(-0.82082342,-0.34591844)">
    <path
       inkscape:connector-curvature="0"
       id="path4827"
       d="M 100.48828,319.33334 V 303.5853 h 2.08399 v 13.88965 h 7.75586 v 1.85839 z" />
  </g>
  <g
     id="text3875"
     style="font-size:22px;font-family:Arial;text-anchor:middle;fill:#0000ff"
     aria-label="F"
     transform="translate(-0.82082342,-0.34591844)">
    <path
       inkscape:connector-curvature="0"
       id="path4824"
       d="M 130.08008,319.33334 V 303.5853 h 10.62402 v 1.8584 h -8.54004 v 4.87695 h 7.39063 v 1.8584 h -7.39063 v 7.15429 z" />
  </g>
  <g
     id="text3877"
     style="font-size:22px;font-family:Arial;text-anchor:middle;fill:#0000ff"
     aria-label="N"
     transform="translate(-0.82082342,-0.34591844)">
    <path
       inkscape:connector-curvature="0"
       id="path4821"
       d="M 158.72656,319.33334 V 303.5853 h 2.1377 l 8.27148,12.36425 V 303.5853 h 1.99805 v 15.74804 h -2.1377 l -8.27148,-12.375 v 12.375 z" />
  </g>
  <g
     id="text3879"
     style="font-size:22px;font-family:Arial;text-anchor:middle;fill:#0000ff"
     aria-label="E"
     transform="translate(-0.82082342,-0.34591844)">
    <path
       inkscape:connector-curvature="0"
       id="path4818"
       d="M 189.39258,319.33334 V 303.5853 h 11.38672 v 1.8584 h -9.30274 v 4.82324 h 8.71192 v 1.84765 h -8.71192 v 5.36036 h 9.66797 v 1.85839 z" />
  </g>
  <g
     id="text3881"
     style="font-size:22px;font-family:Arial;text-anchor:middle;fill:#0000ff"
     aria-label="U"
     transform="translate(-0.82082342,-0.34591844)">
    <path
       inkscape:connector-curvature="0"
       id="path4815"
       d="m 229.08203,303.5853 h 2.08399 v 9.09863 q 0,2.37402 -0.53711,3.77051 -0.53711,1.39648 -1.94434,2.27734 -1.39648,0.87012 -3.67383,0.87012 -2.21289,0 -3.62012,-0.7627 -1.40722,-0.76269 -2.00878,-2.20215 -0.60157,-1.45019 -0.60157,-3.95312 v -9.09863 h 2.08399 v 9.08789 q 0,2.05176 0.37597,3.02929 0.38672,0.9668 1.31055,1.49317 0.93457,0.52637 2.27734,0.52637 2.29883,0 3.27637,-1.042 0.97754,-1.04199 0.97754,-4.00683 z" />
  </g>
  <g
     id="text3883"
     style="font-size:22px;font-family:Arial;text-anchor:middle;fill:#0000ff"
     aria-label="N"
     transform="translate(-0.82082342,-0.34591844)">
    <path
       inkscape:connector-curvature="0"
       id="path4812"
       d="M 248.72656,319.33334 V 303.5853 h 2.1377 l 8.27148,12.36425 V 303.5853 h 1.99805 v 15.74804 h -2.1377 l -8.27148,-12.375 v 12.375 z" />
  </g>
  <g
     id="text3885"
     style="font-size:22px;font-family:Arial;text-anchor:middle;fill:#0000ff"
     aria-label="V"
     transform="translate(-0.82082342,-0.34591844)">
    <path
       inkscape:connector-curvature="0"
       id="path4809"
       d="m 283.85059,319.33334 -6.10157,-15.74804 h 2.25586 l 4.09278,11.44043 q 0.49414,1.375 0.82714,2.57812 0.36524,-1.28906 0.84864,-2.57812 l 4.2539,-11.44043 h 2.12696 l -6.16602,15.74804 z" />
  </g>
  <g
     id="text3887"
     style="font-size:22px;font-family:Arial;text-anchor:middle;fill:#0000ff"
     aria-label="I"
     transform="translate(-0.82082342,-0.34591844)">
    <path
       inkscape:connector-curvature="0"
       id="path4806"
       d="M 314.00098,319.33334 V 303.5853 h 2.08398 v 15.74804 z" />
  </g>
  <g
     id="text3889"
     style="font-size:22px;font-family:Arial;text-anchor:middle;fill:#0000ff"
     aria-label="E"
     transform="translate(-0.82082342,-0.34591844)">
    <path
       inkscape:connector-curvature="0"
       id="path4803"
       d="M 339.39258,319.33334 V 303.5853 h 11.38672 v 1.8584 h -9.30274 v 4.82324 h 8.71192 v 1.84765 h -8.71192 v 5.36036 h 9.66797 v 1.85839 z" />
  </g>
  <path
     inkscape:connector-curvature="0"
     id="text3891"
     d="m 367.95947,303.23939 c 0,0.57981 0,1.15961 0,1.73942 2.49737,0.007 4.99348,-0.0127 7.49125,0.0122 1.12596,0.0214 2.38633,0.50218 2.79366,1.64367 0.49363,1.2541 -0.17595,2.85102 -1.48701,3.2647 -1.38822,0.43553 -2.85973,0.24833 -4.2916,0.2899 -1.50376,10e-4 -3.00283,-0.002 -4.5063,-0.002 0,2.93314 0,5.86631 0,8.79946 0.69469,0 1.3894,0 2.08409,0 0,-2.33096 0,-4.66191 0,-6.99286 1.19219,0.0234 2.39112,-0.0603 3.57706,0.0749 1.45545,0.35695 2.21983,1.76794 3.02435,2.89671 0.87397,1.32969 1.71395,2.68137 2.5722,4.02122 0.87368,0 1.74736,0 2.62104,0 -1.05516,-1.62664 -2.06465,-3.28385 -3.15312,-4.88823 -0.67942,-0.93197 -1.48775,-1.82155 -2.57212,-2.27672 1.55192,-0.18502 3.22022,-0.84643 3.96899,-2.3133 1.04608,-1.97774 0.31113,-4.85138 -1.80387,-5.78528 -1.71757,-0.66497 -3.5909,-0.44254 -5.39322,-0.48434 -1.64179,0 -3.28361,0 -4.9254,0 z"
     style="font-size:22px;font-family:Arial;text-anchor:middle;fill:#0000ff;stroke-width:1" />
  <g
     id="text3893"
     style="font-size:22px;font-family:Arial;text-anchor:middle;fill:#0000ff"
     aria-label="W"
     transform="translate(-0.82082342,-0.34591844)">
    <path
       inkscape:connector-curvature="0"
       id="path4833"
       d="m 69.070312,352.66666 -4.17871,-15.74805 h 2.137695 l 2.395508,10.32324 q 0.386718,1.62207 0.666015,3.22266 0.601563,-2.52442 0.708985,-2.91113 l 2.99707,-10.63477 h 2.513672 l 2.255859,7.9707 q 0.848633,2.96485 1.22461,5.5752 0.300781,-1.49317 0.784179,-3.42676 l 2.470703,-10.11914 h 2.094727 l -4.318359,15.74805 H 78.813477 L 75.494141,340.66763 Q 75.075195,339.16373 75,338.81998 q -0.24707,1.08496 -0.461914,1.84765 l -3.34082,11.99903 z" />
  </g>
  <g
     style="font-size:22px;font-family:Arial;text-anchor:middle;fill:#0000ff"
     id="text3895"
     aria-label="A"
     transform="translate(-0.82082342,-0.34591844)">
    <path
       transform="matrix(0.26458334,0,0,0.26458334,0.82082342,0.34591844)"
       sodipodi:nodetypes="cccccccccccccc"
       inkscape:connector-curvature="0"
       id="path3983"
       d="m 388.71289,1272.0859 -22.85742,59.5196 h 8.36328 c 5.04813,-14.0193 10.55808,-29.1161 15.34765,-41.8982 1.40531,-3.7531 2.16791,-6.0527 3.45703,-9.7753 1.18543,3.221 2.07795,5.7426 3.97265,10.7499 l 6.21094,16.4825 h -12.66211 l -2.30859,6.416 h 17.4082 l 6.94141,18.0254 h 8.97265 l -24.35937,-59.5196 z"
       style="stroke-width:3.77952743" />
  </g>
  <g
     id="text3897"
     style="font-size:22px;font-family:Arial;text-anchor:middle;fill:#0000ff"
     aria-label="C"
     transform="translate(-0.82082342,-0.34591844)">
    <path
       inkscape:connector-curvature="0"
       id="path4842"
       d="m 139.98437,347.14517 2.08399,0.52637 q -0.65527,2.56738 -2.36328,3.9209 -1.69727,1.34277 -4.15723,1.34277 -2.5459,0 -4.14648,-1.03125 -1.58985,-1.04199 -2.42774,-3.00781 -0.82715,-1.96582 -0.82715,-4.22168 0,-2.45996 0.93457,-4.28613 0.94532,-1.83692 2.67481,-2.78223 1.74023,-0.95606 3.82422,-0.95606 2.36328,0 3.97461,1.20313 1.61133,1.20312 2.24511,3.38379 l -2.05175,0.4834 q -0.54785,-1.71875 -1.58985,-2.50293 -1.04199,-0.78418 -2.62109,-0.78418 -1.81543,0 -3.04004,0.87012 -1.21387,0.87011 -1.70801,2.34179 -0.49414,1.46094 -0.49414,3.01856 0,2.00879 0.58008,3.51269 0.59082,1.49317 1.82617,2.23438 1.23535,0.74121 2.67481,0.74121 1.75097,0 2.96484,-1.00977 1.21387,-1.00976 1.64355,-2.99707 z" />
  </g>
  <g
     id="text3899"
     style="font-size:22px;font-family:Arial;text-anchor:middle;fill:#0000ff"
     aria-label="H"
     transform="translate(-0.82082342,-0.34591844)">
    <path
       inkscape:connector-curvature="0"
       id="path4845"
       d="m 158.8125,352.66666 v -15.74805 h 2.08398 v 6.4668 h 8.18555 v -6.4668 h 2.08399 v 15.74805 h -2.08399 v -7.42286 h -8.18555 v 7.42286 z" />
  </g>
  <g
     id="text3901"
     style="font-size:22px;font-family:Arial;text-anchor:middle;fill:#0000ff"
     aria-label="T"
     transform="translate(-0.82082342,-0.34591844)">
    <path
       inkscape:connector-curvature="0"
       id="path4854"
       d="m 193.97949,352.66666 v -13.88965 h -5.18847 v -1.8584 h 12.48242 v 1.8584 h -5.20996 v 13.88965 z" />
  </g>
  <g
     id="text3903"
     style="font-size:22px;font-family:Arial;text-anchor:middle;fill:#0000ff"
     aria-label="Z"
     transform="translate(-0.82082342,-0.34591844)">
    <path
       inkscape:connector-curvature="0"
       id="path4857"
       d="m 218.71582,352.66666 v -1.9336 l 8.06738,-10.08691 q 0.85938,-1.07422 1.63282,-1.86914 h -8.78711 v -1.8584 h 11.27929 v 1.8584 l -8.84082,10.9248 -0.95605,1.10645 h 10.05469 v 1.8584 z" />
  </g>
  <g
     id="text3905"
     style="font-size:22px;font-family:Arial;text-anchor:middle;fill:#0000ff"
     aria-label="E"
     transform="translate(-0.82082342,-0.34591844)">
    <path
       inkscape:connector-curvature="0"
       id="path4866"
       d="m 249.39258,352.66666 v -15.74805 h 11.38672 v 1.8584 h -9.30274 v 4.82324 h 8.71192 v 1.84766 h -8.71192 v 5.36035 h 9.66797 v 1.8584 z" />
  </g>
  <g
     id="text3907"
     style="font-size:22px;font-family:Arial;text-anchor:middle;fill:#0000ff"
     aria-label="H"
     transform="translate(-0.82082342,-0.34591844)">
    <path
       inkscape:connector-curvature="0"
       id="path4869"
       d="m 278.8125,352.66666 v -15.74805 h 2.08398 v 6.4668 h 8.18555 v -6.4668 h 2.08399 v 15.74805 h -2.08399 v -7.42286 h -8.18555 v 7.42286 z" />
  </g>
  <g
     id="text3909"
     style="font-size:22px;font-family:Arial;text-anchor:middle;fill:#0000ff"
     aria-label="N"
     transform="translate(-0.82082342,-0.34591844)">
    <path
       inkscape:connector-curvature="0"
       id="path4875"
       d="m 308.72656,352.66666 v -15.74805 h 2.1377 l 8.27148,12.36426 v -12.36426 h 1.99805 v 15.74805 h -2.1377 l -8.27148,-12.375 v 12.375 z" />
  </g>
  <path
     inkscape:connector-curvature="0"
     id="text3911"
     d="m 337.95924,336.57273 c 0,0.58 0,1.15996 0,1.73996 2.53084,0.0107 5.06269,-0.0222 7.5929,0.0176 1.09546,0.0368 2.29868,0.53435 2.69253,1.63785 0.51234,1.2918 -0.22336,2.93211 -1.59067,3.2998 -1.39015,0.38939 -2.84697,0.215 -4.27191,0.25479 -1.4754,7.7e-4 -2.94762,-0.002 -4.42285,-0.001 0,2.93299 0,5.86597 0,8.79896 0.69469,0 1.3894,0 2.08409,0 0,-2.33095 0,-4.66191 0,-6.99286 1.19219,0.0234 2.39112,-0.0603 3.57706,0.0749 1.45582,0.35655 2.22023,1.76784 3.02485,2.89671 0.87397,1.32969 1.71397,2.68137 2.57223,4.02122 0.87368,0 1.74733,0 2.62101,0 -1.05534,-1.62666 -2.06504,-3.28382 -3.15362,-4.88826 -0.67942,-0.93194 -1.48775,-1.82152 -2.57212,-2.27668 1.55194,-0.18519 3.22075,-0.84614 3.96936,-2.31331 1.04537,-1.97781 0.31086,-4.85098 -1.80377,-5.78527 -1.71773,-0.66498 -3.59122,-0.4426 -5.39372,-0.48438 -1.64179,0 -3.28358,0 -4.92537,0 z"
     style="font-size:22px;font-family:Arial;text-anchor:middle;fill:#0000ff;stroke-width:1" />
  <g
     id="text3913"
     style="font-size:22px;font-family:Arial;text-anchor:middle;fill:#0000ff"
     aria-label="S"
     transform="translate(-0.82082342,-0.34591844)">
    <path
       inkscape:connector-curvature="0"
       id="path4884"
       d="m 368.64062,347.60709 1.96583,-0.17188 q 0.13964,1.18164 0.64453,1.94434 0.51562,0.75195 1.58984,1.22461 1.07422,0.46191 2.41699,0.46191 1.19239,0 2.10547,-0.35449 0.91309,-0.35449 1.35352,-0.9668 0.45117,-0.62305 0.45117,-1.35351 0,-0.74122 -0.42969,-1.28907 -0.42969,-0.55859 -1.41797,-0.93457 -0.63379,-0.24707 -2.80371,-0.76269 -2.16992,-0.52637 -3.04004,-0.98828 -1.12793,-0.59082 -1.68652,-1.46094 -0.54785,-0.88086 -0.54785,-1.96582 0,-1.19238 0.67676,-2.22363 0.67675,-1.042 1.97656,-1.57911 1.2998,-0.53711 2.88965,-0.53711 1.75097,0 3.083,0.56934 1.34278,0.55859 2.0625,1.6543 0.71973,1.0957 0.77344,2.48144 l -1.99805,0.15039 q -0.16113,-1.49316 -1.0957,-2.25586 -0.92383,-0.76269 -2.73926,-0.76269 -1.89062,0 -2.76074,0.69824 -0.85937,0.6875 -0.85937,1.66504 0,0.84863 0.6123,1.39648 0.60156,0.54786 3.13672,1.12793 2.5459,0.56934 3.49121,0.99903 1.375,0.63379 2.03027,1.61133 0.65528,0.96679 0.65528,2.23437 0,1.25684 -0.71973,2.37402 -0.71973,1.10645 -2.07324,1.7295 -1.34277,0.6123 -3.0293,0.6123 -2.13769,0 -3.58789,-0.62305 -1.43945,-0.62304 -2.2666,-1.86914 -0.81641,-1.25683 -0.85938,-2.83593 z" />
  </g>
  <path
     inkscape:connector-curvature="0"
     id="text3915"
     d="m 68.442852,369.90611 v 15.74787 h 6.004801 c 1.002604,0 1.847747,-0.086 2.535246,-0.25787 0.694663,-0.17901 1.271278,-0.44016 1.72961,-0.78393 0.458335,-0.34375 0.841343,-0.83069 1.149284,-1.46087 0.315106,-0.63738 0.47284,-1.32479 0.47284,-2.06243 0,-0.91665 -0.257972,-1.71167 -0.773597,-2.38485 -0.508458,-0.67317 -1.239123,-1.14956 -2.191597,-1.42885 0.737632,-0.36523 1.289444,-0.84532 1.654681,-1.4397 0.365233,-0.59442 0.547769,-1.22802 0.547769,-1.90119 0,-0.7233 -0.207854,-1.41441 -0.623218,-2.07325 -0.408202,-0.66601 -0.977437,-1.15666 -1.707907,-1.47175 -0.723307,-0.32226 -1.686621,-0.48318 -2.889745,-0.48318 h -1.568381 v 1.8583 h 0.891419 c 1.131511,0 1.930225,0.0754 2.39572,0.22582 0.465494,0.14322 0.823703,0.41498 1.074354,0.81595 0.25065,0.39389 0.375687,0.85233 0.375687,1.37512 0,0.55144 -0.136107,1.00989 -0.408244,1.37512 -0.264973,0.36523 -0.662226,0.62637 -1.192176,0.78393 -0.401039,0.12174 -1.063646,0.18294 -1.987476,0.18294 h -1.149284 v 1.85827 h 1.385964 c 1.002605,0 1.768618,0.0897 2.298568,0.26871 0.53711,0.17187 0.955987,0.47628 1.256771,0.91313 0.300781,0.42968 0.451133,0.93824 0.451133,1.52548 0,0.50131 -0.10341,0.94499 -0.311092,1.3317 -0.207682,0.37958 -0.473035,0.66972 -0.7953,0.87025 -0.322265,0.20052 -0.72321,0.34353 -1.203026,0.42941 -0.272137,0.0501 -0.744826,0.0755 -1.418003,0.0755 h -3.920691 v -5.41414 h 0.0026 l -0.0016,-1.85827 h -0.0011 v -4.75888 h 0.0011 l -0.0011,-1.8583 z"
     style="font-size:22px;font-family:Arial;text-anchor:middle;fill:#0000ff;stroke-width:1" />
  <g
     id="text3917"
     style="font-size:22px;font-family:Arial;text-anchor:middle;fill:#0000ff"
     aria-label="S"
     transform="translate(-0.82082342,-0.34591844)">
    <path
       inkscape:connector-curvature="0"
       id="path4836"
       d="m 98.640625,380.94043 1.965825,-0.17188 q 0.13964,1.18165 0.64453,1.94434 0.51562,0.75195 1.58984,1.22461 1.07422,0.46191 2.41699,0.46191 1.19239,0 2.10547,-0.35449 0.91309,-0.35449 1.35352,-0.9668 0.45117,-0.62304 0.45117,-1.35351 0,-0.74121 -0.42969,-1.28906 -0.42969,-0.5586 -1.41797,-0.93457 -0.63379,-0.24707 -2.80371,-0.7627 -2.16992,-0.52637 -3.04004,-0.98828 -1.12793,-0.59082 -1.686521,-1.46094 -0.547852,-0.88086 -0.547852,-1.96582 0,-1.19238 0.676758,-2.22363 0.676755,-1.04199 1.976565,-1.5791 1.2998,-0.53711 2.88965,-0.53711 1.75097,0 3.083,0.56933 1.34278,0.5586 2.0625,1.6543 0.71973,1.0957 0.77344,2.48145 l -1.99805,0.15039 q -0.16113,-1.49317 -1.0957,-2.25586 -0.92383,-0.7627 -2.73926,-0.7627 -1.89062,0 -2.76074,0.69824 -0.85937,0.6875 -0.85937,1.66504 0,0.84864 0.6123,1.39649 0.60156,0.54785 3.13672,1.12793 2.5459,0.56933 3.49121,0.99902 1.375,0.63379 2.03027,1.61133 0.65528,0.9668 0.65528,2.23437 0,1.25684 -0.71973,2.37403 -0.71973,1.10644 -2.07324,1.72949 -1.34277,0.6123 -3.0293,0.6123 -2.13769,0 -3.58789,-0.62304 -1.43945,-0.62305 -2.2666,-1.86914 -0.816406,-1.25684 -0.859375,-2.83594 z" />
  </g>
  <g
     id="text3919"
     style="font-size:22px;font-family:Arial;text-anchor:middle;fill:#0000ff"
     aria-label="E"
     transform="translate(-0.82082342,-0.34591844)">
    <path
       inkscape:connector-curvature="0"
       id="path4839"
       d="m 129.39258,386 v -15.74805 h 11.38672 v 1.8584 h -9.30274 v 4.82324 h 8.71192 v 1.84766 h -8.71192 v 5.36035 h 9.66797 V 386 Z" />
  </g>
  <g
     id="text3921"
     style="font-size:22px;font-family:Arial;text-anchor:middle;fill:#0000ff"
     aria-label="C"
     transform="translate(-0.82082342,-0.34591844)">
    <path
       inkscape:connector-curvature="0"
       id="path4848"
       d="m 169.98437,380.47852 2.08399,0.52636 q -0.65527,2.56739 -2.36328,3.9209 -1.69727,1.34277 -4.15723,1.34277 -2.5459,0 -4.14648,-1.03125 -1.58985,-1.04199 -2.42774,-3.00781 -0.82715,-1.96582 -0.82715,-4.22168 0,-2.45996 0.93457,-4.28613 0.94532,-1.83691 2.67481,-2.78223 1.74023,-0.95605 3.82422,-0.95605 2.36328,0 3.97461,1.20312 1.61133,1.20313 2.24511,3.38379 l -2.05175,0.4834 q -0.54785,-1.71875 -1.58985,-2.50293 -1.04199,-0.78418 -2.62109,-0.78418 -1.81543,0 -3.04004,0.87012 -1.21387,0.87012 -1.70801,2.3418 -0.49414,1.46093 -0.49414,3.01855 0,2.00879 0.58008,3.5127 0.59082,1.49316 1.82617,2.23437 1.23535,0.74121 2.67481,0.74121 1.75097,0 2.96484,-1.00976 1.21387,-1.00977 1.64355,-2.99707 z" />
  </g>
  <g
     id="text3923"
     style="font-size:22px;font-family:Arial;text-anchor:middle;fill:#0000ff"
     aria-label="H"
     transform="translate(-0.82082342,-0.34591844)">
    <path
       inkscape:connector-curvature="0"
       id="path4851"
       d="m 188.8125,386 v -15.74805 h 2.08398 v 6.4668 h 8.18555 v -6.4668 h 2.08399 V 386 h -2.08399 v -7.42285 h -8.18555 V 386 Z" />
  </g>
  <g
     id="text3925"
     style="font-size:22px;font-family:Arial;text-anchor:middle;fill:#0000ff"
     aria-label="S"
     transform="translate(-0.82082342,-0.34591844)">
    <path
       inkscape:connector-curvature="0"
       id="path4860"
       d="m 218.64062,380.94043 1.96583,-0.17188 q 0.13964,1.18165 0.64453,1.94434 0.51562,0.75195 1.58984,1.22461 1.07422,0.46191 2.41699,0.46191 1.19239,0 2.10547,-0.35449 0.91309,-0.35449 1.35352,-0.9668 0.45117,-0.62304 0.45117,-1.35351 0,-0.74121 -0.42969,-1.28906 -0.42969,-0.5586 -1.41797,-0.93457 -0.63379,-0.24707 -2.80371,-0.7627 -2.16992,-0.52637 -3.04004,-0.98828 -1.12793,-0.59082 -1.68652,-1.46094 -0.54785,-0.88086 -0.54785,-1.96582 0,-1.19238 0.67676,-2.22363 0.67675,-1.04199 1.97656,-1.5791 1.2998,-0.53711 2.88965,-0.53711 1.75097,0 3.083,0.56933 1.34278,0.5586 2.0625,1.6543 0.71973,1.0957 0.77344,2.48145 l -1.99805,0.15039 q -0.16113,-1.49317 -1.0957,-2.25586 -0.92383,-0.7627 -2.73926,-0.7627 -1.89062,0 -2.76074,0.69824 -0.85937,0.6875 -0.85937,1.66504 0,0.84864 0.6123,1.39649 0.60156,0.54785 3.13672,1.12793 2.5459,0.56933 3.49121,0.99902 1.375,0.63379 2.03027,1.61133 0.65528,0.9668 0.65528,2.23437 0,1.25684 -0.71973,2.37403 -0.71973,1.10644 -2.07324,1.72949 -1.34277,0.6123 -3.0293,0.6123 -2.13769,0 -3.58789,-0.62304 -1.43945,-0.62305 -2.2666,-1.86914 -0.81641,-1.25684 -0.85938,-2.83594 z" />
  </g>
  <g
     id="text3927"
     style="font-size:22px;font-family:Arial;text-anchor:middle;fill:#0000ff"
     aria-label="F"
     transform="translate(-0.82082342,-0.34591844)">
    <path
       inkscape:connector-curvature="0"
       id="path4863"
       d="m 250.08008,386 v -15.74805 h 10.62402 v 1.8584 h -8.54004 v 4.87695 h 7.39063 v 1.8584 h -7.39063 V 386 Z" />
  </g>
  <g
     id="text3929"
     style="font-size:22px;font-family:Arial;text-anchor:middle;fill:#0000ff"
     aria-label="M"
     transform="translate(-0.82082342,-0.34591844)">
    <path
       inkscape:connector-curvature="0"
       id="path4872"
       d="m 277.45898,386 v -15.74805 h 3.13672 l 3.72754,11.15039 q 0.51563,1.55762 0.75196,2.33106 0.26855,-0.85938 0.83789,-2.52442 l 3.7705,-10.95703 h 2.80371 V 386 h -2.00878 V 372.81934 L 285.90234,386 h -1.87988 l -4.55469,-13.40625 V 386 Z" />
  </g>
  <g
     id="text3931"
     style="font-size:22px;font-family:Arial;text-anchor:middle;fill:#0000ff"
     aria-label="U"
     transform="translate(-0.82082342,-0.34591844)">
    <path
       inkscape:connector-curvature="0"
       id="path4878"
       d="m 319.08203,370.25195 h 2.08399 v 9.09864 q 0,2.37402 -0.53711,3.7705 -0.53711,1.39649 -1.94434,2.27735 -1.39648,0.87011 -3.67383,0.87011 -2.21289,0 -3.62012,-0.76269 -1.40722,-0.7627 -2.00878,-2.20215 -0.60157,-1.45019 -0.60157,-3.95312 v -9.09864 h 2.08399 v 9.08789 q 0,2.05176 0.37597,3.0293 0.38672,0.9668 1.31055,1.49316 0.93457,0.52637 2.27734,0.52637 2.29883,0 3.27637,-1.04199 0.97754,-1.04199 0.97754,-4.00684 z" />
  </g>
  <g
     id="text3933"
     style="font-size:22px;font-family:Arial;text-anchor:middle;fill:#0000ff"
     aria-label="H"
     transform="translate(-0.82082342,-0.34591844)">
    <path
       inkscape:connector-curvature="0"
       id="path4881"
       d="m 338.8125,386 v -15.74805 h 2.08398 v 6.4668 h 8.18555 v -6.4668 h 2.08399 V 386 h -2.08399 v -7.42285 h -8.18555 V 386 Z" />
  </g>
  <path
     inkscape:connector-curvature="0"
     id="text3935"
     d="m 367.95947,369.90611 c 0,0.58068 0,1.16133 0,1.74201 2.53039,0.008 5.06156,-0.0243 7.59238,0.0155 1.09545,0.0368 2.29867,0.53438 2.69253,1.63785 0.49366,1.2541 -0.17598,2.85099 -1.48701,3.26469 -1.38822,0.43553 -2.85973,0.24834 -4.2916,0.28991 -1.50434,0.001 -3.00236,-0.003 -4.5063,-5.3e-4 0,2.9328 0,5.86563 0,8.79843 0.69469,0 1.3894,0 2.08409,0 0,-2.33096 0,-4.66188 0,-6.99284 1.19219,0.0234 2.39112,-0.0603 3.57706,0.0749 1.45548,0.35693 2.21981,1.76795 3.02435,2.89672 0.874,1.32966 1.71395,2.68134 2.5722,4.02119 0.87368,0 1.74736,0 2.62104,0 -1.05516,-1.62666 -2.0647,-3.28388 -3.15312,-4.88831 -0.67923,-0.93213 -1.48748,-1.82187 -2.57212,-2.27661 1.55192,-0.18508 3.22025,-0.84646 3.96899,-2.31331 1.04608,-1.97776 0.31113,-4.85137 -1.80387,-5.78527 -1.71757,-0.665 -3.5909,-0.44257 -5.39322,-0.48437 -1.64179,0 -3.28361,0 -4.9254,0 z"
     style="font-size:22px;font-family:Arial;text-anchor:middle;fill:#0000ff;stroke-width:1" />
  <circle
     style="font-size:22px;font-family:Arial;text-anchor:middle;fill:#0000ff"
     id="circle3937"
     r="2.5"
     cy="19.654081"
     cx="19.179176" />
  <circle
     style="font-size:22px;font-family:Arial;text-anchor:middle;fill:#0000ff"
     id="circle3939"
     r="2.5"
     cy="19.654081"
     cx="429.17917" />
  <circle
     style="font-size:22px;font-family:Arial;text-anchor:middle;fill:#0000ff"
     id="circle3941"
     r="2.5"
     cy="429.65408"
     cx="19.179176" />
  <circle
     style="font-size:22px;font-family:Arial;text-anchor:middle;fill:#0000ff"
     id="circle3943"
     r="2.5"
     cy="429.65408"
     cx="429.17917" />
</svg>
