<?xml version="1.0" encoding="UTF-8" standalone="no"?>
<svg
   xmlns:dc="http://purl.org/dc/elements/1.1/"
   xmlns:cc="http://creativecommons.org/ns#"
   xmlns:rdf="http://www.w3.org/1999/02/22-rdf-syntax-ns#"
   xmlns:svg="http://www.w3.org/2000/svg"
   xmlns="http://www.w3.org/2000/svg"
   xmlns:sodipodi="http://sodipodi.sourceforge.net/DTD/sodipodi-0.dtd"
   xmlns:inkscape="http://www.inkscape.org/namespaces/inkscape"
   height="450mm"
   version="1.1"
   viewBox="-2.7755576e-17 0 450 450"
   width="450mm"
   id="svg3947"
   sodipodi:docname="holes.svg"
   inkscape:version="0.92.4 (5da689c313, 2019-01-14)">
  <metadata
     id="metadata3951">
    <rdf:RDF>
      <cc:Work
         rdf:about="">
        <dc:format>image/svg+xml</dc:format>
        <dc:type
           rdf:resource="http://purl.org/dc/dcmitype/StillImage" />
        <dc:title></dc:title>
      </cc:Work>
    </rdf:RDF>
  </metadata>
  <sodipodi:namedview
     pagecolor="#ffffff"
     bordercolor="#666666"
     borderopacity="1"
     objecttolerance="10"
     gridtolerance="10"
     guidetolerance="10"
     inkscape:pageopacity="0"
     inkscape:pageshadow="2"
     inkscape:window-width="1850"
     inkscape:window-height="1016"
     id="namedview3949"
     showgrid="true"
     inkscape:zoom="8"
     inkscape:cx="1645.882"
     inkscape:cy="1622.9112"
     inkscape:window-x="70"
     inkscape:window-y="27"
     inkscape:window-maximized="1"
     inkscape:current-layer="svg3947"
     inkscape:document-units="mm"
     viewbox-x="-2.7755576e-17"
     inkscape:pagecheckerboard="true"
     borderlayer="true"
     showborder="true"
     inkscape:showpageshadow="false">
    <inkscape:grid
       type="xygrid"
       id="grid221"
       units="mm"
       visible="true"
       snapvisiblegridlinesonly="true"
       spacingx="0.1"
       spacingy="0.1" />
  </sodipodi:namedview>
  <defs
     id="defs3713">
    <inkscape:perspective
       sodipodi:type="inkscape:persp3d"
       inkscape:vp_x="0 : 225 : 1"
       inkscape:vp_y="0 : 1000 : 0"
       inkscape:vp_z="450 : 225 : 1"
       inkscape:persp3d-origin="225 : 150 : 1"
       id="perspective4119" />
  </defs>
  <rect
     height="100%"
     width="100%"
     x="0"
     y="0"
     id="rect3715"
     fill="rgb(255,255,255)" />
  <g
     style="font-size:22px;font-family:Arial;text-anchor:middle;fill:#0000ff"
     id="g3945"
     transform="translate(1.0791765,-0.34591844)">
    <g
       aria-label="E"
       id="text3717" />
    <g
       aria-label="S"
       id="text3719" />
    <g
       aria-label="K"
       id="text3721" />
    <g
       aria-label="I"
       id="text3723" />
    <g
       aria-label="S"
       id="text3725" />
    <g
       aria-label="T"
       id="text3727" />
    <g
       aria-label="L"
       id="text3729" />
    <g
       aria-label="F"
       id="text3731" />
    <g
       aria-label="Ü"
       id="text3733" />
    <g
       aria-label="N"
       id="text3735" />
    <g
       aria-label="F"
       id="text3737" />
    <g
       aria-label="Z"
       id="text3739" />
    <g
       aria-label="E"
       id="text3741" />
    <g
       aria-label="H"
       id="text3743" />
    <g
       aria-label="N"
       id="text3745" />
    <g
       aria-label="Z"
       id="text3747" />
    <g
       aria-label="W"
       id="text3749" />
    <g
       aria-label="N"
       id="text3753" />
    <g
       aria-label="Z"
       id="text3755" />
    <g
       aria-label="I"
       id="text3757" />
    <g
       aria-label="G"
       id="text3759" />
    <g
       aria-label="E"
       id="text3765" />
    <g
       aria-label="I"
       id="text3767" />
    <g
       aria-label="V"
       id="text3769" />
    <g
       aria-label="I"
       id="text3771" />
    <g
       aria-label="E"
       id="text3773" />
    <g
       aria-label="T"
       id="text3777" />
    <g
       aria-label="E"
       id="text3779" />
    <g
       aria-label="L"
       id="text3781" />
    <g
       aria-label="T"
       id="text3783" />
    <g
       aria-label="G"
       id="text3785" />
    <g
       aria-label="N"
       id="text3787" />
    <g
       aria-label="C"
       id="text3791" />
    <g
       aria-label="H"
       id="text3793" />
    <g
       aria-label="V"
       id="text3795" />
    <g
       aria-label="J"
       id="text3801" />
    <g
       aria-label="M"
       id="text3803" />
    <g
       aria-label="H"
       id="text3805" />
    <g
       aria-label="L"
       id="text3809" />
    <g
       aria-label="Z"
       id="text3815" />
    <g
       aria-label="W"
       id="text3817" />
    <g
       aria-label="L"
       id="text3821" />
    <g
       aria-label="F"
       id="text3823" />
    <g
       aria-label="Z"
       id="text3827" />
    <g
       aria-label="W"
       id="text3829" />
    <g
       aria-label="E"
       id="text3831" />
    <g
       aria-label="I"
       id="text3833" />
    <g
       aria-label="N"
       id="text3835" />
    <g
       aria-label="S"
       id="text3837" />
    <g
       aria-label="I"
       id="text3839" />
    <g
       aria-label="E"
       id="text3841" />
    <g
       aria-label="E"
       id="text3845" />
    <g
       aria-label="N"
       id="text3847" />
    <g
       aria-label="K"
       id="text3849" />
    <g
       aria-label="E"
       id="text3855" />
    <g
       aria-label="I"
       id="text3857" />
    <g
       aria-label="H"
       id="text3861" />
    <g
       aria-label="F"
       id="text3863" />
    <g
       aria-label="Ü"
       id="text3865" />
    <g
       aria-label="N"
       id="text3867" />
    <g
       aria-label="F"
       id="text3869" />
    <g
       aria-label="E"
       id="text3871" />
    <g
       aria-label="L"
       id="text3873" />
    <g
       aria-label="F"
       id="text3875" />
    <g
       aria-label="N"
       id="text3877" />
    <g
       aria-label="E"
       id="text3879" />
    <g
       aria-label="U"
       id="text3881" />
    <g
       aria-label="N"
       id="text3883" />
    <g
       aria-label="V"
       id="text3885" />
    <g
       aria-label="I"
       id="text3887" />
    <g
       aria-label="E"
       id="text3889" />
    <g
       aria-label="W"
       id="text3893" />
    <g
       aria-label="A"
       id="text3895" />
    <g
       aria-label="C"
       id="text3897" />
    <g
       aria-label="H"
       id="text3899" />
    <g
       aria-label="T"
       id="text3901" />
    <g
       aria-label="Z"
       id="text3903" />
    <g
       aria-label="E"
       id="text3905" />
    <g
       aria-label="H"
       id="text3907" />
    <g
       aria-label="N"
       id="text3909" />
    <g
       aria-label="S"
       id="text3913" />
    <g
       aria-label="S"
       id="text3917" />
    <g
       aria-label="E"
       id="text3919" />
    <g
       aria-label="C"
       id="text3921" />
    <g
       aria-label="H"
       id="text3923" />
    <g
       aria-label="S"
       id="text3925" />
    <g
       aria-label="F"
       id="text3927" />
    <g
       aria-label="M"
       id="text3929" />
    <g
       aria-label="U"
       id="text3931" />
    <g
       aria-label="H"
       id="text3933" />
  </g>
  <path
     style="fill:#0000ff;stroke-width:0.26458335"
     d="M 75.100096,365.88106 A 12,12 0 0 0 64,377.83639 12,12 0 0 0 75.100096,389.8 v -1.87741 c -0.987615,-0.10358 -1.992484,-0.38467 -2.992064,-0.87643 -9.50694,-3.3896 -6.972284,-18.84114 2.992064,-19.17813 z m 1.99988,0.0155 v 2.00038 c 2.615745,0.29573 5.101023,1.64635 6.734471,3.72536 5.376362,6.04372 0.196675,15.34324 -6.734471,16.27188 v 1.88672 A 12,12 0 0 0 88.000084,377.83639 12,12 0 0 0 77.099976,365.89656 Z"
     id="path223"
     inkscape:connector-curvature="0" />
  <path
     style="fill:#0000ff;stroke-width:0.99999994"
     d="M 75.589844 1585.7012 A 37.795276 37.795276 0 0 0 41.574219 1623.3066 A 37.795276 37.795276 0 0 0 75.589844 1660.873 L 75.589844 1653.3262 C 41.086983 1650.932 41.664857 1595.5147 75.589844 1593.2168 L 75.589844 1585.7012 z M 83.150391 1585.7402 L 83.150391 1593.334 C 84.902469 1593.556 86.637063 1593.9156 88.324219 1594.4355 C 120.24795 1602.442 112.53231 1651.4126 83.150391 1653.6641 L 83.150391 1660.9102 A 37.795276 37.795276 0 0 0 117.16602 1623.3066 A 37.795276 37.795276 0 0 0 83.150391 1585.7402 z "
     transform="scale(0.26458333)"
     id="path780" />
  <path
     style="fill:#0000ff;stroke-width:0.99999994"
     d="M 1623.3066 1585.7012 A 37.795276 37.795276 0 0 0 1589.291 1623.3066 A 37.795276 37.795276 0 0 0 1623.3066 1660.873 L 1623.3066 1653.3262 C 1588.8038 1650.932 1589.3817 1595.5147 1623.3066 1593.2168 L 1623.3066 1585.7012 z M 1630.8652 1585.7402 L 1630.8652 1593.334 C 1632.618 1593.556 1634.3532 1593.9154 1636.041 1594.4355 C 1667.9655 1602.4422 1660.2488 1651.4147 1630.8652 1653.6641 L 1630.8652 1660.9121 A 37.795276 37.795276 0 0 0 1664.8828 1623.3066 A 37.795276 37.795276 0 0 0 1630.8652 1585.7402 z "
     transform="scale(0.26458333)"
     id="path780-6" />
  <path
     style="fill:#0000ff;stroke-width:0.99999994"
     d="M 1623.3066 37.984375 A 37.795276 37.795276 0 0 0 1589.291 75.589844 A 37.795276 37.795276 0 0 0 1623.3066 113.15625 L 1623.3066 105.60938 C 1588.8038 103.21529 1589.3817 47.797869 1623.3066 45.5 L 1623.3066 37.984375 z M 1630.8652 38.023438 L 1630.8652 45.619141 C 1632.618 45.841688 1634.3532 46.200554 1636.041 46.720703 C 1667.9655 54.72727 1660.2488 103.69811 1630.8652 105.94727 L 1630.8652 113.19727 A 37.795276 37.795276 0 0 0 1664.8828 75.589844 A 37.795276 37.795276 0 0 0 1630.8652 38.023438 z "
     transform="scale(0.26458333)"
     id="path780-6-1" />
  <path
     style="fill:#0000ff;stroke-width:0.99999994"
     d="M 75.589844 37.984375 A 37.795276 37.795276 0 0 0 41.574219 75.589844 A 37.795276 37.795276 0 0 0 75.589844 113.15625 L 75.589844 105.60938 C 41.086983 103.21529 41.664857 47.797869 75.589844 45.5 L 75.589844 37.984375 z M 83.150391 38.023438 L 83.150391 45.619141 C 84.902457 45.841717 86.637074 46.200745 88.324219 46.720703 C 120.24795 54.727093 112.53231 103.6961 83.150391 105.94727 L 83.150391 113.19531 A 37.795276 37.795276 0 0 0 117.16602 75.589844 A 37.795276 37.795276 0 0 0 83.150391 38.023438 z "
     transform="scale(0.26458333)"
     id="path780-6-1-0" />
  <circle
     style="fill:#0000ff;stroke-width:0.26458332"
     id="path2768"
     cx="76.038277"
     cy="378.00717"
     r="2" />
  <circle
     r="2"
     cy="378.0434"
     cx="106.03828"
     id="circle3720"
     style="fill:#0000ff;stroke-width:0.26458332" />
  <path
     inkscape:connector-curvature="0"
     id="path3722"
     d="M 105.1001,365.88106 A 12,12 0 0 0 94,377.83639 12,12 0 0 0 105.1001,389.8 v -1.87741 c -0.98762,-0.10358 -1.99249,-0.38467 -2.99207,-0.87643 -9.506938,-3.3896 -6.972282,-18.84114 2.99207,-19.17813 z m 1.99988,0.0155 v 2.00038 c 2.61574,0.29573 5.10102,1.64635 6.73447,3.72536 5.37636,6.04372 0.19667,15.34324 -6.73447,16.27188 v 1.88672 a 12,12 0 0 0 10.9001,-11.94451 12,12 0 0 0 -10.9001,-11.93983 z"
     style="fill:#0000ff;stroke-width:0.26458335" />
  <circle
     style="fill:#0000ff;stroke-width:0.26458332"
     id="circle3724"
     cx="136.03827"
     cy="378.0434"
     r="2" />
  <path
     style="fill:#0000ff;stroke-width:0.26458335"
     d="M 135.1001,365.88106 A 12,12 0 0 0 124,377.83639 12,12 0 0 0 135.1001,389.8 v -1.87741 c -0.98762,-0.10358 -1.99249,-0.38467 -2.99207,-0.87643 -9.50694,-3.3896 -6.97228,-18.84114 2.99207,-19.17813 z m 1.99988,0.0155 v 2.00038 c 2.61574,0.29573 5.10102,1.64635 6.73447,3.72536 5.37636,6.04372 0.19667,15.34324 -6.73447,16.27188 v 1.88672 a 12,12 0 0 0 10.9001,-11.94451 12,12 0 0 0 -10.9001,-11.93983 z"
     id="path3726"
     inkscape:connector-curvature="0" />
  <circle
     r="2"
     cy="378.0434"
     cx="166.03827"
     id="circle3728"
     style="fill:#0000ff;stroke-width:0.26458332" />
  <path
     inkscape:connector-curvature="0"
     id="path3730"
     d="M 165.1001,365.88106 A 12,12 0 0 0 154,377.83639 12,12 0 0 0 165.1001,389.8 v -1.87741 c -0.98762,-0.10358 -1.99249,-0.38467 -2.99207,-0.87643 -9.50694,-3.3896 -6.97228,-18.84114 2.99207,-19.17813 z m 1.99988,0.0155 v 2.00038 c 2.61574,0.29573 5.10102,1.64635 6.73447,3.72536 5.37636,6.04372 0.19667,15.34324 -6.73447,16.27188 v 1.88672 a 12,12 0 0 0 10.9001,-11.94451 12,12 0 0 0 -10.9001,-11.93983 z"
     style="fill:#0000ff;stroke-width:0.26458335" />
  <circle
     style="fill:#0000ff;stroke-width:0.26458332"
     id="circle3732"
     cx="196.03827"
     cy="378.0434"
     r="2" />
  <path
     style="fill:#0000ff;stroke-width:0.26458335"
     d="M 195.1001,365.88106 A 12,12 0 0 0 184,377.83639 12,12 0 0 0 195.1001,389.8 v -1.87741 c -0.98762,-0.10358 -1.99249,-0.38467 -2.99207,-0.87643 -9.50694,-3.3896 -6.97228,-18.84114 2.99207,-19.17813 z m 1.99988,0.0155 v 2.00038 c 2.61574,0.29573 5.10102,1.64635 6.73447,3.72536 5.37636,6.04372 0.19667,15.34324 -6.73447,16.27188 v 1.88672 a 12,12 0 0 0 10.9001,-11.94451 12,12 0 0 0 -10.9001,-11.93983 z"
     id="path3734"
     inkscape:connector-curvature="0" />
  <circle
     r="2"
     cy="378.0434"
     cx="226.03827"
     id="circle3736"
     style="fill:#0000ff;stroke-width:0.26458332" />
  <path
     inkscape:connector-curvature="0"
     id="path3738"
     d="M 225.1001,365.88106 A 12,12 0 0 0 214,377.83639 12,12 0 0 0 225.1001,389.8 v -1.87741 c -0.98762,-0.10358 -1.99249,-0.38467 -2.99207,-0.87643 -9.50694,-3.3896 -6.97228,-18.84114 2.99207,-19.17813 z m 1.99988,0.0155 v 2.00038 c 2.61574,0.29573 5.10102,1.64635 6.73447,3.72536 5.37636,6.04372 0.19667,15.34324 -6.73447,16.27188 v 1.88672 a 12,12 0 0 0 10.9001,-11.94451 12,12 0 0 0 -10.9001,-11.93983 z"
     style="fill:#0000ff;stroke-width:0.26458335" />
  <circle
     style="fill:#0000ff;stroke-width:0.26458332"
     id="circle3740"
     cx="256.03827"
     cy="378.0434"
     r="2" />
  <path
     style="fill:#0000ff;stroke-width:0.26458335"
     d="M 255.1001,365.88106 A 12,12 0 0 0 244,377.83639 12,12 0 0 0 255.1001,389.8 v -1.87741 c -0.98762,-0.10358 -1.99249,-0.38467 -2.99207,-0.87643 -9.50694,-3.3896 -6.97228,-18.84114 2.99207,-19.17813 z m 1.99988,0.0155 v 2.00038 c 2.61574,0.29573 5.10102,1.64635 6.73447,3.72536 5.37636,6.04372 0.19667,15.34324 -6.73447,16.27188 v 1.88672 a 12,12 0 0 0 10.9001,-11.94451 12,12 0 0 0 -10.9001,-11.93983 z"
     id="path3742"
     inkscape:connector-curvature="0" />
  <circle
     r="2"
     cy="378.0434"
     cx="286.03827"
     id="circle3744"
     style="fill:#0000ff;stroke-width:0.26458332" />
  <path
     inkscape:connector-curvature="0"
     id="path3746"
     d="M 285.1001,365.88106 A 12,12 0 0 0 274,377.83639 12,12 0 0 0 285.1001,389.8 v -1.87741 c -0.98762,-0.10358 -1.99249,-0.38467 -2.99207,-0.87643 -9.50694,-3.3896 -6.97228,-18.84114 2.99207,-19.17813 z m 1.99988,0.0155 v 2.00038 c 2.61574,0.29573 5.10102,1.64635 6.73447,3.72536 5.37636,6.04372 0.19667,15.34324 -6.73447,16.27188 v 1.88672 a 12,12 0 0 0 10.9001,-11.94451 12,12 0 0 0 -10.9001,-11.93983 z"
     style="fill:#0000ff;stroke-width:0.26458335" />
  <circle
     style="fill:#0000ff;stroke-width:0.26458332"
     id="circle3748"
     cx="316.03827"
     cy="378.0434"
     r="2" />
  <path
     style="fill:#0000ff;stroke-width:0.26458335"
     d="M 315.1001,365.88106 A 12,12 0 0 0 304,377.83639 12,12 0 0 0 315.1001,389.8 v -1.87741 c -0.98762,-0.10358 -1.99249,-0.38467 -2.99207,-0.87643 -9.50694,-3.3896 -6.97228,-18.84114 2.99207,-19.17813 z m 1.99988,0.0155 v 2.00038 c 2.61574,0.29573 5.10102,1.64635 6.73447,3.72536 5.37636,6.04372 0.19667,15.34324 -6.73447,16.27188 v 1.88672 a 12,12 0 0 0 10.9001,-11.94451 12,12 0 0 0 -10.9001,-11.93983 z"
     id="path3750"
     inkscape:connector-curvature="0" />
  <circle
     r="2"
     cy="378.0434"
     cx="346.03827"
     id="circle3752"
     style="fill:#0000ff;stroke-width:0.26458332" />
  <path
     inkscape:connector-curvature="0"
     id="path3754"
     d="M 345.1001,365.88106 A 12,12 0 0 0 334,377.83639 12,12 0 0 0 345.1001,389.8 v -1.87741 c -0.98762,-0.10358 -1.99249,-0.38467 -2.99207,-0.87643 -9.50694,-3.3896 -6.97228,-18.84114 2.99207,-19.17813 z m 1.99988,0.0155 v 2.00038 c 2.61574,0.29573 5.10102,1.64635 6.73447,3.72536 5.37636,6.04372 0.19667,15.34324 -6.73447,16.27188 v 1.88672 a 12,12 0 0 0 10.9001,-11.94451 12,12 0 0 0 -10.9001,-11.93983 z"
     style="fill:#0000ff;stroke-width:0.26458335" />
  <circle
     style="fill:#0000ff;stroke-width:0.26458332"
     id="circle3756"
     cx="376.03827"
     cy="378.0434"
     r="2" />
  <path
     style="fill:#0000ff;stroke-width:0.26458335"
     d="M 375.1001,365.88106 A 12,12 0 0 0 364,377.83639 12,12 0 0 0 375.1001,389.8 v -1.87741 c -0.98762,-0.10358 -1.99249,-0.38467 -2.99207,-0.87643 -9.50694,-3.3896 -6.97228,-18.84114 2.99207,-19.17813 z m 1.99988,0.0155 v 2.00038 c 2.61574,0.29573 5.10102,1.64635 6.73447,3.72536 5.37636,6.04372 0.19667,15.34324 -6.73447,16.27188 v 1.88672 a 12,12 0 0 0 10.9001,-11.94451 12,12 0 0 0 -10.9001,-11.93983 z"
     id="path3758"
     inkscape:connector-curvature="0" />
  <path
     inkscape:connector-curvature="0"
     id="path3760"
     d="M 75.100096,332.53106 A 12,12 0 0 0 64,344.48639 12,12 0 0 0 75.100096,356.45 v -1.87741 c -0.987615,-0.10358 -1.992484,-0.38467 -2.992064,-0.87643 -9.50694,-3.3896 -6.972284,-18.84114 2.992064,-19.17813 z m 1.99988,0.0155 v 2.00038 c 2.615745,0.29573 5.101023,1.64635 6.734471,3.72536 5.376362,6.04372 0.196675,15.34324 -6.734471,16.27188 v 1.88672 A 12,12 0 0 0 88.000084,344.48639 12,12 0 0 0 77.099976,332.54656 Z"
     style="fill:#0000ff;stroke-width:0.26458335" />
  <circle
     r="2"
     cy="344.65717"
     cx="76.038277"
     id="circle3762"
     style="fill:#0000ff;stroke-width:0.26458332" />
  <circle
     style="fill:#0000ff;stroke-width:0.26458332"
     id="circle3764"
     cx="106.03828"
     cy="344.69339"
     r="2" />
  <path
     style="fill:#0000ff;stroke-width:0.26458335"
     d="M 105.1001,332.53106 A 12,12 0 0 0 94,344.48639 12,12 0 0 0 105.1001,356.45 v -1.87741 c -0.98762,-0.10358 -1.99249,-0.38467 -2.99207,-0.87643 -9.506938,-3.3896 -6.972282,-18.84114 2.99207,-19.17813 z m 1.99988,0.0155 v 2.00038 c 2.61574,0.29573 5.10102,1.64635 6.73447,3.72536 5.37636,6.04372 0.19667,15.34324 -6.73447,16.27188 v 1.88672 a 12,12 0 0 0 10.9001,-11.94451 12,12 0 0 0 -10.9001,-11.93983 z"
     id="path3766"
     inkscape:connector-curvature="0" />
  <circle
     r="2"
     cy="344.69339"
     cx="136.03827"
     id="circle3768"
     style="fill:#0000ff;stroke-width:0.26458332" />
  <path
     inkscape:connector-curvature="0"
     id="path3770"
     d="M 135.1001,332.53106 A 12,12 0 0 0 124,344.48639 12,12 0 0 0 135.1001,356.45 v -1.87741 c -0.98762,-0.10358 -1.99249,-0.38467 -2.99207,-0.87643 -9.50694,-3.3896 -6.97228,-18.84114 2.99207,-19.17813 z m 1.99988,0.0155 v 2.00038 c 2.61574,0.29573 5.10102,1.64635 6.73447,3.72536 5.37636,6.04372 0.19667,15.34324 -6.73447,16.27188 v 1.88672 a 12,12 0 0 0 10.9001,-11.94451 12,12 0 0 0 -10.9001,-11.93983 z"
     style="fill:#0000ff;stroke-width:0.26458335" />
  <circle
     style="fill:#0000ff;stroke-width:0.26458332"
     id="circle3772"
     cx="166.03827"
     cy="344.69339"
     r="2" />
  <path
     style="fill:#0000ff;stroke-width:0.26458335"
     d="M 165.1001,332.53106 A 12,12 0 0 0 154,344.48639 12,12 0 0 0 165.1001,356.45 v -1.87741 c -0.98762,-0.10358 -1.99249,-0.38467 -2.99207,-0.87643 -9.50694,-3.3896 -6.97228,-18.84114 2.99207,-19.17813 z m 1.99988,0.0155 v 2.00038 c 2.61574,0.29573 5.10102,1.64635 6.73447,3.72536 5.37636,6.04372 0.19667,15.34324 -6.73447,16.27188 v 1.88672 a 12,12 0 0 0 10.9001,-11.94451 12,12 0 0 0 -10.9001,-11.93983 z"
     id="path3774"
     inkscape:connector-curvature="0" />
  <circle
     r="2"
     cy="344.69339"
     cx="196.03827"
     id="circle3776"
     style="fill:#0000ff;stroke-width:0.26458332" />
  <path
     inkscape:connector-curvature="0"
     id="path3778"
     d="M 195.1001,332.53106 A 12,12 0 0 0 184,344.48639 12,12 0 0 0 195.1001,356.45 v -1.87741 c -0.98762,-0.10358 -1.99249,-0.38467 -2.99207,-0.87643 -9.50694,-3.3896 -6.97228,-18.84114 2.99207,-19.17813 z m 1.99988,0.0155 v 2.00038 c 2.61574,0.29573 5.10102,1.64635 6.73447,3.72536 5.37636,6.04372 0.19667,15.34324 -6.73447,16.27188 v 1.88672 a 12,12 0 0 0 10.9001,-11.94451 12,12 0 0 0 -10.9001,-11.93983 z"
     style="fill:#0000ff;stroke-width:0.26458335" />
  <circle
     style="fill:#0000ff;stroke-width:0.26458332"
     id="circle3780"
     cx="226.03827"
     cy="344.69339"
     r="2" />
  <path
     style="fill:#0000ff;stroke-width:0.26458335"
     d="M 225.1001,332.53106 A 12,12 0 0 0 214,344.48639 12,12 0 0 0 225.1001,356.45 v -1.87741 c -0.98762,-0.10358 -1.99249,-0.38467 -2.99207,-0.87643 -9.50694,-3.3896 -6.97228,-18.84114 2.99207,-19.17813 z m 1.99988,0.0155 v 2.00038 c 2.61574,0.29573 5.10102,1.64635 6.73447,3.72536 5.37636,6.04372 0.19667,15.34324 -6.73447,16.27188 v 1.88672 a 12,12 0 0 0 10.9001,-11.94451 12,12 0 0 0 -10.9001,-11.93983 z"
     id="path3782"
     inkscape:connector-curvature="0" />
  <circle
     r="2"
     cy="344.69339"
     cx="256.03827"
     id="circle3784"
     style="fill:#0000ff;stroke-width:0.26458332" />
  <path
     inkscape:connector-curvature="0"
     id="path3786"
     d="M 255.1001,332.53106 A 12,12 0 0 0 244,344.48639 12,12 0 0 0 255.1001,356.45 v -1.87741 c -0.98762,-0.10358 -1.99249,-0.38467 -2.99207,-0.87643 -9.50694,-3.3896 -6.97228,-18.84114 2.99207,-19.17813 z m 1.99988,0.0155 v 2.00038 c 2.61574,0.29573 5.10102,1.64635 6.73447,3.72536 5.37636,6.04372 0.19667,15.34324 -6.73447,16.27188 v 1.88672 a 12,12 0 0 0 10.9001,-11.94451 12,12 0 0 0 -10.9001,-11.93983 z"
     style="fill:#0000ff;stroke-width:0.26458335" />
  <circle
     style="fill:#0000ff;stroke-width:0.26458332"
     id="circle3788"
     cx="286.03827"
     cy="344.69339"
     r="2" />
  <path
     style="fill:#0000ff;stroke-width:0.26458335"
     d="M 285.1001,332.53106 A 12,12 0 0 0 274,344.48639 12,12 0 0 0 285.1001,356.45 v -1.87741 c -0.98762,-0.10358 -1.99249,-0.38467 -2.99207,-0.87643 -9.50694,-3.3896 -6.97228,-18.84114 2.99207,-19.17813 z m 1.99988,0.0155 v 2.00038 c 2.61574,0.29573 5.10102,1.64635 6.73447,3.72536 5.37636,6.04372 0.19667,15.34324 -6.73447,16.27188 v 1.88672 a 12,12 0 0 0 10.9001,-11.94451 12,12 0 0 0 -10.9001,-11.93983 z"
     id="path3790"
     inkscape:connector-curvature="0" />
  <circle
     r="2"
     cy="344.69339"
     cx="316.03827"
     id="circle3792"
     style="fill:#0000ff;stroke-width:0.26458332" />
  <path
     inkscape:connector-curvature="0"
     id="path3794"
     d="M 315.1001,332.53106 A 12,12 0 0 0 304,344.48639 12,12 0 0 0 315.1001,356.45 v -1.87741 c -0.98762,-0.10358 -1.99249,-0.38467 -2.99207,-0.87643 -9.50694,-3.3896 -6.97228,-18.84114 2.99207,-19.17813 z m 1.99988,0.0155 v 2.00038 c 2.61574,0.29573 5.10102,1.64635 6.73447,3.72536 5.37636,6.04372 0.19667,15.34324 -6.73447,16.27188 v 1.88672 a 12,12 0 0 0 10.9001,-11.94451 12,12 0 0 0 -10.9001,-11.93983 z"
     style="fill:#0000ff;stroke-width:0.26458335" />
  <circle
     style="fill:#0000ff;stroke-width:0.26458332"
     id="circle3796"
     cx="346.03827"
     cy="344.69339"
     r="2" />
  <path
     style="fill:#0000ff;stroke-width:0.26458335"
     d="M 345.1001,332.53106 A 12,12 0 0 0 334,344.48639 12,12 0 0 0 345.1001,356.45 v -1.87741 c -0.98762,-0.10358 -1.99249,-0.38467 -2.99207,-0.87643 -9.50694,-3.3896 -6.97228,-18.84114 2.99207,-19.17813 z m 1.99988,0.0155 v 2.00038 c 2.61574,0.29573 5.10102,1.64635 6.73447,3.72536 5.37636,6.04372 0.19667,15.34324 -6.73447,16.27188 v 1.88672 a 12,12 0 0 0 10.9001,-11.94451 12,12 0 0 0 -10.9001,-11.93983 z"
     id="path3798"
     inkscape:connector-curvature="0" />
  <circle
     r="2"
     cy="344.69339"
     cx="376.03827"
     id="circle3800"
     style="fill:#0000ff;stroke-width:0.26458332" />
  <path
     inkscape:connector-curvature="0"
     id="path3802"
     d="M 375.1001,332.53106 A 12,12 0 0 0 364,344.48639 12,12 0 0 0 375.1001,356.45 v -1.87741 c -0.98762,-0.10358 -1.99249,-0.38467 -2.99207,-0.87643 -9.50694,-3.3896 -6.97228,-18.84114 2.99207,-19.17813 z m 1.99988,0.0155 v 2.00038 c 2.61574,0.29573 5.10102,1.64635 6.73447,3.72536 5.37636,6.04372 0.19667,15.34324 -6.73447,16.27188 v 1.88672 a 12,12 0 0 0 10.9001,-11.94451 12,12 0 0 0 -10.9001,-11.93983 z"
     style="fill:#0000ff;stroke-width:0.26458335" />
  <path
     style="fill:#0000ff;stroke-width:0.26458335"
     d="M 75.100096,299.18106 A 12,12 0 0 0 64,311.13639 12,12 0 0 0 75.100096,323.1 v -1.87741 c -0.987615,-0.10358 -1.992484,-0.38467 -2.992064,-0.87643 -9.50694,-3.3896 -6.972284,-18.84114 2.992064,-19.17813 z m 1.99988,0.0155 v 2.00038 c 2.615745,0.29573 5.101023,1.64635 6.734471,3.72536 5.376362,6.04372 0.196675,15.34324 -6.734471,16.27188 v 1.88672 A 12,12 0 0 0 88.000084,311.13639 12,12 0 0 0 77.099976,299.19656 Z"
     id="path3804"
     inkscape:connector-curvature="0" />
  <circle
     style="fill:#0000ff;stroke-width:0.26458332"
     id="circle3806"
     cx="76.038277"
     cy="311.30716"
     r="2" />
  <circle
     r="2"
     cy="311.34338"
     cx="106.03828"
     id="circle3808"
     style="fill:#0000ff;stroke-width:0.26458332" />
  <path
     inkscape:connector-curvature="0"
     id="path3810"
     d="M 105.1001,299.18106 A 12,12 0 0 0 94,311.13639 12,12 0 0 0 105.1001,323.1 v -1.87741 c -0.98762,-0.10358 -1.99249,-0.38467 -2.99207,-0.87643 -9.506938,-3.3896 -6.972282,-18.84114 2.99207,-19.17813 z m 1.99988,0.0155 v 2.00038 c 2.61574,0.29573 5.10102,1.64635 6.73447,3.72536 5.37636,6.04372 0.19667,15.34324 -6.73447,16.27188 v 1.88672 a 12,12 0 0 0 10.9001,-11.94451 12,12 0 0 0 -10.9001,-11.93983 z"
     style="fill:#0000ff;stroke-width:0.26458335" />
  <circle
     style="fill:#0000ff;stroke-width:0.26458332"
     id="circle3812"
     cx="136.03827"
     cy="311.34338"
     r="2" />
  <path
     style="fill:#0000ff;stroke-width:0.26458335"
     d="M 135.1001,299.18106 A 12,12 0 0 0 124,311.13639 12,12 0 0 0 135.1001,323.1 v -1.87741 c -0.98762,-0.10358 -1.99249,-0.38467 -2.99207,-0.87643 -9.50694,-3.3896 -6.97228,-18.84114 2.99207,-19.17813 z m 1.99988,0.0155 v 2.00038 c 2.61574,0.29573 5.10102,1.64635 6.73447,3.72536 5.37636,6.04372 0.19667,15.34324 -6.73447,16.27188 v 1.88672 a 12,12 0 0 0 10.9001,-11.94451 12,12 0 0 0 -10.9001,-11.93983 z"
     id="path3814"
     inkscape:connector-curvature="0" />
  <circle
     r="2"
     cy="311.34338"
     cx="166.03827"
     id="circle3816"
     style="fill:#0000ff;stroke-width:0.26458332" />
  <path
     inkscape:connector-curvature="0"
     id="path3818"
     d="M 165.1001,299.18106 A 12,12 0 0 0 154,311.13639 12,12 0 0 0 165.1001,323.1 v -1.87741 c -0.98762,-0.10358 -1.99249,-0.38467 -2.99207,-0.87643 -9.50694,-3.3896 -6.97228,-18.84114 2.99207,-19.17813 z m 1.99988,0.0155 v 2.00038 c 2.61574,0.29573 5.10102,1.64635 6.73447,3.72536 5.37636,6.04372 0.19667,15.34324 -6.73447,16.27188 v 1.88672 a 12,12 0 0 0 10.9001,-11.94451 12,12 0 0 0 -10.9001,-11.93983 z"
     style="fill:#0000ff;stroke-width:0.26458335" />
  <circle
     style="fill:#0000ff;stroke-width:0.26458332"
     id="circle3820"
     cx="196.03827"
     cy="311.34338"
     r="2" />
  <path
     style="fill:#0000ff;stroke-width:0.26458335"
     d="M 195.1001,299.18106 A 12,12 0 0 0 184,311.13639 12,12 0 0 0 195.1001,323.1 v -1.87741 c -0.98762,-0.10358 -1.99249,-0.38467 -2.99207,-0.87643 -9.50694,-3.3896 -6.97228,-18.84114 2.99207,-19.17813 z m 1.99988,0.0155 v 2.00038 c 2.61574,0.29573 5.10102,1.64635 6.73447,3.72536 5.37636,6.04372 0.19667,15.34324 -6.73447,16.27188 v 1.88672 a 12,12 0 0 0 10.9001,-11.94451 12,12 0 0 0 -10.9001,-11.93983 z"
     id="path3822"
     inkscape:connector-curvature="0" />
  <circle
     r="2"
     cy="311.34338"
     cx="226.03827"
     id="circle3824"
     style="fill:#0000ff;stroke-width:0.26458332" />
  <path
     inkscape:connector-curvature="0"
     id="path3826"
     d="M 225.1001,299.18106 A 12,12 0 0 0 214,311.13639 12,12 0 0 0 225.1001,323.1 v -1.87741 c -0.98762,-0.10358 -1.99249,-0.38467 -2.99207,-0.87643 -9.50694,-3.3896 -6.97228,-18.84114 2.99207,-19.17813 z m 1.99988,0.0155 v 2.00038 c 2.61574,0.29573 5.10102,1.64635 6.73447,3.72536 5.37636,6.04372 0.19667,15.34324 -6.73447,16.27188 v 1.88672 a 12,12 0 0 0 10.9001,-11.94451 12,12 0 0 0 -10.9001,-11.93983 z"
     style="fill:#0000ff;stroke-width:0.26458335" />
  <circle
     style="fill:#0000ff;stroke-width:0.26458332"
     id="circle3828"
     cx="256.03827"
     cy="311.34338"
     r="2" />
  <path
     style="fill:#0000ff;stroke-width:0.26458335"
     d="M 255.1001,299.18106 A 12,12 0 0 0 244,311.13639 12,12 0 0 0 255.1001,323.1 v -1.87741 c -0.98762,-0.10358 -1.99249,-0.38467 -2.99207,-0.87643 -9.50694,-3.3896 -6.97228,-18.84114 2.99207,-19.17813 z m 1.99988,0.0155 v 2.00038 c 2.61574,0.29573 5.10102,1.64635 6.73447,3.72536 5.37636,6.04372 0.19667,15.34324 -6.73447,16.27188 v 1.88672 a 12,12 0 0 0 10.9001,-11.94451 12,12 0 0 0 -10.9001,-11.93983 z"
     id="path3830"
     inkscape:connector-curvature="0" />
  <circle
     r="2"
     cy="311.34338"
     cx="286.03827"
     id="circle3832"
     style="fill:#0000ff;stroke-width:0.26458332" />
  <path
     inkscape:connector-curvature="0"
     id="path3834"
     d="M 285.1001,299.18106 A 12,12 0 0 0 274,311.13639 12,12 0 0 0 285.1001,323.1 v -1.87741 c -0.98762,-0.10358 -1.99249,-0.38467 -2.99207,-0.87643 -9.50694,-3.3896 -6.97228,-18.84114 2.99207,-19.17813 z m 1.99988,0.0155 v 2.00038 c 2.61574,0.29573 5.10102,1.64635 6.73447,3.72536 5.37636,6.04372 0.19667,15.34324 -6.73447,16.27188 v 1.88672 a 12,12 0 0 0 10.9001,-11.94451 12,12 0 0 0 -10.9001,-11.93983 z"
     style="fill:#0000ff;stroke-width:0.26458335" />
  <circle
     style="fill:#0000ff;stroke-width:0.26458332"
     id="circle3836"
     cx="316.03827"
     cy="311.34338"
     r="2" />
  <path
     style="fill:#0000ff;stroke-width:0.26458335"
     d="M 315.1001,299.18106 A 12,12 0 0 0 304,311.13639 12,12 0 0 0 315.1001,323.1 v -1.87741 c -0.98762,-0.10358 -1.99249,-0.38467 -2.99207,-0.87643 -9.50694,-3.3896 -6.97228,-18.84114 2.99207,-19.17813 z m 1.99988,0.0155 v 2.00038 c 2.61574,0.29573 5.10102,1.64635 6.73447,3.72536 5.37636,6.04372 0.19667,15.34324 -6.73447,16.27188 v 1.88672 a 12,12 0 0 0 10.9001,-11.94451 12,12 0 0 0 -10.9001,-11.93983 z"
     id="path3838"
     inkscape:connector-curvature="0" />
  <circle
     r="2"
     cy="311.34338"
     cx="346.03827"
     id="circle3840"
     style="fill:#0000ff;stroke-width:0.26458332" />
  <path
     inkscape:connector-curvature="0"
     id="path3842"
     d="M 345.1001,299.18106 A 12,12 0 0 0 334,311.13639 12,12 0 0 0 345.1001,323.1 v -1.87741 c -0.98762,-0.10358 -1.99249,-0.38467 -2.99207,-0.87643 -9.50694,-3.3896 -6.97228,-18.84114 2.99207,-19.17813 z m 1.99988,0.0155 v 2.00038 c 2.61574,0.29573 5.10102,1.64635 6.73447,3.72536 5.37636,6.04372 0.19667,15.34324 -6.73447,16.27188 v 1.88672 a 12,12 0 0 0 10.9001,-11.94451 12,12 0 0 0 -10.9001,-11.93983 z"
     style="fill:#0000ff;stroke-width:0.26458335" />
  <circle
     style="fill:#0000ff;stroke-width:0.26458332"
     id="circle3844"
     cx="376.03827"
     cy="311.34338"
     r="2" />
  <path
     style="fill:#0000ff;stroke-width:0.26458335"
     d="M 375.1001,299.18106 A 12,12 0 0 0 364,311.13639 12,12 0 0 0 375.1001,323.1 v -1.87741 c -0.98762,-0.10358 -1.99249,-0.38467 -2.99207,-0.87643 -9.50694,-3.3896 -6.97228,-18.84114 2.99207,-19.17813 z m 1.99988,0.0155 v 2.00038 c 2.61574,0.29573 5.10102,1.64635 6.73447,3.72536 5.37636,6.04372 0.19667,15.34324 -6.73447,16.27188 v 1.88672 a 12,12 0 0 0 10.9001,-11.94451 12,12 0 0 0 -10.9001,-11.93983 z"
     id="path3846"
     inkscape:connector-curvature="0" />
  <path
     inkscape:connector-curvature="0"
     id="path3848"
     d="M 75.100096,265.83106 A 12,12 0 0 0 64,277.78639 12,12 0 0 0 75.100096,289.75 v -1.87741 c -0.987615,-0.10358 -1.992484,-0.38467 -2.992064,-0.87643 -9.50694,-3.3896 -6.972284,-18.84114 2.992064,-19.17813 z m 1.99988,0.0155 v 2.00038 c 2.615745,0.29573 5.101023,1.64635 6.734471,3.72536 5.376362,6.04372 0.196675,15.34324 -6.734471,16.27188 v 1.88672 A 12,12 0 0 0 88.000084,277.78639 12,12 0 0 0 77.099976,265.84656 Z"
     style="fill:#0000ff;stroke-width:0.26458335" />
  <circle
     r="2"
     cy="277.95715"
     cx="76.038277"
     id="circle3850"
     style="fill:#0000ff;stroke-width:0.26458332" />
  <circle
     style="fill:#0000ff;stroke-width:0.26458332"
     id="circle3852"
     cx="106.03828"
     cy="277.99338"
     r="2" />
  <path
     style="fill:#0000ff;stroke-width:0.26458335"
     d="M 105.1001,265.83106 A 12,12 0 0 0 94,277.78639 12,12 0 0 0 105.1001,289.75 v -1.87741 c -0.98762,-0.10358 -1.99249,-0.38467 -2.99207,-0.87643 -9.506938,-3.3896 -6.972282,-18.84114 2.99207,-19.17813 z m 1.99988,0.0155 v 2.00038 c 2.61574,0.29573 5.10102,1.64635 6.73447,3.72536 5.37636,6.04372 0.19667,15.34324 -6.73447,16.27188 v 1.88672 a 12,12 0 0 0 10.9001,-11.94451 12,12 0 0 0 -10.9001,-11.93983 z"
     id="path3854"
     inkscape:connector-curvature="0" />
  <circle
     r="2"
     cy="277.99338"
     cx="136.03827"
     id="circle3856"
     style="fill:#0000ff;stroke-width:0.26458332" />
  <path
     inkscape:connector-curvature="0"
     id="path3858"
     d="M 135.1001,265.83106 A 12,12 0 0 0 124,277.78639 12,12 0 0 0 135.1001,289.75 v -1.87741 c -0.98762,-0.10358 -1.99249,-0.38467 -2.99207,-0.87643 -9.50694,-3.3896 -6.97228,-18.84114 2.99207,-19.17813 z m 1.99988,0.0155 v 2.00038 c 2.61574,0.29573 5.10102,1.64635 6.73447,3.72536 5.37636,6.04372 0.19667,15.34324 -6.73447,16.27188 v 1.88672 a 12,12 0 0 0 10.9001,-11.94451 12,12 0 0 0 -10.9001,-11.93983 z"
     style="fill:#0000ff;stroke-width:0.26458335" />
  <circle
     style="fill:#0000ff;stroke-width:0.26458332"
     id="circle3860"
     cx="166.03827"
     cy="277.99338"
     r="2" />
  <path
     style="fill:#0000ff;stroke-width:0.26458335"
     d="M 165.1001,265.83106 A 12,12 0 0 0 154,277.78639 12,12 0 0 0 165.1001,289.75 v -1.87741 c -0.98762,-0.10358 -1.99249,-0.38467 -2.99207,-0.87643 -9.50694,-3.3896 -6.97228,-18.84114 2.99207,-19.17813 z m 1.99988,0.0155 v 2.00038 c 2.61574,0.29573 5.10102,1.64635 6.73447,3.72536 5.37636,6.04372 0.19667,15.34324 -6.73447,16.27188 v 1.88672 a 12,12 0 0 0 10.9001,-11.94451 12,12 0 0 0 -10.9001,-11.93983 z"
     id="path3862"
     inkscape:connector-curvature="0" />
  <circle
     r="2"
     cy="277.99338"
     cx="196.03827"
     id="circle3864"
     style="fill:#0000ff;stroke-width:0.26458332" />
  <path
     inkscape:connector-curvature="0"
     id="path3866"
     d="M 195.1001,265.83106 A 12,12 0 0 0 184,277.78639 12,12 0 0 0 195.1001,289.75 v -1.87741 c -0.98762,-0.10358 -1.99249,-0.38467 -2.99207,-0.87643 -9.50694,-3.3896 -6.97228,-18.84114 2.99207,-19.17813 z m 1.99988,0.0155 v 2.00038 c 2.61574,0.29573 5.10102,1.64635 6.73447,3.72536 5.37636,6.04372 0.19667,15.34324 -6.73447,16.27188 v 1.88672 a 12,12 0 0 0 10.9001,-11.94451 12,12 0 0 0 -10.9001,-11.93983 z"
     style="fill:#0000ff;stroke-width:0.26458335" />
  <circle
     style="fill:#0000ff;stroke-width:0.26458332"
     id="circle3868"
     cx="226.03827"
     cy="277.99338"
     r="2" />
  <path
     style="fill:#0000ff;stroke-width:0.26458335"
     d="M 225.1001,265.83106 A 12,12 0 0 0 214,277.78639 12,12 0 0 0 225.1001,289.75 v -1.87741 c -0.98762,-0.10358 -1.99249,-0.38467 -2.99207,-0.87643 -9.50694,-3.3896 -6.97228,-18.84114 2.99207,-19.17813 z m 1.99988,0.0155 v 2.00038 c 2.61574,0.29573 5.10102,1.64635 6.73447,3.72536 5.37636,6.04372 0.19667,15.34324 -6.73447,16.27188 v 1.88672 a 12,12 0 0 0 10.9001,-11.94451 12,12 0 0 0 -10.9001,-11.93983 z"
     id="path3870"
     inkscape:connector-curvature="0" />
  <circle
     r="2"
     cy="277.99338"
     cx="256.03827"
     id="circle3872"
     style="fill:#0000ff;stroke-width:0.26458332" />
  <path
     inkscape:connector-curvature="0"
     id="path3874"
     d="M 255.1001,265.83106 A 12,12 0 0 0 244,277.78639 12,12 0 0 0 255.1001,289.75 v -1.87741 c -0.98762,-0.10358 -1.99249,-0.38467 -2.99207,-0.87643 -9.50694,-3.3896 -6.97228,-18.84114 2.99207,-19.17813 z m 1.99988,0.0155 v 2.00038 c 2.61574,0.29573 5.10102,1.64635 6.73447,3.72536 5.37636,6.04372 0.19667,15.34324 -6.73447,16.27188 v 1.88672 a 12,12 0 0 0 10.9001,-11.94451 12,12 0 0 0 -10.9001,-11.93983 z"
     style="fill:#0000ff;stroke-width:0.26458335" />
  <circle
     style="fill:#0000ff;stroke-width:0.26458332"
     id="circle3876"
     cx="286.03827"
     cy="277.99338"
     r="2" />
  <path
     style="fill:#0000ff;stroke-width:0.26458335"
     d="M 285.1001,265.83106 A 12,12 0 0 0 274,277.78639 12,12 0 0 0 285.1001,289.75 v -1.87741 c -0.98762,-0.10358 -1.99249,-0.38467 -2.99207,-0.87643 -9.50694,-3.3896 -6.97228,-18.84114 2.99207,-19.17813 z m 1.99988,0.0155 v 2.00038 c 2.61574,0.29573 5.10102,1.64635 6.73447,3.72536 5.37636,6.04372 0.19667,15.34324 -6.73447,16.27188 v 1.88672 a 12,12 0 0 0 10.9001,-11.94451 12,12 0 0 0 -10.9001,-11.93983 z"
     id="path3878"
     inkscape:connector-curvature="0" />
  <circle
     r="2"
     cy="277.99338"
     cx="316.03827"
     id="circle3880"
     style="fill:#0000ff;stroke-width:0.26458332" />
  <path
     inkscape:connector-curvature="0"
     id="path3882"
     d="M 315.1001,265.83106 A 12,12 0 0 0 304,277.78639 12,12 0 0 0 315.1001,289.75 v -1.87741 c -0.98762,-0.10358 -1.99249,-0.38467 -2.99207,-0.87643 -9.50694,-3.3896 -6.97228,-18.84114 2.99207,-19.17813 z m 1.99988,0.0155 v 2.00038 c 2.61574,0.29573 5.10102,1.64635 6.73447,3.72536 5.37636,6.04372 0.19667,15.34324 -6.73447,16.27188 v 1.88672 a 12,12 0 0 0 10.9001,-11.94451 12,12 0 0 0 -10.9001,-11.93983 z"
     style="fill:#0000ff;stroke-width:0.26458335" />
  <circle
     style="fill:#0000ff;stroke-width:0.26458332"
     id="circle3884"
     cx="346.03827"
     cy="277.99338"
     r="2" />
  <path
     style="fill:#0000ff;stroke-width:0.26458335"
     d="M 345.1001,265.83106 A 12,12 0 0 0 334,277.78639 12,12 0 0 0 345.1001,289.75 v -1.87741 c -0.98762,-0.10358 -1.99249,-0.38467 -2.99207,-0.87643 -9.50694,-3.3896 -6.97228,-18.84114 2.99207,-19.17813 z m 1.99988,0.0155 v 2.00038 c 2.61574,0.29573 5.10102,1.64635 6.73447,3.72536 5.37636,6.04372 0.19667,15.34324 -6.73447,16.27188 v 1.88672 a 12,12 0 0 0 10.9001,-11.94451 12,12 0 0 0 -10.9001,-11.93983 z"
     id="path3886"
     inkscape:connector-curvature="0" />
  <circle
     r="2"
     cy="277.99338"
     cx="376.03827"
     id="circle3888"
     style="fill:#0000ff;stroke-width:0.26458332" />
  <path
     inkscape:connector-curvature="0"
     id="path3890"
     d="M 375.1001,265.83106 A 12,12 0 0 0 364,277.78639 12,12 0 0 0 375.1001,289.75 v -1.87741 c -0.98762,-0.10358 -1.99249,-0.38467 -2.99207,-0.87643 -9.50694,-3.3896 -6.97228,-18.84114 2.99207,-19.17813 z m 1.99988,0.0155 v 2.00038 c 2.61574,0.29573 5.10102,1.64635 6.73447,3.72536 5.37636,6.04372 0.19667,15.34324 -6.73447,16.27188 v 1.88672 a 12,12 0 0 0 10.9001,-11.94451 12,12 0 0 0 -10.9001,-11.93983 z"
     style="fill:#0000ff;stroke-width:0.26458335" />
  <path
     style="fill:#0000ff;stroke-width:0.26458335"
     d="M 75.100096,232.48106 A 12,12 0 0 0 64,244.43639 12,12 0 0 0 75.100096,256.4 v -1.87741 c -0.987615,-0.10358 -1.992484,-0.38467 -2.992064,-0.87643 -9.50694,-3.3896 -6.972284,-18.84114 2.992064,-19.17813 z m 1.99988,0.0155 v 2.00038 c 2.615745,0.29573 5.101023,1.64635 6.734471,3.72536 5.376362,6.04372 0.196675,15.34324 -6.734471,16.27188 v 1.88672 A 12,12 0 0 0 88.000084,244.43639 12,12 0 0 0 77.099976,232.49656 Z"
     id="path3892"
     inkscape:connector-curvature="0" />
  <circle
     style="fill:#0000ff;stroke-width:0.26458332"
     id="circle3894"
     cx="76.038277"
     cy="244.60715"
     r="2" />
  <circle
     r="2"
     cy="244.64337"
     cx="106.03828"
     id="circle3896"
     style="fill:#0000ff;stroke-width:0.26458332" />
  <path
     inkscape:connector-curvature="0"
     id="path3898"
     d="M 105.1001,232.48106 A 12,12 0 0 0 94,244.43639 12,12 0 0 0 105.1001,256.4 v -1.87741 c -0.98762,-0.10358 -1.99249,-0.38467 -2.99207,-0.87643 -9.506938,-3.3896 -6.972282,-18.84114 2.99207,-19.17813 z m 1.99988,0.0155 v 2.00038 c 2.61574,0.29573 5.10102,1.64635 6.73447,3.72536 5.37636,6.04372 0.19667,15.34324 -6.73447,16.27188 v 1.88672 a 12,12 0 0 0 10.9001,-11.94451 12,12 0 0 0 -10.9001,-11.93983 z"
     style="fill:#0000ff;stroke-width:0.26458335" />
  <circle
     style="fill:#0000ff;stroke-width:0.26458332"
     id="circle3900"
     cx="136.03827"
     cy="244.64337"
     r="2" />
  <path
     style="fill:#0000ff;stroke-width:0.26458335"
     d="M 135.1001,232.48106 A 12,12 0 0 0 124,244.43639 12,12 0 0 0 135.1001,256.4 v -1.87741 c -0.98762,-0.10358 -1.99249,-0.38467 -2.99207,-0.87643 -9.50694,-3.3896 -6.97228,-18.84114 2.99207,-19.17813 z m 1.99988,0.0155 v 2.00038 c 2.61574,0.29573 5.10102,1.64635 6.73447,3.72536 5.37636,6.04372 0.19667,15.34324 -6.73447,16.27188 v 1.88672 a 12,12 0 0 0 10.9001,-11.94451 12,12 0 0 0 -10.9001,-11.93983 z"
     id="path3902"
     inkscape:connector-curvature="0" />
  <circle
     r="2"
     cy="244.64337"
     cx="166.03827"
     id="circle3904"
     style="fill:#0000ff;stroke-width:0.26458332" />
  <path
     inkscape:connector-curvature="0"
     id="path3906"
     d="M 165.1001,232.48106 A 12,12 0 0 0 154,244.43639 12,12 0 0 0 165.1001,256.4 v -1.87741 c -0.98762,-0.10358 -1.99249,-0.38467 -2.99207,-0.87643 -9.50694,-3.3896 -6.97228,-18.84114 2.99207,-19.17813 z m 1.99988,0.0155 v 2.00038 c 2.61574,0.29573 5.10102,1.64635 6.73447,3.72536 5.37636,6.04372 0.19667,15.34324 -6.73447,16.27188 v 1.88672 a 12,12 0 0 0 10.9001,-11.94451 12,12 0 0 0 -10.9001,-11.93983 z"
     style="fill:#0000ff;stroke-width:0.26458335" />
  <circle
     style="fill:#0000ff;stroke-width:0.26458332"
     id="circle3908"
     cx="196.03827"
     cy="244.64337"
     r="2" />
  <path
     style="fill:#0000ff;stroke-width:0.26458335"
     d="M 195.1001,232.48106 A 12,12 0 0 0 184,244.43639 12,12 0 0 0 195.1001,256.4 v -1.87741 c -0.98762,-0.10358 -1.99249,-0.38467 -2.99207,-0.87643 -9.50694,-3.3896 -6.97228,-18.84114 2.99207,-19.17813 z m 1.99988,0.0155 v 2.00038 c 2.61574,0.29573 5.10102,1.64635 6.73447,3.72536 5.37636,6.04372 0.19667,15.34324 -6.73447,16.27188 v 1.88672 a 12,12 0 0 0 10.9001,-11.94451 12,12 0 0 0 -10.9001,-11.93983 z"
     id="path3910"
     inkscape:connector-curvature="0" />
  <circle
     r="2"
     cy="244.64337"
     cx="226.03827"
     id="circle3912"
     style="fill:#0000ff;stroke-width:0.26458332" />
  <path
     inkscape:connector-curvature="0"
     id="path3914"
     d="M 225.1001,232.48106 A 12,12 0 0 0 214,244.43639 12,12 0 0 0 225.1001,256.4 v -1.87741 c -0.98762,-0.10358 -1.99249,-0.38467 -2.99207,-0.87643 -9.50694,-3.3896 -6.97228,-18.84114 2.99207,-19.17813 z m 1.99988,0.0155 v 2.00038 c 2.61574,0.29573 5.10102,1.64635 6.73447,3.72536 5.37636,6.04372 0.19667,15.34324 -6.73447,16.27188 v 1.88672 a 12,12 0 0 0 10.9001,-11.94451 12,12 0 0 0 -10.9001,-11.93983 z"
     style="fill:#0000ff;stroke-width:0.26458335" />
  <circle
     style="fill:#0000ff;stroke-width:0.26458332"
     id="circle3916"
     cx="256.03827"
     cy="244.64337"
     r="2" />
  <path
     style="fill:#0000ff;stroke-width:0.26458335"
     d="M 255.1001,232.48106 A 12,12 0 0 0 244,244.43639 12,12 0 0 0 255.1001,256.4 v -1.87741 c -0.98762,-0.10358 -1.99249,-0.38467 -2.99207,-0.87643 -9.50694,-3.3896 -6.97228,-18.84114 2.99207,-19.17813 z m 1.99988,0.0155 v 2.00038 c 2.61574,0.29573 5.10102,1.64635 6.73447,3.72536 5.37636,6.04372 0.19667,15.34324 -6.73447,16.27188 v 1.88672 a 12,12 0 0 0 10.9001,-11.94451 12,12 0 0 0 -10.9001,-11.93983 z"
     id="path3918"
     inkscape:connector-curvature="0" />
  <circle
     r="2"
     cy="244.64337"
     cx="286.03827"
     id="circle3920"
     style="fill:#0000ff;stroke-width:0.26458332" />
  <path
     inkscape:connector-curvature="0"
     id="path3922"
     d="M 285.1001,232.48106 A 12,12 0 0 0 274,244.43639 12,12 0 0 0 285.1001,256.4 v -1.87741 c -0.98762,-0.10358 -1.99249,-0.38467 -2.99207,-0.87643 -9.50694,-3.3896 -6.97228,-18.84114 2.99207,-19.17813 z m 1.99988,0.0155 v 2.00038 c 2.61574,0.29573 5.10102,1.64635 6.73447,3.72536 5.37636,6.04372 0.19667,15.34324 -6.73447,16.27188 v 1.88672 a 12,12 0 0 0 10.9001,-11.94451 12,12 0 0 0 -10.9001,-11.93983 z"
     style="fill:#0000ff;stroke-width:0.26458335" />
  <circle
     style="fill:#0000ff;stroke-width:0.26458332"
     id="circle3924"
     cx="316.03827"
     cy="244.64337"
     r="2" />
  <path
     style="fill:#0000ff;stroke-width:0.26458335"
     d="M 315.1001,232.48106 A 12,12 0 0 0 304,244.43639 12,12 0 0 0 315.1001,256.4 v -1.87741 c -0.98762,-0.10358 -1.99249,-0.38467 -2.99207,-0.87643 -9.50694,-3.3896 -6.97228,-18.84114 2.99207,-19.17813 z m 1.99988,0.0155 v 2.00038 c 2.61574,0.29573 5.10102,1.64635 6.73447,3.72536 5.37636,6.04372 0.19667,15.34324 -6.73447,16.27188 v 1.88672 a 12,12 0 0 0 10.9001,-11.94451 12,12 0 0 0 -10.9001,-11.93983 z"
     id="path3926"
     inkscape:connector-curvature="0" />
  <circle
     r="2"
     cy="244.64337"
     cx="346.03827"
     id="circle3928"
     style="fill:#0000ff;stroke-width:0.26458332" />
  <path
     inkscape:connector-curvature="0"
     id="path3930"
     d="M 345.1001,232.48106 A 12,12 0 0 0 334,244.43639 12,12 0 0 0 345.1001,256.4 v -1.87741 c -0.98762,-0.10358 -1.99249,-0.38467 -2.99207,-0.87643 -9.50694,-3.3896 -6.97228,-18.84114 2.99207,-19.17813 z m 1.99988,0.0155 v 2.00038 c 2.61574,0.29573 5.10102,1.64635 6.73447,3.72536 5.37636,6.04372 0.19667,15.34324 -6.73447,16.27188 v 1.88672 a 12,12 0 0 0 10.9001,-11.94451 12,12 0 0 0 -10.9001,-11.93983 z"
     style="fill:#0000ff;stroke-width:0.26458335" />
  <circle
     style="fill:#0000ff;stroke-width:0.26458332"
     id="circle3932"
     cx="376.03827"
     cy="244.64337"
     r="2" />
  <path
     style="fill:#0000ff;stroke-width:0.26458335"
     d="M 375.1001,232.48106 A 12,12 0 0 0 364,244.43639 12,12 0 0 0 375.1001,256.4 v -1.87741 c -0.98762,-0.10358 -1.99249,-0.38467 -2.99207,-0.87643 -9.50694,-3.3896 -6.97228,-18.84114 2.99207,-19.17813 z m 1.99988,0.0155 v 2.00038 c 2.61574,0.29573 5.10102,1.64635 6.73447,3.72536 5.37636,6.04372 0.19667,15.34324 -6.73447,16.27188 v 1.88672 a 12,12 0 0 0 10.9001,-11.94451 12,12 0 0 0 -10.9001,-11.93983 z"
     id="path3934"
     inkscape:connector-curvature="0" />
  <path
     inkscape:connector-curvature="0"
     id="path3936"
     d="M 75.100096,199.13106 A 12,12 0 0 0 64,211.08639 12,12 0 0 0 75.100096,223.05 v -1.87741 c -0.987615,-0.10358 -1.992484,-0.38467 -2.992064,-0.87643 -9.50694,-3.3896 -6.972284,-18.84114 2.992064,-19.17813 z m 1.99988,0.0155 v 2.00038 c 2.615745,0.29573 5.101023,1.64635 6.734471,3.72536 5.376362,6.04372 0.196675,15.34324 -6.734471,16.27188 v 1.88672 A 12,12 0 0 0 88.000084,211.08639 12,12 0 0 0 77.099976,199.14656 Z"
     style="fill:#0000ff;stroke-width:0.26458335" />
  <circle
     r="2"
     cy="211.25714"
     cx="76.038277"
     id="circle3938"
     style="fill:#0000ff;stroke-width:0.26458332" />
  <circle
     style="fill:#0000ff;stroke-width:0.26458332"
     id="circle3940"
     cx="106.03828"
     cy="211.29337"
     r="2" />
  <path
     style="fill:#0000ff;stroke-width:0.26458335"
     d="M 105.1001,199.13106 A 12,12 0 0 0 94,211.08639 12,12 0 0 0 105.1001,223.05 v -1.87741 c -0.98762,-0.10358 -1.99249,-0.38467 -2.99207,-0.87643 -9.506938,-3.3896 -6.972282,-18.84114 2.99207,-19.17813 z m 1.99988,0.0155 v 2.00038 c 2.61574,0.29573 5.10102,1.64635 6.73447,3.72536 5.37636,6.04372 0.19667,15.34324 -6.73447,16.27188 v 1.88672 a 12,12 0 0 0 10.9001,-11.94451 12,12 0 0 0 -10.9001,-11.93983 z"
     id="path3942"
     inkscape:connector-curvature="0" />
  <circle
     r="2"
     cy="211.29337"
     cx="136.03827"
     id="circle3944"
     style="fill:#0000ff;stroke-width:0.26458332" />
  <path
     inkscape:connector-curvature="0"
     id="path3946"
     d="M 135.1001,199.13106 A 12,12 0 0 0 124,211.08639 12,12 0 0 0 135.1001,223.05 v -1.87741 c -0.98762,-0.10358 -1.99249,-0.38467 -2.99207,-0.87643 -9.50694,-3.3896 -6.97228,-18.84114 2.99207,-19.17813 z m 1.99988,0.0155 v 2.00038 c 2.61574,0.29573 5.10102,1.64635 6.73447,3.72536 5.37636,6.04372 0.19667,15.34324 -6.73447,16.27188 v 1.88672 a 12,12 0 0 0 10.9001,-11.94451 12,12 0 0 0 -10.9001,-11.93983 z"
     style="fill:#0000ff;stroke-width:0.26458335" />
  <circle
     style="fill:#0000ff;stroke-width:0.26458332"
     id="circle3948"
     cx="166.03827"
     cy="211.29337"
     r="2" />
  <path
     style="fill:#0000ff;stroke-width:0.26458335"
     d="M 165.1001,199.13106 A 12,12 0 0 0 154,211.08639 12,12 0 0 0 165.1001,223.05 v -1.87741 c -0.98762,-0.10358 -1.99249,-0.38467 -2.99207,-0.87643 -9.50694,-3.3896 -6.97228,-18.84114 2.99207,-19.17813 z m 1.99988,0.0155 v 2.00038 c 2.61574,0.29573 5.10102,1.64635 6.73447,3.72536 5.37636,6.04372 0.19667,15.34324 -6.73447,16.27188 v 1.88672 a 12,12 0 0 0 10.9001,-11.94451 12,12 0 0 0 -10.9001,-11.93983 z"
     id="path3950"
     inkscape:connector-curvature="0" />
  <circle
     r="2"
     cy="211.29337"
     cx="196.03827"
     id="circle3952"
     style="fill:#0000ff;stroke-width:0.26458332" />
  <path
     inkscape:connector-curvature="0"
     id="path3954"
     d="M 195.1001,199.13106 A 12,12 0 0 0 184,211.08639 12,12 0 0 0 195.1001,223.05 v -1.87741 c -0.98762,-0.10358 -1.99249,-0.38467 -2.99207,-0.87643 -9.50694,-3.3896 -6.97228,-18.84114 2.99207,-19.17813 z m 1.99988,0.0155 v 2.00038 c 2.61574,0.29573 5.10102,1.64635 6.73447,3.72536 5.37636,6.04372 0.19667,15.34324 -6.73447,16.27188 v 1.88672 a 12,12 0 0 0 10.9001,-11.94451 12,12 0 0 0 -10.9001,-11.93983 z"
     style="fill:#0000ff;stroke-width:0.26458335" />
  <circle
     style="fill:#0000ff;stroke-width:0.26458332"
     id="circle3956"
     cx="226.03827"
     cy="211.29337"
     r="2" />
  <path
     style="fill:#0000ff;stroke-width:0.26458335"
     d="M 225.1001,199.13106 A 12,12 0 0 0 214,211.08639 12,12 0 0 0 225.1001,223.05 v -1.87741 c -0.98762,-0.10358 -1.99249,-0.38467 -2.99207,-0.87643 -9.50694,-3.3896 -6.97228,-18.84114 2.99207,-19.17813 z m 1.99988,0.0155 v 2.00038 c 2.61574,0.29573 5.10102,1.64635 6.73447,3.72536 5.37636,6.04372 0.19667,15.34324 -6.73447,16.27188 v 1.88672 a 12,12 0 0 0 10.9001,-11.94451 12,12 0 0 0 -10.9001,-11.93983 z"
     id="path3958"
     inkscape:connector-curvature="0" />
  <circle
     r="2"
     cy="211.29337"
     cx="256.03827"
     id="circle3960"
     style="fill:#0000ff;stroke-width:0.26458332" />
  <path
     inkscape:connector-curvature="0"
     id="path3962"
     d="M 255.1001,199.13106 A 12,12 0 0 0 244,211.08639 12,12 0 0 0 255.1001,223.05 v -1.87741 c -0.98762,-0.10358 -1.99249,-0.38467 -2.99207,-0.87643 -9.50694,-3.3896 -6.97228,-18.84114 2.99207,-19.17813 z m 1.99988,0.0155 v 2.00038 c 2.61574,0.29573 5.10102,1.64635 6.73447,3.72536 5.37636,6.04372 0.19667,15.34324 -6.73447,16.27188 v 1.88672 a 12,12 0 0 0 10.9001,-11.94451 12,12 0 0 0 -10.9001,-11.93983 z"
     style="fill:#0000ff;stroke-width:0.26458335" />
  <circle
     style="fill:#0000ff;stroke-width:0.26458332"
     id="circle3964"
     cx="286.03827"
     cy="211.29337"
     r="2" />
  <path
     style="fill:#0000ff;stroke-width:0.26458335"
     d="M 285.1001,199.13106 A 12,12 0 0 0 274,211.08639 12,12 0 0 0 285.1001,223.05 v -1.87741 c -0.98762,-0.10358 -1.99249,-0.38467 -2.99207,-0.87643 -9.50694,-3.3896 -6.97228,-18.84114 2.99207,-19.17813 z m 1.99988,0.0155 v 2.00038 c 2.61574,0.29573 5.10102,1.64635 6.73447,3.72536 5.37636,6.04372 0.19667,15.34324 -6.73447,16.27188 v 1.88672 a 12,12 0 0 0 10.9001,-11.94451 12,12 0 0 0 -10.9001,-11.93983 z"
     id="path3966"
     inkscape:connector-curvature="0" />
  <circle
     r="2"
     cy="211.29337"
     cx="316.03827"
     id="circle3968"
     style="fill:#0000ff;stroke-width:0.26458332" />
  <path
     inkscape:connector-curvature="0"
     id="path3970"
     d="M 315.1001,199.13106 A 12,12 0 0 0 304,211.08639 12,12 0 0 0 315.1001,223.05 v -1.87741 c -0.98762,-0.10358 -1.99249,-0.38467 -2.99207,-0.87643 -9.50694,-3.3896 -6.97228,-18.84114 2.99207,-19.17813 z m 1.99988,0.0155 v 2.00038 c 2.61574,0.29573 5.10102,1.64635 6.73447,3.72536 5.37636,6.04372 0.19667,15.34324 -6.73447,16.27188 v 1.88672 a 12,12 0 0 0 10.9001,-11.94451 12,12 0 0 0 -10.9001,-11.93983 z"
     style="fill:#0000ff;stroke-width:0.26458335" />
  <circle
     style="fill:#0000ff;stroke-width:0.26458332"
     id="circle3972"
     cx="346.03827"
     cy="211.29337"
     r="2" />
  <path
     style="fill:#0000ff;stroke-width:0.26458335"
     d="M 345.1001,199.13106 A 12,12 0 0 0 334,211.08639 12,12 0 0 0 345.1001,223.05 v -1.87741 c -0.98762,-0.10358 -1.99249,-0.38467 -2.99207,-0.87643 -9.50694,-3.3896 -6.97228,-18.84114 2.99207,-19.17813 z m 1.99988,0.0155 v 2.00038 c 2.61574,0.29573 5.10102,1.64635 6.73447,3.72536 5.37636,6.04372 0.19667,15.34324 -6.73447,16.27188 v 1.88672 a 12,12 0 0 0 10.9001,-11.94451 12,12 0 0 0 -10.9001,-11.93983 z"
     id="path3974"
     inkscape:connector-curvature="0" />
  <circle
     r="2"
     cy="211.29337"
     cx="376.03827"
     id="circle3976"
     style="fill:#0000ff;stroke-width:0.26458332" />
  <path
     inkscape:connector-curvature="0"
     id="path3978"
     d="M 375.1001,199.13106 A 12,12 0 0 0 364,211.08639 12,12 0 0 0 375.1001,223.05 v -1.87741 c -0.98762,-0.10358 -1.99249,-0.38467 -2.99207,-0.87643 -9.50694,-3.3896 -6.97228,-18.84114 2.99207,-19.17813 z m 1.99988,0.0155 v 2.00038 c 2.61574,0.29573 5.10102,1.64635 6.73447,3.72536 5.37636,6.04372 0.19667,15.34324 -6.73447,16.27188 v 1.88672 a 12,12 0 0 0 10.9001,-11.94451 12,12 0 0 0 -10.9001,-11.93983 z"
     style="fill:#0000ff;stroke-width:0.26458335" />
  <path
     style="fill:#0000ff;stroke-width:0.26458335"
     d="M 75.100096,165.78106 A 12,12 0 0 0 64,177.73639 12,12 0 0 0 75.100096,189.7 v -1.87741 c -0.987615,-0.10358 -1.992484,-0.38467 -2.992064,-0.87643 -9.50694,-3.3896 -6.972284,-18.84114 2.992064,-19.17813 z m 1.99988,0.0155 v 2.00038 c 2.615745,0.29573 5.101023,1.64635 6.734471,3.72536 5.376362,6.04372 0.196675,15.34324 -6.734471,16.27188 v 1.88672 A 12,12 0 0 0 88.000084,177.73639 12,12 0 0 0 77.099976,165.79656 Z"
     id="path3980"
     inkscape:connector-curvature="0" />
  <circle
     style="fill:#0000ff;stroke-width:0.26458332"
     id="circle3982"
     cx="76.038277"
     cy="177.90714"
     r="2" />
  <circle
     r="2"
     cy="177.94336"
     cx="106.03828"
     id="circle3984"
     style="fill:#0000ff;stroke-width:0.26458332" />
  <path
     inkscape:connector-curvature="0"
     id="path3986"
     d="M 105.1001,165.78106 A 12,12 0 0 0 94,177.73639 12,12 0 0 0 105.1001,189.7 v -1.87741 c -0.98762,-0.10358 -1.99249,-0.38467 -2.99207,-0.87643 -9.506938,-3.3896 -6.972282,-18.84114 2.99207,-19.17813 z m 1.99988,0.0155 v 2.00038 c 2.61574,0.29573 5.10102,1.64635 6.73447,3.72536 5.37636,6.04372 0.19667,15.34324 -6.73447,16.27188 v 1.88672 a 12,12 0 0 0 10.9001,-11.94451 12,12 0 0 0 -10.9001,-11.93983 z"
     style="fill:#0000ff;stroke-width:0.26458335" />
  <circle
     style="fill:#0000ff;stroke-width:0.26458332"
     id="circle3988"
     cx="136.03827"
     cy="177.94336"
     r="2" />
  <path
     style="fill:#0000ff;stroke-width:0.26458335"
     d="M 135.1001,165.78106 A 12,12 0 0 0 124,177.73639 12,12 0 0 0 135.1001,189.7 v -1.87741 c -0.98762,-0.10358 -1.99249,-0.38467 -2.99207,-0.87643 -9.50694,-3.3896 -6.97228,-18.84114 2.99207,-19.17813 z m 1.99988,0.0155 v 2.00038 c 2.61574,0.29573 5.10102,1.64635 6.73447,3.72536 5.37636,6.04372 0.19667,15.34324 -6.73447,16.27188 v 1.88672 a 12,12 0 0 0 10.9001,-11.94451 12,12 0 0 0 -10.9001,-11.93983 z"
     id="path3990"
     inkscape:connector-curvature="0" />
  <circle
     r="2"
     cy="177.94336"
     cx="166.03827"
     id="circle3992"
     style="fill:#0000ff;stroke-width:0.26458332" />
  <path
     inkscape:connector-curvature="0"
     id="path3994"
     d="M 165.1001,165.78106 A 12,12 0 0 0 154,177.73639 12,12 0 0 0 165.1001,189.7 v -1.87741 c -0.98762,-0.10358 -1.99249,-0.38467 -2.99207,-0.87643 -9.50694,-3.3896 -6.97228,-18.84114 2.99207,-19.17813 z m 1.99988,0.0155 v 2.00038 c 2.61574,0.29573 5.10102,1.64635 6.73447,3.72536 5.37636,6.04372 0.19667,15.34324 -6.73447,16.27188 v 1.88672 a 12,12 0 0 0 10.9001,-11.94451 12,12 0 0 0 -10.9001,-11.93983 z"
     style="fill:#0000ff;stroke-width:0.26458335" />
  <circle
     style="fill:#0000ff;stroke-width:0.26458332"
     id="circle3996"
     cx="196.03827"
     cy="177.94336"
     r="2" />
  <path
     style="fill:#0000ff;stroke-width:0.26458335"
     d="M 195.1001,165.78106 A 12,12 0 0 0 184,177.73639 12,12 0 0 0 195.1001,189.7 v -1.87741 c -0.98762,-0.10358 -1.99249,-0.38467 -2.99207,-0.87643 -9.50694,-3.3896 -6.97228,-18.84114 2.99207,-19.17813 z m 1.99988,0.0155 v 2.00038 c 2.61574,0.29573 5.10102,1.64635 6.73447,3.72536 5.37636,6.04372 0.19667,15.34324 -6.73447,16.27188 v 1.88672 a 12,12 0 0 0 10.9001,-11.94451 12,12 0 0 0 -10.9001,-11.93983 z"
     id="path3998"
     inkscape:connector-curvature="0" />
  <circle
     r="2"
     cy="177.94336"
     cx="226.03827"
     id="circle4000"
     style="fill:#0000ff;stroke-width:0.26458332" />
  <path
     inkscape:connector-curvature="0"
     id="path4002"
     d="M 225.1001,165.78106 A 12,12 0 0 0 214,177.73639 12,12 0 0 0 225.1001,189.7 v -1.87741 c -0.98762,-0.10358 -1.99249,-0.38467 -2.99207,-0.87643 -9.50694,-3.3896 -6.97228,-18.84114 2.99207,-19.17813 z m 1.99988,0.0155 v 2.00038 c 2.61574,0.29573 5.10102,1.64635 6.73447,3.72536 5.37636,6.04372 0.19667,15.34324 -6.73447,16.27188 v 1.88672 a 12,12 0 0 0 10.9001,-11.94451 12,12 0 0 0 -10.9001,-11.93983 z"
     style="fill:#0000ff;stroke-width:0.26458335" />
  <circle
     style="fill:#0000ff;stroke-width:0.26458332"
     id="circle4004"
     cx="256.03827"
     cy="177.94336"
     r="2" />
  <path
     style="fill:#0000ff;stroke-width:0.26458335"
     d="M 255.1001,165.78106 A 12,12 0 0 0 244,177.73639 12,12 0 0 0 255.1001,189.7 v -1.87741 c -0.98762,-0.10358 -1.99249,-0.38467 -2.99207,-0.87643 -9.50694,-3.3896 -6.97228,-18.84114 2.99207,-19.17813 z m 1.99988,0.0155 v 2.00038 c 2.61574,0.29573 5.10102,1.64635 6.73447,3.72536 5.37636,6.04372 0.19667,15.34324 -6.73447,16.27188 v 1.88672 a 12,12 0 0 0 10.9001,-11.94451 12,12 0 0 0 -10.9001,-11.93983 z"
     id="path4006"
     inkscape:connector-curvature="0" />
  <circle
     r="2"
     cy="177.94336"
     cx="286.03827"
     id="circle4008"
     style="fill:#0000ff;stroke-width:0.26458332" />
  <path
     inkscape:connector-curvature="0"
     id="path4010"
     d="M 285.1001,165.78106 A 12,12 0 0 0 274,177.73639 12,12 0 0 0 285.1001,189.7 v -1.87741 c -0.98762,-0.10358 -1.99249,-0.38467 -2.99207,-0.87643 -9.50694,-3.3896 -6.97228,-18.84114 2.99207,-19.17813 z m 1.99988,0.0155 v 2.00038 c 2.61574,0.29573 5.10102,1.64635 6.73447,3.72536 5.37636,6.04372 0.19667,15.34324 -6.73447,16.27188 v 1.88672 a 12,12 0 0 0 10.9001,-11.94451 12,12 0 0 0 -10.9001,-11.93983 z"
     style="fill:#0000ff;stroke-width:0.26458335" />
  <circle
     style="fill:#0000ff;stroke-width:0.26458332"
     id="circle4012"
     cx="316.03827"
     cy="177.94336"
     r="2" />
  <path
     style="fill:#0000ff;stroke-width:0.26458335"
     d="M 315.1001,165.78106 A 12,12 0 0 0 304,177.73639 12,12 0 0 0 315.1001,189.7 v -1.87741 c -0.98762,-0.10358 -1.99249,-0.38467 -2.99207,-0.87643 -9.50694,-3.3896 -6.97228,-18.84114 2.99207,-19.17813 z m 1.99988,0.0155 v 2.00038 c 2.61574,0.29573 5.10102,1.64635 6.73447,3.72536 5.37636,6.04372 0.19667,15.34324 -6.73447,16.27188 v 1.88672 a 12,12 0 0 0 10.9001,-11.94451 12,12 0 0 0 -10.9001,-11.93983 z"
     id="path4014"
     inkscape:connector-curvature="0" />
  <circle
     r="2"
     cy="177.94336"
     cx="346.03827"
     id="circle4016"
     style="fill:#0000ff;stroke-width:0.26458332" />
  <path
     inkscape:connector-curvature="0"
     id="path4018"
     d="M 345.1001,165.78106 A 12,12 0 0 0 334,177.73639 12,12 0 0 0 345.1001,189.7 v -1.87741 c -0.98762,-0.10358 -1.99249,-0.38467 -2.99207,-0.87643 -9.50694,-3.3896 -6.97228,-18.84114 2.99207,-19.17813 z m 1.99988,0.0155 v 2.00038 c 2.61574,0.29573 5.10102,1.64635 6.73447,3.72536 5.37636,6.04372 0.19667,15.34324 -6.73447,16.27188 v 1.88672 a 12,12 0 0 0 10.9001,-11.94451 12,12 0 0 0 -10.9001,-11.93983 z"
     style="fill:#0000ff;stroke-width:0.26458335" />
  <circle
     style="fill:#0000ff;stroke-width:0.26458332"
     id="circle4020"
     cx="376.03827"
     cy="177.94336"
     r="2" />
  <path
     style="fill:#0000ff;stroke-width:0.26458335"
     d="M 375.1001,165.78106 A 12,12 0 0 0 364,177.73639 12,12 0 0 0 375.1001,189.7 v -1.87741 c -0.98762,-0.10358 -1.99249,-0.38467 -2.99207,-0.87643 -9.50694,-3.3896 -6.97228,-18.84114 2.99207,-19.17813 z m 1.99988,0.0155 v 2.00038 c 2.61574,0.29573 5.10102,1.64635 6.73447,3.72536 5.37636,6.04372 0.19667,15.34324 -6.73447,16.27188 v 1.88672 a 12,12 0 0 0 10.9001,-11.94451 12,12 0 0 0 -10.9001,-11.93983 z"
     id="path4022"
     inkscape:connector-curvature="0" />
  <path
     inkscape:connector-curvature="0"
     id="path4024"
     d="M 75.100096,132.43106 A 12,12 0 0 0 64,144.38639 12,12 0 0 0 75.100096,156.35 v -1.87741 c -0.987615,-0.10358 -1.992484,-0.38467 -2.992064,-0.87643 -9.50694,-3.3896 -6.972284,-18.84114 2.992064,-19.17813 z m 1.99988,0.0155 v 2.00038 c 2.615745,0.29573 5.101023,1.64635 6.734471,3.72536 5.376362,6.04372 0.196675,15.34324 -6.734471,16.27188 v 1.88672 A 12,12 0 0 0 88.000084,144.38639 12,12 0 0 0 77.099976,132.44656 Z"
     style="fill:#0000ff;stroke-width:0.26458335" />
  <circle
     r="2"
     cy="144.55713"
     cx="76.038277"
     id="circle4026"
     style="fill:#0000ff;stroke-width:0.26458332" />
  <circle
     style="fill:#0000ff;stroke-width:0.26458332"
     id="circle4028"
     cx="106.03828"
     cy="144.59335"
     r="2" />
  <path
     style="fill:#0000ff;stroke-width:0.26458335"
     d="M 105.1001,132.43106 A 12,12 0 0 0 94,144.38639 12,12 0 0 0 105.1001,156.35 v -1.87741 c -0.98762,-0.10358 -1.99249,-0.38467 -2.99207,-0.87643 -9.506938,-3.3896 -6.972282,-18.84114 2.99207,-19.17813 z m 1.99988,0.0155 v 2.00038 c 2.61574,0.29573 5.10102,1.64635 6.73447,3.72536 5.37636,6.04372 0.19667,15.34324 -6.73447,16.27188 v 1.88672 a 12,12 0 0 0 10.9001,-11.94451 12,12 0 0 0 -10.9001,-11.93983 z"
     id="path4030"
     inkscape:connector-curvature="0" />
  <circle
     r="2"
     cy="144.59335"
     cx="136.03827"
     id="circle4032"
     style="fill:#0000ff;stroke-width:0.26458332" />
  <path
     inkscape:connector-curvature="0"
     id="path4034"
     d="M 135.1001,132.43106 A 12,12 0 0 0 124,144.38639 12,12 0 0 0 135.1001,156.35 v -1.87741 c -0.98762,-0.10358 -1.99249,-0.38467 -2.99207,-0.87643 -9.50694,-3.3896 -6.97228,-18.84114 2.99207,-19.17813 z m 1.99988,0.0155 v 2.00038 c 2.61574,0.29573 5.10102,1.64635 6.73447,3.72536 5.37636,6.04372 0.19667,15.34324 -6.73447,16.27188 v 1.88672 a 12,12 0 0 0 10.9001,-11.94451 12,12 0 0 0 -10.9001,-11.93983 z"
     style="fill:#0000ff;stroke-width:0.26458335" />
  <circle
     style="fill:#0000ff;stroke-width:0.26458332"
     id="circle4036"
     cx="166.03827"
     cy="144.59335"
     r="2" />
  <path
     style="fill:#0000ff;stroke-width:0.26458335"
     d="M 165.1001,132.43106 A 12,12 0 0 0 154,144.38639 12,12 0 0 0 165.1001,156.35 v -1.87741 c -0.98762,-0.10358 -1.99249,-0.38467 -2.99207,-0.87643 -9.50694,-3.3896 -6.97228,-18.84114 2.99207,-19.17813 z m 1.99988,0.0155 v 2.00038 c 2.61574,0.29573 5.10102,1.64635 6.73447,3.72536 5.37636,6.04372 0.19667,15.34324 -6.73447,16.27188 v 1.88672 a 12,12 0 0 0 10.9001,-11.94451 12,12 0 0 0 -10.9001,-11.93983 z"
     id="path4038"
     inkscape:connector-curvature="0" />
  <circle
     r="2"
     cy="144.59335"
     cx="196.03827"
     id="circle4040"
     style="fill:#0000ff;stroke-width:0.26458332" />
  <path
     inkscape:connector-curvature="0"
     id="path4042"
     d="M 195.1001,132.43106 A 12,12 0 0 0 184,144.38639 12,12 0 0 0 195.1001,156.35 v -1.87741 c -0.98762,-0.10358 -1.99249,-0.38467 -2.99207,-0.87643 -9.50694,-3.3896 -6.97228,-18.84114 2.99207,-19.17813 z m 1.99988,0.0155 v 2.00038 c 2.61574,0.29573 5.10102,1.64635 6.73447,3.72536 5.37636,6.04372 0.19667,15.34324 -6.73447,16.27188 v 1.88672 a 12,12 0 0 0 10.9001,-11.94451 12,12 0 0 0 -10.9001,-11.93983 z"
     style="fill:#0000ff;stroke-width:0.26458335" />
  <circle
     style="fill:#0000ff;stroke-width:0.26458332"
     id="circle4044"
     cx="226.03827"
     cy="144.59335"
     r="2" />
  <path
     style="fill:#0000ff;stroke-width:0.26458335"
     d="M 225.1001,132.43106 A 12,12 0 0 0 214,144.38639 12,12 0 0 0 225.1001,156.35 v -1.87741 c -0.98762,-0.10358 -1.99249,-0.38467 -2.99207,-0.87643 -9.50694,-3.3896 -6.97228,-18.84114 2.99207,-19.17813 z m 1.99988,0.0155 v 2.00038 c 2.61574,0.29573 5.10102,1.64635 6.73447,3.72536 5.37636,6.04372 0.19667,15.34324 -6.73447,16.27188 v 1.88672 a 12,12 0 0 0 10.9001,-11.94451 12,12 0 0 0 -10.9001,-11.93983 z"
     id="path4046"
     inkscape:connector-curvature="0" />
  <circle
     r="2"
     cy="144.59335"
     cx="256.03827"
     id="circle4048"
     style="fill:#0000ff;stroke-width:0.26458332" />
  <path
     inkscape:connector-curvature="0"
     id="path4050"
     d="M 255.1001,132.43106 A 12,12 0 0 0 244,144.38639 12,12 0 0 0 255.1001,156.35 v -1.87741 c -0.98762,-0.10358 -1.99249,-0.38467 -2.99207,-0.87643 -9.50694,-3.3896 -6.97228,-18.84114 2.99207,-19.17813 z m 1.99988,0.0155 v 2.00038 c 2.61574,0.29573 5.10102,1.64635 6.73447,3.72536 5.37636,6.04372 0.19667,15.34324 -6.73447,16.27188 v 1.88672 a 12,12 0 0 0 10.9001,-11.94451 12,12 0 0 0 -10.9001,-11.93983 z"
     style="fill:#0000ff;stroke-width:0.26458335" />
  <circle
     style="fill:#0000ff;stroke-width:0.26458332"
     id="circle4052"
     cx="286.03827"
     cy="144.59335"
     r="2" />
  <path
     style="fill:#0000ff;stroke-width:0.26458335"
     d="M 285.1001,132.43106 A 12,12 0 0 0 274,144.38639 12,12 0 0 0 285.1001,156.35 v -1.87741 c -0.98762,-0.10358 -1.99249,-0.38467 -2.99207,-0.87643 -9.50694,-3.3896 -6.97228,-18.84114 2.99207,-19.17813 z m 1.99988,0.0155 v 2.00038 c 2.61574,0.29573 5.10102,1.64635 6.73447,3.72536 5.37636,6.04372 0.19667,15.34324 -6.73447,16.27188 v 1.88672 a 12,12 0 0 0 10.9001,-11.94451 12,12 0 0 0 -10.9001,-11.93983 z"
     id="path4054"
     inkscape:connector-curvature="0" />
  <circle
     r="2"
     cy="144.59335"
     cx="316.03827"
     id="circle4056"
     style="fill:#0000ff;stroke-width:0.26458332" />
  <path
     inkscape:connector-curvature="0"
     id="path4058"
     d="M 315.1001,132.43106 A 12,12 0 0 0 304,144.38639 12,12 0 0 0 315.1001,156.35 v -1.87741 c -0.98762,-0.10358 -1.99249,-0.38467 -2.99207,-0.87643 -9.50694,-3.3896 -6.97228,-18.84114 2.99207,-19.17813 z m 1.99988,0.0155 v 2.00038 c 2.61574,0.29573 5.10102,1.64635 6.73447,3.72536 5.37636,6.04372 0.19667,15.34324 -6.73447,16.27188 v 1.88672 a 12,12 0 0 0 10.9001,-11.94451 12,12 0 0 0 -10.9001,-11.93983 z"
     style="fill:#0000ff;stroke-width:0.26458335" />
  <circle
     style="fill:#0000ff;stroke-width:0.26458332"
     id="circle4060"
     cx="346.03827"
     cy="144.59335"
     r="2" />
  <path
     style="fill:#0000ff;stroke-width:0.26458335"
     d="M 345.1001,132.43106 A 12,12 0 0 0 334,144.38639 12,12 0 0 0 345.1001,156.35 v -1.87741 c -0.98762,-0.10358 -1.99249,-0.38467 -2.99207,-0.87643 -9.50694,-3.3896 -6.97228,-18.84114 2.99207,-19.17813 z m 1.99988,0.0155 v 2.00038 c 2.61574,0.29573 5.10102,1.64635 6.73447,3.72536 5.37636,6.04372 0.19667,15.34324 -6.73447,16.27188 v 1.88672 a 12,12 0 0 0 10.9001,-11.94451 12,12 0 0 0 -10.9001,-11.93983 z"
     id="path4062"
     inkscape:connector-curvature="0" />
  <circle
     r="2"
     cy="144.59335"
     cx="376.03827"
     id="circle4064"
     style="fill:#0000ff;stroke-width:0.26458332" />
  <path
     inkscape:connector-curvature="0"
     id="path4066"
     d="M 375.1001,132.43106 A 12,12 0 0 0 364,144.38639 12,12 0 0 0 375.1001,156.35 v -1.87741 c -0.98762,-0.10358 -1.99249,-0.38467 -2.99207,-0.87643 -9.50694,-3.3896 -6.97228,-18.84114 2.99207,-19.17813 z m 1.99988,0.0155 v 2.00038 c 2.61574,0.29573 5.10102,1.64635 6.73447,3.72536 5.37636,6.04372 0.19667,15.34324 -6.73447,16.27188 v 1.88672 a 12,12 0 0 0 10.9001,-11.94451 12,12 0 0 0 -10.9001,-11.93983 z"
     style="fill:#0000ff;stroke-width:0.26458335" />
  <path
     style="fill:#0000ff;stroke-width:0.26458335"
     d="M 75.100096,99.08106 A 12,12 0 0 0 64,111.03639 12,12 0 0 0 75.100096,123 v -1.87741 c -0.987615,-0.10358 -1.992484,-0.38467 -2.992064,-0.87643 -9.50694,-3.3896 -6.972284,-18.84114 2.992064,-19.17813 z m 1.99988,0.0155 v 2.00038 c 2.615745,0.29573 5.101023,1.64635 6.734471,3.72536 5.376362,6.04372 0.196675,15.34324 -6.734471,16.27188 v 1.88672 A 12,12 0 0 0 88.000084,111.03639 12,12 0 0 0 77.099976,99.09656 Z"
     id="path4068"
     inkscape:connector-curvature="0" />
  <circle
     style="fill:#0000ff;stroke-width:0.26458332"
     id="circle4070"
     cx="76.038277"
     cy="111.20713"
     r="2" />
  <circle
     r="2"
     cy="111.24335"
     cx="106.03828"
     id="circle4072"
     style="fill:#0000ff;stroke-width:0.26458332" />
  <path
     inkscape:connector-curvature="0"
     id="path4074"
     d="M 105.1001,99.08106 A 12,12 0 0 0 94,111.03639 12,12 0 0 0 105.1001,123 v -1.87741 c -0.98762,-0.10358 -1.99249,-0.38467 -2.99207,-0.87643 -9.506938,-3.3896 -6.972282,-18.84114 2.99207,-19.17813 z m 1.99988,0.0155 v 2.00038 c 2.61574,0.29573 5.10102,1.64635 6.73447,3.72536 5.37636,6.04372 0.19667,15.34324 -6.73447,16.27188 v 1.88672 a 12,12 0 0 0 10.9001,-11.94451 12,12 0 0 0 -10.9001,-11.93983 z"
     style="fill:#0000ff;stroke-width:0.26458335" />
  <circle
     style="fill:#0000ff;stroke-width:0.26458332"
     id="circle4076"
     cx="136.03827"
     cy="111.24335"
     r="2" />
  <path
     style="fill:#0000ff;stroke-width:0.26458335"
     d="M 135.1001,99.08106 A 12,12 0 0 0 124,111.03639 12,12 0 0 0 135.1001,123 v -1.87741 c -0.98762,-0.10358 -1.99249,-0.38467 -2.99207,-0.87643 -9.50694,-3.3896 -6.97228,-18.84114 2.99207,-19.17813 z m 1.99988,0.0155 v 2.00038 c 2.61574,0.29573 5.10102,1.64635 6.73447,3.72536 5.37636,6.04372 0.19667,15.34324 -6.73447,16.27188 v 1.88672 a 12,12 0 0 0 10.9001,-11.94451 12,12 0 0 0 -10.9001,-11.93983 z"
     id="path4078"
     inkscape:connector-curvature="0" />
  <circle
     r="2"
     cy="111.24335"
     cx="166.03827"
     id="circle4080"
     style="fill:#0000ff;stroke-width:0.26458332" />
  <path
     inkscape:connector-curvature="0"
     id="path4082"
     d="M 165.1001,99.08106 A 12,12 0 0 0 154,111.03639 12,12 0 0 0 165.1001,123 v -1.87741 c -0.98762,-0.10358 -1.99249,-0.38467 -2.99207,-0.87643 -9.50694,-3.3896 -6.97228,-18.84114 2.99207,-19.17813 z m 1.99988,0.0155 v 2.00038 c 2.61574,0.29573 5.10102,1.64635 6.73447,3.72536 5.37636,6.04372 0.19667,15.34324 -6.73447,16.27188 v 1.88672 a 12,12 0 0 0 10.9001,-11.94451 12,12 0 0 0 -10.9001,-11.93983 z"
     style="fill:#0000ff;stroke-width:0.26458335" />
  <circle
     style="fill:#0000ff;stroke-width:0.26458332"
     id="circle4084"
     cx="196.03827"
     cy="111.24335"
     r="2" />
  <path
     style="fill:#0000ff;stroke-width:0.26458335"
     d="M 195.1001,99.08106 A 12,12 0 0 0 184,111.03639 12,12 0 0 0 195.1001,123 v -1.87741 c -0.98762,-0.10358 -1.99249,-0.38467 -2.99207,-0.87643 -9.50694,-3.3896 -6.97228,-18.84114 2.99207,-19.17813 z m 1.99988,0.0155 v 2.00038 c 2.61574,0.29573 5.10102,1.64635 6.73447,3.72536 5.37636,6.04372 0.19667,15.34324 -6.73447,16.27188 v 1.88672 a 12,12 0 0 0 10.9001,-11.94451 12,12 0 0 0 -10.9001,-11.93983 z"
     id="path4086"
     inkscape:connector-curvature="0" />
  <circle
     r="2"
     cy="111.24335"
     cx="226.03827"
     id="circle4088"
     style="fill:#0000ff;stroke-width:0.26458332" />
  <path
     inkscape:connector-curvature="0"
     id="path4090"
     d="M 225.1001,99.08106 A 12,12 0 0 0 214,111.03639 12,12 0 0 0 225.1001,123 v -1.87741 c -0.98762,-0.10358 -1.99249,-0.38467 -2.99207,-0.87643 -9.50694,-3.3896 -6.97228,-18.84114 2.99207,-19.17813 z m 1.99988,0.0155 v 2.00038 c 2.61574,0.29573 5.10102,1.64635 6.73447,3.72536 5.37636,6.04372 0.19667,15.34324 -6.73447,16.27188 v 1.88672 a 12,12 0 0 0 10.9001,-11.94451 12,12 0 0 0 -10.9001,-11.93983 z"
     style="fill:#0000ff;stroke-width:0.26458335" />
  <circle
     style="fill:#0000ff;stroke-width:0.26458332"
     id="circle4092"
     cx="256.03827"
     cy="111.24335"
     r="2" />
  <path
     style="fill:#0000ff;stroke-width:0.26458335"
     d="M 255.1001,99.08106 A 12,12 0 0 0 244,111.03639 12,12 0 0 0 255.1001,123 v -1.87741 c -0.98762,-0.10358 -1.99249,-0.38467 -2.99207,-0.87643 -9.50694,-3.3896 -6.97228,-18.84114 2.99207,-19.17813 z m 1.99988,0.0155 v 2.00038 c 2.61574,0.29573 5.10102,1.64635 6.73447,3.72536 5.37636,6.04372 0.19667,15.34324 -6.73447,16.27188 v 1.88672 a 12,12 0 0 0 10.9001,-11.94451 12,12 0 0 0 -10.9001,-11.93983 z"
     id="path4094"
     inkscape:connector-curvature="0" />
  <circle
     r="2"
     cy="111.24335"
     cx="286.03827"
     id="circle4096"
     style="fill:#0000ff;stroke-width:0.26458332" />
  <path
     inkscape:connector-curvature="0"
     id="path4098"
     d="M 285.1001,99.08106 A 12,12 0 0 0 274,111.03639 12,12 0 0 0 285.1001,123 v -1.87741 c -0.98762,-0.10358 -1.99249,-0.38467 -2.99207,-0.87643 -9.50694,-3.3896 -6.97228,-18.84114 2.99207,-19.17813 z m 1.99988,0.0155 v 2.00038 c 2.61574,0.29573 5.10102,1.64635 6.73447,3.72536 5.37636,6.04372 0.19667,15.34324 -6.73447,16.27188 v 1.88672 a 12,12 0 0 0 10.9001,-11.94451 12,12 0 0 0 -10.9001,-11.93983 z"
     style="fill:#0000ff;stroke-width:0.26458335" />
  <circle
     style="fill:#0000ff;stroke-width:0.26458332"
     id="circle4100"
     cx="316.03827"
     cy="111.24335"
     r="2" />
  <path
     style="fill:#0000ff;stroke-width:0.26458335"
     d="M 315.1001,99.08106 A 12,12 0 0 0 304,111.03639 12,12 0 0 0 315.1001,123 v -1.87741 c -0.98762,-0.10358 -1.99249,-0.38467 -2.99207,-0.87643 -9.50694,-3.3896 -6.97228,-18.84114 2.99207,-19.17813 z m 1.99988,0.0155 v 2.00038 c 2.61574,0.29573 5.10102,1.64635 6.73447,3.72536 5.37636,6.04372 0.19667,15.34324 -6.73447,16.27188 v 1.88672 a 12,12 0 0 0 10.9001,-11.94451 12,12 0 0 0 -10.9001,-11.93983 z"
     id="path4102"
     inkscape:connector-curvature="0" />
  <circle
     r="2"
     cy="111.24335"
     cx="346.03827"
     id="circle4104"
     style="fill:#0000ff;stroke-width:0.26458332" />
  <path
     inkscape:connector-curvature="0"
     id="path4106"
     d="M 345.1001,99.08106 A 12,12 0 0 0 334,111.03639 12,12 0 0 0 345.1001,123 v -1.87741 c -0.98762,-0.10358 -1.99249,-0.38467 -2.99207,-0.87643 -9.50694,-3.3896 -6.97228,-18.84114 2.99207,-19.17813 z m 1.99988,0.0155 v 2.00038 c 2.61574,0.29573 5.10102,1.64635 6.73447,3.72536 5.37636,6.04372 0.19667,15.34324 -6.73447,16.27188 v 1.88672 a 12,12 0 0 0 10.9001,-11.94451 12,12 0 0 0 -10.9001,-11.93983 z"
     style="fill:#0000ff;stroke-width:0.26458335" />
  <circle
     style="fill:#0000ff;stroke-width:0.26458332"
     id="circle4108"
     cx="376.03827"
     cy="111.24335"
     r="2" />
  <path
     style="fill:#0000ff;stroke-width:0.26458335"
     d="M 375.1001,99.08106 A 12,12 0 0 0 364,111.03639 12,12 0 0 0 375.1001,123 v -1.87741 c -0.98762,-0.10358 -1.99249,-0.38467 -2.99207,-0.87643 -9.50694,-3.3896 -6.97228,-18.84114 2.99207,-19.17813 z m 1.99988,0.0155 v 2.00038 c 2.61574,0.29573 5.10102,1.64635 6.73447,3.72536 5.37636,6.04372 0.19667,15.34324 -6.73447,16.27188 v 1.88672 a 12,12 0 0 0 10.9001,-11.94451 12,12 0 0 0 -10.9001,-11.93983 z"
     id="path4110"
     inkscape:connector-curvature="0" />
  <path
     inkscape:connector-curvature="0"
     id="path4112"
     d="M 75.100096,65.73106 A 12,12 0 0 0 64,77.68639 12,12 0 0 0 75.100096,89.65 v -1.87741 c -0.987615,-0.10358 -1.992484,-0.38467 -2.992064,-0.87643 -9.50694,-3.3896 -6.972284,-18.84114 2.992064,-19.17813 z m 1.99988,0.0155 v 2.00038 c 2.615745,0.29573 5.101023,1.64635 6.734471,3.72536 5.376362,6.04372 0.196675,15.34324 -6.734471,16.27188 V 89.6309 A 12,12 0 0 0 88.000084,77.68639 12,12 0 0 0 77.099976,65.74656 Z"
     style="fill:#0000ff;stroke-width:0.26458335" />
  <circle
     r="2"
     cy="77.857132"
     cx="76.038277"
     id="circle4114"
     style="fill:#0000ff;stroke-width:0.26458332" />
  <circle
     style="fill:#0000ff;stroke-width:0.26458332"
     id="circle4116"
     cx="106.03828"
     cy="77.893349"
     r="2" />
  <path
     style="fill:#0000ff;stroke-width:0.26458335"
     d="M 105.1001,65.73106 A 12,12 0 0 0 94,77.68639 12,12 0 0 0 105.1001,89.65 v -1.87741 c -0.98762,-0.10358 -1.99249,-0.38467 -2.99207,-0.87643 -9.506938,-3.3896 -6.972282,-18.84114 2.99207,-19.17813 z m 1.99988,0.0155 v 2.00038 c 2.61574,0.29573 5.10102,1.64635 6.73447,3.72536 5.37636,6.04372 0.19667,15.34324 -6.73447,16.27188 v 1.88672 a 12,12 0 0 0 10.9001,-11.94451 12,12 0 0 0 -10.9001,-11.93983 z"
     id="path4118"
     inkscape:connector-curvature="0" />
  <circle
     r="2"
     cy="77.893349"
     cx="136.03827"
     id="circle4120"
     style="fill:#0000ff;stroke-width:0.26458332" />
  <path
     inkscape:connector-curvature="0"
     id="path4122"
     d="M 135.1001,65.73106 A 12,12 0 0 0 124,77.68639 12,12 0 0 0 135.1001,89.65 v -1.87741 c -0.98762,-0.10358 -1.99249,-0.38467 -2.99207,-0.87643 -9.50694,-3.3896 -6.97228,-18.84114 2.99207,-19.17813 z m 1.99988,0.0155 v 2.00038 c 2.61574,0.29573 5.10102,1.64635 6.73447,3.72536 5.37636,6.04372 0.19667,15.34324 -6.73447,16.27188 v 1.88672 a 12,12 0 0 0 10.9001,-11.94451 12,12 0 0 0 -10.9001,-11.93983 z"
     style="fill:#0000ff;stroke-width:0.26458335" />
  <circle
     style="fill:#0000ff;stroke-width:0.26458332"
     id="circle4124"
     cx="166.03827"
     cy="77.893349"
     r="2" />
  <path
     style="fill:#0000ff;stroke-width:0.26458335"
     d="M 165.1001,65.73106 A 12,12 0 0 0 154,77.68639 12,12 0 0 0 165.1001,89.65 v -1.87741 c -0.98762,-0.10358 -1.99249,-0.38467 -2.99207,-0.87643 -9.50694,-3.3896 -6.97228,-18.84114 2.99207,-19.17813 z m 1.99988,0.0155 v 2.00038 c 2.61574,0.29573 5.10102,1.64635 6.73447,3.72536 5.37636,6.04372 0.19667,15.34324 -6.73447,16.27188 v 1.88672 a 12,12 0 0 0 10.9001,-11.94451 12,12 0 0 0 -10.9001,-11.93983 z"
     id="path4126"
     inkscape:connector-curvature="0" />
  <circle
     r="2"
     cy="77.893349"
     cx="196.03827"
     id="circle4128"
     style="fill:#0000ff;stroke-width:0.26458332" />
  <path
     inkscape:connector-curvature="0"
     id="path4130"
     d="M 195.1001,65.73106 A 12,12 0 0 0 184,77.68639 12,12 0 0 0 195.1001,89.65 v -1.87741 c -0.98762,-0.10358 -1.99249,-0.38467 -2.99207,-0.87643 -9.50694,-3.3896 -6.97228,-18.84114 2.99207,-19.17813 z m 1.99988,0.0155 v 2.00038 c 2.61574,0.29573 5.10102,1.64635 6.73447,3.72536 5.37636,6.04372 0.19667,15.34324 -6.73447,16.27188 v 1.88672 a 12,12 0 0 0 10.9001,-11.94451 12,12 0 0 0 -10.9001,-11.93983 z"
     style="fill:#0000ff;stroke-width:0.26458335" />
  <circle
     style="fill:#0000ff;stroke-width:0.26458332"
     id="circle4132"
     cx="226.03827"
     cy="77.893349"
     r="2" />
  <path
     style="fill:#0000ff;stroke-width:0.26458335"
     d="M 225.1001,65.73106 A 12,12 0 0 0 214,77.68639 12,12 0 0 0 225.1001,89.65 v -1.87741 c -0.98762,-0.10358 -1.99249,-0.38467 -2.99207,-0.87643 -9.50694,-3.3896 -6.97228,-18.84114 2.99207,-19.17813 z m 1.99988,0.0155 v 2.00038 c 2.61574,0.29573 5.10102,1.64635 6.73447,3.72536 5.37636,6.04372 0.19667,15.34324 -6.73447,16.27188 v 1.88672 a 12,12 0 0 0 10.9001,-11.94451 12,12 0 0 0 -10.9001,-11.93983 z"
     id="path4134"
     inkscape:connector-curvature="0" />
  <circle
     r="2"
     cy="77.893349"
     cx="256.03827"
     id="circle4136"
     style="fill:#0000ff;stroke-width:0.26458332" />
  <path
     inkscape:connector-curvature="0"
     id="path4138"
     d="M 255.1001,65.73106 A 12,12 0 0 0 244,77.68639 12,12 0 0 0 255.1001,89.65 v -1.87741 c -0.98762,-0.10358 -1.99249,-0.38467 -2.99207,-0.87643 -9.50694,-3.3896 -6.97228,-18.84114 2.99207,-19.17813 z m 1.99988,0.0155 v 2.00038 c 2.61574,0.29573 5.10102,1.64635 6.73447,3.72536 5.37636,6.04372 0.19667,15.34324 -6.73447,16.27188 v 1.88672 a 12,12 0 0 0 10.9001,-11.94451 12,12 0 0 0 -10.9001,-11.93983 z"
     style="fill:#0000ff;stroke-width:0.26458335" />
  <circle
     style="fill:#0000ff;stroke-width:0.26458332"
     id="circle4140"
     cx="286.03827"
     cy="77.893349"
     r="2" />
  <path
     style="fill:#0000ff;stroke-width:0.26458335"
     d="M 285.1001,65.73106 A 12,12 0 0 0 274,77.68639 12,12 0 0 0 285.1001,89.65 v -1.87741 c -0.98762,-0.10358 -1.99249,-0.38467 -2.99207,-0.87643 -9.50694,-3.3896 -6.97228,-18.84114 2.99207,-19.17813 z m 1.99988,0.0155 v 2.00038 c 2.61574,0.29573 5.10102,1.64635 6.73447,3.72536 5.37636,6.04372 0.19667,15.34324 -6.73447,16.27188 v 1.88672 a 12,12 0 0 0 10.9001,-11.94451 12,12 0 0 0 -10.9001,-11.93983 z"
     id="path4142"
     inkscape:connector-curvature="0" />
  <circle
     r="2"
     cy="77.893349"
     cx="316.03827"
     id="circle4144"
     style="fill:#0000ff;stroke-width:0.26458332" />
  <path
     inkscape:connector-curvature="0"
     id="path4146"
     d="M 315.1001,65.73106 A 12,12 0 0 0 304,77.68639 12,12 0 0 0 315.1001,89.65 v -1.87741 c -0.98762,-0.10358 -1.99249,-0.38467 -2.99207,-0.87643 -9.50694,-3.3896 -6.97228,-18.84114 2.99207,-19.17813 z m 1.99988,0.0155 v 2.00038 c 2.61574,0.29573 5.10102,1.64635 6.73447,3.72536 5.37636,6.04372 0.19667,15.34324 -6.73447,16.27188 v 1.88672 a 12,12 0 0 0 10.9001,-11.94451 12,12 0 0 0 -10.9001,-11.93983 z"
     style="fill:#0000ff;stroke-width:0.26458335" />
  <circle
     style="fill:#0000ff;stroke-width:0.26458332"
     id="circle4148"
     cx="346.03827"
     cy="77.893349"
     r="2" />
  <path
     style="fill:#0000ff;stroke-width:0.26458335"
     d="M 345.1001,65.73106 A 12,12 0 0 0 334,77.68639 12,12 0 0 0 345.1001,89.65 v -1.87741 c -0.98762,-0.10358 -1.99249,-0.38467 -2.99207,-0.87643 -9.50694,-3.3896 -6.97228,-18.84114 2.99207,-19.17813 z m 1.99988,0.0155 v 2.00038 c 2.61574,0.29573 5.10102,1.64635 6.73447,3.72536 5.37636,6.04372 0.19667,15.34324 -6.73447,16.27188 v 1.88672 a 12,12 0 0 0 10.9001,-11.94451 12,12 0 0 0 -10.9001,-11.93983 z"
     id="path4150"
     inkscape:connector-curvature="0" />
  <circle
     r="2"
     cy="77.893349"
     cx="376.03827"
     id="circle4152"
     style="fill:#0000ff;stroke-width:0.26458332" />
  <path
     inkscape:connector-curvature="0"
     id="path4154"
     d="M 375.1001,65.73106 A 12,12 0 0 0 364,77.68639 12,12 0 0 0 375.1001,89.65 v -1.87741 c -0.98762,-0.10358 -1.99249,-0.38467 -2.99207,-0.87643 -9.50694,-3.3896 -6.97228,-18.84114 2.99207,-19.17813 z m 1.99988,0.0155 v 2.00038 c 2.61574,0.29573 5.10102,1.64635 6.73447,3.72536 5.37636,6.04372 0.19667,15.34324 -6.73447,16.27188 v 1.88672 a 12,12 0 0 0 10.9001,-11.94451 12,12 0 0 0 -10.9001,-11.93983 z"
     style="fill:#0000ff;stroke-width:0.26458335" />
  <ellipse
     style="fill:#0000ff;stroke:#0000ff;stroke-width:0;stroke-miterlimit:4;stroke-dasharray:none;stroke-opacity:1"
     id="path9916"
     cx="430.47955"
     cy="20.024349"
     rx="2"
     ry="1.9999995" />
  <ellipse
     style="fill:#0000ff;stroke:#0000ff;stroke-width:0;stroke-miterlimit:4;stroke-dasharray:none;stroke-opacity:1"
     id="path9916-9"
     cx="430.50293"
     cy="429.50986"
     rx="2"
     ry="1.9999995" />
  <ellipse
     style="fill:#0000ff;stroke:#0000ff;stroke-width:0;stroke-miterlimit:4;stroke-dasharray:none;stroke-opacity:1"
     id="path9916-9-4"
     cx="21.002922"
     cy="429.50986"
     rx="2"
     ry="1.9999995" />
  <ellipse
     style="fill:#0000ff;stroke:#0000ff;stroke-width:0;stroke-miterlimit:4;stroke-dasharray:none;stroke-opacity:1"
     id="path9916-9-4-9"
     cx="21.002922"
     cy="20.000965"
     rx="2"
     ry="1.9999995" />
</svg>
