  0
SECTION
  2
HEADER
  9
$ACADVER
  1
AC1009
  9
$INSBASE
 10
0.0
 20
0.0
 30
0.0
  9
$EXTMIN
 10
0.0
 20
0.0
 30
0.0
  9
$EXTMAX
 10
0.0
 20
0.0
 30
0.0
  0
ENDSEC
  0
SECTION
  2
TABLES
  0
TABLE
  2
VPORT
 70
0
  0
ENDTAB
  0
TABLE
  2
LTYPE
 70
1
  0
LTYPE
  2
CONTINUOUS
 70
0
  3
Solid line
 72
65
 73
0
 40
0.0
  0
ENDTAB
  0
TABLE
  2
LAYER
 70
1
  0
LAYER
  2
0
 70
64
 62
7
  6
continuous
  0
ENDTAB
  0
TABLE
  2
STYLE
 70
1
  0
STYLE
  2
STANDARD
 70
0
 40
0
 41
1.0
 50
0.0
 71
0
 42
1
 3
ARIAL.TTF
 4

  0
ENDTAB
  0
TABLE
  2
VIEW
 70
0
  0
ENDTAB
  0
ENDSEC
  0
SECTION
  2
BLOCKS
  0
BLOCK
  8
0
  2
EXTRUDE
 70
0
 10
0.0
 20
0.0
 30
0.0
  3
EXTRUDE
  0
LINE
  8
0
 62
7
 10
0.0
 20
0.0
 30
0.0
 11
450.0
 21
0.0
 31
0.0
  0
LINE
  8
0
 62
7
 10
450.0
 20
0.0
 30
0.0
 11
450.0
 21
-450.0
 31
0.0
  0
LINE
  8
0
 62
7
 10
450.0
 20
-450.0
 30
0.0
 11
0.0
 21
-450.0
 31
0.0
  0
LINE
  8
0
 62
7
 10
0.0
 20
-450.0
 30
0.0
 11
0.0
 21
0.0
 31
0.0
  0
POLYLINE
  8
0
 62
7
 70
0
 66
1
 10
0.0
 20
0.0
 30
0.0
  0
VERTEX
  8
0
 10
236.31528
 20
-277.79987
 30
0.0
  0
VERTEX
  8
0
 10
235.56873622119818
 20
-273.63336990068683
 30
0.0
  0
VERTEX
  8
0
 10
233.00915755102042
 20
-269.528443694467
 30
0.0
  0
VERTEX
  8
0
 10
228.7608758549223
 20
-266.6537192072511
 30
0.0
  0
VERTEX
  8
0
 10
223.85374153846155
 20
-265.8087490245231
 30
0.0
  0
VERTEX
  8
0
 10
219.51030074688796
 20
-266.8038627984216
 30
0.0
  0
VERTEX
  8
0
 10
216.1047536842105
 20
-269.0484553933362
 30
0.0
  0
VERTEX
  8
0
 10
213.38990686567163
 20
-272.8363811186086
 30
0.0
  0
VERTEX
  8
0
 10
212.31528
 20
-277.79987
 30
0.0
  0
VERTEX
  8
0
 10
213.3899068656716
 20
-282.7633588813914
 30
0.0
  0
VERTEX
  8
0
 10
216.10475368421046
 20
-286.5512846066638
 30
0.0
  0
VERTEX
  8
0
 10
219.51030074688796
 20
-288.7958772015783
 30
0.0
  0
VERTEX
  8
0
 10
223.85374153846155
 20
-289.7909909754768
 30
0.0
  0
VERTEX
  8
0
 10
228.7608758549223
 20
-288.9460207927489
 30
0.0
  0
VERTEX
  8
0
 10
233.00915755102042
 20
-286.071296305533
 30
0.0
  0
VERTEX
  8
0
 10
235.56873622119815
 20
-281.9663700993131
 30
0.0
  0
VERTEX
  8
0
 10
236.31528
 20
-277.79987
 30
0.0
  0
SEQEND
  8
0
  0
POLYLINE
  8
0
 62
7
 70
0
 66
1
 10
0.0
 20
0.0
 30
0.0
  0
VERTEX
  8
0
 10
116.32459
 20
-277.79987
 30
0.0
  0
VERTEX
  8
0
 10
115.57804622119816
 20
-273.63336990068683
 30
0.0
  0
VERTEX
  8
0
 10
113.01846755102041
 20
-269.528443694467
 30
0.0
  0
VERTEX
  8
0
 10
108.77018585492227
 20
-266.6537192072511
 30
0.0
  0
VERTEX
  8
0
 10
103.86305153846153
 20
-265.8087490245231
 30
0.0
  0
VERTEX
  8
0
 10
99.51961074688796
 20
-266.8038627984216
 30
0.0
  0
VERTEX
  8
0
 10
96.11406368421052
 20
-269.0484553933362
 30
0.0
  0
VERTEX
  8
0
 10
93.39921686567165
 20
-272.8363811186086
 30
0.0
  0
VERTEX
  8
0
 10
92.32459
 20
-277.79987
 30
0.0
  0
VERTEX
  8
0
 10
93.39921686567163
 20
-282.7633588813914
 30
0.0
  0
VERTEX
  8
0
 10
96.11406368421052
 20
-286.5512846066638
 30
0.0
  0
VERTEX
  8
0
 10
99.51961074688796
 20
-288.7958772015783
 30
0.0
  0
VERTEX
  8
0
 10
103.86305153846153
 20
-289.7909909754768
 30
0.0
  0
VERTEX
  8
0
 10
108.77018585492227
 20
-288.9460207927489
 30
0.0
  0
VERTEX
  8
0
 10
113.01846755102041
 20
-286.071296305533
 30
0.0
  0
VERTEX
  8
0
 10
115.57804622119816
 20
-281.9663700993131
 30
0.0
  0
VERTEX
  8
0
 10
116.32459
 20
-277.79987
 30
0.0
  0
SEQEND
  8
0
  0
POLYLINE
  8
0
 62
7
 70
0
 66
1
 10
0.0
 20
0.0
 30
0.0
  0
VERTEX
  8
0
 10
326.29916
 20
-77.689003
 30
0.0
  0
VERTEX
  8
0
 10
325.55261622119815
 20
-73.52250290068685
 30
0.0
  0
VERTEX
  8
0
 10
322.9930375510204
 20
-69.417576694467
 30
0.0
  0
VERTEX
  8
0
 10
318.7447558549223
 20
-66.54285220725107
 30
0.0
  0
VERTEX
  8
0
 10
313.8376215384615
 20
-65.69788202452317
 30
0.0
  0
VERTEX
  8
0
 10
309.49418074688793
 20
-66.69299579842165
 30
0.0
  0
VERTEX
  8
0
 10
306.0886336842105
 20
-68.9375883933362
 30
0.0
  0
VERTEX
  8
0
 10
303.3737868656716
 20
-72.72551411860859
 30
0.0
  0
VERTEX
  8
0
 10
302.29916
 20
-77.689003
 30
0.0
  0
VERTEX
  8
0
 10
303.3737868656716
 20
-82.65249188139141
 30
0.0
  0
VERTEX
  8
0
 10
306.0886336842105
 20
-86.44041760666379
 30
0.0
  0
VERTEX
  8
0
 10
309.49418074688793
 20
-88.68501020157834
 30
0.0
  0
VERTEX
  8
0
 10
313.8376215384615
 20
-89.68012397547683
 30
0.0
  0
VERTEX
  8
0
 10
318.7447558549223
 20
-88.83515379274894
 30
0.0
  0
VERTEX
  8
0
 10
322.9930375510204
 20
-85.96042930553301
 30
0.0
  0
VERTEX
  8
0
 10
325.5526162211981
 20
-81.85550309931314
 30
0.0
  0
VERTEX
  8
0
 10
326.29916
 20
-77.689003
 30
0.0
  0
SEQEND
  8
0
  0
POLYLINE
  8
0
 62
7
 70
0
 66
1
 10
0.0
 20
0.0
 30
0.0
  0
VERTEX
  8
0
 10
356.30884
 20
-277.79987
 30
0.0
  0
VERTEX
  8
0
 10
355.5622962211981
 20
-273.63336990068683
 30
0.0
  0
VERTEX
  8
0
 10
353.00271755102045
 20
-269.528443694467
 30
0.0
  0
VERTEX
  8
0
 10
348.75443585492235
 20
-266.6537192072511
 30
0.0
  0
VERTEX
  8
0
 10
343.8473015384616
 20
-265.8087490245231
 30
0.0
  0
VERTEX
  8
0
 10
339.503860746888
 20
-266.8038627984216
 30
0.0
  0
VERTEX
  8
0
 10
336.0983136842105
 20
-269.0484553933362
 30
0.0
  0
VERTEX
  8
0
 10
333.3834668656716
 20
-272.8363811186086
 30
0.0
  0
VERTEX
  8
0
 10
332.30884
 20
-277.79987
 30
0.0
  0
VERTEX
  8
0
 10
333.38346686567166
 20
-282.7633588813914
 30
0.0
  0
VERTEX
  8
0
 10
336.09831368421055
 20
-286.5512846066638
 30
0.0
  0
VERTEX
  8
0
 10
339.50386074688794
 20
-288.7958772015783
 30
0.0
  0
VERTEX
  8
0
 10
343.8473015384615
 20
-289.7909909754768
 30
0.0
  0
VERTEX
  8
0
 10
348.75443585492224
 20
-288.9460207927489
 30
0.0
  0
VERTEX
  8
0
 10
353.00271755102034
 20
-286.071296305533
 30
0.0
  0
VERTEX
  8
0
 10
355.5622962211981
 20
-281.9663700993131
 30
0.0
  0
VERTEX
  8
0
 10
356.30884
 20
-277.79987
 30
0.0
  0
SEQEND
  8
0
  0
POLYLINE
  8
0
 62
7
 70
0
 66
1
 10
0.0
 20
0.0
 30
0.0
  0
VERTEX
  8
0
 10
206.31885
 20
-277.79987
 30
0.0
  0
VERTEX
  8
0
 10
205.57230622119818
 20
-273.63336990068683
 30
0.0
  0
VERTEX
  8
0
 10
203.01272755102045
 20
-269.528443694467
 30
0.0
  0
VERTEX
  8
0
 10
198.7644458549223
 20
-266.6537192072511
 30
0.0
  0
VERTEX
  8
0
 10
193.85731153846154
 20
-265.8087490245231
 30
0.0
  0
VERTEX
  8
0
 10
189.51387074688796
 20
-266.8038627984216
 30
0.0
  0
VERTEX
  8
0
 10
186.1083236842105
 20
-269.0484553933362
 30
0.0
  0
VERTEX
  8
0
 10
183.39347686567163
 20
-272.8363811186086
 30
0.0
  0
VERTEX
  8
0
 10
182.31885
 20
-277.79987
 30
0.0
  0
VERTEX
  8
0
 10
183.39347686567163
 20
-282.7633588813914
 30
0.0
  0
VERTEX
  8
0
 10
186.10832368421052
 20
-286.5512846066638
 30
0.0
  0
VERTEX
  8
0
 10
189.51387074688796
 20
-288.7958772015783
 30
0.0
  0
VERTEX
  8
0
 10
193.85731153846154
 20
-289.7909909754768
 30
0.0
  0
VERTEX
  8
0
 10
198.7644458549223
 20
-288.9460207927489
 30
0.0
  0
VERTEX
  8
0
 10
203.01272755102045
 20
-286.071296305533
 30
0.0
  0
VERTEX
  8
0
 10
205.57230622119812
 20
-281.9663700993131
 30
0.0
  0
VERTEX
  8
0
 10
206.31885
 20
-277.79987
 30
0.0
  0
SEQEND
  8
0
  0
POLYLINE
  8
0
 62
7
 70
0
 66
1
 10
0.0
 20
0.0
 30
0.0
  0
VERTEX
  8
0
 10
146.32021
 20
-277.79987
 30
0.0
  0
VERTEX
  8
0
 10
145.57366622119818
 20
-273.63336990068683
 30
0.0
  0
VERTEX
  8
0
 10
143.01408755102042
 20
-269.528443694467
 30
0.0
  0
VERTEX
  8
0
 10
138.7658058549223
 20
-266.6537192072511
 30
0.0
  0
VERTEX
  8
0
 10
133.85867153846155
 20
-265.8087490245231
 30
0.0
  0
VERTEX
  8
0
 10
129.51523074688797
 20
-266.8038627984216
 30
0.0
  0
VERTEX
  8
0
 10
126.10968368421051
 20
-269.0484553933362
 30
0.0
  0
VERTEX
  8
0
 10
123.39483686567164
 20
-272.8363811186086
 30
0.0
  0
VERTEX
  8
0
 10
122.32021000000002
 20
-277.79987
 30
0.0
  0
VERTEX
  8
0
 10
123.39483686567166
 20
-282.7633588813914
 30
0.0
  0
VERTEX
  8
0
 10
126.10968368421054
 20
-286.5512846066638
 30
0.0
  0
VERTEX
  8
0
 10
129.51523074688797
 20
-288.7958772015783
 30
0.0
  0
VERTEX
  8
0
 10
133.85867153846155
 20
-289.7909909754768
 30
0.0
  0
VERTEX
  8
0
 10
138.7658058549223
 20
-288.9460207927489
 30
0.0
  0
VERTEX
  8
0
 10
143.0140875510204
 20
-286.071296305533
 30
0.0
  0
VERTEX
  8
0
 10
145.57366622119812
 20
-281.9663700993131
 30
0.0
  0
VERTEX
  8
0
 10
146.32021
 20
-277.79987
 30
0.0
  0
SEQEND
  8
0
  0
POLYLINE
  8
0
 62
7
 70
0
 66
1
 10
0.0
 20
0.0
 30
0.0
  0
VERTEX
  8
0
 10
326.31726
 20
-277.79987
 30
0.0
  0
VERTEX
  8
0
 10
325.57071622119815
 20
-273.63336990068683
 30
0.0
  0
VERTEX
  8
0
 10
323.0111375510204
 20
-269.528443694467
 30
0.0
  0
VERTEX
  8
0
 10
318.7628558549223
 20
-266.6537192072511
 30
0.0
  0
VERTEX
  8
0
 10
313.8557215384615
 20
-265.8087490245231
 30
0.0
  0
VERTEX
  8
0
 10
309.5122807468879
 20
-266.8038627984216
 30
0.0
  0
VERTEX
  8
0
 10
306.1067336842105
 20
-269.0484553933362
 30
0.0
  0
VERTEX
  8
0
 10
303.3918868656716
 20
-272.8363811186086
 30
0.0
  0
VERTEX
  8
0
 10
302.31726
 20
-277.79987
 30
0.0
  0
VERTEX
  8
0
 10
303.3918868656716
 20
-282.7633588813914
 30
0.0
  0
VERTEX
  8
0
 10
306.1067336842105
 20
-286.5512846066638
 30
0.0
  0
VERTEX
  8
0
 10
309.5122807468879
 20
-288.7958772015783
 30
0.0
  0
VERTEX
  8
0
 10
313.8557215384615
 20
-289.7909909754768
 30
0.0
  0
VERTEX
  8
0
 10
318.7628558549223
 20
-288.9460207927489
 30
0.0
  0
VERTEX
  8
0
 10
323.0111375510204
 20
-286.071296305533
 30
0.0
  0
VERTEX
  8
0
 10
325.5707162211981
 20
-281.9663700993131
 30
0.0
  0
VERTEX
  8
0
 10
326.31726
 20
-277.79987
 30
0.0
  0
SEQEND
  8
0
  0
POLYLINE
  8
0
 62
7
 70
0
 66
1
 10
0.0
 20
0.0
 30
0.0
  0
VERTEX
  8
0
 10
326.32703
 20
-177.73605
 30
0.0
  0
VERTEX
  8
0
 10
325.58048622119816
 20
-173.56954990068687
 30
0.0
  0
VERTEX
  8
0
 10
323.0209075510204
 20
-169.46462369446698
 30
0.0
  0
VERTEX
  8
0
 10
318.7726258549223
 20
-166.58989920725108
 30
0.0
  0
VERTEX
  8
0
 10
313.8654915384615
 20
-165.74492902452317
 30
0.0
  0
VERTEX
  8
0
 10
309.52205074688794
 20
-166.74004279842165
 30
0.0
  0
VERTEX
  8
0
 10
306.1165036842105
 20
-168.9846353933362
 30
0.0
  0
VERTEX
  8
0
 10
303.4016568656716
 20
-172.7725611186086
 30
0.0
  0
VERTEX
  8
0
 10
302.32703
 20
-177.73604999999998
 30
0.0
  0
VERTEX
  8
0
 10
303.4016568656716
 20
-182.6995388813914
 30
0.0
  0
VERTEX
  8
0
 10
306.11650368421056
 20
-186.4874646066638
 30
0.0
  0
VERTEX
  8
0
 10
309.52205074688794
 20
-188.73205720157836
 30
0.0
  0
VERTEX
  8
0
 10
313.86549153846147
 20
-189.72717097547684
 30
0.0
  0
VERTEX
  8
0
 10
318.7726258549223
 20
-188.88220079274896
 30
0.0
  0
VERTEX
  8
0
 10
323.0209075510204
 20
-186.00747630553303
 30
0.0
  0
VERTEX
  8
0
 10
325.5804862211981
 20
-181.90255009931315
 30
0.0
  0
VERTEX
  8
0
 10
326.32703
 20
-177.73605
 30
0.0
  0
SEQEND
  8
0
  0
POLYLINE
  8
0
 62
7
 70
0
 66
1
 10
0.0
 20
0.0
 30
0.0
  0
VERTEX
  8
0
 10
176.30704
 20
-277.79987
 30
0.0
  0
VERTEX
  8
0
 10
175.56049622119818
 20
-273.63336990068683
 30
0.0
  0
VERTEX
  8
0
 10
173.00091755102042
 20
-269.528443694467
 30
0.0
  0
VERTEX
  8
0
 10
168.75263585492232
 20
-266.6537192072511
 30
0.0
  0
VERTEX
  8
0
 10
163.84550153846158
 20
-265.8087490245231
 30
0.0
  0
VERTEX
  8
0
 10
159.502060746888
 20
-266.8038627984216
 30
0.0
  0
VERTEX
  8
0
 10
156.09651368421052
 20
-269.0484553933362
 30
0.0
  0
VERTEX
  8
0
 10
153.38166686567166
 20
-272.8363811186086
 30
0.0
  0
VERTEX
  8
0
 10
152.30704
 20
-277.79987
 30
0.0
  0
VERTEX
  8
0
 10
153.38166686567163
 20
-282.7633588813914
 30
0.0
  0
VERTEX
  8
0
 10
156.09651368421052
 20
-286.5512846066638
 30
0.0
  0
VERTEX
  8
0
 10
159.50206074688796
 20
-288.7958772015783
 30
0.0
  0
VERTEX
  8
0
 10
163.84550153846155
 20
-289.7909909754768
 30
0.0
  0
VERTEX
  8
0
 10
168.7526358549223
 20
-288.9460207927489
 30
0.0
  0
VERTEX
  8
0
 10
173.0009175510204
 20
-286.071296305533
 30
0.0
  0
VERTEX
  8
0
 10
175.56049622119818
 20
-281.9663700993131
 30
0.0
  0
VERTEX
  8
0
 10
176.30704
 20
-277.79987
 30
0.0
  0
SEQEND
  8
0
  0
POLYLINE
  8
0
 62
7
 70
0
 66
1
 10
0.0
 20
0.0
 30
0.0
  0
VERTEX
  8
0
 10
296.31879
 20
-277.79987
 30
0.0
  0
VERTEX
  8
0
 10
295.57224622119816
 20
-273.63336990068683
 30
0.0
  0
VERTEX
  8
0
 10
293.0126675510204
 20
-269.528443694467
 30
0.0
  0
VERTEX
  8
0
 10
288.76438585492224
 20
-266.6537192072511
 30
0.0
  0
VERTEX
  8
0
 10
283.8572515384615
 20
-265.8087490245231
 30
0.0
  0
VERTEX
  8
0
 10
279.513810746888
 20
-266.8038627984216
 30
0.0
  0
VERTEX
  8
0
 10
276.1082636842105
 20
-269.0484553933362
 30
0.0
  0
VERTEX
  8
0
 10
273.3934168656716
 20
-272.8363811186086
 30
0.0
  0
VERTEX
  8
0
 10
272.31879
 20
-277.79987
 30
0.0
  0
VERTEX
  8
0
 10
273.3934168656716
 20
-282.7633588813914
 30
0.0
  0
VERTEX
  8
0
 10
276.1082636842105
 20
-286.5512846066638
 30
0.0
  0
VERTEX
  8
0
 10
279.51381074688794
 20
-288.7958772015783
 30
0.0
  0
VERTEX
  8
0
 10
283.8572515384615
 20
-289.7909909754768
 30
0.0
  0
VERTEX
  8
0
 10
288.76438585492224
 20
-288.9460207927489
 30
0.0
  0
VERTEX
  8
0
 10
293.0126675510204
 20
-286.071296305533
 30
0.0
  0
VERTEX
  8
0
 10
295.5722462211981
 20
-281.9663700993131
 30
0.0
  0
VERTEX
  8
0
 10
296.31879
 20
-277.79987
 30
0.0
  0
SEQEND
  8
0
  0
POLYLINE
  8
0
 62
7
 70
0
 66
1
 10
0.0
 20
0.0
 30
0.0
  0
VERTEX
  8
0
 10
266.31678999999997
 20
-277.79987
 30
0.0
  0
VERTEX
  8
0
 10
265.57024622119815
 20
-273.63336990068683
 30
0.0
  0
VERTEX
  8
0
 10
263.0106675510204
 20
-269.528443694467
 30
0.0
  0
VERTEX
  8
0
 10
258.7623858549223
 20
-266.6537192072511
 30
0.0
  0
VERTEX
  8
0
 10
253.85525153846154
 20
-265.8087490245231
 30
0.0
  0
VERTEX
  8
0
 10
249.51181074688796
 20
-266.8038627984216
 30
0.0
  0
VERTEX
  8
0
 10
246.10626368421052
 20
-269.0484553933362
 30
0.0
  0
VERTEX
  8
0
 10
243.39141686567163
 20
-272.8363811186086
 30
0.0
  0
VERTEX
  8
0
 10
242.31679
 20
-277.79987
 30
0.0
  0
VERTEX
  8
0
 10
243.39141686567163
 20
-282.7633588813914
 30
0.0
  0
VERTEX
  8
0
 10
246.10626368421052
 20
-286.5512846066638
 30
0.0
  0
VERTEX
  8
0
 10
249.51181074688796
 20
-288.7958772015783
 30
0.0
  0
VERTEX
  8
0
 10
253.85525153846154
 20
-289.7909909754768
 30
0.0
  0
VERTEX
  8
0
 10
258.7623858549223
 20
-288.9460207927489
 30
0.0
  0
VERTEX
  8
0
 10
263.01066755102033
 20
-286.071296305533
 30
0.0
  0
VERTEX
  8
0
 10
265.5702462211981
 20
-281.9663700993131
 30
0.0
  0
VERTEX
  8
0
 10
266.31678999999997
 20
-277.79987
 30
0.0
  0
SEQEND
  8
0
  0
POLYLINE
  8
0
 62
7
 70
0
 66
1
 10
0.0
 20
0.0
 30
0.0
  0
VERTEX
  8
0
 10
236.32066
 20
-344.49438
 30
0.0
  0
VERTEX
  8
0
 10
235.57411622119815
 20
-340.32787990068687
 30
0.0
  0
VERTEX
  8
0
 10
233.01453755102045
 20
-336.22295369446704
 30
0.0
  0
VERTEX
  8
0
 10
228.7662558549223
 20
-333.34822920725105
 30
0.0
  0
VERTEX
  8
0
 10
223.85912153846155
 20
-332.5032590245232
 30
0.0
  0
VERTEX
  8
0
 10
219.51568074688797
 20
-333.4983727984216
 30
0.0
  0
VERTEX
  8
0
 10
216.1101336842105
 20
-335.74296539333614
 30
0.0
  0
VERTEX
  8
0
 10
213.39528686567166
 20
-339.53089111860857
 30
0.0
  0
VERTEX
  8
0
 10
212.32066
 20
-344.49438000000004
 30
0.0
  0
VERTEX
  8
0
 10
213.39528686567166
 20
-349.45786888139145
 30
0.0
  0
VERTEX
  8
0
 10
216.11013368421055
 20
-353.2457946066638
 30
0.0
  0
VERTEX
  8
0
 10
219.51568074688797
 20
-355.49038720157836
 30
0.0
  0
VERTEX
  8
0
 10
223.85912153846155
 20
-356.48550097547684
 30
0.0
  0
VERTEX
  8
0
 10
228.7662558549223
 20
-355.6405307927489
 30
0.0
  0
VERTEX
  8
0
 10
233.0145375510204
 20
-352.765806305533
 30
0.0
  0
VERTEX
  8
0
 10
235.57411622119815
 20
-348.6608800993131
 30
0.0
  0
VERTEX
  8
0
 10
236.32066
 20
-344.49438
 30
0.0
  0
SEQEND
  8
0
  0
POLYLINE
  8
0
 62
7
 70
0
 66
1
 10
0.0
 20
0.0
 30
0.0
  0
VERTEX
  8
0
 10
326.32535
 20
-377.83551
 30
0.0
  0
VERTEX
  8
0
 10
325.5788062211982
 20
-373.6690099006869
 30
0.0
  0
VERTEX
  8
0
 10
323.01922755102044
 20
-369.564083694467
 30
0.0
  0
VERTEX
  8
0
 10
318.77094585492233
 20
-366.68935920725113
 30
0.0
  0
VERTEX
  8
0
 10
313.86381153846156
 20
-365.8443890245232
 30
0.0
  0
VERTEX
  8
0
 10
309.520370746888
 20
-366.8395027984216
 30
0.0
  0
VERTEX
  8
0
 10
306.11482368421053
 20
-369.08409539333616
 30
0.0
  0
VERTEX
  8
0
 10
303.39997686567165
 20
-372.8720211186086
 30
0.0
  0
VERTEX
  8
0
 10
302.32535
 20
-377.83551000000006
 30
0.0
  0
VERTEX
  8
0
 10
303.39997686567165
 20
-382.7989988813914
 30
0.0
  0
VERTEX
  8
0
 10
306.11482368421053
 20
-386.58692460666384
 30
0.0
  0
VERTEX
  8
0
 10
309.5203707468879
 20
-388.8315172015783
 30
0.0
  0
VERTEX
  8
0
 10
313.86381153846156
 20
-389.82663097547686
 30
0.0
  0
VERTEX
  8
0
 10
318.77094585492233
 20
-388.9816607927489
 30
0.0
  0
VERTEX
  8
0
 10
323.01922755102044
 20
-386.10693630553305
 30
0.0
  0
VERTEX
  8
0
 10
325.5788062211982
 20
-382.00201009931317
 30
0.0
  0
VERTEX
  8
0
 10
326.32535
 20
-377.83551
 30
0.0
  0
SEQEND
  8
0
  0
POLYLINE
  8
0
 62
7
 70
0
 66
1
 10
0.0
 20
0.0
 30
0.0
  0
VERTEX
  8
0
 10
176.31242
 20
-344.49438
 30
0.0
  0
VERTEX
  8
0
 10
175.56587622119815
 20
-340.32787990068687
 30
0.0
  0
VERTEX
  8
0
 10
173.00629755102042
 20
-336.22295369446704
 30
0.0
  0
VERTEX
  8
0
 10
168.75801585492226
 20
-333.34822920725105
 30
0.0
  0
VERTEX
  8
0
 10
163.85088153846152
 20
-332.5032590245232
 30
0.0
  0
VERTEX
  8
0
 10
159.50744074688794
 20
-333.4983727984216
 30
0.0
  0
VERTEX
  8
0
 10
156.1018936842105
 20
-335.74296539333614
 30
0.0
  0
VERTEX
  8
0
 10
153.38704686567164
 20
-339.53089111860857
 30
0.0
  0
VERTEX
  8
0
 10
152.31242
 20
-344.49438000000004
 30
0.0
  0
VERTEX
  8
0
 10
153.38704686567164
 20
-349.45786888139145
 30
0.0
  0
VERTEX
  8
0
 10
156.10189368421055
 20
-353.2457946066638
 30
0.0
  0
VERTEX
  8
0
 10
159.50744074688797
 20
-355.49038720157836
 30
0.0
  0
VERTEX
  8
0
 10
163.85088153846152
 20
-356.48550097547684
 30
0.0
  0
VERTEX
  8
0
 10
168.75801585492226
 20
-355.6405307927489
 30
0.0
  0
VERTEX
  8
0
 10
173.0062975510204
 20
-352.765806305533
 30
0.0
  0
VERTEX
  8
0
 10
175.56587622119812
 20
-348.6608800993131
 30
0.0
  0
VERTEX
  8
0
 10
176.31242
 20
-344.49438
 30
0.0
  0
SEQEND
  8
0
  0
POLYLINE
  8
0
 62
7
 70
0
 66
1
 10
0.0
 20
0.0
 30
0.0
  0
VERTEX
  8
0
 10
266.32217
 20
-344.49438
 30
0.0
  0
VERTEX
  8
0
 10
265.5756262211982
 20
-340.32787990068687
 30
0.0
  0
VERTEX
  8
0
 10
263.01604755102045
 20
-336.22295369446704
 30
0.0
  0
VERTEX
  8
0
 10
258.76776585492235
 20
-333.34822920725105
 30
0.0
  0
VERTEX
  8
0
 10
253.86063153846155
 20
-332.5032590245232
 30
0.0
  0
VERTEX
  8
0
 10
249.51719074688796
 20
-333.4983727984216
 30
0.0
  0
VERTEX
  8
0
 10
246.11164368421052
 20
-335.74296539333614
 30
0.0
  0
VERTEX
  8
0
 10
243.39679686567163
 20
-339.53089111860857
 30
0.0
  0
VERTEX
  8
0
 10
242.32217000000003
 20
-344.49438000000004
 30
0.0
  0
VERTEX
  8
0
 10
243.39679686567163
 20
-349.45786888139145
 30
0.0
  0
VERTEX
  8
0
 10
246.11164368421052
 20
-353.2457946066638
 30
0.0
  0
VERTEX
  8
0
 10
249.51719074688793
 20
-355.49038720157836
 30
0.0
  0
VERTEX
  8
0
 10
253.86063153846152
 20
-356.48550097547684
 30
0.0
  0
VERTEX
  8
0
 10
258.7677658549223
 20
-355.6405307927489
 30
0.0
  0
VERTEX
  8
0
 10
263.01604755102045
 20
-352.765806305533
 30
0.0
  0
VERTEX
  8
0
 10
265.57562622119815
 20
-348.6608800993131
 30
0.0
  0
VERTEX
  8
0
 10
266.32217
 20
-344.49438
 30
0.0
  0
SEQEND
  8
0
  0
POLYLINE
  8
0
 62
7
 70
0
 66
1
 10
0.0
 20
0.0
 30
0.0
  0
VERTEX
  8
0
 10
386.31509
 20
-277.79987
 30
0.0
  0
VERTEX
  8
0
 10
385.5685462211982
 20
-273.63336990068683
 30
0.0
  0
VERTEX
  8
0
 10
383.0089675510205
 20
-269.528443694467
 30
0.0
  0
VERTEX
  8
0
 10
378.76068585492226
 20
-266.6537192072511
 30
0.0
  0
VERTEX
  8
0
 10
373.8535515384616
 20
-265.8087490245231
 30
0.0
  0
VERTEX
  8
0
 10
369.510110746888
 20
-266.8038627984216
 30
0.0
  0
VERTEX
  8
0
 10
366.1045636842105
 20
-269.0484553933362
 30
0.0
  0
VERTEX
  8
0
 10
363.38971686567163
 20
-272.8363811186086
 30
0.0
  0
VERTEX
  8
0
 10
362.31509000000005
 20
-277.79987
 30
0.0
  0
VERTEX
  8
0
 10
363.3897168656716
 20
-282.7633588813914
 30
0.0
  0
VERTEX
  8
0
 10
366.1045636842105
 20
-286.5512846066638
 30
0.0
  0
VERTEX
  8
0
 10
369.51011074688796
 20
-288.7958772015783
 30
0.0
  0
VERTEX
  8
0
 10
373.85355153846155
 20
-289.7909909754768
 30
0.0
  0
VERTEX
  8
0
 10
378.76068585492226
 20
-288.9460207927489
 30
0.0
  0
VERTEX
  8
0
 10
383.00896755102036
 20
-286.071296305533
 30
0.0
  0
VERTEX
  8
0
 10
385.5685462211981
 20
-281.9663700993131
 30
0.0
  0
VERTEX
  8
0
 10
386.31509
 20
-277.79987
 30
0.0
  0
SEQEND
  8
0
  0
POLYLINE
  8
0
 62
7
 70
0
 66
1
 10
0.0
 20
0.0
 30
0.0
  0
VERTEX
  8
0
 10
86.300491
 20
-311.14331
 30
0.0
  0
VERTEX
  8
0
 10
85.55394722119814
 20
-306.9768099006868
 30
0.0
  0
VERTEX
  8
0
 10
82.99436855102041
 20
-302.871883694467
 30
0.0
  0
VERTEX
  8
0
 10
78.74608685492227
 20
-299.99715920725106
 30
0.0
  0
VERTEX
  8
0
 10
73.83895253846154
 20
-299.1521890245231
 30
0.0
  0
VERTEX
  8
0
 10
69.49551174688794
 20
-300.14730279842166
 30
0.0
  0
VERTEX
  8
0
 10
66.08996468421051
 20
-302.3918953933362
 30
0.0
  0
VERTEX
  8
0
 10
63.37511786567163
 20
-306.17982111860863
 30
0.0
  0
VERTEX
  8
0
 10
62.300491
 20
-311.14331
 30
0.0
  0
VERTEX
  8
0
 10
63.37511786567164
 20
-316.1067988813914
 30
0.0
  0
VERTEX
  8
0
 10
66.08996468421053
 20
-319.89472460666383
 30
0.0
  0
VERTEX
  8
0
 10
69.49551174688796
 20
-322.1393172015783
 30
0.0
  0
VERTEX
  8
0
 10
73.83895253846153
 20
-323.1344309754768
 30
0.0
  0
VERTEX
  8
0
 10
78.74608685492227
 20
-322.28946079274897
 30
0.0
  0
VERTEX
  8
0
 10
82.99436855102039
 20
-319.414736305533
 30
0.0
  0
VERTEX
  8
0
 10
85.55394722119813
 20
-315.3098100993131
 30
0.0
  0
VERTEX
  8
0
 10
86.300491
 20
-311.14331
 30
0.0
  0
SEQEND
  8
0
  0
POLYLINE
  8
0
 62
7
 70
0
 66
1
 10
0.0
 20
0.0
 30
0.0
  0
VERTEX
  8
0
 10
116.32999
 20
-344.49438
 30
0.0
  0
VERTEX
  8
0
 10
115.58344622119816
 20
-340.32787990068687
 30
0.0
  0
VERTEX
  8
0
 10
113.02386755102042
 20
-336.22295369446704
 30
0.0
  0
VERTEX
  8
0
 10
108.77558585492228
 20
-333.34822920725105
 30
0.0
  0
VERTEX
  8
0
 10
103.86845153846154
 20
-332.5032590245232
 30
0.0
  0
VERTEX
  8
0
 10
99.52501074688796
 20
-333.4983727984216
 30
0.0
  0
VERTEX
  8
0
 10
96.11946368421052
 20
-335.74296539333614
 30
0.0
  0
VERTEX
  8
0
 10
93.40461686567163
 20
-339.53089111860857
 30
0.0
  0
VERTEX
  8
0
 10
92.32999000000001
 20
-344.49438000000004
 30
0.0
  0
VERTEX
  8
0
 10
93.40461686567164
 20
-349.45786888139145
 30
0.0
  0
VERTEX
  8
0
 10
96.11946368421053
 20
-353.2457946066638
 30
0.0
  0
VERTEX
  8
0
 10
99.52501074688796
 20
-355.49038720157836
 30
0.0
  0
VERTEX
  8
0
 10
103.86845153846154
 20
-356.48550097547684
 30
0.0
  0
VERTEX
  8
0
 10
108.77558585492228
 20
-355.6405307927489
 30
0.0
  0
VERTEX
  8
0
 10
113.02386755102042
 20
-352.765806305533
 30
0.0
  0
VERTEX
  8
0
 10
115.58344622119816
 20
-348.6608800993131
 30
0.0
  0
VERTEX
  8
0
 10
116.32999
 20
-344.49438
 30
0.0
  0
SEQEND
  8
0
  0
POLYLINE
  8
0
 62
7
 70
0
 66
1
 10
0.0
 20
0.0
 30
0.0
  0
VERTEX
  8
0
 10
206.32423
 20
-344.49438
 30
0.0
  0
VERTEX
  8
0
 10
205.57768622119818
 20
-340.32787990068687
 30
0.0
  0
VERTEX
  8
0
 10
203.01810755102042
 20
-336.22295369446704
 30
0.0
  0
VERTEX
  8
0
 10
198.7698258549223
 20
-333.34822920725105
 30
0.0
  0
VERTEX
  8
0
 10
193.86269153846158
 20
-332.5032590245232
 30
0.0
  0
VERTEX
  8
0
 10
189.51925074688796
 20
-333.4983727984216
 30
0.0
  0
VERTEX
  8
0
 10
186.1137036842105
 20
-335.74296539333614
 30
0.0
  0
VERTEX
  8
0
 10
183.39885686567166
 20
-339.53089111860857
 30
0.0
  0
VERTEX
  8
0
 10
182.32423000000003
 20
-344.49438000000004
 30
0.0
  0
VERTEX
  8
0
 10
183.39885686567163
 20
-349.45786888139145
 30
0.0
  0
VERTEX
  8
0
 10
186.11370368421055
 20
-353.2457946066638
 30
0.0
  0
VERTEX
  8
0
 10
189.51925074688796
 20
-355.49038720157836
 30
0.0
  0
VERTEX
  8
0
 10
193.86269153846155
 20
-356.48550097547684
 30
0.0
  0
VERTEX
  8
0
 10
198.7698258549223
 20
-355.6405307927489
 30
0.0
  0
VERTEX
  8
0
 10
203.0181075510204
 20
-352.765806305533
 30
0.0
  0
VERTEX
  8
0
 10
205.57768622119815
 20
-348.6608800993131
 30
0.0
  0
VERTEX
  8
0
 10
206.32423
 20
-344.49438
 30
0.0
  0
SEQEND
  8
0
  0
POLYLINE
  8
0
 62
7
 70
0
 66
1
 10
0.0
 20
0.0
 30
0.0
  0
VERTEX
  8
0
 10
146.32561
 20
-344.49438
 30
0.0
  0
VERTEX
  8
0
 10
145.5790662211982
 20
-340.32787990068687
 30
0.0
  0
VERTEX
  8
0
 10
143.01948755102043
 20
-336.22295369446704
 30
0.0
  0
VERTEX
  8
0
 10
138.7712058549223
 20
-333.34822920725105
 30
0.0
  0
VERTEX
  8
0
 10
133.86407153846156
 20
-332.5032590245232
 30
0.0
  0
VERTEX
  8
0
 10
129.52063074688797
 20
-333.4983727984216
 30
0.0
  0
VERTEX
  8
0
 10
126.11508368421052
 20
-335.74296539333614
 30
0.0
  0
VERTEX
  8
0
 10
123.40023686567166
 20
-339.53089111860857
 30
0.0
  0
VERTEX
  8
0
 10
122.32561000000003
 20
-344.49438000000004
 30
0.0
  0
VERTEX
  8
0
 10
123.40023686567166
 20
-349.45786888139145
 30
0.0
  0
VERTEX
  8
0
 10
126.11508368421055
 20
-353.2457946066638
 30
0.0
  0
VERTEX
  8
0
 10
129.52063074688797
 20
-355.49038720157836
 30
0.0
  0
VERTEX
  8
0
 10
133.86407153846156
 20
-356.48550097547684
 30
0.0
  0
VERTEX
  8
0
 10
138.77120585492227
 20
-355.6405307927489
 30
0.0
  0
VERTEX
  8
0
 10
143.0194875510204
 20
-352.765806305533
 30
0.0
  0
VERTEX
  8
0
 10
145.57906622119813
 20
-348.6608800993131
 30
0.0
  0
VERTEX
  8
0
 10
146.32561
 20
-344.49438
 30
0.0
  0
SEQEND
  8
0
  0
POLYLINE
  8
0
 62
7
 70
0
 66
1
 10
0.0
 20
0.0
 30
0.0
  0
VERTEX
  8
0
 10
386.3295
 20
-144.38614
 30
0.0
  0
VERTEX
  8
0
 10
385.5829562211982
 20
-140.21963990068687
 30
0.0
  0
VERTEX
  8
0
 10
383.0233775510205
 20
-136.114713694467
 30
0.0
  0
VERTEX
  8
0
 10
378.7750958549223
 20
-133.23998920725109
 30
0.0
  0
VERTEX
  8
0
 10
373.8679615384616
 20
-132.39501902452318
 30
0.0
  0
VERTEX
  8
0
 10
369.52452074688796
 20
-133.39013279842166
 30
0.0
  0
VERTEX
  8
0
 10
366.11897368421046
 20
-135.63472539333623
 30
0.0
  0
VERTEX
  8
0
 10
363.4041268656716
 20
-139.42265111860863
 30
0.0
  0
VERTEX
  8
0
 10
362.3295
 20
-144.38614000000004
 30
0.0
  0
VERTEX
  8
0
 10
363.40412686567157
 20
-149.34962888139142
 30
0.0
  0
VERTEX
  8
0
 10
366.1189736842106
 20
-153.13755460666383
 30
0.0
  0
VERTEX
  8
0
 10
369.52452074688796
 20
-155.38214720157836
 30
0.0
  0
VERTEX
  8
0
 10
373.8679615384615
 20
-156.37726097547687
 30
0.0
  0
VERTEX
  8
0
 10
378.7750958549223
 20
-155.53229079274894
 30
0.0
  0
VERTEX
  8
0
 10
383.0233775510205
 20
-152.657566305533
 30
0.0
  0
VERTEX
  8
0
 10
385.5829562211981
 20
-148.55264009931318
 30
0.0
  0
VERTEX
  8
0
 10
386.3295
 20
-144.38614
 30
0.0
  0
SEQEND
  8
0
  0
POLYLINE
  8
0
 62
7
 70
0
 66
1
 10
0.0
 20
0.0
 30
0.0
  0
VERTEX
  8
0
 10
236.29707
 20
-77.689003
 30
0.0
  0
VERTEX
  8
0
 10
235.55052622119814
 20
-73.52250290068685
 30
0.0
  0
VERTEX
  8
0
 10
232.9909475510204
 20
-69.417576694467
 30
0.0
  0
VERTEX
  8
0
 10
228.74266585492228
 20
-66.54285220725107
 30
0.0
  0
VERTEX
  8
0
 10
223.83553153846154
 20
-65.69788202452317
 30
0.0
  0
VERTEX
  8
0
 10
219.49209074688795
 20
-66.69299579842165
 30
0.0
  0
VERTEX
  8
0
 10
216.0865436842105
 20
-68.9375883933362
 30
0.0
  0
VERTEX
  8
0
 10
213.37169686567162
 20
-72.72551411860859
 30
0.0
  0
VERTEX
  8
0
 10
212.29707
 20
-77.689003
 30
0.0
  0
VERTEX
  8
0
 10
213.3716968656716
 20
-82.65249188139141
 30
0.0
  0
VERTEX
  8
0
 10
216.0865436842105
 20
-86.44041760666379
 30
0.0
  0
VERTEX
  8
0
 10
219.49209074688795
 20
-88.68501020157834
 30
0.0
  0
VERTEX
  8
0
 10
223.8355315384615
 20
-89.68012397547683
 30
0.0
  0
VERTEX
  8
0
 10
228.74266585492228
 20
-88.83515379274894
 30
0.0
  0
VERTEX
  8
0
 10
232.9909475510204
 20
-85.96042930553301
 30
0.0
  0
VERTEX
  8
0
 10
235.55052622119814
 20
-81.85550309931314
 30
0.0
  0
VERTEX
  8
0
 10
236.29707
 20
-77.689003
 30
0.0
  0
SEQEND
  8
0
  0
POLYLINE
  8
0
 62
7
 70
0
 66
1
 10
0.0
 20
0.0
 30
0.0
  0
VERTEX
  8
0
 10
326.32272
 20
-344.49438
 30
0.0
  0
VERTEX
  8
0
 10
325.5761762211982
 20
-340.32787990068687
 30
0.0
  0
VERTEX
  8
0
 10
323.0165975510204
 20
-336.22295369446704
 30
0.0
  0
VERTEX
  8
0
 10
318.7683158549223
 20
-333.34822920725105
 30
0.0
  0
VERTEX
  8
0
 10
313.8611815384616
 20
-332.5032590245232
 30
0.0
  0
VERTEX
  8
0
 10
309.51774074688797
 20
-333.4983727984216
 30
0.0
  0
VERTEX
  8
0
 10
306.1121936842105
 20
-335.74296539333614
 30
0.0
  0
VERTEX
  8
0
 10
303.3973468656717
 20
-339.53089111860857
 30
0.0
  0
VERTEX
  8
0
 10
302.32272000000006
 20
-344.49438000000004
 30
0.0
  0
VERTEX
  8
0
 10
303.39734686567164
 20
-349.45786888139145
 30
0.0
  0
VERTEX
  8
0
 10
306.1121936842105
 20
-353.2457946066638
 30
0.0
  0
VERTEX
  8
0
 10
309.51774074688797
 20
-355.49038720157836
 30
0.0
  0
VERTEX
  8
0
 10
313.86118153846155
 20
-356.48550097547684
 30
0.0
  0
VERTEX
  8
0
 10
318.7683158549223
 20
-355.6405307927489
 30
0.0
  0
VERTEX
  8
0
 10
323.0165975510204
 20
-352.765806305533
 30
0.0
  0
VERTEX
  8
0
 10
325.5761762211982
 20
-348.6608800993131
 30
0.0
  0
VERTEX
  8
0
 10
326.32272
 20
-344.49438
 30
0.0
  0
SEQEND
  8
0
  0
POLYLINE
  8
0
 62
7
 70
0
 66
1
 10
0.0
 20
0.0
 30
0.0
  0
VERTEX
  8
0
 10
296.32425
 20
-344.49438
 30
0.0
  0
VERTEX
  8
0
 10
295.5777062211982
 20
-340.32787990068687
 30
0.0
  0
VERTEX
  8
0
 10
293.0181275510204
 20
-336.22295369446704
 30
0.0
  0
VERTEX
  8
0
 10
288.7698458549223
 20
-333.34822920725105
 30
0.0
  0
VERTEX
  8
0
 10
283.86271153846155
 20
-332.5032590245232
 30
0.0
  0
VERTEX
  8
0
 10
279.51927074688797
 20
-333.4983727984216
 30
0.0
  0
VERTEX
  8
0
 10
276.1137236842105
 20
-335.74296539333614
 30
0.0
  0
VERTEX
  8
0
 10
273.39887686567164
 20
-339.53089111860857
 30
0.0
  0
VERTEX
  8
0
 10
272.32425000000006
 20
-344.49438000000004
 30
0.0
  0
VERTEX
  8
0
 10
273.39887686567164
 20
-349.45786888139145
 30
0.0
  0
VERTEX
  8
0
 10
276.1137236842105
 20
-353.2457946066638
 30
0.0
  0
VERTEX
  8
0
 10
279.51927074688797
 20
-355.49038720157836
 30
0.0
  0
VERTEX
  8
0
 10
283.86271153846155
 20
-356.48550097547684
 30
0.0
  0
VERTEX
  8
0
 10
288.76984585492227
 20
-355.6405307927489
 30
0.0
  0
VERTEX
  8
0
 10
293.0181275510204
 20
-352.765806305533
 30
0.0
  0
VERTEX
  8
0
 10
295.5777062211981
 20
-348.6608800993131
 30
0.0
  0
VERTEX
  8
0
 10
296.32425
 20
-344.49438
 30
0.0
  0
SEQEND
  8
0
  0
POLYLINE
  8
0
 62
7
 70
0
 66
1
 10
0.0
 20
0.0
 30
0.0
  0
VERTEX
  8
0
 10
146.32581
 20
-111.04279
 30
0.0
  0
VERTEX
  8
0
 10
145.57926622119814
 20
-106.87628990068686
 30
0.0
  0
VERTEX
  8
0
 10
143.01968755102038
 20
-102.771363694467
 30
0.0
  0
VERTEX
  8
0
 10
138.77140585492225
 20
-99.89663920725108
 30
0.0
  0
VERTEX
  8
0
 10
133.86427153846154
 20
-99.05166902452318
 30
0.0
  0
VERTEX
  8
0
 10
129.52083074688795
 20
-100.04678279842166
 30
0.0
  0
VERTEX
  8
0
 10
126.11528368421051
 20
-102.2913753933362
 30
0.0
  0
VERTEX
  8
0
 10
123.40043686567162
 20
-106.0793011186086
 30
0.0
  0
VERTEX
  8
0
 10
122.32580999999998
 20
-111.04279000000001
 30
0.0
  0
VERTEX
  8
0
 10
123.4004368656716
 20
-116.00627888139141
 30
0.0
  0
VERTEX
  8
0
 10
126.1152836842105
 20
-119.79420460666381
 30
0.0
  0
VERTEX
  8
0
 10
129.52083074688795
 20
-122.03879720157833
 30
0.0
  0
VERTEX
  8
0
 10
133.86427153846154
 20
-123.03391097547683
 30
0.0
  0
VERTEX
  8
0
 10
138.77140585492225
 20
-122.18894079274892
 30
0.0
  0
VERTEX
  8
0
 10
143.0196875510204
 20
-119.31421630553302
 30
0.0
  0
VERTEX
  8
0
 10
145.57926622119814
 20
-115.20929009931315
 30
0.0
  0
VERTEX
  8
0
 10
146.32581
 20
-111.04279
 30
0.0
  0
SEQEND
  8
0
  0
POLYLINE
  8
0
 62
7
 70
0
 66
1
 10
0.0
 20
0.0
 30
0.0
  0
VERTEX
  8
0
 10
86.294403
 20
-277.7995
 30
0.0
  0
VERTEX
  8
0
 10
85.54785922119817
 20
-273.6329999006869
 30
0.0
  0
VERTEX
  8
0
 10
82.98828055102041
 20
-269.528073694467
 30
0.0
  0
VERTEX
  8
0
 10
78.73999885492229
 20
-266.6533492072511
 30
0.0
  0
VERTEX
  8
0
 10
73.83286453846154
 20
-265.80837902452316
 30
0.0
  0
VERTEX
  8
0
 10
69.48942374688795
 20
-266.8034927984217
 30
0.0
  0
VERTEX
  8
0
 10
66.08387668421052
 20
-269.0480853933362
 30
0.0
  0
VERTEX
  8
0
 10
63.36902986567164
 20
-272.83601111860867
 30
0.0
  0
VERTEX
  8
0
 10
62.29440300000001
 20
-277.7995
 30
0.0
  0
VERTEX
  8
0
 10
63.36902986567164
 20
-282.76298888139144
 30
0.0
  0
VERTEX
  8
0
 10
66.08387668421054
 20
-286.5509146066638
 30
0.0
  0
VERTEX
  8
0
 10
69.48942374688797
 20
-288.79550720157835
 30
0.0
  0
VERTEX
  8
0
 10
73.83286453846154
 20
-289.7906209754769
 30
0.0
  0
VERTEX
  8
0
 10
78.73999885492229
 20
-288.94565079274895
 30
0.0
  0
VERTEX
  8
0
 10
82.98828055102041
 20
-286.070926305533
 30
0.0
  0
VERTEX
  8
0
 10
85.54785922119814
 20
-281.9660000993132
 30
0.0
  0
VERTEX
  8
0
 10
86.294403
 20
-277.7995
 30
0.0
  0
SEQEND
  8
0
  0
POLYLINE
  8
0
 62
7
 70
0
 66
1
 10
0.0
 20
0.0
 30
0.0
  0
VERTEX
  8
0
 10
86.299805
 20
-344.49399
 30
0.0
  0
VERTEX
  8
0
 10
85.55326122119816
 20
-340.3274899006868
 30
0.0
  0
VERTEX
  8
0
 10
82.99368255102043
 20
-336.222563694467
 30
0.0
  0
VERTEX
  8
0
 10
78.74540085492228
 20
-333.34783920725107
 30
0.0
  0
VERTEX
  8
0
 10
73.83826653846155
 20
-332.50286902452314
 30
0.0
  0
VERTEX
  8
0
 10
69.49482574688797
 20
-333.49798279842156
 30
0.0
  0
VERTEX
  8
0
 10
66.08927868421053
 20
-335.7425753933362
 30
0.0
  0
VERTEX
  8
0
 10
63.37443186567165
 20
-339.53050111860864
 30
0.0
  0
VERTEX
  8
0
 10
62.29980500000001
 20
-344.49399
 30
0.0
  0
VERTEX
  8
0
 10
63.37443186567166
 20
-349.4574788813914
 30
0.0
  0
VERTEX
  8
0
 10
66.08927868421056
 20
-353.2454046066638
 30
0.0
  0
VERTEX
  8
0
 10
69.49482574688797
 20
-355.4899972015783
 30
0.0
  0
VERTEX
  8
0
 10
73.83826653846154
 20
-356.48511097547686
 30
0.0
  0
VERTEX
  8
0
 10
78.74540085492228
 20
-355.6401407927489
 30
0.0
  0
VERTEX
  8
0
 10
82.99368255102041
 20
-352.765416305533
 30
0.0
  0
VERTEX
  8
0
 10
85.55326122119816
 20
-348.6604900993131
 30
0.0
  0
VERTEX
  8
0
 10
86.299805
 20
-344.49399
 30
0.0
  0
SEQEND
  8
0
  0
POLYLINE
  8
0
 62
7
 70
0
 66
1
 10
0.0
 20
0.0
 30
0.0
  0
VERTEX
  8
0
 10
296.32559
 20
-211.08253
 30
0.0
  0
VERTEX
  8
0
 10
295.57904622119815
 20
-206.91602990068685
 30
0.0
  0
VERTEX
  8
0
 10
293.0194675510204
 20
-202.811103694467
 30
0.0
  0
VERTEX
  8
0
 10
288.7711858549223
 20
-199.93637920725104
 30
0.0
  0
VERTEX
  8
0
 10
283.8640515384615
 20
-199.09140902452313
 30
0.0
  0
VERTEX
  8
0
 10
279.52061074688794
 20
-200.0865227984216
 30
0.0
  0
VERTEX
  8
0
 10
276.1150636842105
 20
-202.3311153933362
 30
0.0
  0
VERTEX
  8
0
 10
273.4002168656716
 20
-206.1190411186086
 30
0.0
  0
VERTEX
  8
0
 10
272.32559
 20
-211.08253
 30
0.0
  0
VERTEX
  8
0
 10
273.4002168656716
 20
-216.04601888139138
 30
0.0
  0
VERTEX
  8
0
 10
276.1150636842105
 20
-219.83394460666378
 30
0.0
  0
VERTEX
  8
0
 10
279.52061074688794
 20
-222.0785372015783
 30
0.0
  0
VERTEX
  8
0
 10
283.86405153846147
 20
-223.07365097547682
 30
0.0
  0
VERTEX
  8
0
 10
288.7711858549223
 20
-222.22868079274892
 30
0.0
  0
VERTEX
  8
0
 10
293.0194675510204
 20
-219.35395630553305
 30
0.0
  0
VERTEX
  8
0
 10
295.57904622119815
 20
-215.24903009931316
 30
0.0
  0
VERTEX
  8
0
 10
296.32559
 20
-211.08253
 30
0.0
  0
SEQEND
  8
0
  0
POLYLINE
  8
0
 62
7
 70
0
 66
1
 10
0.0
 20
0.0
 30
0.0
  0
VERTEX
  8
0
 10
146.327
 20
-211.08253
 30
0.0
  0
VERTEX
  8
0
 10
145.58045622119818
 20
-206.91602990068685
 30
0.0
  0
VERTEX
  8
0
 10
143.02087755102042
 20
-202.811103694467
 30
0.0
  0
VERTEX
  8
0
 10
138.7725958549223
 20
-199.93637920725104
 30
0.0
  0
VERTEX
  8
0
 10
133.86546153846155
 20
-199.09140902452313
 30
0.0
  0
VERTEX
  8
0
 10
129.52202074688796
 20
-200.0865227984216
 30
0.0
  0
VERTEX
  8
0
 10
126.11647368421052
 20
-202.3311153933362
 30
0.0
  0
VERTEX
  8
0
 10
123.40162686567163
 20
-206.1190411186086
 30
0.0
  0
VERTEX
  8
0
 10
122.327
 20
-211.08253
 30
0.0
  0
VERTEX
  8
0
 10
123.40162686567163
 20
-216.04601888139138
 30
0.0
  0
VERTEX
  8
0
 10
126.11647368421053
 20
-219.83394460666378
 30
0.0
  0
VERTEX
  8
0
 10
129.52202074688796
 20
-222.0785372015783
 30
0.0
  0
VERTEX
  8
0
 10
133.86546153846155
 20
-223.07365097547682
 30
0.0
  0
VERTEX
  8
0
 10
138.7725958549223
 20
-222.22868079274892
 30
0.0
  0
VERTEX
  8
0
 10
143.02087755102042
 20
-219.35395630553305
 30
0.0
  0
VERTEX
  8
0
 10
145.58045622119815
 20
-215.24903009931316
 30
0.0
  0
VERTEX
  8
0
 10
146.327
 20
-211.08253
 30
0.0
  0
SEQEND
  8
0
  0
POLYLINE
  8
0
 62
7
 70
0
 66
1
 10
0.0
 20
0.0
 30
0.0
  0
VERTEX
  8
0
 10
296.33319
 20
-144.38614
 30
0.0
  0
VERTEX
  8
0
 10
295.5866462211982
 20
-140.21963990068687
 30
0.0
  0
VERTEX
  8
0
 10
293.0270675510204
 20
-136.114713694467
 30
0.0
  0
VERTEX
  8
0
 10
288.77878585492226
 20
-133.23998920725109
 30
0.0
  0
VERTEX
  8
0
 10
283.87165153846155
 20
-132.39501902452318
 30
0.0
  0
VERTEX
  8
0
 10
279.52821074688796
 20
-133.39013279842166
 30
0.0
  0
VERTEX
  8
0
 10
276.1226636842105
 20
-135.63472539333623
 30
0.0
  0
VERTEX
  8
0
 10
273.40781686567163
 20
-139.42265111860863
 30
0.0
  0
VERTEX
  8
0
 10
272.33319
 20
-144.38614000000004
 30
0.0
  0
VERTEX
  8
0
 10
273.40781686567163
 20
-149.34962888139142
 30
0.0
  0
VERTEX
  8
0
 10
276.1226636842105
 20
-153.13755460666383
 30
0.0
  0
VERTEX
  8
0
 10
279.52821074688796
 20
-155.38214720157836
 30
0.0
  0
VERTEX
  8
0
 10
283.87165153846155
 20
-156.37726097547687
 30
0.0
  0
VERTEX
  8
0
 10
288.77878585492226
 20
-155.53229079274894
 30
0.0
  0
VERTEX
  8
0
 10
293.0270675510204
 20
-152.657566305533
 30
0.0
  0
VERTEX
  8
0
 10
295.5866462211982
 20
-148.55264009931318
 30
0.0
  0
VERTEX
  8
0
 10
296.33319
 20
-144.38614
 30
0.0
  0
SEQEND
  8
0
  0
POLYLINE
  8
0
 62
7
 70
0
 66
1
 10
0.0
 20
0.0
 30
0.0
  0
VERTEX
  8
0
 10
146.33461
 20
-144.38614
 30
0.0
  0
VERTEX
  8
0
 10
145.58806622119818
 20
-140.21963990068687
 30
0.0
  0
VERTEX
  8
0
 10
143.0284875510204
 20
-136.114713694467
 30
0.0
  0
VERTEX
  8
0
 10
138.7802058549223
 20
-133.23998920725109
 30
0.0
  0
VERTEX
  8
0
 10
133.87307153846152
 20
-132.39501902452318
 30
0.0
  0
VERTEX
  8
0
 10
129.52963074688796
 20
-133.39013279842166
 30
0.0
  0
VERTEX
  8
0
 10
126.12408368421052
 20
-135.63472539333623
 30
0.0
  0
VERTEX
  8
0
 10
123.40923686567164
 20
-139.42265111860863
 30
0.0
  0
VERTEX
  8
0
 10
122.33461
 20
-144.38614000000004
 30
0.0
  0
VERTEX
  8
0
 10
123.40923686567164
 20
-149.34962888139142
 30
0.0
  0
VERTEX
  8
0
 10
126.12408368421052
 20
-153.13755460666383
 30
0.0
  0
VERTEX
  8
0
 10
129.52963074688796
 20
-155.38214720157836
 30
0.0
  0
VERTEX
  8
0
 10
133.87307153846152
 20
-156.37726097547687
 30
0.0
  0
VERTEX
  8
0
 10
138.78020585492226
 20
-155.53229079274894
 30
0.0
  0
VERTEX
  8
0
 10
143.0284875510204
 20
-152.657566305533
 30
0.0
  0
VERTEX
  8
0
 10
145.58806622119815
 20
-148.55264009931318
 30
0.0
  0
VERTEX
  8
0
 10
146.33461
 20
-144.38614
 30
0.0
  0
SEQEND
  8
0
  0
POLYLINE
  8
0
 62
7
 70
0
 66
1
 10
0.0
 20
0.0
 30
0.0
  0
VERTEX
  8
0
 10
206.33327
 20
-144.38614
 30
0.0
  0
VERTEX
  8
0
 10
205.58672622119815
 20
-140.21963990068687
 30
0.0
  0
VERTEX
  8
0
 10
203.0271475510204
 20
-136.114713694467
 30
0.0
  0
VERTEX
  8
0
 10
198.77886585492232
 20
-133.23998920725109
 30
0.0
  0
VERTEX
  8
0
 10
193.87173153846155
 20
-132.39501902452318
 30
0.0
  0
VERTEX
  8
0
 10
189.528290746888
 20
-133.39013279842166
 30
0.0
  0
VERTEX
  8
0
 10
186.1227436842105
 20
-135.63472539333623
 30
0.0
  0
VERTEX
  8
0
 10
183.40789686567163
 20
-139.42265111860863
 30
0.0
  0
VERTEX
  8
0
 10
182.33327
 20
-144.38614000000004
 30
0.0
  0
VERTEX
  8
0
 10
183.40789686567163
 20
-149.34962888139142
 30
0.0
  0
VERTEX
  8
0
 10
186.12274368421052
 20
-153.13755460666383
 30
0.0
  0
VERTEX
  8
0
 10
189.52829074688796
 20
-155.38214720157836
 30
0.0
  0
VERTEX
  8
0
 10
193.87173153846155
 20
-156.37726097547687
 30
0.0
  0
VERTEX
  8
0
 10
198.77886585492232
 20
-155.53229079274894
 30
0.0
  0
VERTEX
  8
0
 10
203.02714755102045
 20
-152.657566305533
 30
0.0
  0
VERTEX
  8
0
 10
205.58672622119815
 20
-148.55264009931318
 30
0.0
  0
VERTEX
  8
0
 10
206.33327
 20
-144.38614
 30
0.0
  0
SEQEND
  8
0
  0
POLYLINE
  8
0
 62
7
 70
0
 66
1
 10
0.0
 20
0.0
 30
0.0
  0
VERTEX
  8
0
 10
326.3317
 20
-144.38614
 30
0.0
  0
VERTEX
  8
0
 10
325.5851562211982
 20
-140.21963990068687
 30
0.0
  0
VERTEX
  8
0
 10
323.02557755102043
 20
-136.114713694467
 30
0.0
  0
VERTEX
  8
0
 10
318.7772958549223
 20
-133.23998920725109
 30
0.0
  0
VERTEX
  8
0
 10
313.87016153846156
 20
-132.39501902452318
 30
0.0
  0
VERTEX
  8
0
 10
309.5267207468879
 20
-133.39013279842166
 30
0.0
  0
VERTEX
  8
0
 10
306.12117368421053
 20
-135.63472539333623
 30
0.0
  0
VERTEX
  8
0
 10
303.40632686567164
 20
-139.42265111860863
 30
0.0
  0
VERTEX
  8
0
 10
302.3317
 20
-144.38614000000004
 30
0.0
  0
VERTEX
  8
0
 10
303.40632686567164
 20
-149.34962888139142
 30
0.0
  0
VERTEX
  8
0
 10
306.12117368421053
 20
-153.13755460666383
 30
0.0
  0
VERTEX
  8
0
 10
309.5267207468879
 20
-155.38214720157836
 30
0.0
  0
VERTEX
  8
0
 10
313.87016153846156
 20
-156.37726097547687
 30
0.0
  0
VERTEX
  8
0
 10
318.7772958549223
 20
-155.53229079274894
 30
0.0
  0
VERTEX
  8
0
 10
323.02557755102043
 20
-152.657566305533
 30
0.0
  0
VERTEX
  8
0
 10
325.58515622119813
 20
-148.55264009931318
 30
0.0
  0
VERTEX
  8
0
 10
326.3317
 20
-144.38614
 30
0.0
  0
SEQEND
  8
0
  0
POLYLINE
  8
0
 62
7
 70
0
 66
1
 10
0.0
 20
0.0
 30
0.0
  0
VERTEX
  8
0
 10
266.32358
 20
-211.08253
 30
0.0
  0
VERTEX
  8
0
 10
265.57703622119817
 20
-206.91602990068685
 30
0.0
  0
VERTEX
  8
0
 10
263.0174575510204
 20
-202.811103694467
 30
0.0
  0
VERTEX
  8
0
 10
258.7691758549223
 20
-199.93637920725104
 30
0.0
  0
VERTEX
  8
0
 10
253.86204153846154
 20
-199.09140902452313
 30
0.0
  0
VERTEX
  8
0
 10
249.51860074688796
 20
-200.0865227984216
 30
0.0
  0
VERTEX
  8
0
 10
246.1130536842105
 20
-202.3311153933362
 30
0.0
  0
VERTEX
  8
0
 10
243.39820686567163
 20
-206.1190411186086
 30
0.0
  0
VERTEX
  8
0
 10
242.32358
 20
-211.08253
 30
0.0
  0
VERTEX
  8
0
 10
243.39820686567163
 20
-216.04601888139138
 30
0.0
  0
VERTEX
  8
0
 10
246.1130536842105
 20
-219.83394460666378
 30
0.0
  0
VERTEX
  8
0
 10
249.51860074688796
 20
-222.0785372015783
 30
0.0
  0
VERTEX
  8
0
 10
253.86204153846154
 20
-223.07365097547682
 30
0.0
  0
VERTEX
  8
0
 10
258.7691758549223
 20
-222.22868079274892
 30
0.0
  0
VERTEX
  8
0
 10
263.01745755102047
 20
-219.35395630553305
 30
0.0
  0
VERTEX
  8
0
 10
265.57703622119817
 20
-215.24903009931316
 30
0.0
  0
VERTEX
  8
0
 10
266.32358
 20
-211.08253
 30
0.0
  0
SEQEND
  8
0
  0
POLYLINE
  8
0
 62
7
 70
0
 66
1
 10
0.0
 20
0.0
 30
0.0
  0
VERTEX
  8
0
 10
236.32205
 20
-211.08253
 30
0.0
  0
VERTEX
  8
0
 10
235.57550622119817
 20
-206.91602990068685
 30
0.0
  0
VERTEX
  8
0
 10
233.0159275510204
 20
-202.811103694467
 30
0.0
  0
VERTEX
  8
0
 10
228.76764585492228
 20
-199.93637920725104
 30
0.0
  0
VERTEX
  8
0
 10
223.86051153846154
 20
-199.09140902452313
 30
0.0
  0
VERTEX
  8
0
 10
219.51707074688795
 20
-200.0865227984216
 30
0.0
  0
VERTEX
  8
0
 10
216.1115236842105
 20
-202.3311153933362
 30
0.0
  0
VERTEX
  8
0
 10
213.39667686567162
 20
-206.1190411186086
 30
0.0
  0
VERTEX
  8
0
 10
212.32205
 20
-211.08253
 30
0.0
  0
VERTEX
  8
0
 10
213.39667686567165
 20
-216.04601888139138
 30
0.0
  0
VERTEX
  8
0
 10
216.1115236842105
 20
-219.83394460666378
 30
0.0
  0
VERTEX
  8
0
 10
219.51707074688795
 20
-222.0785372015783
 30
0.0
  0
VERTEX
  8
0
 10
223.8605115384615
 20
-223.07365097547682
 30
0.0
  0
VERTEX
  8
0
 10
228.76764585492228
 20
-222.22868079274892
 30
0.0
  0
VERTEX
  8
0
 10
233.01592755102038
 20
-219.35395630553305
 30
0.0
  0
VERTEX
  8
0
 10
235.57550622119814
 20
-215.24903009931316
 30
0.0
  0
VERTEX
  8
0
 10
236.32205
 20
-211.08253
 30
0.0
  0
SEQEND
  8
0
  0
POLYLINE
  8
0
 62
7
 70
0
 66
1
 10
0.0
 20
0.0
 30
0.0
  0
VERTEX
  8
0
 10
356.31564
 20
-211.08253
 30
0.0
  0
VERTEX
  8
0
 10
355.56909622119815
 20
-206.91602990068685
 30
0.0
  0
VERTEX
  8
0
 10
353.0095175510204
 20
-202.811103694467
 30
0.0
  0
VERTEX
  8
0
 10
348.7612358549223
 20
-199.93637920725104
 30
0.0
  0
VERTEX
  8
0
 10
343.8541015384616
 20
-199.09140902452313
 30
0.0
  0
VERTEX
  8
0
 10
339.510660746888
 20
-200.0865227984216
 30
0.0
  0
VERTEX
  8
0
 10
336.1051136842105
 20
-202.3311153933362
 30
0.0
  0
VERTEX
  8
0
 10
333.3902668656716
 20
-206.1190411186086
 30
0.0
  0
VERTEX
  8
0
 10
332.31564
 20
-211.08253
 30
0.0
  0
VERTEX
  8
0
 10
333.3902668656716
 20
-216.04601888139138
 30
0.0
  0
VERTEX
  8
0
 10
336.1051136842105
 20
-219.83394460666378
 30
0.0
  0
VERTEX
  8
0
 10
339.51066074688794
 20
-222.0785372015783
 30
0.0
  0
VERTEX
  8
0
 10
343.85410153846146
 20
-223.07365097547682
 30
0.0
  0
VERTEX
  8
0
 10
348.76123585492223
 20
-222.22868079274892
 30
0.0
  0
VERTEX
  8
0
 10
353.0095175510204
 20
-219.35395630553305
 30
0.0
  0
VERTEX
  8
0
 10
355.5690962211981
 20
-215.24903009931316
 30
0.0
  0
VERTEX
  8
0
 10
356.31564
 20
-211.08253
 30
0.0
  0
SEQEND
  8
0
  0
POLYLINE
  8
0
 62
7
 70
0
 66
1
 10
0.0
 20
0.0
 30
0.0
  0
VERTEX
  8
0
 10
386.32071
 20
-111.04279
 30
0.0
  0
VERTEX
  8
0
 10
385.5741662211982
 20
-106.87628990068686
 30
0.0
  0
VERTEX
  8
0
 10
383.01458755102044
 20
-102.771363694467
 30
0.0
  0
VERTEX
  8
0
 10
378.76630585492234
 20
-99.89663920725108
 30
0.0
  0
VERTEX
  8
0
 10
373.85917153846157
 20
-99.05166902452318
 30
0.0
  0
VERTEX
  8
0
 10
369.515730746888
 20
-100.04678279842166
 30
0.0
  0
VERTEX
  8
0
 10
366.11018368421054
 20
-102.2913753933362
 30
0.0
  0
VERTEX
  8
0
 10
363.39533686567165
 20
-106.0793011186086
 30
0.0
  0
VERTEX
  8
0
 10
362.32071
 20
-111.04279000000001
 30
0.0
  0
VERTEX
  8
0
 10
363.3953368656717
 20
-116.00627888139141
 30
0.0
  0
VERTEX
  8
0
 10
366.1101836842106
 20
-119.79420460666381
 30
0.0
  0
VERTEX
  8
0
 10
369.5157307468879
 20
-122.03879720157833
 30
0.0
  0
VERTEX
  8
0
 10
373.85917153846157
 20
-123.03391097547683
 30
0.0
  0
VERTEX
  8
0
 10
378.76630585492234
 20
-122.18894079274892
 30
0.0
  0
VERTEX
  8
0
 10
383.01458755102044
 20
-119.31421630553302
 30
0.0
  0
VERTEX
  8
0
 10
385.5741662211982
 20
-115.20929009931315
 30
0.0
  0
VERTEX
  8
0
 10
386.32071
 20
-111.04279
 30
0.0
  0
SEQEND
  8
0
  0
POLYLINE
  8
0
 62
7
 70
0
 66
1
 10
0.0
 20
0.0
 30
0.0
  0
VERTEX
  8
0
 10
176.31264
 20
-111.04279
 30
0.0
  0
VERTEX
  8
0
 10
175.56609622119814
 20
-106.87628990068686
 30
0.0
  0
VERTEX
  8
0
 10
173.0065175510204
 20
-102.771363694467
 30
0.0
  0
VERTEX
  8
0
 10
168.75823585492228
 20
-99.89663920725108
 30
0.0
  0
VERTEX
  8
0
 10
163.85110153846153
 20
-99.05166902452318
 30
0.0
  0
VERTEX
  8
0
 10
159.50766074688795
 20
-100.04678279842166
 30
0.0
  0
VERTEX
  8
0
 10
156.1021136842105
 20
-102.2913753933362
 30
0.0
  0
VERTEX
  8
0
 10
153.38726686567162
 20
-106.0793011186086
 30
0.0
  0
VERTEX
  8
0
 10
152.31264
 20
-111.04279000000001
 30
0.0
  0
VERTEX
  8
0
 10
153.3872668656716
 20
-116.00627888139141
 30
0.0
  0
VERTEX
  8
0
 10
156.10211368421048
 20
-119.79420460666381
 30
0.0
  0
VERTEX
  8
0
 10
159.50766074688795
 20
-122.03879720157833
 30
0.0
  0
VERTEX
  8
0
 10
163.85110153846153
 20
-123.03391097547683
 30
0.0
  0
VERTEX
  8
0
 10
168.75823585492228
 20
-122.18894079274892
 30
0.0
  0
VERTEX
  8
0
 10
173.0065175510204
 20
-119.31421630553302
 30
0.0
  0
VERTEX
  8
0
 10
175.56609622119817
 20
-115.20929009931315
 30
0.0
  0
VERTEX
  8
0
 10
176.31264
 20
-111.04279
 30
0.0
  0
SEQEND
  8
0
  0
POLYLINE
  8
0
 62
7
 70
0
 66
1
 10
0.0
 20
0.0
 30
0.0
  0
VERTEX
  8
0
 10
296.3244
 20
-111.04279
 30
0.0
  0
VERTEX
  8
0
 10
295.5778562211982
 20
-106.87628990068686
 30
0.0
  0
VERTEX
  8
0
 10
293.01827755102045
 20
-102.771363694467
 30
0.0
  0
VERTEX
  8
0
 10
288.7699958549223
 20
-99.89663920725108
 30
0.0
  0
VERTEX
  8
0
 10
283.8628615384616
 20
-99.05166902452318
 30
0.0
  0
VERTEX
  8
0
 10
279.519420746888
 20
-100.04678279842166
 30
0.0
  0
VERTEX
  8
0
 10
276.11387368421055
 20
-102.2913753933362
 30
0.0
  0
VERTEX
  8
0
 10
273.39902686567166
 20
-106.0793011186086
 30
0.0
  0
VERTEX
  8
0
 10
272.3244
 20
-111.04279000000001
 30
0.0
  0
VERTEX
  8
0
 10
273.39902686567166
 20
-116.00627888139141
 30
0.0
  0
VERTEX
  8
0
 10
276.1138736842106
 20
-119.79420460666381
 30
0.0
  0
VERTEX
  8
0
 10
279.519420746888
 20
-122.03879720157833
 30
0.0
  0
VERTEX
  8
0
 10
283.8628615384615
 20
-123.03391097547683
 30
0.0
  0
VERTEX
  8
0
 10
288.7699958549223
 20
-122.18894079274892
 30
0.0
  0
VERTEX
  8
0
 10
293.01827755102045
 20
-119.31421630553302
 30
0.0
  0
VERTEX
  8
0
 10
295.57785622119815
 20
-115.20929009931315
 30
0.0
  0
VERTEX
  8
0
 10
296.3244
 20
-111.04279
 30
0.0
  0
SEQEND
  8
0
  0
POLYLINE
  8
0
 62
7
 70
0
 66
1
 10
0.0
 20
0.0
 30
0.0
  0
VERTEX
  8
0
 10
266.33119
 20
-144.38614
 30
0.0
  0
VERTEX
  8
0
 10
265.58464622119817
 20
-140.21963990068687
 30
0.0
  0
VERTEX
  8
0
 10
263.0250675510204
 20
-136.114713694467
 30
0.0
  0
VERTEX
  8
0
 10
258.7767858549223
 20
-133.23998920725109
 30
0.0
  0
VERTEX
  8
0
 10
253.86965153846157
 20
-132.39501902452318
 30
0.0
  0
VERTEX
  8
0
 10
249.52621074688795
 20
-133.39013279842166
 30
0.0
  0
VERTEX
  8
0
 10
246.1206636842105
 20
-135.63472539333623
 30
0.0
  0
VERTEX
  8
0
 10
243.40581686567165
 20
-139.42265111860863
 30
0.0
  0
VERTEX
  8
0
 10
242.33119000000002
 20
-144.38614000000004
 30
0.0
  0
VERTEX
  8
0
 10
243.40581686567162
 20
-149.34962888139142
 30
0.0
  0
VERTEX
  8
0
 10
246.1206636842105
 20
-153.13755460666383
 30
0.0
  0
VERTEX
  8
0
 10
249.52621074688795
 20
-155.38214720157836
 30
0.0
  0
VERTEX
  8
0
 10
253.8696515384615
 20
-156.37726097547687
 30
0.0
  0
VERTEX
  8
0
 10
258.7767858549223
 20
-155.53229079274894
 30
0.0
  0
VERTEX
  8
0
 10
263.0250675510204
 20
-152.657566305533
 30
0.0
  0
VERTEX
  8
0
 10
265.5846462211981
 20
-148.55264009931318
 30
0.0
  0
VERTEX
  8
0
 10
266.33119
 20
-144.38614
 30
0.0
  0
SEQEND
  8
0
  0
POLYLINE
  8
0
 62
7
 70
0
 66
1
 10
0.0
 20
0.0
 30
0.0
  0
VERTEX
  8
0
 10
236.32964
 20
-144.38614
 30
0.0
  0
VERTEX
  8
0
 10
235.58309622119816
 20
-140.21963990068687
 30
0.0
  0
VERTEX
  8
0
 10
233.02351755102043
 20
-136.114713694467
 30
0.0
  0
VERTEX
  8
0
 10
228.7752358549223
 20
-133.23998920725109
 30
0.0
  0
VERTEX
  8
0
 10
223.86810153846156
 20
-132.39501902452318
 30
0.0
  0
VERTEX
  8
0
 10
219.52466074688797
 20
-133.39013279842166
 30
0.0
  0
VERTEX
  8
0
 10
216.1191136842105
 20
-135.63472539333623
 30
0.0
  0
VERTEX
  8
0
 10
213.40426686567167
 20
-139.42265111860863
 30
0.0
  0
VERTEX
  8
0
 10
212.32964000000004
 20
-144.38614000000004
 30
0.0
  0
VERTEX
  8
0
 10
213.40426686567167
 20
-149.34962888139142
 30
0.0
  0
VERTEX
  8
0
 10
216.1191136842106
 20
-153.13755460666383
 30
0.0
  0
VERTEX
  8
0
 10
219.52466074688797
 20
-155.38214720157836
 30
0.0
  0
VERTEX
  8
0
 10
223.86810153846153
 20
-156.37726097547687
 30
0.0
  0
VERTEX
  8
0
 10
228.7752358549223
 20
-155.53229079274894
 30
0.0
  0
VERTEX
  8
0
 10
233.0235175510204
 20
-152.657566305533
 30
0.0
  0
VERTEX
  8
0
 10
235.58309622119813
 20
-148.55264009931318
 30
0.0
  0
VERTEX
  8
0
 10
236.32964
 20
-144.38614
 30
0.0
  0
SEQEND
  8
0
  0
POLYLINE
  8
0
 62
7
 70
0
 66
1
 10
0.0
 20
0.0
 30
0.0
  0
VERTEX
  8
0
 10
176.28889
 20
-77.689003
 30
0.0
  0
VERTEX
  8
0
 10
175.54234622119816
 20
-73.52250290068685
 30
0.0
  0
VERTEX
  8
0
 10
172.98276755102043
 20
-69.417576694467
 30
0.0
  0
VERTEX
  8
0
 10
168.7344858549223
 20
-66.54285220725107
 30
0.0
  0
VERTEX
  8
0
 10
163.82735153846156
 20
-65.69788202452317
 30
0.0
  0
VERTEX
  8
0
 10
159.48391074688794
 20
-66.69299579842165
 30
0.0
  0
VERTEX
  8
0
 10
156.07836368421053
 20
-68.9375883933362
 30
0.0
  0
VERTEX
  8
0
 10
153.36351686567164
 20
-72.72551411860859
 30
0.0
  0
VERTEX
  8
0
 10
152.28889
 20
-77.689003
 30
0.0
  0
VERTEX
  8
0
 10
153.36351686567164
 20
-82.65249188139141
 30
0.0
  0
VERTEX
  8
0
 10
156.07836368421053
 20
-86.44041760666379
 30
0.0
  0
VERTEX
  8
0
 10
159.48391074688794
 20
-88.68501020157834
 30
0.0
  0
VERTEX
  8
0
 10
163.82735153846156
 20
-89.68012397547683
 30
0.0
  0
VERTEX
  8
0
 10
168.7344858549223
 20
-88.83515379274894
 30
0.0
  0
VERTEX
  8
0
 10
172.98276755102043
 20
-85.96042930553301
 30
0.0
  0
VERTEX
  8
0
 10
175.5423462211982
 20
-81.85550309931314
 30
0.0
  0
VERTEX
  8
0
 10
176.28889
 20
-77.689003
 30
0.0
  0
SEQEND
  8
0
  0
POLYLINE
  8
0
 62
7
 70
0
 66
1
 10
0.0
 20
0.0
 30
0.0
  0
VERTEX
  8
0
 10
176.31506
 20
-377.83551
 30
0.0
  0
VERTEX
  8
0
 10
175.56851622119814
 20
-373.6690099006869
 30
0.0
  0
VERTEX
  8
0
 10
173.0089375510204
 20
-369.564083694467
 30
0.0
  0
VERTEX
  8
0
 10
168.76065585492228
 20
-366.68935920725113
 30
0.0
  0
VERTEX
  8
0
 10
163.8535215384615
 20
-365.8443890245232
 30
0.0
  0
VERTEX
  8
0
 10
159.51008074688795
 20
-366.8395027984216
 30
0.0
  0
VERTEX
  8
0
 10
156.1045336842105
 20
-369.08409539333616
 30
0.0
  0
VERTEX
  8
0
 10
153.38968686567162
 20
-372.8720211186086
 30
0.0
  0
VERTEX
  8
0
 10
152.31506
 20
-377.83551000000006
 30
0.0
  0
VERTEX
  8
0
 10
153.38968686567165
 20
-382.7989988813914
 30
0.0
  0
VERTEX
  8
0
 10
156.10453368421048
 20
-386.58692460666384
 30
0.0
  0
VERTEX
  8
0
 10
159.51008074688795
 20
-388.8315172015783
 30
0.0
  0
VERTEX
  8
0
 10
163.8535215384615
 20
-389.82663097547686
 30
0.0
  0
VERTEX
  8
0
 10
168.76065585492228
 20
-388.9816607927489
 30
0.0
  0
VERTEX
  8
0
 10
173.0089375510204
 20
-386.10693630553305
 30
0.0
  0
VERTEX
  8
0
 10
175.5685162211981
 20
-382.00201009931317
 30
0.0
  0
VERTEX
  8
0
 10
176.31506
 20
-377.83551
 30
0.0
  0
SEQEND
  8
0
  0
POLYLINE
  8
0
 62
7
 70
0
 66
1
 10
0.0
 20
0.0
 30
0.0
  0
VERTEX
  8
0
 10
176.31679
 20
-177.73605
 30
0.0
  0
VERTEX
  8
0
 10
175.57024622119818
 20
-173.56954990068687
 30
0.0
  0
VERTEX
  8
0
 10
173.01066755102042
 20
-169.46462369446698
 30
0.0
  0
VERTEX
  8
0
 10
168.7623858549223
 20
-166.58989920725108
 30
0.0
  0
VERTEX
  8
0
 10
163.85525153846154
 20
-165.74492902452317
 30
0.0
  0
VERTEX
  8
0
 10
159.5118107468879
 20
-166.74004279842165
 30
0.0
  0
VERTEX
  8
0
 10
156.10626368421052
 20
-168.9846353933362
 30
0.0
  0
VERTEX
  8
0
 10
153.39141686567163
 20
-172.7725611186086
 30
0.0
  0
VERTEX
  8
0
 10
152.31679
 20
-177.73604999999998
 30
0.0
  0
VERTEX
  8
0
 10
153.39141686567163
 20
-182.6995388813914
 30
0.0
  0
VERTEX
  8
0
 10
156.10626368421052
 20
-186.4874646066638
 30
0.0
  0
VERTEX
  8
0
 10
159.51181074688793
 20
-188.73205720157836
 30
0.0
  0
VERTEX
  8
0
 10
163.85525153846154
 20
-189.72717097547684
 30
0.0
  0
VERTEX
  8
0
 10
168.7623858549223
 20
-188.88220079274896
 30
0.0
  0
VERTEX
  8
0
 10
173.0106675510204
 20
-186.00747630553303
 30
0.0
  0
VERTEX
  8
0
 10
175.57024622119812
 20
-181.90255009931315
 30
0.0
  0
VERTEX
  8
0
 10
176.31679
 20
-177.73605
 30
0.0
  0
SEQEND
  8
0
  0
POLYLINE
  8
0
 62
7
 70
0
 66
1
 10
0.0
 20
0.0
 30
0.0
  0
VERTEX
  8
0
 10
356.31693
 20
-377.83551
 30
0.0
  0
VERTEX
  8
0
 10
355.5703862211982
 20
-373.6690099006869
 30
0.0
  0
VERTEX
  8
0
 10
353.01080755102043
 20
-369.564083694467
 30
0.0
  0
VERTEX
  8
0
 10
348.76252585492233
 20
-366.68935920725113
 30
0.0
  0
VERTEX
  8
0
 10
343.85539153846156
 20
-365.8443890245232
 30
0.0
  0
VERTEX
  8
0
 10
339.51195074688803
 20
-366.8395027984216
 30
0.0
  0
VERTEX
  8
0
 10
336.1064036842105
 20
-369.08409539333616
 30
0.0
  0
VERTEX
  8
0
 10
333.39155686567165
 20
-372.8720211186086
 30
0.0
  0
VERTEX
  8
0
 10
332.31693
 20
-377.83551000000006
 30
0.0
  0
VERTEX
  8
0
 10
333.39155686567165
 20
-382.7989988813914
 30
0.0
  0
VERTEX
  8
0
 10
336.1064036842106
 20
-386.58692460666384
 30
0.0
  0
VERTEX
  8
0
 10
339.5119507468879
 20
-388.8315172015783
 30
0.0
  0
VERTEX
  8
0
 10
343.85539153846156
 20
-389.82663097547686
 30
0.0
  0
VERTEX
  8
0
 10
348.76252585492233
 20
-388.9816607927489
 30
0.0
  0
VERTEX
  8
0
 10
353.01080755102043
 20
-386.10693630553305
 30
0.0
  0
VERTEX
  8
0
 10
355.5703862211982
 20
-382.00201009931317
 30
0.0
  0
VERTEX
  8
0
 10
356.31693
 20
-377.83551
 30
0.0
  0
SEQEND
  8
0
  0
POLYLINE
  8
0
 62
7
 70
0
 66
1
 10
0.0
 20
0.0
 30
0.0
  0
VERTEX
  8
0
 10
356.3143
 20
-344.49438
 30
0.0
  0
VERTEX
  8
0
 10
355.5677562211981
 20
-340.32787990068687
 30
0.0
  0
VERTEX
  8
0
 10
353.0081775510204
 20
-336.22295369446704
 30
0.0
  0
VERTEX
  8
0
 10
348.7598958549224
 20
-333.34822920725105
 30
0.0
  0
VERTEX
  8
0
 10
343.8527615384616
 20
-332.5032590245232
 30
0.0
  0
VERTEX
  8
0
 10
339.509320746888
 20
-333.4983727984216
 30
0.0
  0
VERTEX
  8
0
 10
336.1037736842105
 20
-335.74296539333614
 30
0.0
  0
VERTEX
  8
0
 10
333.38892686567164
 20
-339.53089111860857
 30
0.0
  0
VERTEX
  8
0
 10
332.3143
 20
-344.49438000000004
 30
0.0
  0
VERTEX
  8
0
 10
333.38892686567164
 20
-349.45786888139145
 30
0.0
  0
VERTEX
  8
0
 10
336.1037736842105
 20
-353.2457946066638
 30
0.0
  0
VERTEX
  8
0
 10
339.5093207468879
 20
-355.49038720157836
 30
0.0
  0
VERTEX
  8
0
 10
343.85276153846155
 20
-356.48550097547684
 30
0.0
  0
VERTEX
  8
0
 10
348.75989585492226
 20
-355.6405307927489
 30
0.0
  0
VERTEX
  8
0
 10
353.0081775510204
 20
-352.765806305533
 30
0.0
  0
VERTEX
  8
0
 10
355.5677562211981
 20
-348.6608800993131
 30
0.0
  0
VERTEX
  8
0
 10
356.3143
 20
-344.49438
 30
0.0
  0
SEQEND
  8
0
  0
POLYLINE
  8
0
 62
7
 70
0
 66
1
 10
0.0
 20
0.0
 30
0.0
  0
VERTEX
  8
0
 10
266.29863
 20
-77.689003
 30
0.0
  0
VERTEX
  8
0
 10
265.5520862211982
 20
-73.52250290068685
 30
0.0
  0
VERTEX
  8
0
 10
262.9925075510204
 20
-69.417576694467
 30
0.0
  0
VERTEX
  8
0
 10
258.7442258549223
 20
-66.54285220725107
 30
0.0
  0
VERTEX
  8
0
 10
253.83709153846155
 20
-65.69788202452317
 30
0.0
  0
VERTEX
  8
0
 10
249.49365074688797
 20
-66.69299579842165
 30
0.0
  0
VERTEX
  8
0
 10
246.08810368421052
 20
-68.9375883933362
 30
0.0
  0
VERTEX
  8
0
 10
243.37325686567164
 20
-72.72551411860859
 30
0.0
  0
VERTEX
  8
0
 10
242.29863
 20
-77.689003
 30
0.0
  0
VERTEX
  8
0
 10
243.37325686567164
 20
-82.65249188139141
 30
0.0
  0
VERTEX
  8
0
 10
246.08810368421052
 20
-86.44041760666379
 30
0.0
  0
VERTEX
  8
0
 10
249.49365074688794
 20
-88.68501020157834
 30
0.0
  0
VERTEX
  8
0
 10
253.83709153846152
 20
-89.68012397547683
 30
0.0
  0
VERTEX
  8
0
 10
258.7442258549223
 20
-88.83515379274894
 30
0.0
  0
VERTEX
  8
0
 10
262.9925075510204
 20
-85.96042930553301
 30
0.0
  0
VERTEX
  8
0
 10
265.5520862211981
 20
-81.85550309931314
 30
0.0
  0
VERTEX
  8
0
 10
266.29863
 20
-77.689003
 30
0.0
  0
SEQEND
  8
0
  0
POLYLINE
  8
0
 62
7
 70
0
 66
1
 10
0.0
 20
0.0
 30
0.0
  0
VERTEX
  8
0
 10
386.32483
 20
-177.73605
 30
0.0
  0
VERTEX
  8
0
 10
385.5782862211982
 20
-173.56954990068687
 30
0.0
  0
VERTEX
  8
0
 10
383.01870755102044
 20
-169.46462369446698
 30
0.0
  0
VERTEX
  8
0
 10
378.77042585492234
 20
-166.58989920725108
 30
0.0
  0
VERTEX
  8
0
 10
373.8632915384615
 20
-165.74492902452317
 30
0.0
  0
VERTEX
  8
0
 10
369.519850746888
 20
-166.74004279842165
 30
0.0
  0
VERTEX
  8
0
 10
366.1143036842105
 20
-168.9846353933362
 30
0.0
  0
VERTEX
  8
0
 10
363.39945686567165
 20
-172.7725611186086
 30
0.0
  0
VERTEX
  8
0
 10
362.32483
 20
-177.73604999999998
 30
0.0
  0
VERTEX
  8
0
 10
363.39945686567165
 20
-182.6995388813914
 30
0.0
  0
VERTEX
  8
0
 10
366.1143036842106
 20
-186.4874646066638
 30
0.0
  0
VERTEX
  8
0
 10
369.519850746888
 20
-188.73205720157836
 30
0.0
  0
VERTEX
  8
0
 10
373.8632915384615
 20
-189.72717097547684
 30
0.0
  0
VERTEX
  8
0
 10
378.7704258549223
 20
-188.88220079274896
 30
0.0
  0
VERTEX
  8
0
 10
383.0187075510204
 20
-186.00747630553303
 30
0.0
  0
VERTEX
  8
0
 10
385.57828622119814
 20
-181.90255009931315
 30
0.0
  0
VERTEX
  8
0
 10
386.32483
 20
-177.73605
 30
0.0
  0
SEQEND
  8
0
  0
POLYLINE
  8
0
 62
7
 70
0
 66
1
 10
0.0
 20
0.0
 30
0.0
  0
VERTEX
  8
0
 10
386.29694
 20
-77.689003
 30
0.0
  0
VERTEX
  8
0
 10
385.5503962211982
 20
-73.52250290068685
 30
0.0
  0
VERTEX
  8
0
 10
382.9908175510204
 20
-69.417576694467
 30
0.0
  0
VERTEX
  8
0
 10
378.7425358549223
 20
-66.54285220725107
 30
0.0
  0
VERTEX
  8
0
 10
373.83540153846155
 20
-65.69788202452317
 30
0.0
  0
VERTEX
  8
0
 10
369.49196074688797
 20
-66.69299579842165
 30
0.0
  0
VERTEX
  8
0
 10
366.0864136842105
 20
-68.9375883933362
 30
0.0
  0
VERTEX
  8
0
 10
363.3715668656717
 20
-72.72551411860859
 30
0.0
  0
VERTEX
  8
0
 10
362.29694
 20
-77.689003
 30
0.0
  0
VERTEX
  8
0
 10
363.37156686567164
 20
-82.65249188139141
 30
0.0
  0
VERTEX
  8
0
 10
366.0864136842105
 20
-86.44041760666379
 30
0.0
  0
VERTEX
  8
0
 10
369.49196074688797
 20
-88.68501020157834
 30
0.0
  0
VERTEX
  8
0
 10
373.83540153846155
 20
-89.68012397547683
 30
0.0
  0
VERTEX
  8
0
 10
378.7425358549223
 20
-88.83515379274894
 30
0.0
  0
VERTEX
  8
0
 10
382.9908175510204
 20
-85.96042930553301
 30
0.0
  0
VERTEX
  8
0
 10
385.5503962211981
 20
-81.85550309931314
 30
0.0
  0
VERTEX
  8
0
 10
386.29694
 20
-77.689003
 30
0.0
  0
SEQEND
  8
0
  0
POLYLINE
  8
0
 62
7
 70
0
 66
1
 10
0.0
 20
0.0
 30
0.0
  0
VERTEX
  8
0
 10
296.32855
 20
-177.73605
 30
0.0
  0
VERTEX
  8
0
 10
295.5820062211982
 20
-173.56954990068687
 30
0.0
  0
VERTEX
  8
0
 10
293.0224275510204
 20
-169.46462369446698
 30
0.0
  0
VERTEX
  8
0
 10
288.7741458549223
 20
-166.58989920725108
 30
0.0
  0
VERTEX
  8
0
 10
283.86701153846155
 20
-165.74492902452317
 30
0.0
  0
VERTEX
  8
0
 10
279.523570746888
 20
-166.74004279842165
 30
0.0
  0
VERTEX
  8
0
 10
276.1180236842105
 20
-168.9846353933362
 30
0.0
  0
VERTEX
  8
0
 10
273.40317686567164
 20
-172.7725611186086
 30
0.0
  0
VERTEX
  8
0
 10
272.32855
 20
-177.73604999999998
 30
0.0
  0
VERTEX
  8
0
 10
273.40317686567164
 20
-182.6995388813914
 30
0.0
  0
VERTEX
  8
0
 10
276.1180236842106
 20
-186.4874646066638
 30
0.0
  0
VERTEX
  8
0
 10
279.52357074688797
 20
-188.73205720157836
 30
0.0
  0
VERTEX
  8
0
 10
283.86701153846155
 20
-189.72717097547684
 30
0.0
  0
VERTEX
  8
0
 10
288.7741458549223
 20
-188.88220079274896
 30
0.0
  0
VERTEX
  8
0
 10
293.0224275510204
 20
-186.00747630553303
 30
0.0
  0
VERTEX
  8
0
 10
295.5820062211982
 20
-181.90255009931315
 30
0.0
  0
VERTEX
  8
0
 10
296.32855
 20
-177.73605
 30
0.0
  0
SEQEND
  8
0
  0
POLYLINE
  8
0
 62
7
 70
0
 66
1
 10
0.0
 20
0.0
 30
0.0
  0
VERTEX
  8
0
 10
266.32654
 20
-177.73605
 30
0.0
  0
VERTEX
  8
0
 10
265.5799962211982
 20
-173.56954990068687
 30
0.0
  0
VERTEX
  8
0
 10
263.02041755102044
 20
-169.46462369446698
 30
0.0
  0
VERTEX
  8
0
 10
258.77213585492234
 20
-166.58989920725108
 30
0.0
  0
VERTEX
  8
0
 10
253.86500153846157
 20
-165.74492902452317
 30
0.0
  0
VERTEX
  8
0
 10
249.52156074688799
 20
-166.74004279842165
 30
0.0
  0
VERTEX
  8
0
 10
246.11601368421051
 20
-168.9846353933362
 30
0.0
  0
VERTEX
  8
0
 10
243.40116686567163
 20
-172.7725611186086
 30
0.0
  0
VERTEX
  8
0
 10
242.32654000000002
 20
-177.73604999999998
 30
0.0
  0
VERTEX
  8
0
 10
243.40116686567163
 20
-182.6995388813914
 30
0.0
  0
VERTEX
  8
0
 10
246.11601368421054
 20
-186.4874646066638
 30
0.0
  0
VERTEX
  8
0
 10
249.52156074688793
 20
-188.73205720157836
 30
0.0
  0
VERTEX
  8
0
 10
253.8650015384615
 20
-189.72717097547684
 30
0.0
  0
VERTEX
  8
0
 10
258.7721358549223
 20
-188.88220079274896
 30
0.0
  0
VERTEX
  8
0
 10
263.0204175510204
 20
-186.00747630553303
 30
0.0
  0
VERTEX
  8
0
 10
265.57999622119814
 20
-181.90255009931315
 30
0.0
  0
VERTEX
  8
0
 10
266.32654
 20
-177.73605
 30
0.0
  0
SEQEND
  8
0
  0
POLYLINE
  8
0
 62
7
 70
0
 66
1
 10
0.0
 20
0.0
 30
0.0
  0
VERTEX
  8
0
 10
146.32825
 20
-377.83551
 30
0.0
  0
VERTEX
  8
0
 10
145.58170622119815
 20
-373.6690099006869
 30
0.0
  0
VERTEX
  8
0
 10
143.02212755102042
 20
-369.564083694467
 30
0.0
  0
VERTEX
  8
0
 10
138.77384585492229
 20
-366.68935920725113
 30
0.0
  0
VERTEX
  8
0
 10
133.86671153846154
 20
-365.8443890245232
 30
0.0
  0
VERTEX
  8
0
 10
129.52327074688796
 20
-366.8395027984216
 30
0.0
  0
VERTEX
  8
0
 10
126.11772368421052
 20
-369.08409539333616
 30
0.0
  0
VERTEX
  8
0
 10
123.40287686567164
 20
-372.8720211186086
 30
0.0
  0
VERTEX
  8
0
 10
122.32825000000001
 20
-377.83551000000006
 30
0.0
  0
VERTEX
  8
0
 10
123.40287686567163
 20
-382.7989988813914
 30
0.0
  0
VERTEX
  8
0
 10
126.11772368421053
 20
-386.58692460666384
 30
0.0
  0
VERTEX
  8
0
 10
129.52327074688796
 20
-388.8315172015783
 30
0.0
  0
VERTEX
  8
0
 10
133.86671153846152
 20
-389.82663097547686
 30
0.0
  0
VERTEX
  8
0
 10
138.77384585492229
 20
-388.9816607927489
 30
0.0
  0
VERTEX
  8
0
 10
143.02212755102042
 20
-386.10693630553305
 30
0.0
  0
VERTEX
  8
0
 10
145.58170622119812
 20
-382.00201009931317
 30
0.0
  0
VERTEX
  8
0
 10
146.32825
 20
-377.83551
 30
0.0
  0
SEQEND
  8
0
  0
POLYLINE
  8
0
 62
7
 70
0
 66
1
 10
0.0
 20
0.0
 30
0.0
  0
VERTEX
  8
0
 10
266.32239000000004
 20
-111.04279
 30
0.0
  0
VERTEX
  8
0
 10
265.5758462211982
 20
-106.87628990068686
 30
0.0
  0
VERTEX
  8
0
 10
263.01626755102046
 20
-102.771363694467
 30
0.0
  0
VERTEX
  8
0
 10
258.7679858549223
 20
-99.89663920725108
 30
0.0
  0
VERTEX
  8
0
 10
253.8608515384616
 20
-99.05166902452318
 30
0.0
  0
VERTEX
  8
0
 10
249.517410746888
 20
-100.04678279842166
 30
0.0
  0
VERTEX
  8
0
 10
246.11186368421053
 20
-102.2913753933362
 30
0.0
  0
VERTEX
  8
0
 10
243.39701686567167
 20
-106.0793011186086
 30
0.0
  0
VERTEX
  8
0
 10
242.32239000000004
 20
-111.04279000000001
 30
0.0
  0
VERTEX
  8
0
 10
243.39701686567167
 20
-116.00627888139141
 30
0.0
  0
VERTEX
  8
0
 10
246.11186368421056
 20
-119.79420460666381
 30
0.0
  0
VERTEX
  8
0
 10
249.51741074688798
 20
-122.03879720157833
 30
0.0
  0
VERTEX
  8
0
 10
253.86085153846153
 20
-123.03391097547683
 30
0.0
  0
VERTEX
  8
0
 10
258.7679858549223
 20
-122.18894079274892
 30
0.0
  0
VERTEX
  8
0
 10
263.01626755102046
 20
-119.31421630553302
 30
0.0
  0
VERTEX
  8
0
 10
265.5758462211982
 20
-115.20929009931315
 30
0.0
  0
VERTEX
  8
0
 10
266.32239000000004
 20
-111.04279
 30
0.0
  0
SEQEND
  8
0
  0
POLYLINE
  8
0
 62
7
 70
0
 66
1
 10
0.0
 20
0.0
 30
0.0
  0
VERTEX
  8
0
 10
116.33263
 20
-377.83551
 30
0.0
  0
VERTEX
  8
0
 10
115.58608622119816
 20
-373.6690099006869
 30
0.0
  0
VERTEX
  8
0
 10
113.02650755102042
 20
-369.564083694467
 30
0.0
  0
VERTEX
  8
0
 10
108.7782258549223
 20
-366.68935920725113
 30
0.0
  0
VERTEX
  8
0
 10
103.87109153846153
 20
-365.8443890245232
 30
0.0
  0
VERTEX
  8
0
 10
99.52765074688794
 20
-366.8395027984216
 30
0.0
  0
VERTEX
  8
0
 10
96.12210368421051
 20
-369.08409539333616
 30
0.0
  0
VERTEX
  8
0
 10
93.40725686567164
 20
-372.8720211186086
 30
0.0
  0
VERTEX
  8
0
 10
92.33263
 20
-377.83551000000006
 30
0.0
  0
VERTEX
  8
0
 10
93.40725686567164
 20
-382.7989988813914
 30
0.0
  0
VERTEX
  8
0
 10
96.12210368421053
 20
-386.58692460666384
 30
0.0
  0
VERTEX
  8
0
 10
99.52765074688796
 20
-388.8315172015783
 30
0.0
  0
VERTEX
  8
0
 10
103.87109153846153
 20
-389.82663097547686
 30
0.0
  0
VERTEX
  8
0
 10
108.77822585492228
 20
-388.9816607927489
 30
0.0
  0
VERTEX
  8
0
 10
113.02650755102042
 20
-386.10693630553305
 30
0.0
  0
VERTEX
  8
0
 10
115.58608622119814
 20
-382.00201009931317
 30
0.0
  0
VERTEX
  8
0
 10
116.33263
 20
-377.83551
 30
0.0
  0
SEQEND
  8
0
  0
POLYLINE
  8
0
 62
7
 70
0
 66
1
 10
0.0
 20
0.0
 30
0.0
  0
VERTEX
  8
0
 10
86.301208
 20
-211.08217
 30
0.0
  0
VERTEX
  8
0
 10
85.55466422119815
 20
-206.91566990068685
 30
0.0
  0
VERTEX
  8
0
 10
82.99508555102042
 20
-202.810743694467
 30
0.0
  0
VERTEX
  8
0
 10
78.74680385492228
 20
-199.9360192072511
 30
0.0
  0
VERTEX
  8
0
 10
73.83966953846154
 20
-199.09104902452316
 30
0.0
  0
VERTEX
  8
0
 10
69.49622874688797
 20
-200.0861627984217
 30
0.0
  0
VERTEX
  8
0
 10
66.09068168421054
 20
-202.3307553933362
 30
0.0
  0
VERTEX
  8
0
 10
63.37583486567165
 20
-206.11868111860858
 30
0.0
  0
VERTEX
  8
0
 10
62.30120800000001
 20
-211.08217000000002
 30
0.0
  0
VERTEX
  8
0
 10
63.37583486567164
 20
-216.0456588813914
 30
0.0
  0
VERTEX
  8
0
 10
66.09068168421054
 20
-219.8335846066638
 30
0.0
  0
VERTEX
  8
0
 10
69.49622874688797
 20
-222.07817720157834
 30
0.0
  0
VERTEX
  8
0
 10
73.83966953846154
 20
-223.07329097547682
 30
0.0
  0
VERTEX
  8
0
 10
78.74680385492228
 20
-222.22832079274895
 30
0.0
  0
VERTEX
  8
0
 10
82.9950855510204
 20
-219.353596305533
 30
0.0
  0
VERTEX
  8
0
 10
85.55466422119814
 20
-215.2486700993131
 30
0.0
  0
VERTEX
  8
0
 10
86.301208
 20
-211.08217
 30
0.0
  0
SEQEND
  8
0
  0
POLYLINE
  8
0
 62
7
 70
0
 66
1
 10
0.0
 20
0.0
 30
0.0
  0
VERTEX
  8
0
 10
326.32407
 20
-211.08253
 30
0.0
  0
VERTEX
  8
0
 10
325.5775262211981
 20
-206.91602990068685
 30
0.0
  0
VERTEX
  8
0
 10
323.0179475510204
 20
-202.811103694467
 30
0.0
  0
VERTEX
  8
0
 10
318.7696658549223
 20
-199.93637920725104
 30
0.0
  0
VERTEX
  8
0
 10
313.86253153846155
 20
-199.09140902452313
 30
0.0
  0
VERTEX
  8
0
 10
309.51909074688797
 20
-200.0865227984216
 30
0.0
  0
VERTEX
  8
0
 10
306.11354368421047
 20
-202.3311153933362
 30
0.0
  0
VERTEX
  8
0
 10
303.39869686567164
 20
-206.1190411186086
 30
0.0
  0
VERTEX
  8
0
 10
302.32407000000006
 20
-211.08253
 30
0.0
  0
VERTEX
  8
0
 10
303.3986968656717
 20
-216.04601888139138
 30
0.0
  0
VERTEX
  8
0
 10
306.1135436842106
 20
-219.83394460666378
 30
0.0
  0
VERTEX
  8
0
 10
309.51909074688797
 20
-222.0785372015783
 30
0.0
  0
VERTEX
  8
0
 10
313.86253153846155
 20
-223.07365097547682
 30
0.0
  0
VERTEX
  8
0
 10
318.7696658549223
 20
-222.22868079274892
 30
0.0
  0
VERTEX
  8
0
 10
323.0179475510204
 20
-219.35395630553305
 30
0.0
  0
VERTEX
  8
0
 10
325.5775262211982
 20
-215.24903009931316
 30
0.0
  0
VERTEX
  8
0
 10
326.32407
 20
-211.08253
 30
0.0
  0
SEQEND
  8
0
  0
POLYLINE
  8
0
 62
7
 70
0
 66
1
 10
0.0
 20
0.0
 30
0.0
  0
VERTEX
  8
0
 10
386.3219
 20
-211.08253
 30
0.0
  0
VERTEX
  8
0
 10
385.5753562211982
 20
-206.91602990068685
 30
0.0
  0
VERTEX
  8
0
 10
383.01577755102045
 20
-202.811103694467
 30
0.0
  0
VERTEX
  8
0
 10
378.76749585492234
 20
-199.93637920725104
 30
0.0
  0
VERTEX
  8
0
 10
373.8603615384616
 20
-199.09140902452313
 30
0.0
  0
VERTEX
  8
0
 10
369.516920746888
 20
-200.0865227984216
 30
0.0
  0
VERTEX
  8
0
 10
366.11137368421055
 20
-202.3311153933362
 30
0.0
  0
VERTEX
  8
0
 10
363.39652686567166
 20
-206.1190411186086
 30
0.0
  0
VERTEX
  8
0
 10
362.3219000000001
 20
-211.08253
 30
0.0
  0
VERTEX
  8
0
 10
363.39652686567166
 20
-216.04601888139138
 30
0.0
  0
VERTEX
  8
0
 10
366.11137368421055
 20
-219.83394460666378
 30
0.0
  0
VERTEX
  8
0
 10
369.516920746888
 20
-222.0785372015783
 30
0.0
  0
VERTEX
  8
0
 10
373.8603615384615
 20
-223.07365097547682
 30
0.0
  0
VERTEX
  8
0
 10
378.76749585492234
 20
-222.22868079274892
 30
0.0
  0
VERTEX
  8
0
 10
383.01577755102045
 20
-219.35395630553305
 30
0.0
  0
VERTEX
  8
0
 10
385.57535622119815
 20
-215.24903009931316
 30
0.0
  0
VERTEX
  8
0
 10
386.3219
 20
-211.08253
 30
0.0
  0
SEQEND
  8
0
  0
POLYLINE
  8
0
 62
7
 70
0
 66
1
 10
0.0
 20
0.0
 30
0.0
  0
VERTEX
  8
0
 10
356.32327
 20
-144.38614
 30
0.0
  0
VERTEX
  8
0
 10
355.57672622119816
 20
-140.21963990068687
 30
0.0
  0
VERTEX
  8
0
 10
353.01714755102046
 20
-136.114713694467
 30
0.0
  0
VERTEX
  8
0
 10
348.76886585492224
 20
-133.23998920725109
 30
0.0
  0
VERTEX
  8
0
 10
343.86173153846164
 20
-132.39501902452318
 30
0.0
  0
VERTEX
  8
0
 10
339.518290746888
 20
-133.39013279842166
 30
0.0
  0
VERTEX
  8
0
 10
336.1127436842105
 20
-135.63472539333623
 30
0.0
  0
VERTEX
  8
0
 10
333.39789686567167
 20
-139.42265111860863
 30
0.0
  0
VERTEX
  8
0
 10
332.32327000000004
 20
-144.38614000000004
 30
0.0
  0
VERTEX
  8
0
 10
333.3978968656716
 20
-149.34962888139142
 30
0.0
  0
VERTEX
  8
0
 10
336.1127436842105
 20
-153.13755460666383
 30
0.0
  0
VERTEX
  8
0
 10
339.51829074688794
 20
-155.38214720157836
 30
0.0
  0
VERTEX
  8
0
 10
343.86173153846147
 20
-156.37726097547687
 30
0.0
  0
VERTEX
  8
0
 10
348.76886585492224
 20
-155.53229079274894
 30
0.0
  0
VERTEX
  8
0
 10
353.01714755102046
 20
-152.657566305533
 30
0.0
  0
VERTEX
  8
0
 10
355.57672622119816
 20
-148.55264009931318
 30
0.0
  0
VERTEX
  8
0
 10
356.32327
 20
-144.38614
 30
0.0
  0
SEQEND
  8
0
  0
POLYLINE
  8
0
 62
7
 70
0
 66
1
 10
0.0
 20
0.0
 30
0.0
  0
VERTEX
  8
0
 10
236.3233
 20
-377.83551
 30
0.0
  0
VERTEX
  8
0
 10
235.57675622119817
 20
-373.6690099006869
 30
0.0
  0
VERTEX
  8
0
 10
233.01717755102044
 20
-369.564083694467
 30
0.0
  0
VERTEX
  8
0
 10
228.76889585492228
 20
-366.68935920725113
 30
0.0
  0
VERTEX
  8
0
 10
223.86176153846156
 20
-365.8443890245232
 30
0.0
  0
VERTEX
  8
0
 10
219.51832074688795
 20
-366.8395027984216
 30
0.0
  0
VERTEX
  8
0
 10
216.1127736842105
 20
-369.08409539333616
 30
0.0
  0
VERTEX
  8
0
 10
213.39792686567165
 20
-372.8720211186086
 30
0.0
  0
VERTEX
  8
0
 10
212.32330000000002
 20
-377.83551000000006
 30
0.0
  0
VERTEX
  8
0
 10
213.39792686567165
 20
-382.7989988813914
 30
0.0
  0
VERTEX
  8
0
 10
216.1127736842105
 20
-386.58692460666384
 30
0.0
  0
VERTEX
  8
0
 10
219.51832074688795
 20
-388.8315172015783
 30
0.0
  0
VERTEX
  8
0
 10
223.8617615384615
 20
-389.82663097547686
 30
0.0
  0
VERTEX
  8
0
 10
228.76889585492228
 20
-388.9816607927489
 30
0.0
  0
VERTEX
  8
0
 10
233.01717755102044
 20
-386.10693630553305
 30
0.0
  0
VERTEX
  8
0
 10
235.57675622119817
 20
-382.00201009931317
 30
0.0
  0
VERTEX
  8
0
 10
236.3233
 20
-377.83551
 30
0.0
  0
SEQEND
  8
0
  0
POLYLINE
  8
0
 62
7
 70
0
 66
1
 10
0.0
 20
0.0
 30
0.0
  0
VERTEX
  8
0
 10
206.32687
 20
-377.83551
 30
0.0
  0
VERTEX
  8
0
 10
205.5803262211982
 20
-373.6690099006869
 30
0.0
  0
VERTEX
  8
0
 10
203.02074755102043
 20
-369.564083694467
 30
0.0
  0
VERTEX
  8
0
 10
198.77246585492233
 20
-366.68935920725113
 30
0.0
  0
VERTEX
  8
0
 10
193.86533153846156
 20
-365.8443890245232
 30
0.0
  0
VERTEX
  8
0
 10
189.52189074688798
 20
-366.8395027984216
 30
0.0
  0
VERTEX
  8
0
 10
186.11634368421053
 20
-369.08409539333616
 30
0.0
  0
VERTEX
  8
0
 10
183.40149686567165
 20
-372.8720211186086
 30
0.0
  0
VERTEX
  8
0
 10
182.32687
 20
-377.83551000000006
 30
0.0
  0
VERTEX
  8
0
 10
183.40149686567165
 20
-382.7989988813914
 30
0.0
  0
VERTEX
  8
0
 10
186.1163436842105
 20
-386.58692460666384
 30
0.0
  0
VERTEX
  8
0
 10
189.52189074688798
 20
-388.8315172015783
 30
0.0
  0
VERTEX
  8
0
 10
193.86533153846156
 20
-389.82663097547686
 30
0.0
  0
VERTEX
  8
0
 10
198.7724658549223
 20
-388.9816607927489
 30
0.0
  0
VERTEX
  8
0
 10
203.02074755102043
 20
-386.10693630553305
 30
0.0
  0
VERTEX
  8
0
 10
205.58032622119816
 20
-382.00201009931317
 30
0.0
  0
VERTEX
  8
0
 10
206.32687
 20
-377.83551
 30
0.0
  0
SEQEND
  8
0
  0
POLYLINE
  8
0
 62
7
 70
0
 66
1
 10
0.0
 20
0.0
 30
0.0
  0
VERTEX
  8
0
 10
326.32361
 20
-244.43172
 30
0.0
  0
VERTEX
  8
0
 10
325.5770662211981
 20
-240.26521990068687
 30
0.0
  0
VERTEX
  8
0
 10
323.0174875510204
 20
-236.16029369446704
 30
0.0
  0
VERTEX
  8
0
 10
318.7692058549223
 20
-233.28556920725114
 30
0.0
  0
VERTEX
  8
0
 10
313.8620715384616
 20
-232.4405990245232
 30
0.0
  0
VERTEX
  8
0
 10
309.518630746888
 20
-233.43571279842172
 30
0.0
  0
VERTEX
  8
0
 10
306.1130836842105
 20
-235.6803053933362
 30
0.0
  0
VERTEX
  8
0
 10
303.3982368656716
 20
-239.46823111860863
 30
0.0
  0
VERTEX
  8
0
 10
302.32361
 20
-244.43172000000004
 30
0.0
  0
VERTEX
  8
0
 10
303.3982368656716
 20
-249.39520888139143
 30
0.0
  0
VERTEX
  8
0
 10
306.11308368421055
 20
-253.18313460666383
 30
0.0
  0
VERTEX
  8
0
 10
309.5186307468879
 20
-255.42772720157836
 30
0.0
  0
VERTEX
  8
0
 10
313.86207153846146
 20
-256.42284097547684
 30
0.0
  0
VERTEX
  8
0
 10
318.76920585492223
 20
-255.57787079274894
 30
0.0
  0
VERTEX
  8
0
 10
323.0174875510204
 20
-252.70314630553304
 30
0.0
  0
VERTEX
  8
0
 10
325.5770662211981
 20
-248.59822009931315
 30
0.0
  0
VERTEX
  8
0
 10
326.32361
 20
-244.43172
 30
0.0
  0
SEQEND
  8
0
  0
POLYLINE
  8
0
 62
7
 70
0
 66
1
 10
0.0
 20
0.0
 30
0.0
  0
VERTEX
  8
0
 10
176.31334
 20
-244.43172
 30
0.0
  0
VERTEX
  8
0
 10
175.56679622119816
 20
-240.26521990068687
 30
0.0
  0
VERTEX
  8
0
 10
173.00721755102043
 20
-236.16029369446704
 30
0.0
  0
VERTEX
  8
0
 10
168.7589358549223
 20
-233.28556920725114
 30
0.0
  0
VERTEX
  8
0
 10
163.8518015384616
 20
-232.4405990245232
 30
0.0
  0
VERTEX
  8
0
 10
159.508360746888
 20
-233.43571279842172
 30
0.0
  0
VERTEX
  8
0
 10
156.10281368421053
 20
-235.6803053933362
 30
0.0
  0
VERTEX
  8
0
 10
153.38796686567164
 20
-239.46823111860863
 30
0.0
  0
VERTEX
  8
0
 10
152.31334
 20
-244.43172000000004
 30
0.0
  0
VERTEX
  8
0
 10
153.38796686567164
 20
-249.39520888139143
 30
0.0
  0
VERTEX
  8
0
 10
156.10281368421053
 20
-253.18313460666383
 30
0.0
  0
VERTEX
  8
0
 10
159.50836074688797
 20
-255.42772720157836
 30
0.0
  0
VERTEX
  8
0
 10
163.85180153846156
 20
-256.42284097547684
 30
0.0
  0
VERTEX
  8
0
 10
168.75893585492227
 20
-255.57787079274894
 30
0.0
  0
VERTEX
  8
0
 10
173.00721755102043
 20
-252.70314630553304
 30
0.0
  0
VERTEX
  8
0
 10
175.56679622119816
 20
-248.59822009931315
 30
0.0
  0
VERTEX
  8
0
 10
176.31334
 20
-244.43172
 30
0.0
  0
SEQEND
  8
0
  0
POLYLINE
  8
0
 62
7
 70
0
 66
1
 10
0.0
 20
0.0
 30
0.0
  0
VERTEX
  8
0
 10
266.32481
 20
-377.83551
 30
0.0
  0
VERTEX
  8
0
 10
265.5782662211982
 20
-373.6690099006869
 30
0.0
  0
VERTEX
  8
0
 10
263.01868755102043
 20
-369.564083694467
 30
0.0
  0
VERTEX
  8
0
 10
258.77040585492233
 20
-366.68935920725113
 30
0.0
  0
VERTEX
  8
0
 10
253.86327153846156
 20
-365.8443890245232
 30
0.0
  0
VERTEX
  8
0
 10
249.51983074688798
 20
-366.8395027984216
 30
0.0
  0
VERTEX
  8
0
 10
246.11428368421053
 20
-369.08409539333616
 30
0.0
  0
VERTEX
  8
0
 10
243.39943686567167
 20
-372.8720211186086
 30
0.0
  0
VERTEX
  8
0
 10
242.32481000000004
 20
-377.83551000000006
 30
0.0
  0
VERTEX
  8
0
 10
243.39943686567165
 20
-382.7989988813914
 30
0.0
  0
VERTEX
  8
0
 10
246.11428368421056
 20
-386.58692460666384
 30
0.0
  0
VERTEX
  8
0
 10
249.51983074688798
 20
-388.8315172015783
 30
0.0
  0
VERTEX
  8
0
 10
253.86327153846153
 20
-389.82663097547686
 30
0.0
  0
VERTEX
  8
0
 10
258.77040585492233
 20
-388.9816607927489
 30
0.0
  0
VERTEX
  8
0
 10
263.01868755102043
 20
-386.10693630553305
 30
0.0
  0
VERTEX
  8
0
 10
265.5782662211982
 20
-382.00201009931317
 30
0.0
  0
VERTEX
  8
0
 10
266.32481
 20
-377.83551
 30
0.0
  0
SEQEND
  8
0
  0
POLYLINE
  8
0
 62
7
 70
0
 66
1
 10
0.0
 20
0.0
 30
0.0
  0
VERTEX
  8
0
 10
296.32513
 20
-244.43172
 30
0.0
  0
VERTEX
  8
0
 10
295.5785862211981
 20
-240.26521990068687
 30
0.0
  0
VERTEX
  8
0
 10
293.0190075510204
 20
-236.16029369446704
 30
0.0
  0
VERTEX
  8
0
 10
288.77072585492226
 20
-233.28556920725114
 30
0.0
  0
VERTEX
  8
0
 10
283.86359153846155
 20
-232.4405990245232
 30
0.0
  0
VERTEX
  8
0
 10
279.52015074688796
 20
-233.43571279842172
 30
0.0
  0
VERTEX
  8
0
 10
276.1146036842105
 20
-235.6803053933362
 30
0.0
  0
VERTEX
  8
0
 10
273.39975686567163
 20
-239.46823111860863
 30
0.0
  0
VERTEX
  8
0
 10
272.32513
 20
-244.43172000000004
 30
0.0
  0
VERTEX
  8
0
 10
273.39975686567163
 20
-249.39520888139143
 30
0.0
  0
VERTEX
  8
0
 10
276.1146036842105
 20
-253.18313460666383
 30
0.0
  0
VERTEX
  8
0
 10
279.52015074688796
 20
-255.42772720157836
 30
0.0
  0
VERTEX
  8
0
 10
283.86359153846155
 20
-256.42284097547684
 30
0.0
  0
VERTEX
  8
0
 10
288.77072585492226
 20
-255.57787079274894
 30
0.0
  0
VERTEX
  8
0
 10
293.0190075510204
 20
-252.70314630553304
 30
0.0
  0
VERTEX
  8
0
 10
295.5785862211982
 20
-248.59822009931315
 30
0.0
  0
VERTEX
  8
0
 10
296.32513
 20
-244.43172
 30
0.0
  0
SEQEND
  8
0
  0
POLYLINE
  8
0
 62
7
 70
0
 66
1
 10
0.0
 20
0.0
 30
0.0
  0
VERTEX
  8
0
 10
356.31519
 20
-244.43172
 30
0.0
  0
VERTEX
  8
0
 10
355.56864622119815
 20
-240.26521990068687
 30
0.0
  0
VERTEX
  8
0
 10
353.0090675510204
 20
-236.16029369446704
 30
0.0
  0
VERTEX
  8
0
 10
348.7607858549223
 20
-233.28556920725114
 30
0.0
  0
VERTEX
  8
0
 10
343.8536515384616
 20
-232.4405990245232
 30
0.0
  0
VERTEX
  8
0
 10
339.510210746888
 20
-233.43571279842172
 30
0.0
  0
VERTEX
  8
0
 10
336.1046636842105
 20
-235.6803053933362
 30
0.0
  0
VERTEX
  8
0
 10
333.3898168656716
 20
-239.46823111860863
 30
0.0
  0
VERTEX
  8
0
 10
332.31519
 20
-244.43172000000004
 30
0.0
  0
VERTEX
  8
0
 10
333.38981686567155
 20
-249.39520888139143
 30
0.0
  0
VERTEX
  8
0
 10
336.1046636842105
 20
-253.18313460666383
 30
0.0
  0
VERTEX
  8
0
 10
339.51021074688794
 20
-255.42772720157836
 30
0.0
  0
VERTEX
  8
0
 10
343.8536515384615
 20
-256.42284097547684
 30
0.0
  0
VERTEX
  8
0
 10
348.7607858549222
 20
-255.57787079274894
 30
0.0
  0
VERTEX
  8
0
 10
353.0090675510204
 20
-252.70314630553304
 30
0.0
  0
VERTEX
  8
0
 10
355.56864622119804
 20
-248.59822009931315
 30
0.0
  0
VERTEX
  8
0
 10
356.31519
 20
-244.43172
 30
0.0
  0
SEQEND
  8
0
  0
POLYLINE
  8
0
 62
7
 70
0
 66
1
 10
0.0
 20
0.0
 30
0.0
  0
VERTEX
  8
0
 10
206.30072
 20
-77.689003
 30
0.0
  0
VERTEX
  8
0
 10
205.55417622119816
 20
-73.52250290068685
 30
0.0
  0
VERTEX
  8
0
 10
202.99459755102043
 20
-69.417576694467
 30
0.0
  0
VERTEX
  8
0
 10
198.7463158549223
 20
-66.54285220725107
 30
0.0
  0
VERTEX
  8
0
 10
193.8391815384616
 20
-65.69788202452317
 30
0.0
  0
VERTEX
  8
0
 10
189.49574074688798
 20
-66.69299579842165
 30
0.0
  0
VERTEX
  8
0
 10
186.09019368421053
 20
-68.9375883933362
 30
0.0
  0
VERTEX
  8
0
 10
183.37534686567164
 20
-72.72551411860859
 30
0.0
  0
VERTEX
  8
0
 10
182.30072000000004
 20
-77.689003
 30
0.0
  0
VERTEX
  8
0
 10
183.37534686567164
 20
-82.65249188139141
 30
0.0
  0
VERTEX
  8
0
 10
186.09019368421053
 20
-86.44041760666379
 30
0.0
  0
VERTEX
  8
0
 10
189.49574074688798
 20
-88.68501020157834
 30
0.0
  0
VERTEX
  8
0
 10
193.83918153846156
 20
-89.68012397547683
 30
0.0
  0
VERTEX
  8
0
 10
198.7463158549223
 20
-88.83515379274894
 30
0.0
  0
VERTEX
  8
0
 10
202.99459755102043
 20
-85.96042930553301
 30
0.0
  0
VERTEX
  8
0
 10
205.55417622119813
 20
-81.85550309931314
 30
0.0
  0
VERTEX
  8
0
 10
206.30072
 20
-77.689003
 30
0.0
  0
SEQEND
  8
0
  0
POLYLINE
  8
0
 62
7
 70
0
 66
1
 10
0.0
 20
0.0
 30
0.0
  0
VERTEX
  8
0
 10
326.32291
 20
-111.04279
 30
0.0
  0
VERTEX
  8
0
 10
325.57636622119816
 20
-106.87628990068686
 30
0.0
  0
VERTEX
  8
0
 10
323.0167875510204
 20
-102.771363694467
 30
0.0
  0
VERTEX
  8
0
 10
318.7685058549223
 20
-99.89663920725108
 30
0.0
  0
VERTEX
  8
0
 10
313.8613715384616
 20
-99.05166902452318
 30
0.0
  0
VERTEX
  8
0
 10
309.517930746888
 20
-100.04678279842166
 30
0.0
  0
VERTEX
  8
0
 10
306.1123836842105
 20
-102.2913753933362
 30
0.0
  0
VERTEX
  8
0
 10
303.3975368656716
 20
-106.0793011186086
 30
0.0
  0
VERTEX
  8
0
 10
302.32291000000004
 20
-111.04279000000001
 30
0.0
  0
VERTEX
  8
0
 10
303.3975368656716
 20
-116.00627888139141
 30
0.0
  0
VERTEX
  8
0
 10
306.11238368421056
 20
-119.79420460666381
 30
0.0
  0
VERTEX
  8
0
 10
309.51793074688794
 20
-122.03879720157833
 30
0.0
  0
VERTEX
  8
0
 10
313.8613715384615
 20
-123.03391097547683
 30
0.0
  0
VERTEX
  8
0
 10
318.7685058549223
 20
-122.18894079274892
 30
0.0
  0
VERTEX
  8
0
 10
323.0167875510204
 20
-119.31421630553302
 30
0.0
  0
VERTEX
  8
0
 10
325.5763662211981
 20
-115.20929009931315
 30
0.0
  0
VERTEX
  8
0
 10
326.32291
 20
-111.04279
 30
0.0
  0
SEQEND
  8
0
  0
POLYLINE
  8
0
 62
7
 70
0
 66
1
 10
0.0
 20
0.0
 30
0.0
  0
VERTEX
  8
0
 10
116.33902
 20
-144.38614
 30
0.0
  0
VERTEX
  8
0
 10
115.59247622119817
 20
-140.21963990068687
 30
0.0
  0
VERTEX
  8
0
 10
113.03289755102043
 20
-136.114713694467
 30
0.0
  0
VERTEX
  8
0
 10
108.78461585492228
 20
-133.23998920725109
 30
0.0
  0
VERTEX
  8
0
 10
103.87748153846154
 20
-132.39501902452318
 30
0.0
  0
VERTEX
  8
0
 10
99.53404074688797
 20
-133.39013279842166
 30
0.0
  0
VERTEX
  8
0
 10
96.12849368421053
 20
-135.63472539333623
 30
0.0
  0
VERTEX
  8
0
 10
93.41364686567164
 20
-139.42265111860863
 30
0.0
  0
VERTEX
  8
0
 10
92.33902
 20
-144.38614000000004
 30
0.0
  0
VERTEX
  8
0
 10
93.41364686567164
 20
-149.34962888139142
 30
0.0
  0
VERTEX
  8
0
 10
96.12849368421053
 20
-153.13755460666383
 30
0.0
  0
VERTEX
  8
0
 10
99.53404074688797
 20
-155.38214720157836
 30
0.0
  0
VERTEX
  8
0
 10
103.87748153846155
 20
-156.37726097547687
 30
0.0
  0
VERTEX
  8
0
 10
108.78461585492231
 20
-155.53229079274894
 30
0.0
  0
VERTEX
  8
0
 10
113.03289755102043
 20
-152.657566305533
 30
0.0
  0
VERTEX
  8
0
 10
115.59247622119818
 20
-148.55264009931318
 30
0.0
  0
VERTEX
  8
0
 10
116.33902
 20
-144.38614
 30
0.0
  0
SEQEND
  8
0
  0
POLYLINE
  8
0
 62
7
 70
0
 66
1
 10
0.0
 20
0.0
 30
0.0
  0
VERTEX
  8
0
 10
116.3314
 20
-211.08253
 30
0.0
  0
VERTEX
  8
0
 10
115.58485622119817
 20
-206.91602990068685
 30
0.0
  0
VERTEX
  8
0
 10
113.02527755102042
 20
-202.811103694467
 30
0.0
  0
VERTEX
  8
0
 10
108.77699585492229
 20
-199.93637920725104
 30
0.0
  0
VERTEX
  8
0
 10
103.86986153846155
 20
-199.09140902452313
 30
0.0
  0
VERTEX
  8
0
 10
99.52642074688796
 20
-200.0865227984216
 30
0.0
  0
VERTEX
  8
0
 10
96.12087368421052
 20
-202.3311153933362
 30
0.0
  0
VERTEX
  8
0
 10
93.40602686567165
 20
-206.1190411186086
 30
0.0
  0
VERTEX
  8
0
 10
92.33140000000002
 20
-211.08253
 30
0.0
  0
VERTEX
  8
0
 10
93.40602686567165
 20
-216.04601888139138
 30
0.0
  0
VERTEX
  8
0
 10
96.12087368421055
 20
-219.83394460666378
 30
0.0
  0
VERTEX
  8
0
 10
99.52642074688796
 20
-222.0785372015783
 30
0.0
  0
VERTEX
  8
0
 10
103.86986153846154
 20
-223.07365097547682
 30
0.0
  0
VERTEX
  8
0
 10
108.77699585492229
 20
-222.22868079274892
 30
0.0
  0
VERTEX
  8
0
 10
113.0252775510204
 20
-219.35395630553305
 30
0.0
  0
VERTEX
  8
0
 10
115.58485622119815
 20
-215.24903009931316
 30
0.0
  0
VERTEX
  8
0
 10
116.3314
 20
-211.08253
 30
0.0
  0
SEQEND
  8
0
  0
POLYLINE
  8
0
 62
7
 70
0
 66
1
 10
0.0
 20
0.0
 30
0.0
  0
VERTEX
  8
0
 10
386.32318
 20
-377.83551
 30
0.0
  0
VERTEX
  8
0
 10
385.57663622119816
 20
-373.6690099006869
 30
0.0
  0
VERTEX
  8
0
 10
383.0170575510204
 20
-369.564083694467
 30
0.0
  0
VERTEX
  8
0
 10
378.76877585492224
 20
-366.68935920725113
 30
0.0
  0
VERTEX
  8
0
 10
373.8616415384615
 20
-365.8443890245232
 30
0.0
  0
VERTEX
  8
0
 10
369.5182007468878
 20
-366.8395027984216
 30
0.0
  0
VERTEX
  8
0
 10
366.1126536842105
 20
-369.08409539333616
 30
0.0
  0
VERTEX
  8
0
 10
363.3978068656716
 20
-372.8720211186086
 30
0.0
  0
VERTEX
  8
0
 10
362.32318000000004
 20
-377.83551000000006
 30
0.0
  0
VERTEX
  8
0
 10
363.39780686567155
 20
-382.7989988813914
 30
0.0
  0
VERTEX
  8
0
 10
366.11265368421044
 20
-386.58692460666384
 30
0.0
  0
VERTEX
  8
0
 10
369.5182007468879
 20
-388.8315172015783
 30
0.0
  0
VERTEX
  8
0
 10
373.8616415384615
 20
-389.82663097547686
 30
0.0
  0
VERTEX
  8
0
 10
378.76877585492235
 20
-388.9816607927489
 30
0.0
  0
VERTEX
  8
0
 10
383.0170575510204
 20
-386.10693630553305
 30
0.0
  0
VERTEX
  8
0
 10
385.5766362211981
 20
-382.00201009931317
 30
0.0
  0
VERTEX
  8
0
 10
386.32318
 20
-377.83551
 30
0.0
  0
SEQEND
  8
0
  0
POLYLINE
  8
0
 62
7
 70
0
 66
1
 10
0.0
 20
0.0
 30
0.0
  0
VERTEX
  8
0
 10
206.32564
 20
-211.08253
 30
0.0
  0
VERTEX
  8
0
 10
205.57909622119817
 20
-206.91602990068685
 30
0.0
  0
VERTEX
  8
0
 10
203.0195175510204
 20
-202.811103694467
 30
0.0
  0
VERTEX
  8
0
 10
198.7712358549223
 20
-199.93637920725104
 30
0.0
  0
VERTEX
  8
0
 10
193.86410153846157
 20
-199.09140902452313
 30
0.0
  0
VERTEX
  8
0
 10
189.52066074688798
 20
-200.0865227984216
 30
0.0
  0
VERTEX
  8
0
 10
186.1151136842105
 20
-202.3311153933362
 30
0.0
  0
VERTEX
  8
0
 10
183.4002668656716
 20
-206.1190411186086
 30
0.0
  0
VERTEX
  8
0
 10
182.32564
 20
-211.08253
 30
0.0
  0
VERTEX
  8
0
 10
183.40026686567157
 20
-216.04601888139138
 30
0.0
  0
VERTEX
  8
0
 10
186.11511368421048
 20
-219.83394460666378
 30
0.0
  0
VERTEX
  8
0
 10
189.52066074688796
 20
-222.0785372015783
 30
0.0
  0
VERTEX
  8
0
 10
193.8641015384615
 20
-223.07365097547682
 30
0.0
  0
VERTEX
  8
0
 10
198.77123585492228
 20
-222.22868079274892
 30
0.0
  0
VERTEX
  8
0
 10
203.0195175510204
 20
-219.35395630553305
 30
0.0
  0
VERTEX
  8
0
 10
205.57909622119814
 20
-215.24903009931316
 30
0.0
  0
VERTEX
  8
0
 10
206.32564
 20
-211.08253
 30
0.0
  0
SEQEND
  8
0
  0
POLYLINE
  8
0
 62
7
 70
0
 66
1
 10
0.0
 20
0.0
 30
0.0
  0
VERTEX
  8
0
 10
266.32309
 20
-244.43172
 30
0.0
  0
VERTEX
  8
0
 10
265.57654622119816
 20
-240.26521990068687
 30
0.0
  0
VERTEX
  8
0
 10
263.0169675510204
 20
-236.16029369446704
 30
0.0
  0
VERTEX
  8
0
 10
258.7686858549223
 20
-233.28556920725114
 30
0.0
  0
VERTEX
  8
0
 10
253.86155153846155
 20
-232.4405990245232
 30
0.0
  0
VERTEX
  8
0
 10
249.51811074688797
 20
-233.43571279842172
 30
0.0
  0
VERTEX
  8
0
 10
246.11256368421053
 20
-235.6803053933362
 30
0.0
  0
VERTEX
  8
0
 10
243.39771686567164
 20
-239.46823111860863
 30
0.0
  0
VERTEX
  8
0
 10
242.32309
 20
-244.43172000000004
 30
0.0
  0
VERTEX
  8
0
 10
243.39771686567164
 20
-249.39520888139143
 30
0.0
  0
VERTEX
  8
0
 10
246.11256368421056
 20
-253.18313460666383
 30
0.0
  0
VERTEX
  8
0
 10
249.51811074688797
 20
-255.42772720157836
 30
0.0
  0
VERTEX
  8
0
 10
253.86155153846155
 20
-256.42284097547684
 30
0.0
  0
VERTEX
  8
0
 10
258.7686858549223
 20
-255.57787079274894
 30
0.0
  0
VERTEX
  8
0
 10
263.0169675510204
 20
-252.70314630553304
 30
0.0
  0
VERTEX
  8
0
 10
265.5765462211981
 20
-248.59822009931315
 30
0.0
  0
VERTEX
  8
0
 10
266.32309
 20
-244.43172
 30
0.0
  0
SEQEND
  8
0
  0
POLYLINE
  8
0
 62
7
 70
0
 66
1
 10
0.0
 20
0.0
 30
0.0
  0
VERTEX
  8
0
 10
296.32687
 20
-377.83551
 30
0.0
  0
VERTEX
  8
0
 10
295.58032622119816
 20
-373.6690099006869
 30
0.0
  0
VERTEX
  8
0
 10
293.0207475510204
 20
-369.564083694467
 30
0.0
  0
VERTEX
  8
0
 10
288.7724658549223
 20
-366.68935920725113
 30
0.0
  0
VERTEX
  8
0
 10
283.86533153846153
 20
-365.8443890245232
 30
0.0
  0
VERTEX
  8
0
 10
279.52189074688795
 20
-366.8395027984216
 30
0.0
  0
VERTEX
  8
0
 10
276.1163436842105
 20
-369.08409539333616
 30
0.0
  0
VERTEX
  8
0
 10
273.4014968656716
 20
-372.8720211186086
 30
0.0
  0
VERTEX
  8
0
 10
272.32687000000004
 20
-377.83551000000006
 30
0.0
  0
VERTEX
  8
0
 10
273.4014968656716
 20
-382.7989988813914
 30
0.0
  0
VERTEX
  8
0
 10
276.11634368421045
 20
-386.58692460666384
 30
0.0
  0
VERTEX
  8
0
 10
279.52189074688795
 20
-388.8315172015783
 30
0.0
  0
VERTEX
  8
0
 10
283.86533153846153
 20
-389.82663097547686
 30
0.0
  0
VERTEX
  8
0
 10
288.7724658549223
 20
-388.9816607927489
 30
0.0
  0
VERTEX
  8
0
 10
293.0207475510204
 20
-386.10693630553305
 30
0.0
  0
VERTEX
  8
0
 10
295.5803262211981
 20
-382.00201009931317
 30
0.0
  0
VERTEX
  8
0
 10
296.32687
 20
-377.83551
 30
0.0
  0
SEQEND
  8
0
  0
POLYLINE
  8
0
 62
7
 70
0
 66
1
 10
0.0
 20
0.0
 30
0.0
  0
VERTEX
  8
0
 10
386.32056
 20
-344.49438
 30
0.0
  0
VERTEX
  8
0
 10
385.5740162211982
 20
-340.32787990068687
 30
0.0
  0
VERTEX
  8
0
 10
383.0144375510204
 20
-336.22295369446704
 30
0.0
  0
VERTEX
  8
0
 10
378.7661558549224
 20
-333.34822920725105
 30
0.0
  0
VERTEX
  8
0
 10
373.8590215384616
 20
-332.5032590245232
 30
0.0
  0
VERTEX
  8
0
 10
369.51558074688796
 20
-333.4983727984216
 30
0.0
  0
VERTEX
  8
0
 10
366.1100336842105
 20
-335.74296539333614
 30
0.0
  0
VERTEX
  8
0
 10
363.39518686567163
 20
-339.53089111860857
 30
0.0
  0
VERTEX
  8
0
 10
362.32056000000006
 20
-344.49438000000004
 30
0.0
  0
VERTEX
  8
0
 10
363.3951868656717
 20
-349.45786888139145
 30
0.0
  0
VERTEX
  8
0
 10
366.1100336842106
 20
-353.2457946066638
 30
0.0
  0
VERTEX
  8
0
 10
369.51558074688796
 20
-355.49038720157836
 30
0.0
  0
VERTEX
  8
0
 10
373.8590215384615
 20
-356.48550097547684
 30
0.0
  0
VERTEX
  8
0
 10
378.76615585492226
 20
-355.6405307927489
 30
0.0
  0
VERTEX
  8
0
 10
383.01443755102036
 20
-352.765806305533
 30
0.0
  0
VERTEX
  8
0
 10
385.57401622119806
 20
-348.6608800993131
 30
0.0
  0
VERTEX
  8
0
 10
386.32056
 20
-344.49438
 30
0.0
  0
SEQEND
  8
0
  0
POLYLINE
  8
0
 62
7
 70
0
 66
1
 10
0.0
 20
0.0
 30
0.0
  0
VERTEX
  8
0
 10
356.29074
 20
-77.689003
 30
0.0
  0
VERTEX
  8
0
 10
355.54419622119815
 20
-73.52250290068685
 30
0.0
  0
VERTEX
  8
0
 10
352.9846175510205
 20
-69.417576694467
 30
0.0
  0
VERTEX
  8
0
 10
348.73633585492234
 20
-66.54285220725107
 30
0.0
  0
VERTEX
  8
0
 10
343.82920153846163
 20
-65.69788202452317
 30
0.0
  0
VERTEX
  8
0
 10
339.485760746888
 20
-66.69299579842165
 30
0.0
  0
VERTEX
  8
0
 10
336.0802136842105
 20
-68.9375883933362
 30
0.0
  0
VERTEX
  8
0
 10
333.3653668656717
 20
-72.72551411860859
 30
0.0
  0
VERTEX
  8
0
 10
332.2907400000001
 20
-77.689003
 30
0.0
  0
VERTEX
  8
0
 10
333.36536686567166
 20
-82.65249188139141
 30
0.0
  0
VERTEX
  8
0
 10
336.0802136842106
 20
-86.44041760666379
 30
0.0
  0
VERTEX
  8
0
 10
339.485760746888
 20
-88.68501020157834
 30
0.0
  0
VERTEX
  8
0
 10
343.8292015384616
 20
-89.68012397547683
 30
0.0
  0
VERTEX
  8
0
 10
348.73633585492234
 20
-88.83515379274894
 30
0.0
  0
VERTEX
  8
0
 10
352.9846175510204
 20
-85.96042930553301
 30
0.0
  0
VERTEX
  8
0
 10
355.54419622119815
 20
-81.85550309931314
 30
0.0
  0
VERTEX
  8
0
 10
356.29074
 20
-77.689003
 30
0.0
  0
SEQEND
  8
0
  0
POLYLINE
  8
0
 62
7
 70
0
 66
1
 10
0.0
 20
0.0
 30
0.0
  0
VERTEX
  8
0
 10
296.30066
 20
-77.689003
 30
0.0
  0
VERTEX
  8
0
 10
295.55411622119817
 20
-73.52250290068685
 30
0.0
  0
VERTEX
  8
0
 10
292.9945375510204
 20
-69.417576694467
 30
0.0
  0
VERTEX
  8
0
 10
288.74625585492225
 20
-66.54285220725107
 30
0.0
  0
VERTEX
  8
0
 10
283.83912153846154
 20
-65.69788202452317
 30
0.0
  0
VERTEX
  8
0
 10
279.4956807468879
 20
-66.69299579842165
 30
0.0
  0
VERTEX
  8
0
 10
276.0901336842105
 20
-68.9375883933362
 30
0.0
  0
VERTEX
  8
0
 10
273.3752868656716
 20
-72.72551411860859
 30
0.0
  0
VERTEX
  8
0
 10
272.30066000000005
 20
-77.689003
 30
0.0
  0
VERTEX
  8
0
 10
273.3752868656716
 20
-82.65249188139141
 30
0.0
  0
VERTEX
  8
0
 10
276.09013368421046
 20
-86.44041760666379
 30
0.0
  0
VERTEX
  8
0
 10
279.49568074688796
 20
-88.68501020157834
 30
0.0
  0
VERTEX
  8
0
 10
283.83912153846154
 20
-89.68012397547683
 30
0.0
  0
VERTEX
  8
0
 10
288.74625585492225
 20
-88.83515379274894
 30
0.0
  0
VERTEX
  8
0
 10
292.9945375510204
 20
-85.96042930553301
 30
0.0
  0
VERTEX
  8
0
 10
295.55411622119817
 20
-81.85550309931314
 30
0.0
  0
VERTEX
  8
0
 10
296.30066
 20
-77.689003
 30
0.0
  0
SEQEND
  8
0
  0
POLYLINE
  8
0
 62
7
 70
0
 66
1
 10
0.0
 20
0.0
 30
0.0
  0
VERTEX
  8
0
 10
116.33022
 20
-111.04279
 30
0.0
  0
VERTEX
  8
0
 10
115.58367622119816
 20
-106.87628990068686
 30
0.0
  0
VERTEX
  8
0
 10
113.02409755102042
 20
-102.771363694467
 30
0.0
  0
VERTEX
  8
0
 10
108.7758158549223
 20
-99.89663920725108
 30
0.0
  0
VERTEX
  8
0
 10
103.86868153846154
 20
-99.05166902452318
 30
0.0
  0
VERTEX
  8
0
 10
99.52524074688797
 20
-100.04678279842166
 30
0.0
  0
VERTEX
  8
0
 10
96.11969368421052
 20
-102.2913753933362
 30
0.0
  0
VERTEX
  8
0
 10
93.40484686567163
 20
-106.0793011186086
 30
0.0
  0
VERTEX
  8
0
 10
92.33022
 20
-111.04279000000001
 30
0.0
  0
VERTEX
  8
0
 10
93.40484686567163
 20
-116.00627888139141
 30
0.0
  0
VERTEX
  8
0
 10
96.11969368421053
 20
-119.79420460666381
 30
0.0
  0
VERTEX
  8
0
 10
99.52524074688796
 20
-122.03879720157833
 30
0.0
  0
VERTEX
  8
0
 10
103.86868153846154
 20
-123.03391097547683
 30
0.0
  0
VERTEX
  8
0
 10
108.77581585492227
 20
-122.18894079274892
 30
0.0
  0
VERTEX
  8
0
 10
113.0240975510204
 20
-119.31421630553302
 30
0.0
  0
VERTEX
  8
0
 10
115.58367622119815
 20
-115.20929009931315
 30
0.0
  0
VERTEX
  8
0
 10
116.33022
 20
-111.04279
 30
0.0
  0
SEQEND
  8
0
  0
POLYLINE
  8
0
 62
7
 70
0
 66
1
 10
0.0
 20
0.0
 30
0.0
  0
VERTEX
  8
0
 10
356.31494
 20
-311.14371
 30
0.0
  0
VERTEX
  8
0
 10
355.56839622119816
 20
-306.97720990068683
 30
0.0
  0
VERTEX
  8
0
 10
353.0088175510204
 20
-302.872283694467
 30
0.0
  0
VERTEX
  8
0
 10
348.76053585492224
 20
-299.9975592072511
 30
0.0
  0
VERTEX
  8
0
 10
343.8534015384615
 20
-299.1525890245232
 30
0.0
  0
VERTEX
  8
0
 10
339.50996074688794
 20
-300.1477027984216
 30
0.0
  0
VERTEX
  8
0
 10
336.1044136842105
 20
-302.39229539333616
 30
0.0
  0
VERTEX
  8
0
 10
333.3895668656716
 20
-306.1802211186086
 30
0.0
  0
VERTEX
  8
0
 10
332.31494
 20
-311.14371
 30
0.0
  0
VERTEX
  8
0
 10
333.3895668656716
 20
-316.10719888139135
 30
0.0
  0
VERTEX
  8
0
 10
336.1044136842105
 20
-319.8951246066637
 30
0.0
  0
VERTEX
  8
0
 10
339.50996074688794
 20
-322.1397172015784
 30
0.0
  0
VERTEX
  8
0
 10
343.8534015384615
 20
-323.1348309754768
 30
0.0
  0
VERTEX
  8
0
 10
348.76053585492224
 20
-322.2898607927489
 30
0.0
  0
VERTEX
  8
0
 10
353.0088175510204
 20
-319.41513630553305
 30
0.0
  0
VERTEX
  8
0
 10
355.5683962211981
 20
-315.3102100993131
 30
0.0
  0
VERTEX
  8
0
 10
356.31494
 20
-311.14371
 30
0.0
  0
SEQEND
  8
0
  0
POLYLINE
  8
0
 62
7
 70
0
 66
1
 10
0.0
 20
0.0
 30
0.0
  0
VERTEX
  8
0
 10
116.33068
 20
-311.14371
 30
0.0
  0
VERTEX
  8
0
 10
115.58413622119816
 20
-306.97720990068683
 30
0.0
  0
VERTEX
  8
0
 10
113.02455755102042
 20
-302.872283694467
 30
0.0
  0
VERTEX
  8
0
 10
108.77627585492229
 20
-299.9975592072511
 30
0.0
  0
VERTEX
  8
0
 10
103.86914153846153
 20
-299.1525890245232
 30
0.0
  0
VERTEX
  8
0
 10
99.52570074688795
 20
-300.1477027984216
 30
0.0
  0
VERTEX
  8
0
 10
96.12015368421052
 20
-302.39229539333616
 30
0.0
  0
VERTEX
  8
0
 10
93.40530686567163
 20
-306.1802211186086
 30
0.0
  0
VERTEX
  8
0
 10
92.33067999999999
 20
-311.14371
 30
0.0
  0
VERTEX
  8
0
 10
93.40530686567163
 20
-316.10719888139135
 30
0.0
  0
VERTEX
  8
0
 10
96.1201536842105
 20
-319.8951246066637
 30
0.0
  0
VERTEX
  8
0
 10
99.52570074688796
 20
-322.1397172015784
 30
0.0
  0
VERTEX
  8
0
 10
103.86914153846153
 20
-323.1348309754768
 30
0.0
  0
VERTEX
  8
0
 10
108.77627585492229
 20
-322.2898607927489
 30
0.0
  0
VERTEX
  8
0
 10
113.02455755102042
 20
-319.41513630553305
 30
0.0
  0
VERTEX
  8
0
 10
115.58413622119815
 20
-315.3102100993131
 30
0.0
  0
VERTEX
  8
0
 10
116.33068
 20
-311.14371
 30
0.0
  0
SEQEND
  8
0
  0
POLYLINE
  8
0
 62
7
 70
0
 66
1
 10
0.0
 20
0.0
 30
0.0
  0
VERTEX
  8
0
 10
146.32628
 20
-311.14371
 30
0.0
  0
VERTEX
  8
0
 10
145.57973622119815
 20
-306.97720990068683
 30
0.0
  0
VERTEX
  8
0
 10
143.02015755102042
 20
-302.872283694467
 30
0.0
  0
VERTEX
  8
0
 10
138.77187585492229
 20
-299.9975592072511
 30
0.0
  0
VERTEX
  8
0
 10
133.86474153846154
 20
-299.1525890245232
 30
0.0
  0
VERTEX
  8
0
 10
129.52130074688796
 20
-300.1477027984216
 30
0.0
  0
VERTEX
  8
0
 10
126.11575368421052
 20
-302.39229539333616
 30
0.0
  0
VERTEX
  8
0
 10
123.40090686567163
 20
-306.1802211186086
 30
0.0
  0
VERTEX
  8
0
 10
122.32628
 20
-311.14371
 30
0.0
  0
VERTEX
  8
0
 10
123.40090686567163
 20
-316.10719888139135
 30
0.0
  0
VERTEX
  8
0
 10
126.11575368421053
 20
-319.8951246066637
 30
0.0
  0
VERTEX
  8
0
 10
129.52130074688796
 20
-322.1397172015784
 30
0.0
  0
VERTEX
  8
0
 10
133.86474153846154
 20
-323.1348309754768
 30
0.0
  0
VERTEX
  8
0
 10
138.77187585492229
 20
-322.2898607927489
 30
0.0
  0
VERTEX
  8
0
 10
143.02015755102042
 20
-319.41513630553305
 30
0.0
  0
VERTEX
  8
0
 10
145.57973622119815
 20
-315.3102100993131
 30
0.0
  0
VERTEX
  8
0
 10
146.32628
 20
-311.14371
 30
0.0
  0
SEQEND
  8
0
  0
POLYLINE
  8
0
 62
7
 70
0
 66
1
 10
0.0
 20
0.0
 30
0.0
  0
VERTEX
  8
0
 10
266.32286
 20
-311.14371
 30
0.0
  0
VERTEX
  8
0
 10
265.57631622119817
 20
-306.97720990068683
 30
0.0
  0
VERTEX
  8
0
 10
263.0167375510204
 20
-302.872283694467
 30
0.0
  0
VERTEX
  8
0
 10
258.7684558549223
 20
-299.9975592072511
 30
0.0
  0
VERTEX
  8
0
 10
253.86132153846154
 20
-299.1525890245232
 30
0.0
  0
VERTEX
  8
0
 10
249.517880746888
 20
-300.1477027984216
 30
0.0
  0
VERTEX
  8
0
 10
246.1123336842105
 20
-302.39229539333616
 30
0.0
  0
VERTEX
  8
0
 10
243.39748686567165
 20
-306.1802211186086
 30
0.0
  0
VERTEX
  8
0
 10
242.32286
 20
-311.14371
 30
0.0
  0
VERTEX
  8
0
 10
243.3974868656716
 20
-316.10719888139135
 30
0.0
  0
VERTEX
  8
0
 10
246.1123336842105
 20
-319.8951246066637
 30
0.0
  0
VERTEX
  8
0
 10
249.51788074688795
 20
-322.1397172015784
 30
0.0
  0
VERTEX
  8
0
 10
253.8613215384615
 20
-323.1348309754768
 30
0.0
  0
VERTEX
  8
0
 10
258.76845585492225
 20
-322.2898607927489
 30
0.0
  0
VERTEX
  8
0
 10
263.0167375510204
 20
-319.41513630553305
 30
0.0
  0
VERTEX
  8
0
 10
265.57631622119817
 20
-315.3102100993131
 30
0.0
  0
VERTEX
  8
0
 10
266.32286
 20
-311.14371
 30
0.0
  0
SEQEND
  8
0
  0
POLYLINE
  8
0
 62
7
 70
0
 66
1
 10
0.0
 20
0.0
 30
0.0
  0
VERTEX
  8
0
 10
86.308823
 20
-144.38577
 30
0.0
  0
VERTEX
  8
0
 10
85.56227922119817
 20
-140.21926990068687
 30
0.0
  0
VERTEX
  8
0
 10
83.00270055102041
 20
-136.114343694467
 30
0.0
  0
VERTEX
  8
0
 10
78.75441885492228
 20
-133.23961920725108
 30
0.0
  0
VERTEX
  8
0
 10
73.84728453846154
 20
-132.39464902452318
 30
0.0
  0
VERTEX
  8
0
 10
69.50384374688797
 20
-133.38976279842166
 30
0.0
  0
VERTEX
  8
0
 10
66.09829668421052
 20
-135.63435539333622
 30
0.0
  0
VERTEX
  8
0
 10
63.38344986567165
 20
-139.4222811186086
 30
0.0
  0
VERTEX
  8
0
 10
62.30882300000001
 20
-144.38577
 30
0.0
  0
VERTEX
  8
0
 10
63.38344986567164
 20
-149.3492588813914
 30
0.0
  0
VERTEX
  8
0
 10
66.09829668421052
 20
-153.1371846066638
 30
0.0
  0
VERTEX
  8
0
 10
69.50384374688797
 20
-155.38177720157833
 30
0.0
  0
VERTEX
  8
0
 10
73.84728453846154
 20
-156.37689097547687
 30
0.0
  0
VERTEX
  8
0
 10
78.75441885492228
 20
-155.53192079274896
 30
0.0
  0
VERTEX
  8
0
 10
83.00270055102041
 20
-152.65719630553306
 30
0.0
  0
VERTEX
  8
0
 10
85.56227922119817
 20
-148.55227009931318
 30
0.0
  0
VERTEX
  8
0
 10
86.308823
 20
-144.38577
 30
0.0
  0
SEQEND
  8
0
  0
POLYLINE
  8
0
 62
7
 70
0
 66
1
 10
0.0
 20
0.0
 30
0.0
  0
VERTEX
  8
0
 10
116.3309
 20
-244.43172
 30
0.0
  0
VERTEX
  8
0
 10
115.58435622119816
 20
-240.26521990068687
 30
0.0
  0
VERTEX
  8
0
 10
113.0247775510204
 20
-236.16029369446704
 30
0.0
  0
VERTEX
  8
0
 10
108.77649585492229
 20
-233.28556920725114
 30
0.0
  0
VERTEX
  8
0
 10
103.86936153846153
 20
-232.4405990245232
 30
0.0
  0
VERTEX
  8
0
 10
99.52592074688798
 20
-233.43571279842172
 30
0.0
  0
VERTEX
  8
0
 10
96.12037368421052
 20
-235.6803053933362
 30
0.0
  0
VERTEX
  8
0
 10
93.40552686567165
 20
-239.46823111860863
 30
0.0
  0
VERTEX
  8
0
 10
92.3309
 20
-244.43172000000004
 30
0.0
  0
VERTEX
  8
0
 10
93.40552686567163
 20
-249.39520888139143
 30
0.0
  0
VERTEX
  8
0
 10
96.12037368421052
 20
-253.18313460666383
 30
0.0
  0
VERTEX
  8
0
 10
99.52592074688796
 20
-255.42772720157836
 30
0.0
  0
VERTEX
  8
0
 10
103.86936153846153
 20
-256.42284097547684
 30
0.0
  0
VERTEX
  8
0
 10
108.77649585492229
 20
-255.57787079274894
 30
0.0
  0
VERTEX
  8
0
 10
113.0247775510204
 20
-252.70314630553304
 30
0.0
  0
VERTEX
  8
0
 10
115.58435622119818
 20
-248.59822009931315
 30
0.0
  0
VERTEX
  8
0
 10
116.3309
 20
-244.43172
 30
0.0
  0
SEQEND
  8
0
  0
POLYLINE
  8
0
 62
7
 70
0
 66
1
 10
0.0
 20
0.0
 30
0.0
  0
VERTEX
  8
0
 10
356.31448
 20
-111.04279
 30
0.0
  0
VERTEX
  8
0
 10
355.5679362211982
 20
-106.87628990068686
 30
0.0
  0
VERTEX
  8
0
 10
353.0083575510204
 20
-102.771363694467
 30
0.0
  0
VERTEX
  8
0
 10
348.76007585492226
 20
-99.89663920725108
 30
0.0
  0
VERTEX
  8
0
 10
343.85294153846155
 20
-99.05166902452318
 30
0.0
  0
VERTEX
  8
0
 10
339.50950074688797
 20
-100.04678279842166
 30
0.0
  0
VERTEX
  8
0
 10
336.1039536842105
 20
-102.2913753933362
 30
0.0
  0
VERTEX
  8
0
 10
333.3891068656717
 20
-106.0793011186086
 30
0.0
  0
VERTEX
  8
0
 10
332.31448000000006
 20
-111.04279000000001
 30
0.0
  0
VERTEX
  8
0
 10
333.38910686567164
 20
-116.00627888139141
 30
0.0
  0
VERTEX
  8
0
 10
336.1039536842106
 20
-119.79420460666381
 30
0.0
  0
VERTEX
  8
0
 10
339.5095007468879
 20
-122.03879720157833
 30
0.0
  0
VERTEX
  8
0
 10
343.85294153846155
 20
-123.03391097547683
 30
0.0
  0
VERTEX
  8
0
 10
348.76007585492226
 20
-122.18894079274892
 30
0.0
  0
VERTEX
  8
0
 10
353.0083575510204
 20
-119.31421630553302
 30
0.0
  0
VERTEX
  8
0
 10
355.5679362211982
 20
-115.20929009931315
 30
0.0
  0
VERTEX
  8
0
 10
356.31448
 20
-111.04279
 30
0.0
  0
SEQEND
  8
0
  0
POLYLINE
  8
0
 62
7
 70
0
 66
1
 10
0.0
 20
0.0
 30
0.0
  0
VERTEX
  8
0
 10
86.276268
 20
-77.688644
 30
0.0
  0
VERTEX
  8
0
 10
85.52972422119815
 20
-73.52214390068686
 30
0.0
  0
VERTEX
  8
0
 10
82.97014555102042
 20
-69.417217694467
 30
0.0
  0
VERTEX
  8
0
 10
78.72186385492229
 20
-66.54249320725106
 30
0.0
  0
VERTEX
  8
0
 10
73.81472953846153
 20
-65.69752302452315
 30
0.0
  0
VERTEX
  8
0
 10
69.47128874688798
 20
-66.69263679842163
 30
0.0
  0
VERTEX
  8
0
 10
66.06574168421052
 20
-68.9372293933362
 30
0.0
  0
VERTEX
  8
0
 10
63.35089486567165
 20
-72.7251551186086
 30
0.0
  0
VERTEX
  8
0
 10
62.276268000000016
 20
-77.688644
 30
0.0
  0
VERTEX
  8
0
 10
63.35089486567165
 20
-82.65213288139141
 30
0.0
  0
VERTEX
  8
0
 10
66.06574168421054
 20
-86.4400586066638
 30
0.0
  0
VERTEX
  8
0
 10
69.47128874688796
 20
-88.68465120157835
 30
0.0
  0
VERTEX
  8
0
 10
73.81472953846153
 20
-89.67976497547684
 30
0.0
  0
VERTEX
  8
0
 10
78.72186385492229
 20
-88.83479479274895
 30
0.0
  0
VERTEX
  8
0
 10
82.97014555102042
 20
-85.96007030553301
 30
0.0
  0
VERTEX
  8
0
 10
85.52972422119817
 20
-81.85514409931314
 30
0.0
  0
VERTEX
  8
0
 10
86.276268
 20
-77.688644
 30
0.0
  0
SEQEND
  8
0
  0
POLYLINE
  8
0
 62
7
 70
0
 66
1
 10
0.0
 20
0.0
 30
0.0
  0
VERTEX
  8
0
 10
176.31383
 20
-211.08253
 30
0.0
  0
VERTEX
  8
0
 10
175.56728622119817
 20
-206.91602990068685
 30
0.0
  0
VERTEX
  8
0
 10
173.00770755102042
 20
-202.811103694467
 30
0.0
  0
VERTEX
  8
0
 10
168.75942585492228
 20
-199.93637920725104
 30
0.0
  0
VERTEX
  8
0
 10
163.85229153846154
 20
-199.09140902452313
 30
0.0
  0
VERTEX
  8
0
 10
159.50885074688796
 20
-200.0865227984216
 30
0.0
  0
VERTEX
  8
0
 10
156.1033036842105
 20
-202.3311153933362
 30
0.0
  0
VERTEX
  8
0
 10
153.38845686567163
 20
-206.1190411186086
 30
0.0
  0
VERTEX
  8
0
 10
152.31383000000002
 20
-211.08253
 30
0.0
  0
VERTEX
  8
0
 10
153.38845686567163
 20
-216.04601888139138
 30
0.0
  0
VERTEX
  8
0
 10
156.10330368421052
 20
-219.83394460666378
 30
0.0
  0
VERTEX
  8
0
 10
159.50885074688796
 20
-222.0785372015783
 30
0.0
  0
VERTEX
  8
0
 10
163.85229153846151
 20
-223.07365097547682
 30
0.0
  0
VERTEX
  8
0
 10
168.75942585492228
 20
-222.22868079274892
 30
0.0
  0
VERTEX
  8
0
 10
173.00770755102045
 20
-219.35395630553305
 30
0.0
  0
VERTEX
  8
0
 10
175.56728622119817
 20
-215.24903009931316
 30
0.0
  0
VERTEX
  8
0
 10
176.31383
 20
-211.08253
 30
0.0
  0
SEQEND
  8
0
  0
POLYLINE
  8
0
 62
7
 70
0
 66
1
 10
0.0
 20
0.0
 30
0.0
  0
VERTEX
  8
0
 10
176.32144
 20
-144.38614
 30
0.0
  0
VERTEX
  8
0
 10
175.57489622119817
 20
-140.21963990068687
 30
0.0
  0
VERTEX
  8
0
 10
173.01531755102042
 20
-136.114713694467
 30
0.0
  0
VERTEX
  8
0
 10
168.76703585492228
 20
-133.23998920725109
 30
0.0
  0
VERTEX
  8
0
 10
163.85990153846154
 20
-132.39501902452318
 30
0.0
  0
VERTEX
  8
0
 10
159.51646074688796
 20
-133.39013279842166
 30
0.0
  0
VERTEX
  8
0
 10
156.11091368421052
 20
-135.63472539333623
 30
0.0
  0
VERTEX
  8
0
 10
153.39606686567166
 20
-139.42265111860863
 30
0.0
  0
VERTEX
  8
0
 10
152.32144000000002
 20
-144.38614000000004
 30
0.0
  0
VERTEX
  8
0
 10
153.39606686567163
 20
-149.34962888139142
 30
0.0
  0
VERTEX
  8
0
 10
156.11091368421054
 20
-153.13755460666383
 30
0.0
  0
VERTEX
  8
0
 10
159.51646074688796
 20
-155.38214720157836
 30
0.0
  0
VERTEX
  8
0
 10
163.85990153846154
 20
-156.37726097547687
 30
0.0
  0
VERTEX
  8
0
 10
168.76703585492228
 20
-155.53229079274894
 30
0.0
  0
VERTEX
  8
0
 10
173.01531755102042
 20
-152.657566305533
 30
0.0
  0
VERTEX
  8
0
 10
175.57489622119817
 20
-148.55264009931318
 30
0.0
  0
VERTEX
  8
0
 10
176.32144
 20
-144.38614
 30
0.0
  0
SEQEND
  8
0
  0
POLYLINE
  8
0
 62
7
 70
0
 66
1
 10
0.0
 20
0.0
 30
0.0
  0
VERTEX
  8
0
 10
116.33435
 20
-177.73605
 30
0.0
  0
VERTEX
  8
0
 10
115.58780622119816
 20
-173.56954990068687
 30
0.0
  0
VERTEX
  8
0
 10
113.02822755102042
 20
-169.46462369446698
 30
0.0
  0
VERTEX
  8
0
 10
108.77994585492229
 20
-166.58989920725108
 30
0.0
  0
VERTEX
  8
0
 10
103.87281153846155
 20
-165.74492902452317
 30
0.0
  0
VERTEX
  8
0
 10
99.52937074688796
 20
-166.74004279842165
 30
0.0
  0
VERTEX
  8
0
 10
96.12382368421052
 20
-168.9846353933362
 30
0.0
  0
VERTEX
  8
0
 10
93.40897686567165
 20
-172.7725611186086
 30
0.0
  0
VERTEX
  8
0
 10
92.33435000000001
 20
-177.73604999999998
 30
0.0
  0
VERTEX
  8
0
 10
93.40897686567163
 20
-182.6995388813914
 30
0.0
  0
VERTEX
  8
0
 10
96.12382368421054
 20
-186.4874646066638
 30
0.0
  0
VERTEX
  8
0
 10
99.52937074688796
 20
-188.73205720157836
 30
0.0
  0
VERTEX
  8
0
 10
103.87281153846153
 20
-189.72717097547684
 30
0.0
  0
VERTEX
  8
0
 10
108.77994585492229
 20
-188.88220079274896
 30
0.0
  0
VERTEX
  8
0
 10
113.02822755102041
 20
-186.00747630553303
 30
0.0
  0
VERTEX
  8
0
 10
115.58780622119816
 20
-181.90255009931315
 30
0.0
  0
VERTEX
  8
0
 10
116.33435
 20
-177.73605
 30
0.0
  0
SEQEND
  8
0
  0
POLYLINE
  8
0
 62
7
 70
0
 66
1
 10
0.0
 20
0.0
 30
0.0
  0
VERTEX
  8
0
 10
86.300713
 20
-244.43135
 30
0.0
  0
VERTEX
  8
0
 10
85.55416922119817
 20
-240.26484990068687
 30
0.0
  0
VERTEX
  8
0
 10
82.99459055102041
 20
-236.159923694467
 30
0.0
  0
VERTEX
  8
0
 10
78.74630885492229
 20
-233.2851992072511
 30
0.0
  0
VERTEX
  8
0
 10
73.83917453846155
 20
-232.44022902452318
 30
0.0
  0
VERTEX
  8
0
 10
69.49573374688798
 20
-233.43534279842166
 30
0.0
  0
VERTEX
  8
0
 10
66.09018668421052
 20
-235.67993539333622
 30
0.0
  0
VERTEX
  8
0
 10
63.37533986567164
 20
-239.4678611186086
 30
0.0
  0
VERTEX
  8
0
 10
62.30071300000001
 20
-244.43135000000004
 30
0.0
  0
VERTEX
  8
0
 10
63.37533986567165
 20
-249.39483888139142
 30
0.0
  0
VERTEX
  8
0
 10
66.09018668421054
 20
-253.1827646066638
 30
0.0
  0
VERTEX
  8
0
 10
69.49573374688795
 20
-255.42735720157836
 30
0.0
  0
VERTEX
  8
0
 10
73.83917453846153
 20
-256.4224709754768
 30
0.0
  0
VERTEX
  8
0
 10
78.74630885492229
 20
-255.57750079274896
 30
0.0
  0
VERTEX
  8
0
 10
82.99459055102041
 20
-252.70277630553304
 30
0.0
  0
VERTEX
  8
0
 10
85.55416922119815
 20
-248.59785009931318
 30
0.0
  0
VERTEX
  8
0
 10
86.300713
 20
-244.43135
 30
0.0
  0
SEQEND
  8
0
  0
POLYLINE
  8
0
 62
7
 70
0
 66
1
 10
0.0
 20
0.0
 30
0.0
  0
VERTEX
  8
0
 10
236.32135
 20
-311.14371
 30
0.0
  0
VERTEX
  8
0
 10
235.57480622119817
 20
-306.97720990068683
 30
0.0
  0
VERTEX
  8
0
 10
233.01522755102042
 20
-302.872283694467
 30
0.0
  0
VERTEX
  8
0
 10
228.76694585492228
 20
-299.9975592072511
 30
0.0
  0
VERTEX
  8
0
 10
223.85981153846157
 20
-299.1525890245232
 30
0.0
  0
VERTEX
  8
0
 10
219.51637074688796
 20
-300.1477027984216
 30
0.0
  0
VERTEX
  8
0
 10
216.1108236842105
 20
-302.39229539333616
 30
0.0
  0
VERTEX
  8
0
 10
213.39597686567166
 20
-306.1802211186086
 30
0.0
  0
VERTEX
  8
0
 10
212.32135000000002
 20
-311.14371
 30
0.0
  0
VERTEX
  8
0
 10
213.39597686567163
 20
-316.10719888139135
 30
0.0
  0
VERTEX
  8
0
 10
216.11082368421054
 20
-319.8951246066637
 30
0.0
  0
VERTEX
  8
0
 10
219.51637074688796
 20
-322.1397172015784
 30
0.0
  0
VERTEX
  8
0
 10
223.85981153846154
 20
-323.1348309754768
 30
0.0
  0
VERTEX
  8
0
 10
228.76694585492228
 20
-322.2898607927489
 30
0.0
  0
VERTEX
  8
0
 10
233.01522755102042
 20
-319.41513630553305
 30
0.0
  0
VERTEX
  8
0
 10
235.57480622119814
 20
-315.3102100993131
 30
0.0
  0
VERTEX
  8
0
 10
236.32135
 20
-311.14371
 30
0.0
  0
SEQEND
  8
0
  0
POLYLINE
  8
0
 62
7
 70
0
 66
1
 10
0.0
 20
0.0
 30
0.0
  0
VERTEX
  8
0
 10
86.304161
 20
-177.73569
 30
0.0
  0
VERTEX
  8
0
 10
85.55761722119814
 20
-173.56918990068687
 30
0.0
  0
VERTEX
  8
0
 10
82.9980385510204
 20
-169.46426369446704
 30
0.0
  0
VERTEX
  8
0
 10
78.74975685492227
 20
-166.58953920725108
 30
0.0
  0
VERTEX
  8
0
 10
73.84262253846153
 20
-165.74456902452317
 30
0.0
  0
VERTEX
  8
0
 10
69.49918174688796
 20
-166.73968279842165
 30
0.0
  0
VERTEX
  8
0
 10
66.09363468421051
 20
-168.9842753933362
 30
0.0
  0
VERTEX
  8
0
 10
63.37878786567165
 20
-172.7722011186086
 30
0.0
  0
VERTEX
  8
0
 10
62.304161
 20
-177.73569
 30
0.0
  0
VERTEX
  8
0
 10
63.37878786567165
 20
-182.6991788813914
 30
0.0
  0
VERTEX
  8
0
 10
66.09363468421053
 20
-186.48710460666382
 30
0.0
  0
VERTEX
  8
0
 10
69.49918174688796
 20
-188.73169720157836
 30
0.0
  0
VERTEX
  8
0
 10
73.84262253846153
 20
-189.72681097547684
 30
0.0
  0
VERTEX
  8
0
 10
78.74975685492228
 20
-188.88184079274893
 30
0.0
  0
VERTEX
  8
0
 10
82.9980385510204
 20
-186.00711630553303
 30
0.0
  0
VERTEX
  8
0
 10
85.55761722119816
 20
-181.90219009931315
 30
0.0
  0
VERTEX
  8
0
 10
86.304161
 20
-177.73569
 30
0.0
  0
SEQEND
  8
0
  0
POLYLINE
  8
0
 62
7
 70
0
 66
1
 10
0.0
 20
0.0
 30
0.0
  0
VERTEX
  8
0
 10
146.32996
 20
-177.73605
 30
0.0
  0
VERTEX
  8
0
 10
145.58341622119818
 20
-173.56954990068687
 30
0.0
  0
VERTEX
  8
0
 10
143.02383755102042
 20
-169.46462369446698
 30
0.0
  0
VERTEX
  8
0
 10
138.7755558549223
 20
-166.58989920725108
 30
0.0
  0
VERTEX
  8
0
 10
133.86842153846155
 20
-165.74492902452317
 30
0.0
  0
VERTEX
  8
0
 10
129.52498074688796
 20
-166.74004279842165
 30
0.0
  0
VERTEX
  8
0
 10
126.11943368421052
 20
-168.9846353933362
 30
0.0
  0
VERTEX
  8
0
 10
123.40458686567165
 20
-172.7725611186086
 30
0.0
  0
VERTEX
  8
0
 10
122.32996000000001
 20
-177.73604999999998
 30
0.0
  0
VERTEX
  8
0
 10
123.40458686567163
 20
-182.6995388813914
 30
0.0
  0
VERTEX
  8
0
 10
126.11943368421052
 20
-186.4874646066638
 30
0.0
  0
VERTEX
  8
0
 10
129.52498074688796
 20
-188.73205720157836
 30
0.0
  0
VERTEX
  8
0
 10
133.86842153846152
 20
-189.72717097547684
 30
0.0
  0
VERTEX
  8
0
 10
138.7755558549223
 20
-188.88220079274896
 30
0.0
  0
VERTEX
  8
0
 10
143.02383755102042
 20
-186.00747630553303
 30
0.0
  0
VERTEX
  8
0
 10
145.58341622119815
 20
-181.90255009931315
 30
0.0
  0
VERTEX
  8
0
 10
146.32996
 20
-177.73605
 30
0.0
  0
SEQEND
  8
0
  0
POLYLINE
  8
0
 62
7
 70
0
 66
1
 10
0.0
 20
0.0
 30
0.0
  0
VERTEX
  8
0
 10
86.300018
 20
-111.04243
 30
0.0
  0
VERTEX
  8
0
 10
85.55347422119816
 20
-106.87592990068684
 30
0.0
  0
VERTEX
  8
0
 10
82.99389555102042
 20
-102.771003694467
 30
0.0
  0
VERTEX
  8
0
 10
78.74561385492228
 20
-99.89627920725107
 30
0.0
  0
VERTEX
  8
0
 10
73.83847953846154
 20
-99.05130902452316
 30
0.0
  0
VERTEX
  8
0
 10
69.49503874688796
 20
-100.04642279842166
 30
0.0
  0
VERTEX
  8
0
 10
66.08949168421051
 20
-102.2910153933362
 30
0.0
  0
VERTEX
  8
0
 10
63.37464486567164
 20
-106.07894111860858
 30
0.0
  0
VERTEX
  8
0
 10
62.300018
 20
-111.04243000000001
 30
0.0
  0
VERTEX
  8
0
 10
63.37464486567164
 20
-116.00591888139142
 30
0.0
  0
VERTEX
  8
0
 10
66.08949168421053
 20
-119.79384460666381
 30
0.0
  0
VERTEX
  8
0
 10
69.49503874688796
 20
-122.03843720157835
 30
0.0
  0
VERTEX
  8
0
 10
73.83847953846154
 20
-123.03355097547683
 30
0.0
  0
VERTEX
  8
0
 10
78.74561385492227
 20
-122.18858079274894
 30
0.0
  0
VERTEX
  8
0
 10
82.99389555102039
 20
-119.31385630553302
 30
0.0
  0
VERTEX
  8
0
 10
85.55347422119813
 20
-115.20893009931315
 30
0.0
  0
VERTEX
  8
0
 10
86.300018
 20
-111.04243
 30
0.0
  0
SEQEND
  8
0
  0
POLYLINE
  8
0
 62
7
 70
0
 66
1
 10
0.0
 20
0.0
 30
0.0
  0
VERTEX
  8
0
 10
206.3286
 20
-177.73605
 30
0.0
  0
VERTEX
  8
0
 10
205.58205622119814
 20
-173.56954990068687
 30
0.0
  0
VERTEX
  8
0
 10
203.02247755102044
 20
-169.46462369446698
 30
0.0
  0
VERTEX
  8
0
 10
198.77419585492228
 20
-166.58989920725108
 30
0.0
  0
VERTEX
  8
0
 10
193.86706153846154
 20
-165.74492902452317
 30
0.0
  0
VERTEX
  8
0
 10
189.52362074688796
 20
-166.74004279842165
 30
0.0
  0
VERTEX
  8
0
 10
186.1180736842105
 20
-168.9846353933362
 30
0.0
  0
VERTEX
  8
0
 10
183.40322686567166
 20
-172.7725611186086
 30
0.0
  0
VERTEX
  8
0
 10
182.32860000000002
 20
-177.73604999999998
 30
0.0
  0
VERTEX
  8
0
 10
183.40322686567163
 20
-182.6995388813914
 30
0.0
  0
VERTEX
  8
0
 10
186.11807368421051
 20
-186.4874646066638
 30
0.0
  0
VERTEX
  8
0
 10
189.52362074688796
 20
-188.73205720157836
 30
0.0
  0
VERTEX
  8
0
 10
193.86706153846154
 20
-189.72717097547684
 30
0.0
  0
VERTEX
  8
0
 10
198.77419585492225
 20
-188.88220079274896
 30
0.0
  0
VERTEX
  8
0
 10
203.0224775510204
 20
-186.00747630553303
 30
0.0
  0
VERTEX
  8
0
 10
205.58205622119814
 20
-181.90255009931315
 30
0.0
  0
VERTEX
  8
0
 10
206.3286
 20
-177.73605
 30
0.0
  0
SEQEND
  8
0
  0
POLYLINE
  8
0
 62
7
 70
0
 66
1
 10
0.0
 20
0.0
 30
0.0
  0
VERTEX
  8
0
 10
296.32489
 20
-311.14371
 30
0.0
  0
VERTEX
  8
0
 10
295.57834622119816
 20
-306.97720990068683
 30
0.0
  0
VERTEX
  8
0
 10
293.0187675510204
 20
-302.872283694467
 30
0.0
  0
VERTEX
  8
0
 10
288.7704858549223
 20
-299.9975592072511
 30
0.0
  0
VERTEX
  8
0
 10
283.86335153846153
 20
-299.1525890245232
 30
0.0
  0
VERTEX
  8
0
 10
279.51991074688794
 20
-300.1477027984216
 30
0.0
  0
VERTEX
  8
0
 10
276.1143636842105
 20
-302.39229539333616
 30
0.0
  0
VERTEX
  8
0
 10
273.3995168656716
 20
-306.1802211186086
 30
0.0
  0
VERTEX
  8
0
 10
272.32489000000004
 20
-311.14371
 30
0.0
  0
VERTEX
  8
0
 10
273.3995168656716
 20
-316.10719888139135
 30
0.0
  0
VERTEX
  8
0
 10
276.1143636842105
 20
-319.8951246066637
 30
0.0
  0
VERTEX
  8
0
 10
279.51991074688794
 20
-322.1397172015784
 30
0.0
  0
VERTEX
  8
0
 10
283.86335153846153
 20
-323.1348309754768
 30
0.0
  0
VERTEX
  8
0
 10
288.7704858549223
 20
-322.2898607927489
 30
0.0
  0
VERTEX
  8
0
 10
293.0187675510204
 20
-319.41513630553305
 30
0.0
  0
VERTEX
  8
0
 10
295.5783462211981
 20
-315.3102100993131
 30
0.0
  0
VERTEX
  8
0
 10
296.32489
 20
-311.14371
 30
0.0
  0
SEQEND
  8
0
  0
POLYLINE
  8
0
 62
7
 70
0
 66
1
 10
0.0
 20
0.0
 30
0.0
  0
VERTEX
  8
0
 10
236.32158
 20
-244.43172
 30
0.0
  0
VERTEX
  8
0
 10
235.5750362211982
 20
-240.26521990068687
 30
0.0
  0
VERTEX
  8
0
 10
233.01545755102043
 20
-236.16029369446704
 30
0.0
  0
VERTEX
  8
0
 10
228.7671758549223
 20
-233.28556920725114
 30
0.0
  0
VERTEX
  8
0
 10
223.86004153846156
 20
-232.4405990245232
 30
0.0
  0
VERTEX
  8
0
 10
219.51660074688795
 20
-233.43571279842172
 30
0.0
  0
VERTEX
  8
0
 10
216.11105368421053
 20
-235.6803053933362
 30
0.0
  0
VERTEX
  8
0
 10
213.39620686567164
 20
-239.46823111860863
 30
0.0
  0
VERTEX
  8
0
 10
212.32158000000004
 20
-244.43172000000004
 30
0.0
  0
VERTEX
  8
0
 10
213.39620686567167
 20
-249.39520888139143
 30
0.0
  0
VERTEX
  8
0
 10
216.11105368421053
 20
-253.18313460666383
 30
0.0
  0
VERTEX
  8
0
 10
219.51660074688797
 20
-255.42772720157836
 30
0.0
  0
VERTEX
  8
0
 10
223.86004153846156
 20
-256.42284097547684
 30
0.0
  0
VERTEX
  8
0
 10
228.7671758549223
 20
-255.57787079274894
 30
0.0
  0
VERTEX
  8
0
 10
233.01545755102043
 20
-252.70314630553304
 30
0.0
  0
VERTEX
  8
0
 10
235.57503622119816
 20
-248.59822009931315
 30
0.0
  0
VERTEX
  8
0
 10
236.32158
 20
-244.43172
 30
0.0
  0
SEQEND
  8
0
  0
POLYLINE
  8
0
 62
7
 70
0
 66
1
 10
0.0
 20
0.0
 30
0.0
  0
VERTEX
  8
0
 10
236.325
 20
-177.73605
 30
0.0
  0
VERTEX
  8
0
 10
235.57845622119817
 20
-173.56954990068687
 30
0.0
  0
VERTEX
  8
0
 10
233.01887755102044
 20
-169.46462369446698
 30
0.0
  0
VERTEX
  8
0
 10
228.77059585492228
 20
-166.58989920725108
 30
0.0
  0
VERTEX
  8
0
 10
223.86346153846154
 20
-165.74492902452317
 30
0.0
  0
VERTEX
  8
0
 10
219.52002074688795
 20
-166.74004279842165
 30
0.0
  0
VERTEX
  8
0
 10
216.11447368421048
 20
-168.9846353933362
 30
0.0
  0
VERTEX
  8
0
 10
213.39962686567162
 20
-172.7725611186086
 30
0.0
  0
VERTEX
  8
0
 10
212.32500000000002
 20
-177.73604999999998
 30
0.0
  0
VERTEX
  8
0
 10
213.39962686567162
 20
-182.6995388813914
 30
0.0
  0
VERTEX
  8
0
 10
216.11447368421048
 20
-186.4874646066638
 30
0.0
  0
VERTEX
  8
0
 10
219.52002074688795
 20
-188.73205720157836
 30
0.0
  0
VERTEX
  8
0
 10
223.86346153846154
 20
-189.72717097547684
 30
0.0
  0
VERTEX
  8
0
 10
228.77059585492228
 20
-188.88220079274896
 30
0.0
  0
VERTEX
  8
0
 10
233.01887755102038
 20
-186.00747630553303
 30
0.0
  0
VERTEX
  8
0
 10
235.57845622119814
 20
-181.90255009931315
 30
0.0
  0
VERTEX
  8
0
 10
236.325
 20
-177.73605
 30
0.0
  0
SEQEND
  8
0
  0
POLYLINE
  8
0
 62
7
 70
0
 66
1
 10
0.0
 20
0.0
 30
0.0
  0
VERTEX
  8
0
 10
356.3186
 20
-177.73605
 30
0.0
  0
VERTEX
  8
0
 10
355.5720562211982
 20
-173.56954990068687
 30
0.0
  0
VERTEX
  8
0
 10
353.0124775510204
 20
-169.46462369446698
 30
0.0
  0
VERTEX
  8
0
 10
348.7641958549223
 20
-166.58989920725108
 30
0.0
  0
VERTEX
  8
0
 10
343.85706153846155
 20
-165.74492902452317
 30
0.0
  0
VERTEX
  8
0
 10
339.51362074688797
 20
-166.74004279842165
 30
0.0
  0
VERTEX
  8
0
 10
336.1080736842105
 20
-168.9846353933362
 30
0.0
  0
VERTEX
  8
0
 10
333.39322686567164
 20
-172.7725611186086
 30
0.0
  0
VERTEX
  8
0
 10
332.3186
 20
-177.73604999999998
 30
0.0
  0
VERTEX
  8
0
 10
333.3932268656717
 20
-182.6995388813914
 30
0.0
  0
VERTEX
  8
0
 10
336.1080736842105
 20
-186.4874646066638
 30
0.0
  0
VERTEX
  8
0
 10
339.51362074688797
 20
-188.73205720157836
 30
0.0
  0
VERTEX
  8
0
 10
343.85706153846155
 20
-189.72717097547684
 30
0.0
  0
VERTEX
  8
0
 10
348.7641958549223
 20
-188.88220079274896
 30
0.0
  0
VERTEX
  8
0
 10
353.0124775510204
 20
-186.00747630553303
 30
0.0
  0
VERTEX
  8
0
 10
355.5720562211982
 20
-181.90255009931315
 30
0.0
  0
VERTEX
  8
0
 10
356.3186
 20
-177.73605
 30
0.0
  0
SEQEND
  8
0
  0
POLYLINE
  8
0
 62
7
 70
0
 66
1
 10
0.0
 20
0.0
 30
0.0
  0
VERTEX
  8
0
 10
206.32492
 20
-311.14371
 30
0.0
  0
VERTEX
  8
0
 10
205.57837622119814
 20
-306.97720990068683
 30
0.0
  0
VERTEX
  8
0
 10
203.0187975510204
 20
-302.872283694467
 30
0.0
  0
VERTEX
  8
0
 10
198.7705158549223
 20
-299.9975592072511
 30
0.0
  0
VERTEX
  8
0
 10
193.8633815384615
 20
-299.1525890245232
 30
0.0
  0
VERTEX
  8
0
 10
189.51994074688793
 20
-300.1477027984216
 30
0.0
  0
VERTEX
  8
0
 10
186.1143936842105
 20
-302.39229539333616
 30
0.0
  0
VERTEX
  8
0
 10
183.39954686567162
 20
-306.1802211186086
 30
0.0
  0
VERTEX
  8
0
 10
182.32492000000002
 20
-311.14371
 30
0.0
  0
VERTEX
  8
0
 10
183.3995468656716
 20
-316.10719888139135
 30
0.0
  0
VERTEX
  8
0
 10
186.1143936842105
 20
-319.8951246066637
 30
0.0
  0
VERTEX
  8
0
 10
189.51994074688795
 20
-322.1397172015784
 30
0.0
  0
VERTEX
  8
0
 10
193.8633815384615
 20
-323.1348309754768
 30
0.0
  0
VERTEX
  8
0
 10
198.7705158549223
 20
-322.2898607927489
 30
0.0
  0
VERTEX
  8
0
 10
203.0187975510204
 20
-319.41513630553305
 30
0.0
  0
VERTEX
  8
0
 10
205.57837622119814
 20
-315.3102100993131
 30
0.0
  0
VERTEX
  8
0
 10
206.32492
 20
-311.14371
 30
0.0
  0
SEQEND
  8
0
  0
POLYLINE
  8
0
 62
7
 70
0
 66
1
 10
0.0
 20
0.0
 30
0.0
  0
VERTEX
  8
0
 10
116.30647
 20
-77.689003
 30
0.0
  0
VERTEX
  8
0
 10
115.55992622119817
 20
-73.52250290068685
 30
0.0
  0
VERTEX
  8
0
 10
113.00034755102043
 20
-69.417576694467
 30
0.0
  0
VERTEX
  8
0
 10
108.7520658549223
 20
-66.54285220725107
 30
0.0
  0
VERTEX
  8
0
 10
103.84493153846152
 20
-65.69788202452317
 30
0.0
  0
VERTEX
  8
0
 10
99.50149074688795
 20
-66.69299579842165
 30
0.0
  0
VERTEX
  8
0
 10
96.09594368421052
 20
-68.9375883933362
 30
0.0
  0
VERTEX
  8
0
 10
93.38109686567165
 20
-72.72551411860859
 30
0.0
  0
VERTEX
  8
0
 10
92.30647000000003
 20
-77.689003
 30
0.0
  0
VERTEX
  8
0
 10
93.38109686567165
 20
-82.65249188139141
 30
0.0
  0
VERTEX
  8
0
 10
96.09594368421054
 20
-86.44041760666379
 30
0.0
  0
VERTEX
  8
0
 10
99.50149074688795
 20
-88.68501020157834
 30
0.0
  0
VERTEX
  8
0
 10
103.84493153846155
 20
-89.68012397547683
 30
0.0
  0
VERTEX
  8
0
 10
108.7520658549223
 20
-88.83515379274894
 30
0.0
  0
VERTEX
  8
0
 10
113.00034755102043
 20
-85.96042930553301
 30
0.0
  0
VERTEX
  8
0
 10
115.55992622119815
 20
-81.85550309931314
 30
0.0
  0
VERTEX
  8
0
 10
116.30647
 20
-77.689003
 30
0.0
  0
SEQEND
  8
0
  0
POLYLINE
  8
0
 62
7
 70
0
 66
1
 10
0.0
 20
0.0
 30
0.0
  0
VERTEX
  8
0
 10
206.32446
 20
-111.04279
 30
0.0
  0
VERTEX
  8
0
 10
205.57791622119817
 20
-106.87628990068686
 30
0.0
  0
VERTEX
  8
0
 10
203.0183375510204
 20
-102.771363694467
 30
0.0
  0
VERTEX
  8
0
 10
198.77005585492228
 20
-99.89663920725108
 30
0.0
  0
VERTEX
  8
0
 10
193.86292153846153
 20
-99.05166902452318
 30
0.0
  0
VERTEX
  8
0
 10
189.51948074688792
 20
-100.04678279842166
 30
0.0
  0
VERTEX
  8
0
 10
186.1139336842105
 20
-102.2913753933362
 30
0.0
  0
VERTEX
  8
0
 10
183.39908686567162
 20
-106.0793011186086
 30
0.0
  0
VERTEX
  8
0
 10
182.32446000000002
 20
-111.04279000000001
 30
0.0
  0
VERTEX
  8
0
 10
183.39908686567162
 20
-116.00627888139141
 30
0.0
  0
VERTEX
  8
0
 10
186.11393368421054
 20
-119.79420460666381
 30
0.0
  0
VERTEX
  8
0
 10
189.51948074688795
 20
-122.03879720157833
 30
0.0
  0
VERTEX
  8
0
 10
193.86292153846153
 20
-123.03391097547683
 30
0.0
  0
VERTEX
  8
0
 10
198.77005585492228
 20
-122.18894079274892
 30
0.0
  0
VERTEX
  8
0
 10
203.0183375510204
 20
-119.31421630553302
 30
0.0
  0
VERTEX
  8
0
 10
205.57791622119817
 20
-115.20929009931315
 30
0.0
  0
VERTEX
  8
0
 10
206.32446
 20
-111.04279
 30
0.0
  0
SEQEND
  8
0
  0
POLYLINE
  8
0
 62
7
 70
0
 66
1
 10
0.0
 20
0.0
 30
0.0
  0
VERTEX
  8
0
 10
146.30206
 20
-77.689003
 30
0.0
  0
VERTEX
  8
0
 10
145.5555162211982
 20
-73.52250290068685
 30
0.0
  0
VERTEX
  8
0
 10
142.99593755102043
 20
-69.417576694467
 30
0.0
  0
VERTEX
  8
0
 10
138.7476558549223
 20
-66.54285220725107
 30
0.0
  0
VERTEX
  8
0
 10
133.84052153846153
 20
-65.69788202452317
 30
0.0
  0
VERTEX
  8
0
 10
129.49708074688795
 20
-66.69299579842165
 30
0.0
  0
VERTEX
  8
0
 10
126.09153368421053
 20
-68.9375883933362
 30
0.0
  0
VERTEX
  8
0
 10
123.37668686567166
 20
-72.72551411860859
 30
0.0
  0
VERTEX
  8
0
 10
122.30206000000003
 20
-77.689003
 30
0.0
  0
VERTEX
  8
0
 10
123.37668686567166
 20
-82.65249188139141
 30
0.0
  0
VERTEX
  8
0
 10
126.09153368421056
 20
-86.44041760666379
 30
0.0
  0
VERTEX
  8
0
 10
129.49708074688797
 20
-88.68501020157834
 30
0.0
  0
VERTEX
  8
0
 10
133.84052153846156
 20
-89.68012397547683
 30
0.0
  0
VERTEX
  8
0
 10
138.7476558549223
 20
-88.83515379274894
 30
0.0
  0
VERTEX
  8
0
 10
142.99593755102043
 20
-85.96042930553301
 30
0.0
  0
VERTEX
  8
0
 10
145.55551622119816
 20
-81.85550309931314
 30
0.0
  0
VERTEX
  8
0
 10
146.30206
 20
-77.689003
 30
0.0
  0
SEQEND
  8
0
  0
POLYLINE
  8
0
 62
7
 70
0
 66
1
 10
0.0
 20
0.0
 30
0.0
  0
VERTEX
  8
0
 10
206.32515
 20
-244.43172
 30
0.0
  0
VERTEX
  8
0
 10
205.57860622119819
 20
-240.26521990068687
 30
0.0
  0
VERTEX
  8
0
 10
203.01902755102043
 20
-236.16029369446704
 30
0.0
  0
VERTEX
  8
0
 10
198.7707458549223
 20
-233.28556920725114
 30
0.0
  0
VERTEX
  8
0
 10
193.86361153846156
 20
-232.4405990245232
 30
0.0
  0
VERTEX
  8
0
 10
189.520170746888
 20
-233.43571279842172
 30
0.0
  0
VERTEX
  8
0
 10
186.11462368421053
 20
-235.6803053933362
 30
0.0
  0
VERTEX
  8
0
 10
183.39977686567167
 20
-239.46823111860863
 30
0.0
  0
VERTEX
  8
0
 10
182.32515
 20
-244.43172000000004
 30
0.0
  0
VERTEX
  8
0
 10
183.39977686567164
 20
-249.39520888139143
 30
0.0
  0
VERTEX
  8
0
 10
186.1146236842105
 20
-253.18313460666383
 30
0.0
  0
VERTEX
  8
0
 10
189.52017074688797
 20
-255.42772720157836
 30
0.0
  0
VERTEX
  8
0
 10
193.86361153846156
 20
-256.42284097547684
 30
0.0
  0
VERTEX
  8
0
 10
198.77074585492227
 20
-255.57787079274894
 30
0.0
  0
VERTEX
  8
0
 10
203.0190275510204
 20
-252.70314630553304
 30
0.0
  0
VERTEX
  8
0
 10
205.57860622119813
 20
-248.59822009931315
 30
0.0
  0
VERTEX
  8
0
 10
206.32515
 20
-244.43172
 30
0.0
  0
SEQEND
  8
0
  0
POLYLINE
  8
0
 62
7
 70
0
 66
1
 10
0.0
 20
0.0
 30
0.0
  0
VERTEX
  8
0
 10
146.32651
 20
-244.43172
 30
0.0
  0
VERTEX
  8
0
 10
145.57996622119816
 20
-240.26521990068687
 30
0.0
  0
VERTEX
  8
0
 10
143.02038755102043
 20
-236.16029369446704
 30
0.0
  0
VERTEX
  8
0
 10
138.7721058549223
 20
-233.28556920725114
 30
0.0
  0
VERTEX
  8
0
 10
133.86497153846156
 20
-232.4405990245232
 30
0.0
  0
VERTEX
  8
0
 10
129.52153074688798
 20
-233.43571279842172
 30
0.0
  0
VERTEX
  8
0
 10
126.11598368421055
 20
-235.6803053933362
 30
0.0
  0
VERTEX
  8
0
 10
123.40113686567166
 20
-239.46823111860863
 30
0.0
  0
VERTEX
  8
0
 10
122.32651000000003
 20
-244.43172000000004
 30
0.0
  0
VERTEX
  8
0
 10
123.40113686567166
 20
-249.39520888139143
 30
0.0
  0
VERTEX
  8
0
 10
126.11598368421055
 20
-253.18313460666383
 30
0.0
  0
VERTEX
  8
0
 10
129.52153074688798
 20
-255.42772720157836
 30
0.0
  0
VERTEX
  8
0
 10
133.86497153846156
 20
-256.42284097547684
 30
0.0
  0
VERTEX
  8
0
 10
138.7721058549223
 20
-255.57787079274894
 30
0.0
  0
VERTEX
  8
0
 10
143.0203875510204
 20
-252.70314630553304
 30
0.0
  0
VERTEX
  8
0
 10
145.57996622119816
 20
-248.59822009931315
 30
0.0
  0
VERTEX
  8
0
 10
146.32651
 20
-244.43172
 30
0.0
  0
SEQEND
  8
0
  0
POLYLINE
  8
0
 62
7
 70
0
 66
1
 10
0.0
 20
0.0
 30
0.0
  0
VERTEX
  8
0
 10
236.32083
 20
-111.04279
 30
0.0
  0
VERTEX
  8
0
 10
235.57428622119818
 20
-106.87628990068686
 30
0.0
  0
VERTEX
  8
0
 10
233.01470755102042
 20
-102.771363694467
 30
0.0
  0
VERTEX
  8
0
 10
228.7664258549223
 20
-99.89663920725108
 30
0.0
  0
VERTEX
  8
0
 10
223.85929153846155
 20
-99.05166902452318
 30
0.0
  0
VERTEX
  8
0
 10
219.51585074688796
 20
-100.04678279842166
 30
0.0
  0
VERTEX
  8
0
 10
216.11030368421052
 20
-102.2913753933362
 30
0.0
  0
VERTEX
  8
0
 10
213.39545686567166
 20
-106.0793011186086
 30
0.0
  0
VERTEX
  8
0
 10
212.32083000000003
 20
-111.04279000000001
 30
0.0
  0
VERTEX
  8
0
 10
213.39545686567166
 20
-116.00627888139141
 30
0.0
  0
VERTEX
  8
0
 10
216.11030368421052
 20
-119.79420460666381
 30
0.0
  0
VERTEX
  8
0
 10
219.51585074688796
 20
-122.03879720157833
 30
0.0
  0
VERTEX
  8
0
 10
223.85929153846155
 20
-123.03391097547683
 30
0.0
  0
VERTEX
  8
0
 10
228.7664258549223
 20
-122.18894079274892
 30
0.0
  0
VERTEX
  8
0
 10
233.0147075510204
 20
-119.31421630553302
 30
0.0
  0
VERTEX
  8
0
 10
235.57428622119815
 20
-115.20929009931315
 30
0.0
  0
VERTEX
  8
0
 10
236.32083
 20
-111.04279
 30
0.0
  0
SEQEND
  8
0
  0
POLYLINE
  8
0
 62
7
 70
0
 66
1
 10
0.0
 20
0.0
 30
0.0
  0
VERTEX
  8
0
 10
386.32144
 20
-244.43172
 30
0.0
  0
VERTEX
  8
0
 10
385.57489622119823
 20
-240.26521990068687
 30
0.0
  0
VERTEX
  8
0
 10
383.0153175510204
 20
-236.16029369446704
 30
0.0
  0
VERTEX
  8
0
 10
378.7670358549223
 20
-233.28556920725114
 30
0.0
  0
VERTEX
  8
0
 10
373.85990153846154
 20
-232.4405990245232
 30
0.0
  0
VERTEX
  8
0
 10
369.516460746888
 20
-233.43571279842172
 30
0.0
  0
VERTEX
  8
0
 10
366.1109136842105
 20
-235.6803053933362
 30
0.0
  0
VERTEX
  8
0
 10
363.3960668656716
 20
-239.46823111860863
 30
0.0
  0
VERTEX
  8
0
 10
362.32144
 20
-244.43172000000004
 30
0.0
  0
VERTEX
  8
0
 10
363.3960668656717
 20
-249.39520888139143
 30
0.0
  0
VERTEX
  8
0
 10
366.1109136842105
 20
-253.18313460666383
 30
0.0
  0
VERTEX
  8
0
 10
369.51646074688796
 20
-255.42772720157836
 30
0.0
  0
VERTEX
  8
0
 10
373.85990153846154
 20
-256.42284097547684
 30
0.0
  0
VERTEX
  8
0
 10
378.7670358549223
 20
-255.57787079274894
 30
0.0
  0
VERTEX
  8
0
 10
383.0153175510204
 20
-252.70314630553304
 30
0.0
  0
VERTEX
  8
0
 10
385.5748962211982
 20
-248.59822009931315
 30
0.0
  0
VERTEX
  8
0
 10
386.32144
 20
-244.43172
 30
0.0
  0
SEQEND
  8
0
  0
POLYLINE
  8
0
 62
7
 70
0
 66
1
 10
0.0
 20
0.0
 30
0.0
  0
VERTEX
  8
0
 10
86.302444
 20
-377.83511
 30
0.0
  0
VERTEX
  8
0
 10
85.55590022119816
 20
-373.6686099006869
 30
0.0
  0
VERTEX
  8
0
 10
82.9963215510204
 20
-369.563683694467
 30
0.0
  0
VERTEX
  8
0
 10
78.74803985492227
 20
-366.68895920725106
 30
0.0
  0
VERTEX
  8
0
 10
73.84090553846153
 20
-365.8439890245232
 30
0.0
  0
VERTEX
  8
0
 10
69.49746474688794
 20
-366.8391027984216
 30
0.0
  0
VERTEX
  8
0
 10
66.09191768421051
 20
-369.0836953933362
 30
0.0
  0
VERTEX
  8
0
 10
63.37707086567164
 20
-372.8716211186085
 30
0.0
  0
VERTEX
  8
0
 10
62.302444
 20
-377.83511
 30
0.0
  0
VERTEX
  8
0
 10
63.37707086567164
 20
-382.7985988813914
 30
0.0
  0
VERTEX
  8
0
 10
66.09191768421054
 20
-386.58652460666383
 30
0.0
  0
VERTEX
  8
0
 10
69.49746474688796
 20
-388.83111720157837
 30
0.0
  0
VERTEX
  8
0
 10
73.84090553846153
 20
-389.8262309754768
 30
0.0
  0
VERTEX
  8
0
 10
78.74803985492228
 20
-388.9812607927489
 30
0.0
  0
VERTEX
  8
0
 10
82.9963215510204
 20
-386.106536305533
 30
0.0
  0
VERTEX
  8
0
 10
85.55590022119814
 20
-382.0016100993131
 30
0.0
  0
VERTEX
  8
0
 10
86.302444
 20
-377.83511
 30
0.0
  0
SEQEND
  8
0
  0
POLYLINE
  8
0
 62
7
 70
0
 66
1
 10
0.0
 20
0.0
 30
0.0
  0
VERTEX
  8
0
 10
176.31311
 20
-311.14371
 30
0.0
  0
VERTEX
  8
0
 10
175.56656622119814
 20
-306.97720990068683
 30
0.0
  0
VERTEX
  8
0
 10
173.00698755102042
 20
-302.872283694467
 30
0.0
  0
VERTEX
  8
0
 10
168.75870585492228
 20
-299.9975592072511
 30
0.0
  0
VERTEX
  8
0
 10
163.85157153846154
 20
-299.1525890245232
 30
0.0
  0
VERTEX
  8
0
 10
159.50813074688796
 20
-300.1477027984216
 30
0.0
  0
VERTEX
  8
0
 10
156.1025836842105
 20
-302.39229539333616
 30
0.0
  0
VERTEX
  8
0
 10
153.38773686567163
 20
-306.1802211186086
 30
0.0
  0
VERTEX
  8
0
 10
152.31311000000002
 20
-311.14371
 30
0.0
  0
VERTEX
  8
0
 10
153.38773686567166
 20
-316.10719888139135
 30
0.0
  0
VERTEX
  8
0
 10
156.10258368421054
 20
-319.8951246066637
 30
0.0
  0
VERTEX
  8
0
 10
159.50813074688796
 20
-322.1397172015784
 30
0.0
  0
VERTEX
  8
0
 10
163.8515715384615
 20
-323.1348309754768
 30
0.0
  0
VERTEX
  8
0
 10
168.75870585492228
 20
-322.2898607927489
 30
0.0
  0
VERTEX
  8
0
 10
173.00698755102042
 20
-319.41513630553305
 30
0.0
  0
VERTEX
  8
0
 10
175.56656622119814
 20
-315.3102100993131
 30
0.0
  0
VERTEX
  8
0
 10
176.31311
 20
-311.14371
 30
0.0
  0
SEQEND
  8
0
  0
POLYLINE
  8
0
 62
7
 70
0
 66
1
 10
0.0
 20
0.0
 30
0.0
  0
VERTEX
  8
0
 10
326.32336
 20
-311.14371
 30
0.0
  0
VERTEX
  8
0
 10
325.57681622119816
 20
-306.97720990068683
 30
0.0
  0
VERTEX
  8
0
 10
323.0172375510204
 20
-302.872283694467
 30
0.0
  0
VERTEX
  8
0
 10
318.7689558549223
 20
-299.9975592072511
 30
0.0
  0
VERTEX
  8
0
 10
313.8618215384615
 20
-299.1525890245232
 30
0.0
  0
VERTEX
  8
0
 10
309.51838074688794
 20
-300.1477027984216
 30
0.0
  0
VERTEX
  8
0
 10
306.1128336842105
 20
-302.39229539333616
 30
0.0
  0
VERTEX
  8
0
 10
303.39798686567167
 20
-306.1802211186086
 30
0.0
  0
VERTEX
  8
0
 10
302.32336000000004
 20
-311.14371
 30
0.0
  0
VERTEX
  8
0
 10
303.3979868656716
 20
-316.10719888139135
 30
0.0
  0
VERTEX
  8
0
 10
306.1128336842105
 20
-319.8951246066637
 30
0.0
  0
VERTEX
  8
0
 10
309.51838074688794
 20
-322.1397172015784
 30
0.0
  0
VERTEX
  8
0
 10
313.8618215384615
 20
-323.1348309754768
 30
0.0
  0
VERTEX
  8
0
 10
318.7689558549223
 20
-322.2898607927489
 30
0.0
  0
VERTEX
  8
0
 10
323.0172375510204
 20
-319.41513630553305
 30
0.0
  0
VERTEX
  8
0
 10
325.5768162211981
 20
-315.3102100993131
 30
0.0
  0
VERTEX
  8
0
 10
326.32336
 20
-311.14371
 30
0.0
  0
SEQEND
  8
0
  0
POLYLINE
  8
0
 62
7
 70
0
 66
1
 10
0.0
 20
0.0
 30
0.0
  0
VERTEX
  8
0
 10
386.3212
 20
-311.14371
 30
0.0
  0
VERTEX
  8
0
 10
385.57465622119815
 20
-306.97720990068683
 30
0.0
  0
VERTEX
  8
0
 10
383.0150775510204
 20
-302.872283694467
 30
0.0
  0
VERTEX
  8
0
 10
378.76679585492224
 20
-299.9975592072511
 30
0.0
  0
VERTEX
  8
0
 10
373.8596615384615
 20
-299.1525890245232
 30
0.0
  0
VERTEX
  8
0
 10
369.5162207468879
 20
-300.1477027984216
 30
0.0
  0
VERTEX
  8
0
 10
366.1106736842105
 20
-302.39229539333616
 30
0.0
  0
VERTEX
  8
0
 10
363.3958268656716
 20
-306.1802211186086
 30
0.0
  0
VERTEX
  8
0
 10
362.32120000000003
 20
-311.14371
 30
0.0
  0
VERTEX
  8
0
 10
363.39582686567155
 20
-316.10719888139135
 30
0.0
  0
VERTEX
  8
0
 10
366.1106736842105
 20
-319.8951246066637
 30
0.0
  0
VERTEX
  8
0
 10
369.5162207468879
 20
-322.1397172015784
 30
0.0
  0
VERTEX
  8
0
 10
373.8596615384615
 20
-323.1348309754768
 30
0.0
  0
VERTEX
  8
0
 10
378.76679585492224
 20
-322.2898607927489
 30
0.0
  0
VERTEX
  8
0
 10
383.0150775510204
 20
-319.41513630553305
 30
0.0
  0
VERTEX
  8
0
 10
385.5746562211981
 20
-315.3102100993131
 30
0.0
  0
VERTEX
  8
0
 10
386.3212
 20
-311.14371
 30
0.0
  0
SEQEND
  8
0
  0
POLYLINE
  8
0
 62
7
 70
0
 66
1
 10
0.0
 20
0.0
 30
0.0
  0
VERTEX
  8
0
 10
30.498301
 20
-429.50464
 30
0.0
  0
VERTEX
  8
0
 10
29.52707797841727
 20
-425.20566497401967
 30
0.0
  0
VERTEX
  8
0
 10
26.246332496062994
 20
-421.3217227988872
 30
0.0
  0
VERTEX
  8
0
 10
21.362962654135345
 20
-419.5420921218783
 30
0.0
  0
VERTEX
  8
0
 10
16.740339216560514
 20
-420.23761657096907
 30
0.0
  0
VERTEX
  8
0
 10
13.25340304081633
 20
-422.6117847453892
 30
0.0
  0
VERTEX
  8
0
 10
10.847138209302328
 20
-426.88642366297734
 30
0.0
  0
VERTEX
  8
0
 10
10.847138209302324
 20
-432.12285633702265
 30
0.0
  0
VERTEX
  8
0
 10
13.253403040816325
 20
-436.3974952546108
 30
0.0
  0
VERTEX
  8
0
 10
16.740339216560507
 20
-438.7716634290309
 30
0.0
  0
VERTEX
  8
0
 10
21.362962654135327
 20
-439.4671878781217
 30
0.0
  0
VERTEX
  8
0
 10
26.24633249606299
 20
-437.6875572011128
 30
0.0
  0
VERTEX
  8
0
 10
29.52707797841726
 20
-433.80361502598026
 30
0.0
  0
VERTEX
  8
0
 10
30.498301
 20
-429.50464
 30
0.0
  0
SEQEND
  8
0
  0
POLYLINE
  8
0
 62
7
 70
0
 66
1
 10
0.0
 20
0.0
 30
0.0
  0
VERTEX
  8
0
 10
439.99896
 20
-429.50464
 30
0.0
  0
VERTEX
  8
0
 10
439.0277369784173
 20
-425.20566497401967
 30
0.0
  0
VERTEX
  8
0
 10
435.746991496063
 20
-421.3217227988872
 30
0.0
  0
VERTEX
  8
0
 10
430.86362165413533
 20
-419.5420921218783
 30
0.0
  0
VERTEX
  8
0
 10
426.2409982165605
 20
-420.23761657096907
 30
0.0
  0
VERTEX
  8
0
 10
422.7540620408164
 20
-422.6117847453892
 30
0.0
  0
VERTEX
  8
0
 10
420.34779720930237
 20
-426.88642366297734
 30
0.0
  0
VERTEX
  8
0
 10
420.34779720930226
 20
-432.12285633702265
 30
0.0
  0
VERTEX
  8
0
 10
422.7540620408163
 20
-436.3974952546108
 30
0.0
  0
VERTEX
  8
0
 10
426.2409982165605
 20
-438.7716634290309
 30
0.0
  0
VERTEX
  8
0
 10
430.8636216541353
 20
-439.4671878781217
 30
0.0
  0
VERTEX
  8
0
 10
435.746991496063
 20
-437.6875572011128
 30
0.0
  0
VERTEX
  8
0
 10
439.0277369784173
 20
-433.80361502598026
 30
0.0
  0
VERTEX
  8
0
 10
439.99896
 20
-429.50464
 30
0.0
  0
SEQEND
  8
0
  0
POLYLINE
  8
0
 62
7
 70
0
 66
1
 10
0.0
 20
0.0
 30
0.0
  0
VERTEX
  8
0
 10
440.0022
 20
-20.049885
 30
0.0
  0
VERTEX
  8
0
 10
439.0309769784173
 20
-15.750909974019693
 30
0.0
  0
VERTEX
  8
0
 10
435.750231496063
 20
-11.866967798887194
 30
0.0
  0
VERTEX
  8
0
 10
430.86686165413533
 20
-10.08733712187826
 30
0.0
  0
VERTEX
  8
0
 10
426.2442382165605
 20
-10.782861570969061
 30
0.0
  0
VERTEX
  8
0
 10
422.7573020408164
 20
-13.15702974538916
 30
0.0
  0
VERTEX
  8
0
 10
420.3510372093023
 20
-17.431668662977277
 30
0.0
  0
VERTEX
  8
0
 10
420.35103720930226
 20
-22.66810133702272
 30
0.0
  0
VERTEX
  8
0
 10
422.75730204081634
 20
-26.942740254610836
 30
0.0
  0
VERTEX
  8
0
 10
426.2442382165605
 20
-29.316908429030935
 30
0.0
  0
VERTEX
  8
0
 10
430.8668616541353
 20
-30.01243287812174
 30
0.0
  0
VERTEX
  8
0
 10
435.750231496063
 20
-28.232802201112804
 30
0.0
  0
VERTEX
  8
0
 10
439.0309769784173
 20
-24.348860025980315
 30
0.0
  0
VERTEX
  8
0
 10
440.0022
 20
-20.049885
 30
0.0
  0
SEQEND
  8
0
  0
POLYLINE
  8
0
 62
7
 70
0
 66
1
 10
0.0
 20
0.0
 30
0.0
  0
VERTEX
  8
0
 10
30.498802
 20
-20.052286
 30
0.0
  0
VERTEX
  8
0
 10
29.52757897841727
 20
-15.753310974019694
 30
0.0
  0
VERTEX
  8
0
 10
26.246833496062994
 20
-11.869368798887193
 30
0.0
  0
VERTEX
  8
0
 10
21.36346365413534
 20
-10.089738121878261
 30
0.0
  0
VERTEX
  8
0
 10
16.740840216560514
 20
-10.785262570969062
 30
0.0
  0
VERTEX
  8
0
 10
13.25390404081633
 20
-13.159430745389159
 30
0.0
  0
VERTEX
  8
0
 10
10.84763920930233
 20
-17.434069662977276
 30
0.0
  0
VERTEX
  8
0
 10
10.847639209302326
 20
-22.670502337022718
 30
0.0
  0
VERTEX
  8
0
 10
13.253904040816327
 20
-26.945141254610835
 30
0.0
  0
VERTEX
  8
0
 10
16.740840216560507
 20
-29.319309429030938
 30
0.0
  0
VERTEX
  8
0
 10
21.363463654135327
 20
-30.014833878121735
 30
0.0
  0
VERTEX
  8
0
 10
26.24683349606299
 20
-28.235203201112807
 30
0.0
  0
VERTEX
  8
0
 10
29.527578978417264
 20
-24.35126102598031
 30
0.0
  0
VERTEX
  8
0
 10
30.498802
 20
-20.052286
 30
0.0
  0
SEQEND
  8
0
  0
ENDBLK
  0
ENDSEC
  0
SECTION
  2
ENTITIES
  0
INSERT
  2
EXTRUDE
  8
0
 62
7
 10
0.0
 20
0.0
 30
0.0
  0
ENDSEC
  0
EOF
