<?xml version="1.0" encoding="UTF-8" standalone="no"?>
<svg
   xmlns:dc="http://purl.org/dc/elements/1.1/"
   xmlns:cc="http://creativecommons.org/ns#"
   xmlns:rdf="http://www.w3.org/1999/02/22-rdf-syntax-ns#"
   xmlns:svg="http://www.w3.org/2000/svg"
   xmlns="http://www.w3.org/2000/svg"
   xmlns:sodipodi="http://sodipodi.sourceforge.net/DTD/sodipodi-0.dtd"
   xmlns:inkscape="http://www.inkscape.org/namespaces/inkscape"
   height="450.0mm"
   version="1.1"
   viewBox="0 0 450.0 450.0"
   width="450.0mm"
   id="svg3947"
   sodipodi:docname="layout.svg"
   inkscape:version="0.92.4 (5da689c313, 2019-01-14)">
  <metadata
     id="metadata3951">
    <rdf:RDF>
      <cc:Work
         rdf:about="">
        <dc:format>image/svg+xml</dc:format>
        <dc:type
           rdf:resource="http://purl.org/dc/dcmitype/StillImage" />
      </cc:Work>
    </rdf:RDF>
  </metadata>
  <sodipodi:namedview
     pagecolor="#ffffff"
     bordercolor="#666666"
     borderopacity="1"
     objecttolerance="10"
     gridtolerance="10"
     guidetolerance="10"
     inkscape:pageopacity="0"
     inkscape:pageshadow="2"
     inkscape:window-width="1920"
     inkscape:window-height="1017"
     id="namedview3949"
     showgrid="false"
     inkscape:zoom="0.5"
     inkscape:cx="654.75393"
     inkscape:cy="1122.0898"
     inkscape:window-x="-8"
     inkscape:window-y="-8"
     inkscape:window-maximized="1"
     inkscape:current-layer="svg3947" />
  <defs
     id="defs3713">
    <inkscape:perspective
       sodipodi:type="inkscape:persp3d"
       inkscape:vp_x="0 : 225 : 1"
       inkscape:vp_y="0 : 1000 : 0"
       inkscape:vp_z="450 : 225 : 1"
       inkscape:persp3d-origin="225 : 150 : 1"
       id="perspective4119" />
  </defs>
  <rect
     height="100%"
     width="100%"
     x="0"
     y="0"
     id="rect3715"
     fill="rgb(255,255,255)" />
  <g
     style="font-size:22px;font-family:Arial;text-anchor:middle;fill:#0000ff"
     id="g3945"
     transform="translate(-0.82082342,-0.34591844)">
    <g
       aria-label="E"
       style=""
       id="text3717">
      <path
         d="M 69.392578,86 V 70.251953 h 11.386719 v 1.858399 h -9.302735 v 4.823242 h 8.711915 v 1.847656 h -8.711915 v 5.360352 h 9.667969 V 86 Z"
         style=""
         id="path4597" />
    </g>
    <g
       aria-label="S"
       style=""
       id="text3719">
      <path
         d="m 98.640625,80.94043 1.965825,-0.171875 q 0.13964,1.18164 0.64453,1.944336 0.51562,0.751953 1.58984,1.224609 1.07422,0.461914 2.41699,0.461914 1.19239,0 2.10547,-0.354492 0.91309,-0.354492 1.35352,-0.966797 0.45117,-0.623047 0.45117,-1.353516 0,-0.741211 -0.42969,-1.289062 -0.42969,-0.558594 -1.41797,-0.93457 -0.63379,-0.247071 -2.80371,-0.762696 -2.16992,-0.526367 -3.04004,-0.988281 -1.12793,-0.59082 -1.686521,-1.460938 -0.547852,-0.880859 -0.547852,-1.96582 0,-1.192383 0.676758,-2.223633 0.676755,-1.041992 1.976565,-1.579101 1.2998,-0.53711 2.88965,-0.53711 1.75097,0 3.083,0.569336 1.34278,0.558594 2.0625,1.654297 0.71973,1.095703 0.77344,2.481446 l -1.99805,0.15039 q -0.16113,-1.493164 -1.0957,-2.255859 -0.92383,-0.762696 -2.73926,-0.762696 -1.89062,0 -2.76074,0.698243 -0.85937,0.6875 -0.85937,1.665039 0,0.848633 0.6123,1.396484 0.60156,0.547852 3.13672,1.12793 2.5459,0.569336 3.49121,0.999023 1.375,0.633789 2.03027,1.611328 0.65528,0.966797 0.65528,2.234375 0,1.256836 -0.71973,2.374024 -0.71973,1.106445 -2.07324,1.729492 -1.34277,0.612305 -3.0293,0.612305 -2.13769,0 -3.58789,-0.623047 Q 100.32715,85.022461 99.5,83.776367 98.683594,82.519531 98.640625,80.94043 Z"
         style=""
         id="path4600" />
    </g>
    <g
       aria-label="K"
       style=""
       id="text3721">
      <path
         d="M 129.26367,86 V 70.251953 h 2.08399 v 7.80957 l 7.82031,-7.80957 h 2.82519 L 135.38672,76.632812 142.2832,86 h -2.75 l -5.60742,-7.970703 -2.57812,2.513672 V 86 Z"
         style=""
         id="path4603" />
    </g>
    <g
       aria-label="I"
       style=""
       id="text3723">
      <path
         d="M 164.00098,86 V 70.251953 h 2.08398 V 86 Z"
         style=""
         id="path4606" />
    </g>
    <g
       aria-label="S"
       style=""
       id="text3725">
      <path
         d="m 188.64062,80.94043 1.96583,-0.171875 q 0.13964,1.18164 0.64453,1.944336 0.51562,0.751953 1.58984,1.224609 1.07422,0.461914 2.41699,0.461914 1.19239,0 2.10547,-0.354492 0.91309,-0.354492 1.35352,-0.966797 0.45117,-0.623047 0.45117,-1.353516 0,-0.741211 -0.42969,-1.289062 -0.42969,-0.558594 -1.41797,-0.93457 -0.63379,-0.247071 -2.80371,-0.762696 -2.16992,-0.526367 -3.04004,-0.988281 -1.12793,-0.59082 -1.68652,-1.460938 -0.54785,-0.880859 -0.54785,-1.96582 0,-1.192383 0.67676,-2.223633 0.67675,-1.041992 1.97656,-1.579101 1.2998,-0.53711 2.88965,-0.53711 1.75097,0 3.083,0.569336 1.34278,0.558594 2.0625,1.654297 0.71973,1.095703 0.77344,2.481446 l -1.99805,0.15039 q -0.16113,-1.493164 -1.0957,-2.255859 -0.92383,-0.762696 -2.73926,-0.762696 -1.89062,0 -2.76074,0.698243 -0.85937,0.6875 -0.85937,1.665039 0,0.848633 0.6123,1.396484 0.60156,0.547852 3.13672,1.12793 2.5459,0.569336 3.49121,0.999023 1.375,0.633789 2.03027,1.611328 0.65528,0.966797 0.65528,2.234375 0,1.256836 -0.71973,2.374024 -0.71973,1.106445 -2.07324,1.729492 -1.34277,0.612305 -3.0293,0.612305 -2.13769,0 -3.58789,-0.623047 -1.43945,-0.623047 -2.2666,-1.869141 -0.81641,-1.256836 -0.85938,-2.835937 z"
         style=""
         id="path4609" />
    </g>
    <g
       aria-label="T"
       style=""
       id="text3727">
      <path
         d="M 223.97949,86 V 72.110352 h -5.18847 v -1.858399 h 12.48242 v 1.858399 h -5.20996 V 86 Z"
         style=""
         id="path4612" />
    </g>
    <g
       aria-label="L"
       style=""
       id="text3729">
      <path
         d="M 250.48828,86 V 70.251953 h 2.08399 v 13.889649 h 7.75585 V 86 Z"
         style=""
         id="path4615" />
    </g>
    <g
       aria-label="F"
       style=""
       id="text3731">
      <path
         d="M 280.08008,86 V 70.251953 h 10.62402 v 1.858399 h -8.54004 v 4.876953 h 7.39063 v 1.858398 h -7.39063 V 86 Z"
         style=""
         id="path4618" />
    </g>
    <g
       aria-label="Ü"
       style=""
       id="text3733">
      <path
         d="m 319.08203,70.251953 h 2.08399 v 9.098633 q 0,2.374023 -0.53711,3.770508 -0.53711,1.396484 -1.94434,2.277343 -1.39648,0.870118 -3.67383,0.870118 -2.21289,0 -3.62012,-0.762696 -1.40722,-0.762695 -2.00878,-2.202148 -0.60157,-1.450195 -0.60157,-3.953125 v -9.098633 h 2.08399 v 9.087891 q 0,2.051758 0.37597,3.029297 0.38672,0.966796 1.31055,1.493164 0.93457,0.526367 2.27734,0.526367 2.29883,0 3.27637,-1.041992 0.97754,-1.041993 0.97754,-4.006836 z m -7.1543,-0.966797 v -2.202148 h 2.01954 v 2.202148 z m 4.00684,0 v -2.202148 h 2.01953 v 2.202148 z"
         style=""
         id="path4621" />
    </g>
    <g
       aria-label="N"
       style=""
       id="text3735">
      <path
         d="M 338.72656,86 V 70.251953 h 2.1377 l 8.27148,12.364258 V 70.251953 h 1.99805 V 86 h -2.1377 L 340.72461,73.625 V 86 Z"
         style=""
         id="path4624" />
    </g>
    <g
       aria-label="F"
       style=""
       id="text3737">
      <path
         d="M 370.08008,86 V 70.251953 h 10.62402 v 1.858399 h -8.54004 v 4.876953 h 7.39063 v 1.858398 h -7.39063 V 86 Z"
         style=""
         id="path4627" />
    </g>
    <g
       aria-label="Z"
       style=""
       id="text3739">
      <path
         d="m 68.71582,119.33334 v -1.93359 l 8.067383,-10.08691 q 0.859375,-1.07422 1.632813,-1.86914 h -8.78711 v -1.8584 h 11.279297 v 1.8584 l -8.84082,10.9248 -0.956055,1.10645 h 10.054688 v 1.85839 z"
         style=""
         id="path4657" />
    </g>
    <g
       aria-label="E"
       style=""
       id="text3741">
      <path
         d="M 99.392578,119.33334 V 103.5853 H 110.7793 v 1.8584 h -9.30274 v 4.82324 h 8.71192 v 1.84765 h -8.71192 v 5.36036 h 9.66797 v 1.85839 z"
         style=""
         id="path4654" />
    </g>
    <g
       aria-label="H"
       style=""
       id="text3743">
      <path
         d="M 128.8125,119.33334 V 103.5853 h 2.08398 v 6.46679 h 8.18555 v -6.46679 h 2.08399 v 15.74804 h -2.08399 v -7.42285 h -8.18555 v 7.42285 z"
         style=""
         id="path4651" />
    </g>
    <g
       aria-label="N"
       style=""
       id="text3745">
      <path
         d="M 158.72656,119.33334 V 103.5853 h 2.1377 l 8.27148,12.36425 V 103.5853 h 1.99805 v 15.74804 h -2.1377 l -8.27148,-12.375 v 12.375 z"
         style=""
         id="path4648" />
    </g>
    <g
       aria-label="Z"
       style=""
       id="text3747">
      <path
         d="m 188.71582,119.33334 v -1.93359 l 8.06738,-10.08691 q 0.85938,-1.07422 1.63282,-1.86914 h -8.78711 v -1.8584 h 11.27929 v 1.8584 l -8.84082,10.9248 -0.95605,1.10645 h 10.05469 v 1.85839 z"
         style=""
         id="path4645" />
    </g>
    <g
       aria-label="W"
       style=""
       id="text3749">
      <path
         d="M 219.07031,119.33334 214.8916,103.5853 h 2.1377 l 2.3955,10.32324 q 0.38672,1.62207 0.66602,3.22266 0.60156,-2.52442 0.70898,-2.91114 l 2.99707,-10.63476 h 2.51368 l 2.25586,7.9707 q 0.84863,2.96484 1.22461,5.5752 0.30078,-1.49317 0.78418,-3.42676 l 2.4707,-10.11914 h 2.09472 l -4.31835,15.74804 h -2.00879 l -3.31934,-11.99902 Q 225.0752,105.83041 225,105.48666 q -0.24707,1.08496 -0.46191,1.84766 l -3.34082,11.99902 z"
         style=""
         id="path4642" />
    </g>
    <path
       style="stroke-width:3.77952743"
       d="m 955.64258,390.19531 -22.85742,59.52149 h 8.36328 c 5.04527,-14.0275 10.62935,-29.29637 15.34765,-41.90039 1.33623,-3.8507 2.00722,-5.60621 3.31752,-9.29006 1.34012,3.19886 2.21749,5.25728 4.11217,10.26467 l 6.21094,16.48437 h -12.69727 l -2.3164,6.41406 h 17.44922 l 6.94335,18.02735 h 8.97266 l -24.35937,-59.52149 z"
       id="text3751"
       transform="matrix(0.26458334,0,0,0.26458334,0.82082342,0.34591844)"
       inkscape:connector-curvature="0"
       sodipodi:nodetypes="cccccccccccccc" />
    <g
       aria-label="N"
       style=""
       id="text3753">
      <path
         d="M 278.72656,119.33334 V 103.5853 h 2.1377 l 8.27148,12.36425 V 103.5853 h 1.99805 v 15.74804 h -2.1377 l -8.27148,-12.375 v 12.375 z"
         style=""
         id="path4639" />
    </g>
    <g
       aria-label="Z"
       style=""
       id="text3755">
      <path
         d="m 308.71582,119.33334 v -1.93359 l 8.06738,-10.08691 q 0.85938,-1.07422 1.63282,-1.86914 h -8.78711 v -1.8584 h 11.27929 v 1.8584 l -8.84082,10.9248 -0.95605,1.10645 h 10.05469 v 1.85839 z"
         style=""
         id="path4636" />
    </g>
    <g
       aria-label="I"
       style=""
       id="text3757">
      <path
         d="M 344.00098,119.33334 V 103.5853 h 2.08398 v 15.74804 z"
         style=""
         id="path4633" />
    </g>
    <g
       aria-label="G"
       style=""
       id="text3759">
      <path
         d="m 375.51562,113.15659 v -1.84766 l 6.6709,-0.0107 v 5.84375 q -1.53613,1.22461 -3.16894,1.84765 -1.63281,0.61231 -3.35156,0.61231 -2.32032,0 -4.22168,-0.98828 -1.89063,-0.99903 -2.85743,-2.87891 -0.96679,-1.87988 -0.96679,-4.20019 0,-2.29883 0.95605,-4.28614 0.9668,-1.99804 2.77149,-2.96484 1.80468,-0.9668 4.15722,-0.9668 1.70801,0 3.08301,0.5586 1.38574,0.54785 2.16992,1.53613 0.78418,0.98828 1.19239,2.57812 l -1.87989,0.51563 q -0.35449,-1.20313 -0.88086,-1.89063 -0.52636,-0.6875 -1.5039,-1.0957 -0.97754,-0.41894 -2.16993,-0.41894 -1.42871,0 -2.4707,0.44042 -1.04199,0.42969 -1.68652,1.13868 -0.63379,0.70898 -0.98828,1.55761 -0.60157,1.46094 -0.60157,3.16895 0,2.10547 0.71973,3.52344 0.73047,1.41797 2.11621,2.10547 1.38574,0.6875 2.94336,0.6875 1.35352,0 2.64258,-0.51563 1.28906,-0.52637 1.95508,-1.11719 v -2.93261 z"
         style=""
         id="path4630" />
    </g>
    <path
       style="stroke-width:3.77952743"
       d="M 256.73242 516.17969 L 256.73242 554.16992 L 264.60938 554.16992 L 264.60938 523.20508 L 277.11328 523.20508 C 281.79586 523.20508 285.19347 523.60987 287.30469 524.42188 C 290.22792 525.55869 292.70436 527.80581 294.73438 531.16211 C 296.79146 534.49134 297.82031 539.26875 297.82031 545.49414 C 297.82031 549.98725 297.29194 553.81754 296.23633 556.98438 C 295.20778 560.12414 293.7602 562.62652 291.89258 564.49414 C 290.5663 565.82042 288.77976 566.84927 286.5332 567.58008 C 284.31371 568.31089 281.24111 568.67578 277.31641 568.67578 L 264.60938 568.67578 L 264.60938 568.67188 L 256.73242 568.67188 L 256.73242 575.70117 L 278.21094 575.70117 C 281.81084 575.70117 284.99113 575.36222 287.75195 574.68555 C 290.53985 574.00887 292.9086 573.01992 294.85742 571.7207 C 296.83331 570.39442 298.64579 568.59589 300.29688 566.32227 C 301.94796 564.02158 303.30181 561.12445 304.35742 557.63281 C 305.41303 554.14118 305.94141 550.13541 305.94141 545.61523 C 305.94141 540.31012 305.15582 535.6005 303.58594 531.48633 C 302.04312 527.34509 299.70226 523.94943 296.5625 521.29688 C 294.15354 519.23979 291.24246 517.81814 287.83203 517.0332 C 285.39601 516.4648 281.86477 516.17969 277.23633 516.17969 L 256.73242 516.17969 z "
       transform="matrix(0.26458334,0,0,0.26458334,0.82082342,0.34591844)"
       id="text3761" />
    <path
       style="stroke-width:1"
       d="m 98.78022,136.91846 c 0,0.57947 0,1.15894 0,1.7384 2.49721,0.008 4.99266,-0.0111 7.49129,0.0133 1.12593,0.0216 2.38655,0.50231 2.79385,1.64385 0.49322,1.25412 -0.17624,2.8508 -1.48723,3.26449 -1.38814,0.43606 -2.85974,0.24892 -4.29162,0.29042 -1.50492,0.002 -3.00188,-0.004 -4.50629,-0.003 0,2.9335 0,5.867 0,8.8005 0.694703,0 1.38941,0 2.08411,0 0,-2.33113 0,-4.66225 0,-6.99337 1.19219,0.0235 2.39116,-0.0606 3.57704,0.0754 1.45581,0.35619 2.21978,1.76785 3.02477,2.8962 0.87418,1.32964 1.71366,2.68172 2.57179,4.02173 0.87368,0 1.74735,0 2.62103,0 -1.05517,-1.62681 -2.06457,-3.28425 -3.15311,-4.88875 -0.67943,-0.93196 -1.48776,-1.82155 -2.57212,-2.27671 1.55191,-0.18505 3.22023,-0.84643 3.96899,-2.3133 1.04588,-1.97745 0.31144,-4.851 -1.80338,-5.78476 -1.71769,-0.66529 -3.59122,-0.4432 -5.39374,-0.48488 -1.64179,0 -3.28359,0 -4.92538,0 z"
       id="text3763"
       inkscape:connector-curvature="0" />
    <g
       aria-label="E"
       style=""
       id="text3765">
      <path
         d="m 129.39258,152.66667 v -15.74805 h 11.38672 v 1.8584 h -9.30274 v 4.82325 h 8.71192 v 1.84765 h -8.71192 v 5.36035 h 9.66797 v 1.8584 z"
         style=""
         id="path4660" />
    </g>
    <g
       aria-label="I"
       style=""
       id="text3767">
      <path
         d="m 164.00098,152.66667 v -15.74805 h 2.08398 v 15.74805 z"
         style=""
         id="path4663" />
    </g>
    <g
       aria-label="V"
       style=""
       id="text3769">
      <path
         d="m 193.85059,152.66667 -6.10157,-15.74805 h 2.25586 l 4.09278,11.44043 q 0.49414,1.375 0.82714,2.57813 0.36524,-1.28906 0.84864,-2.57813 l 4.2539,-11.44043 h 2.12696 l -6.16602,15.74805 z"
         style=""
         id="path4666" />
    </g>
    <g
       aria-label="I"
       style=""
       id="text3771">
      <path
         d="m 224.00098,152.66667 v -15.74805 h 2.08398 v 15.74805 z"
         style=""
         id="path4669" />
    </g>
    <g
       aria-label="E"
       style=""
       id="text3773">
      <path
         d="m 249.39258,152.66667 v -15.74805 h 11.38672 v 1.8584 h -9.30274 v 4.82325 h 8.71192 v 1.84765 h -8.71192 v 5.36035 h 9.66797 v 1.8584 z"
         style=""
         id="path4672" />
    </g>
    <path
       style="stroke-width:1"
       d="m 278.78009,136.91846 c 0,0.58016 0,1.16031 0,1.74047 2.53069,0.0106 5.06238,-0.022 7.59241,0.0176 1.09548,0.0369 2.29891,0.53406 2.69303,1.63753 0.51237,1.29175 -0.22346,2.93196 -1.59067,3.29962 -1.40422,0.39184 -2.87536,0.21458 -4.31448,0.25529 -1.46063,3.9e-4 -2.91971,-8.3e-4 -4.38029,-5.1e-4 0,2.93281 0,5.86562 0,8.79843 0.69469,0 1.38941,0 2.0841,0 0,-2.33113 0,-4.66225 0,-6.99337 1.19219,0.0235 2.39117,-0.0606 3.57706,0.0754 1.45606,0.35579 2.2202,1.76754 3.02485,2.8962 0.87408,1.3298 1.71397,2.68171 2.57223,4.02173 0.87368,0 1.74733,0 2.62101,0 -1.05534,-1.62682 -2.06499,-3.28419 -3.15362,-4.88875 -0.67942,-0.93196 -1.48775,-1.82154 -2.57212,-2.27671 1.55191,-0.18517 3.22075,-0.84613 3.96936,-2.3133 1.04526,-1.97764 0.31112,-4.85097 -1.80377,-5.78476 -1.71768,-0.6653 -3.59122,-0.4432 -5.39374,-0.48488 -1.6418,0 -3.28356,0 -4.92536,0 z"
       id="text3775"
       inkscape:connector-curvature="0" />
    <g
       aria-label="T"
       style=""
       id="text3777">
      <path
         d="m 313.97949,152.66667 v -13.88965 h -5.18847 v -1.8584 h 12.48242 v 1.8584 h -5.20996 v 13.88965 z"
         style=""
         id="path4675" />
    </g>
    <g
       aria-label="E"
       style=""
       id="text3779">
      <path
         d="m 339.39258,152.66667 v -15.74805 h 11.38672 v 1.8584 h -9.30274 v 4.82325 h 8.71192 v 1.84765 h -8.71192 v 5.36035 h 9.66797 v 1.8584 z"
         style=""
         id="path4678" />
    </g>
    <g
       aria-label="L"
       style=""
       id="text3781">
      <path
         d="m 370.48828,152.66667 v -15.74805 h 2.08399 v 13.88965 h 7.75585 v 1.8584 z"
         style=""
         id="path4681" />
    </g>
    <g
       aria-label="T"
       style=""
       id="text3783">
      <path
         d="m 73.979492,186 v -13.88965 h -5.188476 v -1.8584 h 12.482421 v 1.8584 h -5.20996 V 186 Z"
         style=""
         id="path4708" />
    </g>
    <g
       aria-label="G"
       style=""
       id="text3785">
      <path
         d="m 105.51563,179.82324 v -1.84765 l 6.67089,-0.0108 v 5.84375 q -1.53613,1.22461 -3.16894,1.84766 -1.63281,0.6123 -3.35156,0.6123 -2.32032,0 -4.22168,-0.98828 -1.890629,-0.99902 -2.857426,-2.8789 -0.966797,-1.87989 -0.966797,-4.2002 0,-2.29883 0.956055,-4.28613 0.966797,-1.99805 2.771488,-2.96484 1.80468,-0.9668 4.15722,-0.9668 1.70801,0 3.08301,0.55859 1.38574,0.54785 2.16992,1.53613 0.78418,0.98829 1.19239,2.57813 l -1.87989,0.51562 q -0.35449,-1.20312 -0.88086,-1.89062 -0.52636,-0.6875 -1.5039,-1.0957 -0.97754,-0.41895 -2.16992,-0.41895 -1.42872,0 -2.47071,0.44043 -1.04199,0.42969 -1.68652,1.13867 -0.63379,0.70899 -0.98828,1.55762 -0.601565,1.46094 -0.601565,3.16895 0,2.10546 0.719725,3.52343 0.73047,1.41797 2.11621,2.10547 1.38574,0.6875 2.94336,0.6875 1.35352,0 2.64258,-0.51562 1.28906,-0.52637 1.95508,-1.11719 v -2.93262 z"
         style=""
         id="path4705" />
    </g>
    <g
       aria-label="N"
       style=""
       id="text3787">
      <path
         d="m 128.72656,186 v -15.74805 h 2.1377 l 8.27148,12.36426 v -12.36426 h 1.99805 V 186 h -2.1377 l -8.27148,-12.375 V 186 Z"
         style=""
         id="path4702" />
    </g>
    <path
       style="stroke-width:3.77952743"
       d="m 615.48438,642.16406 -22.85743,59.52149 h 8.36328 c 5.27235,-14.66846 10.30746,-28.43609 15.34766,-41.90039 1.31412,-3.8286 1.98512,-5.65236 3.33961,-9.55718 1.22964,3.24306 2.19539,5.5244 4.09008,10.53179 l 6.21289,16.48437 h -12.68555 l -2.32226,6.41406 h 17.44336 l 6.9414,18.02735 h 8.97266 L 623.9707,642.16406 Z"
       transform="matrix(0.26458334,0,0,0.26458334,0.82082342,0.34591844)"
       id="text3789"
       inkscape:connector-curvature="0"
       sodipodi:nodetypes="cccccccccccccc" />
    <g
       aria-label="C"
       style=""
       id="text3791">
      <path
         d="m 199.98437,180.47852 2.08399,0.52636 q -0.65527,2.56739 -2.36328,3.9209 -1.69727,1.34277 -4.15723,1.34277 -2.5459,0 -4.14648,-1.03125 -1.58985,-1.04199 -2.42774,-3.00781 -0.82715,-1.96582 -0.82715,-4.22168 0,-2.45996 0.93457,-4.28613 0.94532,-1.83691 2.67481,-2.78223 1.74023,-0.95605 3.82422,-0.95605 2.36328,0 3.97461,1.20312 1.61133,1.20313 2.24511,3.38379 l -2.05175,0.4834 q -0.54785,-1.71875 -1.58985,-2.50293 -1.04199,-0.78418 -2.62109,-0.78418 -1.81543,0 -3.04004,0.87012 -1.21387,0.87012 -1.70801,2.3418 -0.49414,1.46093 -0.49414,3.01855 0,2.00879 0.58008,3.5127 0.59082,1.49316 1.82617,2.23437 1.23535,0.74121 2.67481,0.74121 1.75097,0 2.96484,-1.00976 1.21387,-1.00977 1.64355,-2.99707 z"
         style=""
         id="path4696" />
    </g>
    <g
       aria-label="H"
       style=""
       id="text3793">
      <path
         d="m 218.8125,186 v -15.74805 h 2.08398 v 6.4668 h 8.18555 v -6.4668 h 2.08399 V 186 h -2.08399 v -7.42285 h -8.18555 V 186 Z"
         style=""
         id="path4693" />
    </g>
    <g
       aria-label="V"
       style=""
       id="text3795">
      <path
         d="m 253.85059,186 -6.10157,-15.74805 h 2.25586 l 4.09278,11.44043 q 0.49414,1.375 0.82714,2.57813 0.36524,-1.28906 0.84864,-2.57813 l 4.2539,-11.44043 h 2.12696 L 255.98828,186 Z"
         style=""
         id="path4690" />
    </g>
    <path
       style="stroke-width:3.77952743"
       d="M 1074.2656 641.10938 C 1065.8749 641.10938 1059.0278 643.91082 1053.7227 649.51367 C 1048.4175 655.08946 1045.7637 662.81588 1045.7637 672.69531 C 1045.7637 677.91923 1046.9022 682.87406 1049.1758 687.55664 C 1050.9098 691.12792 1053.2702 694.11905 1056.248 696.54102 L 1060.0664 690.21094 C 1059.9272 690.07073 1059.7871 689.9344 1059.6504 689.78906 C 1055.8069 685.64782 1053.8848 679.9911 1053.8848 672.81836 C 1053.8848 663.85921 1055.8867 657.47073 1059.8926 653.6543 C 1063.9256 649.81079 1068.7309 647.88867 1074.3066 647.88867 C 1077.8946 647.88867 1081.1501 648.73619 1084.082 650.41016 L 1087.7676 644.30273 C 1083.7029 642.18076 1079.2053 641.10938 1074.2656 641.10938 z M 1093.5156 648.32812 L 1089.4883 655 C 1090.5015 656.27621 1091.3753 657.70298 1092.0898 659.29883 C 1093.7409 662.89873 1094.5664 667.11986 1094.5664 671.96484 C 1094.5664 679.62478 1092.6443 685.53872 1088.8008 689.70703 C 1084.9843 693.87534 1080.1132 695.96094 1074.1855 695.96094 C 1071.123 695.96094 1068.3314 695.38553 1065.8086 694.24609 L 1062.2051 700.2168 C 1065.8511 701.86391 1069.8539 702.69922 1074.2246 702.69922 C 1079.3944 702.69922 1084.2136 701.48095 1088.6797 699.04492 C 1093.1457 696.58183 1096.5972 692.96886 1099.0332 688.20508 C 1101.4692 683.4413 1102.6855 678.04178 1102.6855 672.00586 C 1102.6855 666.05114 1101.5231 660.73336 1099.1953 656.05078 C 1097.731 653.05323 1095.8352 650.4814 1093.5156 648.32812 z "
       id="text3797"
       transform="matrix(0.26458334,0,0,0.26458334,0.82082342,0.34591844)" />
    <path
       style="stroke-width:1"
       d="m 308.78033,170.25183 c 0,0.57998 0,1.15996 0,1.73995 2.49713,0.007 4.99406,-0.0136 7.49125,0.0118 1.12596,0.0216 2.38604,0.50269 2.79368,1.64386 0.51229,1.29165 -0.22267,2.93208 -1.59014,3.29962 -1.40423,0.39183 -2.87536,0.21458 -4.31446,0.25529 -1.46179,0.001 -2.91875,-0.002 -4.38033,-0.002 0,2.93315 0,5.86631 0,8.79946 0.69471,0 1.3894,0 2.08412,0 0,-2.33112 0,-4.66224 0,-6.99337 1.19219,0.0234 2.39109,-0.0603 3.57703,0.0749 1.45548,0.35694 2.21981,1.76794 3.02435,2.89672 0.87408,1.32979 1.71394,2.68171 2.5722,4.02172 0.87368,0 1.74736,0 2.62104,0 -1.05529,-1.62682 -2.06504,-3.28411 -3.15354,-4.88875 -0.67913,-0.93206 -1.48738,-1.82162 -2.5717,-2.2767 1.55192,-0.18505 3.22025,-0.84644 3.96899,-2.3133 1.04598,-1.97756 0.31136,-4.85138 -1.80388,-5.78477 -1.71751,-0.66531 -3.59089,-0.44319 -5.39324,-0.48487 -1.64179,0 -3.28358,0 -4.92537,0 z"
       id="text3799"
       inkscape:connector-curvature="0" />
    <g
       aria-label="J"
       style=""
       id="text3801">
      <path
         d="m 340.13379,181.53125 1.87988,-0.25781 q 0.0752,1.80468 0.67676,2.4707 0.60156,0.66602 1.66504,0.66602 0.78418,0 1.35351,-0.3545 0.56934,-0.36523 0.78418,-0.97754 0.21485,-0.62304 0.21485,-1.97656 v -10.84961 h 2.08398 v 10.73145 q 0,1.97656 -0.4834,3.06152 -0.47265,1.08496 -1.51464,1.6543 -1.03125,0.56933 -2.42774,0.56933 -2.07324,0 -3.17969,-1.19238 -1.0957,-1.19238 -1.05273,-3.54492 z"
         style=""
         id="path4687" />
    </g>
    <g
       aria-label="M"
       style=""
       id="text3803">
      <path
         d="m 367.45898,186 v -15.74805 h 3.13672 l 3.72754,11.15039 q 0.51563,1.55762 0.75196,2.33106 0.26855,-0.85938 0.83789,-2.52442 l 3.7705,-10.95703 h 2.80371 V 186 h -2.00878 V 172.81934 L 375.90234,186 h -1.87988 l -4.55469,-13.40625 V 186 Z"
         style=""
         id="path4684" />
    </g>
    <g
       aria-label="H"
       style=""
       id="text3805">
      <path
         d="m 68.8125,219.33333 v -15.74805 h 2.083984 v 6.4668 h 8.185547 v -6.4668 h 2.083985 v 15.74805 h -2.083985 v -7.42285 h -8.185547 v 7.42285 z"
         style=""
         id="path4711" />
    </g>
    <path
       style="stroke-width:3.77952743"
       d="m 388.71289,768.14844 -22.85742,59.51953 h 8.36328 c 5.30394,-14.77953 10.27837,-28.35059 15.34766,-41.89844 1.31791,-3.8248 1.94536,-5.55048 3.28247,-9.36692 1.34326,3.24307 2.25253,5.33415 4.14721,10.34153 l 6.21094,16.48242 h -12.69336 l -2.3164,6.41602 h 17.44726 l 6.94141,18.02539 h 8.97265 l -24.35937,-59.51953 z"
       transform="matrix(0.26458334,0,0,0.26458334,0.82082342,0.34591844)"
       id="text3807"
       inkscape:connector-curvature="0"
       sodipodi:nodetypes="cccccccccccccc" />
    <g
       aria-label="L"
       style=""
       id="text3809">
      <path
         d="m 130.48828,219.33333 v -15.74805 h 2.08399 v 13.88965 h 7.75585 v 1.8584 z"
         style=""
         id="path4714" />
    </g>
    <path
       style="stroke-width:3.77952743"
       d="M 621.52734 768.14648 C 619.42587 768.10968 617.31852 768.15245 615.21875 768.14844 L 615.21875 775.17188 C 619.61309 775.17609 624.08173 774.90543 628.30664 776.25195 C 633.29815 778.24962 634.54603 785.33864 631.60352 789.50391 C 628.92001 793.10549 623.97239 793.1167 619.91016 793.1582 C 618.34632 793.15935 616.78261 793.15831 615.21875 793.1582 L 615.21875 800.19727 C 620.15265 800.21289 625.19048 799.79561 629.9082 801.46484 C 634.47191 803.14488 636.50224 808.59199 635.32812 813.09375 C 634.56591 816.83715 631.27832 819.63796 627.56055 820.22852 C 623.10773 820.94209 618.56946 820.53697 614.07617 820.64453 L 606.71484 820.64453 C 606.71806 803.13931 606.71248 785.64939 606.71875 768.14844 L 598.83984 768.14844 L 598.83984 827.66797 C 607.42334 827.62602 616.01042 827.7581 624.5918 827.5918 C 630.5949 827.33895 637.41886 825.71896 640.82422 820.2832 C 644.9478 814.2239 645.01547 805.08323 639.48047 799.83789 C 637.56886 797.97674 635.12371 796.74037 632.57812 796 C 638.28294 793.50793 641.95311 787.01125 640.66992 780.8457 C 639.6417 775.07966 635.00823 770.22327 629.26172 769.01367 C 626.71847 768.38368 624.1291 768.19205 621.52734 768.14648 z "
       transform="matrix(0.26458334,0,0,0.26458334,0.82082342,0.34591844)"
       id="text3811" />
    <path
       style="stroke-width:3.77952743"
       d="M 733.66211 767.09375 C 728.22166 767.09375 723.29472 768.35192 718.88281 770.86914 C 714.49797 773.38636 711.11431 777.05318 708.73242 781.87109 C 706.35053 786.68901 705.16016 792.03468 705.16016 797.9082 C 705.16016 803.80879 706.33854 809.11457 708.69336 813.82422 C 710.16769 816.73938 712.0278 819.24723 714.26953 821.35352 L 718.2168 814.8125 C 714.92789 810.72856 713.28125 805.09444 713.28125 797.9082 C 713.28125 789.92346 715.21537 783.92973 719.08594 779.92383 C 722.95651 775.89086 727.8296 773.87305 733.70312 773.87305 C 736.65537 773.87305 739.38448 774.44087 741.89258 775.57422 L 745.55078 769.51172 C 741.91704 767.90719 737.95751 767.09375 733.66211 767.09375 z M 751.55078 773.11719 L 747.65625 779.57227 C 749.21758 781.16234 750.49726 783.04974 751.48633 785.24219 C 753.13741 788.84209 753.96289 793.05123 753.96289 797.86914 C 753.96289 806.34109 751.64798 812.68772 747.01953 816.91016 C 744.06924 814.39293 740.32068 812.49871 735.77344 811.22656 L 733.86523 816.95117 C 736.59899 817.62785 739.19707 818.76438 741.66016 820.36133 C 739.17 821.41694 736.51809 821.94336 733.70312 821.94336 C 729.91019 821.94336 726.5477 821.10011 723.61133 819.41992 L 719.99414 825.41602 C 724.0796 827.58538 728.57844 828.68359 733.5 828.68359 C 738.83218 828.68359 743.70333 827.45332 748.11523 824.99023 C 752.36474 828.31947 756.62772 830.75406 760.9043 832.29688 L 763.21875 826.81641 C 760.13312 825.65253 756.76341 823.81215 753.10938 821.29492 C 756.1138 818.39876 758.36093 815.00115 759.84961 811.10352 C 761.33829 807.17881 762.08203 802.76825 762.08203 797.86914 C 762.08203 791.96855 760.9176 786.67672 758.58984 781.99414 C 756.84872 778.42996 754.50105 775.47223 751.55078 773.11719 z "
       transform="matrix(0.26458334,0,0,0.26458334,0.82082342,0.34591844)"
       id="text3813" />
    <g
       aria-label="Z"
       style=""
       id="text3815">
      <path
         d="m 218.71582,219.33333 v -1.9336 l 8.06738,-10.08691 q 0.85938,-1.07422 1.63282,-1.86914 h -8.78711 v -1.8584 h 11.27929 v 1.8584 l -8.84082,10.9248 -0.95605,1.10645 h 10.05469 v 1.8584 z"
         style=""
         id="path4737" />
    </g>
    <g
       aria-label="W"
       style=""
       id="text3817">
      <path
         d="m 249.07031,219.33333 -4.17871,-15.74805 h 2.1377 l 2.3955,10.32324 q 0.38672,1.62207 0.66602,3.22266 0.60156,-2.52441 0.70898,-2.91113 l 2.99707,-10.63477 h 2.51368 l 2.25586,7.9707 q 0.84863,2.96485 1.22461,5.5752 0.30078,-1.49316 0.78418,-3.42676 l 2.4707,-10.11914 h 2.09472 l -4.31835,15.74805 h -2.00879 L 255.49414,207.3343 Q 255.0752,205.8304 255,205.48665 q -0.24707,1.08496 -0.46191,1.84765 l -3.34082,11.99903 z"
         style=""
         id="path4740" />
    </g>
    <path
       style="stroke-width:3.77952743"
       d="M 1062.6953 756.17188 L 1062.6953 764.49414 L 1070.3281 764.49414 L 1070.3281 756.17188 L 1062.6953 756.17188 z M 1077.8379 756.17188 L 1077.8379 764.49414 L 1085.4727 764.49414 L 1085.4727 756.17188 L 1077.8379 756.17188 z M 1074.2656 767.09375 C 1065.8749 767.09375 1059.0278 769.89519 1053.7227 775.49805 C 1048.4175 781.07383 1045.7637 788.80026 1045.7637 798.67969 C 1045.7637 803.9036 1046.9022 808.85648 1049.1758 813.53906 C 1050.7616 816.80514 1052.8797 819.57996 1055.5059 821.88477 L 1059.3789 815.46484 C 1055.7197 811.35232 1053.8848 805.80143 1053.8848 798.80273 C 1053.8848 789.84358 1055.8867 783.45511 1059.8926 779.63867 C 1063.9256 775.79517 1068.7309 773.87305 1074.3066 773.87305 C 1077.5511 773.87305 1080.5225 774.56873 1083.2305 775.9375 L 1086.9004 769.85547 C 1083.065 768.02216 1078.857 767.09375 1074.2656 767.09375 z M 1092.7773 773.66602 L 1088.834 780.20117 C 1090.135 781.66366 1091.2257 783.35124 1092.0898 785.28125 C 1093.7409 788.88115 1094.5664 793.10424 1094.5664 797.94922 C 1094.5664 805.60916 1092.6443 811.5231 1088.8008 815.69141 C 1084.9843 819.85971 1080.1132 821.94336 1074.1855 821.94336 C 1070.7649 821.94336 1067.6828 821.22812 1064.9355 819.80664 L 1061.3262 825.78516 C 1065.204 827.70988 1069.4999 828.68359 1074.2246 828.68359 C 1079.3944 828.68359 1084.2136 827.46532 1088.6797 825.0293 C 1093.1457 822.56621 1096.5972 818.95323 1099.0332 814.18945 C 1101.4692 809.42567 1102.6855 804.02616 1102.6855 797.99023 C 1102.6855 792.03551 1101.5231 786.71578 1099.1953 782.0332 C 1097.5802 778.72688 1095.433 775.94517 1092.7773 773.66602 z "
       transform="matrix(0.26458334,0,0,0.26458334,0.82082342,0.34591844)"
       id="text3819" />
    <g
       aria-label="L"
       style=""
       id="text3821">
      <path
         d="m 310.48828,219.33333 v -15.74805 h 2.08399 v 13.88965 h 7.75585 v 1.8584 z"
         style=""
         id="path4743" />
    </g>
    <g
       aria-label="F"
       style=""
       id="text3823">
      <path
         d="m 340.08008,219.33333 v -15.74805 h 10.62402 v 1.8584 h -8.54004 v 4.87695 h 7.39063 v 1.8584 h -7.39063 v 7.1543 z"
         style=""
         id="path4746" />
    </g>
    <path
       style="stroke-width:3.77952743"
       d="m 1417.1602,768.13867 c -2.876,-0.0279 -5.7682,0.0875 -8.5821,0.01 h -15.7129 v 59.51953 h 7.875 c 0,-17.5183 0,-34.98052 0,-52.49609 7.1223,0.10355 14.2647,-0.25639 21.3692,0.29882 6.121,0.63549 9.2446,7.63561 7.7539,13.13282 -0.8269,4.78938 -5.6574,7.48886 -10.1953,7.66601 -2.9657,0.24181 -5.941,0.20152 -8.916,0.18359 v 7 c 7.0734,0.0414 14.45,0.43238 20.6269,-3.43945 9.2384,-6.59134 9.3956,-22.84801 -0.4238,-28.99023 -4.2562,-2.39365 -9.0018,-2.83823 -13.7949,-2.88477 z"
       transform="matrix(0.26458334,0,0,0.26458334,0.82082342,0.34591844)"
       id="text3825"
       inkscape:connector-curvature="0"
       sodipodi:nodetypes="cccccccccccccc" />
    <g
       aria-label="Z"
       style=""
       id="text3827">
      <path
         d="m 68.71582,252.66667 v -1.93359 l 8.067383,-10.08692 q 0.859375,-1.07421 1.632813,-1.86914 h -8.78711 v -1.8584 h 11.279297 v 1.8584 l -8.84082,10.92481 -0.956055,1.10644 h 10.054688 v 1.8584 z"
         style=""
         id="path4776" />
    </g>
    <g
       aria-label="W"
       style=""
       id="text3829">
      <path
         d="m 99.070312,252.66667 -4.17871,-15.74805 h 2.137695 l 2.395508,10.32325 q 0.386718,1.62207 0.666015,3.22265 0.60156,-2.52441 0.70898,-2.91113 l 2.99708,-10.63477 h 2.51367 l 2.25586,7.97071 q 0.84863,2.96484 1.22461,5.57519 0.30078,-1.49316 0.78418,-3.42675 l 2.4707,-10.11915 h 2.09473 l -4.31836,15.74805 h -2.00879 l -3.31934,-11.99902 Q 105.0752,239.16374 105,238.81999 q -0.24707,1.08496 -0.46191,1.84766 l -3.34082,11.99902 z"
         style=""
         id="path4773" />
    </g>
    <g
       aria-label="E"
       style=""
       id="text3831">
      <path
         d="m 129.39258,252.66667 v -15.74805 h 11.38672 v 1.8584 h -9.30274 v 4.82325 h 8.71192 v 1.84765 h -8.71192 v 5.36035 h 9.66797 v 1.8584 z"
         style=""
         id="path4770" />
    </g>
    <g
       aria-label="I"
       style=""
       id="text3833">
      <path
         d="m 164.00098,252.66667 v -15.74805 h 2.08398 v 15.74805 z"
         style=""
         id="path4767" />
    </g>
    <g
       aria-label="N"
       style=""
       id="text3835">
      <path
         d="m 188.72656,252.66667 v -15.74805 h 2.1377 l 8.27148,12.36426 v -12.36426 h 1.99805 v 15.74805 h -2.1377 l -8.27148,-12.375 v 12.375 z"
         style=""
         id="path4764" />
    </g>
    <g
       aria-label="S"
       style=""
       id="text3837">
      <path
         d="m 218.64062,247.6071 1.96583,-0.17187 q 0.13964,1.18164 0.64453,1.94433 0.51562,0.75196 1.58984,1.22461 1.07422,0.46192 2.41699,0.46192 1.19239,0 2.10547,-0.3545 0.91309,-0.35449 1.35352,-0.96679 0.45117,-0.62305 0.45117,-1.35352 0,-0.74121 -0.42969,-1.28906 -0.42969,-0.5586 -1.41797,-0.93457 -0.63379,-0.24707 -2.80371,-0.7627 -2.16992,-0.52636 -3.04004,-0.98828 -1.12793,-0.59082 -1.68652,-1.46094 -0.54785,-0.88086 -0.54785,-1.96582 0,-1.19238 0.67676,-2.22363 0.67675,-1.04199 1.97656,-1.5791 1.2998,-0.53711 2.88965,-0.53711 1.75097,0 3.083,0.56934 1.34278,0.55859 2.0625,1.65429 0.71973,1.09571 0.77344,2.48145 l -1.99805,0.15039 q -0.16113,-1.49317 -1.0957,-2.25586 -0.92383,-0.7627 -2.73926,-0.7627 -1.89062,0 -2.76074,0.69825 -0.85937,0.6875 -0.85937,1.66504 0,0.84863 0.6123,1.39648 0.60156,0.54785 3.13672,1.12793 2.5459,0.56934 3.49121,0.99902 1.375,0.63379 2.03027,1.61133 0.65528,0.9668 0.65528,2.23438 0,1.25683 -0.71973,2.37402 -0.71973,1.10644 -2.07324,1.72949 -1.34277,0.61231 -3.0293,0.61231 -2.13769,0 -3.58789,-0.62305 -1.43945,-0.62305 -2.2666,-1.86914 -0.81641,-1.25684 -0.85938,-2.83594 z"
         style=""
         id="path4761" />
    </g>
    <g
       aria-label="I"
       style=""
       id="text3839">
      <path
         d="m 254.00098,252.66667 v -15.74805 h 2.08398 v 15.74805 z"
         style=""
         id="path4758" />
    </g>
    <g
       aria-label="E"
       style=""
       id="text3841">
      <path
         d="m 279.39258,252.66667 v -15.74805 h 11.38672 v 1.8584 h -9.30274 v 4.82325 h 8.71192 v 1.84765 h -8.71192 v 5.36035 h 9.66797 v 1.8584 z"
         style=""
         id="path4755" />
    </g>
    <path
       style="stroke-width:3.77952743"
       d="M 1188.4512 894.13086 C 1186.3477 894.0941 1184.2385 894.13689 1182.1367 894.13281 L 1182.1367 901.15625 C 1186.5343 901.16036 1191.0063 900.88891 1195.2344 902.23633 C 1200.2277 904.23237 1201.4761 911.32264 1198.5332 915.48828 C 1195.8489 919.08862 1190.9022 919.10138 1186.8398 919.14258 C 1185.2722 919.14375 1183.7045 919.14269 1182.1367 919.14258 L 1182.1367 926.18164 C 1187.0743 926.19764 1192.1165 925.779 1196.8379 927.44922 C 1201.4016 929.12926 1203.4319 934.57641 1202.2578 939.07812 C 1201.4956 942.82231 1198.2069 945.62298 1194.4883 946.21289 C 1190.0355 946.92647 1185.4973 946.52134 1181.0039 946.62891 L 1173.6445 946.62891 C 1173.6408 929.12266 1173.6475 911.62942 1173.6367 894.13281 L 1165.7676 894.13281 L 1165.7676 953.65234 C 1174.3511 953.61039 1182.9382 953.74247 1191.5195 953.57617 C 1197.5223 953.32219 1204.348 951.70484 1207.752 946.26758 C 1211.8767 940.20767 1211.9448 931.06787 1206.4082 925.82227 C 1204.4973 923.96111 1202.053 922.72452 1199.5078 921.98438 C 1205.2124 919.49234 1208.8838 912.99551 1207.5996 906.83008 C 1206.5687 901.06554 1201.9387 896.20682 1196.1914 894.99805 C 1193.6463 894.36785 1191.0548 894.17636 1188.4512 894.13086 z "
       transform="matrix(0.26458334,0,0,0.26458334,0.82082342,0.34591844)"
       id="text3843" />
    <g
       aria-label="E"
       style=""
       id="text3845">
      <path
         d="m 339.39258,252.66667 v -15.74805 h 11.38672 v 1.8584 h -9.30274 v 4.82325 h 8.71192 v 1.84765 h -8.71192 v 5.36035 h 9.66797 v 1.8584 z"
         style=""
         id="path4752" />
    </g>
    <g
       aria-label="N"
       style=""
       id="text3847">
      <path
         d="m 368.72656,252.66667 v -15.74805 h 2.1377 l 8.27148,12.36426 v -12.36426 h 1.99805 v 15.74805 h -2.1377 l -8.27148,-12.375 v 12.375 z"
         style=""
         id="path4749" />
    </g>
    <g
       aria-label="K"
       style=""
       id="text3849">
      <path
         d="m 69.263672,286 v -15.74805 h 2.083984 v 7.80957 l 7.820313,-7.80957 h 2.825195 L 75.386719,276.63281 82.283203,286 h -2.75 l -5.607422,-7.9707 -2.578125,2.51367 V 286 Z"
         style=""
         id="path4779" />
    </g>
    <path
       style="stroke-width:1"
       d="m 98.748182,270.25193 c 0,3.35519 0,6.71037 0,10.06555 0.694531,0 1.389058,0 2.083598,0 0,-2.73577 0,-5.47151 0,-8.20727 1.60887,0.0218 3.22171,-0.0566 4.82694,0.0709 1.22717,0.048 2.34524,0.7639 2.98997,1.79289 1.01681,1.51511 1.03485,3.44112 0.92112,5.19766 -0.14784,1.55917 -0.62644,3.27607 -1.96498,4.22503 -1.46786,0.93324 -3.26439,0.71326 -4.9225,0.74483 -1.31285,9.5e-4 -2.62109,-0.003 -3.934148,-0.002 0,0.61994 0,1.23989 0,1.85983 2.153128,-0.0116 4.307148,0.0248 6.459648,-0.0212 1.74366,-0.0779 3.60564,-0.61058 4.73105,-2.03264 1.6102,-1.94506 1.97999,-4.60782 1.77934,-7.05287 -0.1748,-2.21456 -1.10238,-4.54519 -3.06849,-5.74868 -1.69803,-1.04074 -3.7519,-0.87307 -5.66218,-0.89252 -1.41312,0 -2.82624,0 -4.239368,0 z"
       id="text3851"
       inkscape:connector-curvature="0" />
    <path
       style="stroke-width:1"
       d="m 128.78046,270.25193 c 0,0.58 0,1.15996 0,1.73996 2.49719,0.007 4.99405,-0.0136 7.49127,0.0117 1.12596,0.0214 2.38633,0.5022 2.79365,1.64367 0.51223,1.29159 -0.22311,2.93193 -1.59015,3.29983 -1.39033,0.38936 -2.84729,0.21503 -4.27241,0.25479 -1.4747,4e-4 -2.94775,-8.4e-4 -4.42236,-5.3e-4 0,2.93281 0,5.86563 0,8.79843 0.69453,0 1.38906,0 2.08359,0 0,-2.33095 0,-4.6619 0,-6.99286 1.19236,0.0234 2.39145,-0.0603 3.57756,0.0749 1.45547,0.35695 2.21982,1.76795 3.02435,2.89674 0.87398,1.32967 1.71396,2.68134 2.57221,4.02119 0.87367,0 1.74735,0 2.62103,0 -1.05533,-1.62666 -2.06506,-3.28379 -3.15363,-4.88823 -0.67943,-0.93197 -1.48776,-1.82152 -2.57212,-2.27671 1.55192,-0.18516 3.22076,-0.84611 3.96936,-2.31328 1.04524,-1.97765 0.31113,-4.85098 -1.80375,-5.78477 -1.71768,-0.66529 -3.5912,-0.4432 -5.3937,-0.48488 -1.64164,0 -3.28327,0 -4.9249,0 z"
       id="text3853"
       inkscape:connector-curvature="0" />
    <g
       aria-label="E"
       style=""
       id="text3855">
      <path
         d="m 159.39258,286 v -15.74805 h 11.38672 v 1.8584 h -9.30274 v 4.82324 h 8.71192 v 1.84766 h -8.71192 v 5.36035 h 9.66797 V 286 Z"
         style=""
         id="path4782" />
    </g>
    <g
       aria-label="I"
       style=""
       id="text3857">
      <path
         d="m 194.00098,286 v -15.74805 h 2.08398 V 286 Z"
         style=""
         id="path4785" />
    </g>
    <path
       style="stroke-width:1"
       d="m 218.78013,270.25193 c 0,0.58103 0,1.16203 0,1.74305 2.52995,0.009 5.06042,-0.0256 7.59243,0.0149 1.09552,0.0366 2.29921,0.53359 2.69302,1.63735 0.51236,1.29183 -0.22337,2.93214 -1.59067,3.29983 -1.39034,0.38936 -2.84732,0.21503 -4.27245,0.25479 -1.47363,0.001 -2.9466,0.003 -4.42233,0.002 0,2.93195 0,5.86388 0,8.79583 0.69471,0 1.38941,0 2.08412,0 0,-2.33095 0,-4.6619 0,-6.99286 1.19218,0.0234 2.3911,-0.0603 3.57704,0.0749 1.45587,0.35648 2.21961,1.76832 3.02477,2.89674 0.87409,1.32951 1.71366,2.68134 2.57179,4.02119 0.87384,0 1.74769,0 2.62154,0 -1.05533,-1.62666 -2.06506,-3.28379 -3.15363,-4.88823 -0.67942,-0.93197 -1.48776,-1.82152 -2.57212,-2.27671 1.55193,-0.18516 3.22076,-0.84611 3.96937,-2.31328 1.04523,-1.97765 0.31112,-4.85098 -1.80376,-5.78477 -1.71769,-0.66529 -3.59121,-0.4432 -5.39373,-0.48488 -1.6418,0 -3.28359,0 -4.92539,0 z"
       id="text3859"
       inkscape:connector-curvature="0" />
    <g
       aria-label="H"
       style=""
       id="text3861">
      <path
         d="m 248.8125,286 v -15.74805 h 2.08398 v 6.4668 h 8.18555 v -6.4668 h 2.08399 V 286 h -2.08399 v -7.42285 h -8.18555 V 286 Z"
         style=""
         id="path4788" />
    </g>
    <g
       aria-label="F"
       style=""
       id="text3863">
      <path
         d="m 280.08008,286 v -15.74805 h 10.62402 v 1.8584 h -8.54004 v 4.87695 h 7.39063 v 1.8584 h -7.39063 V 286 Z"
         style=""
         id="path4791" />
    </g>
    <g
       aria-label="Ü"
       style=""
       id="text3865">
      <path
         d="m 319.08203,270.25195 h 2.08399 v 9.09864 q 0,2.37402 -0.53711,3.7705 -0.53711,1.39649 -1.94434,2.27735 -1.39648,0.87011 -3.67383,0.87011 -2.21289,0 -3.62012,-0.76269 -1.40722,-0.7627 -2.00878,-2.20215 -0.60157,-1.45019 -0.60157,-3.95312 v -9.09864 h 2.08399 v 9.08789 q 0,2.05176 0.37597,3.0293 0.38672,0.9668 1.31055,1.49316 0.93457,0.52637 2.27734,0.52637 2.29883,0 3.27637,-1.04199 0.97754,-1.04199 0.97754,-4.00684 z m -7.1543,-0.96679 v -2.20215 h 2.01954 v 2.20215 z m 4.00684,0 v -2.20215 h 2.01953 v 2.20215 z"
         style=""
         id="path4794" />
    </g>
    <g
       aria-label="N"
       style=""
       id="text3867">
      <path
         d="m 338.72656,286 v -15.74805 h 2.1377 l 8.27148,12.36426 v -12.36426 h 1.99805 V 286 h -2.1377 l -8.27148,-12.375 V 286 Z"
         style=""
         id="path4797" />
    </g>
    <g
       aria-label="F"
       style=""
       id="text3869">
      <path
         d="m 370.08008,286 v -15.74805 h 10.62402 v 1.8584 h -8.54004 v 4.87695 h 7.39063 v 1.8584 h -7.39063 V 286 Z"
         style=""
         id="path4800" />
    </g>
    <g
       aria-label="E"
       style=""
       id="text3871">
      <path
         d="M 69.392578,319.33334 V 303.5853 h 11.386719 v 1.8584 h -9.302735 v 4.82324 h 8.711915 v 1.84765 h -8.711915 v 5.36036 h 9.667969 v 1.85839 z"
         style=""
         id="path4830" />
    </g>
    <g
       aria-label="L"
       style=""
       id="text3873">
      <path
         d="M 100.48828,319.33334 V 303.5853 h 2.08399 v 13.88965 h 7.75586 v 1.85839 z"
         style=""
         id="path4827" />
    </g>
    <g
       aria-label="F"
       style=""
       id="text3875">
      <path
         d="M 130.08008,319.33334 V 303.5853 h 10.62402 v 1.8584 h -8.54004 v 4.87695 h 7.39063 v 1.8584 h -7.39063 v 7.15429 z"
         style=""
         id="path4824" />
    </g>
    <g
       aria-label="N"
       style=""
       id="text3877">
      <path
         d="M 158.72656,319.33334 V 303.5853 h 2.1377 l 8.27148,12.36425 V 303.5853 h 1.99805 v 15.74804 h -2.1377 l -8.27148,-12.375 v 12.375 z"
         style=""
         id="path4821" />
    </g>
    <g
       aria-label="E"
       style=""
       id="text3879">
      <path
         d="M 189.39258,319.33334 V 303.5853 h 11.38672 v 1.8584 h -9.30274 v 4.82324 h 8.71192 v 1.84765 h -8.71192 v 5.36036 h 9.66797 v 1.85839 z"
         style=""
         id="path4818" />
    </g>
    <g
       aria-label="U"
       style=""
       id="text3881">
      <path
         d="m 229.08203,303.5853 h 2.08399 v 9.09863 q 0,2.37402 -0.53711,3.77051 -0.53711,1.39648 -1.94434,2.27734 -1.39648,0.87012 -3.67383,0.87012 -2.21289,0 -3.62012,-0.7627 -1.40722,-0.76269 -2.00878,-2.20215 -0.60157,-1.45019 -0.60157,-3.95312 v -9.09863 h 2.08399 v 9.08789 q 0,2.05176 0.37597,3.02929 0.38672,0.9668 1.31055,1.49317 0.93457,0.52637 2.27734,0.52637 2.29883,0 3.27637,-1.042 0.97754,-1.04199 0.97754,-4.00683 z"
         style=""
         id="path4815" />
    </g>
    <g
       aria-label="N"
       style=""
       id="text3883">
      <path
         d="M 248.72656,319.33334 V 303.5853 h 2.1377 l 8.27148,12.36425 V 303.5853 h 1.99805 v 15.74804 h -2.1377 l -8.27148,-12.375 v 12.375 z"
         style=""
         id="path4812" />
    </g>
    <g
       aria-label="V"
       style=""
       id="text3885">
      <path
         d="m 283.85059,319.33334 -6.10157,-15.74804 h 2.25586 l 4.09278,11.44043 q 0.49414,1.375 0.82714,2.57812 0.36524,-1.28906 0.84864,-2.57812 l 4.2539,-11.44043 h 2.12696 l -6.16602,15.74804 z"
         style=""
         id="path4809" />
    </g>
    <g
       aria-label="I"
       style=""
       id="text3887">
      <path
         d="M 314.00098,319.33334 V 303.5853 h 2.08398 v 15.74804 z"
         style=""
         id="path4806" />
    </g>
    <g
       aria-label="E"
       style=""
       id="text3889">
      <path
         d="M 339.39258,319.33334 V 303.5853 h 11.38672 v 1.8584 h -9.30274 v 4.82324 h 8.71192 v 1.84765 h -8.71192 v 5.36036 h 9.66797 v 1.85839 z"
         style=""
         id="path4803" />
    </g>
    <path
       style="stroke-width:1"
       d="m 368.78029,303.58531 c 0,0.57981 0,1.15961 0,1.73942 2.49737,0.007 4.99348,-0.0127 7.49125,0.0122 1.12596,0.0214 2.38633,0.50218 2.79366,1.64367 0.49363,1.2541 -0.17595,2.85102 -1.48701,3.2647 -1.38822,0.43553 -2.85973,0.24833 -4.2916,0.2899 -1.50376,0.001 -3.00283,-0.002 -4.5063,-0.002 0,2.93314 0,5.86631 0,8.79946 0.69469,0 1.3894,0 2.08409,0 0,-2.33096 0,-4.66191 0,-6.99286 1.19219,0.0234 2.39112,-0.0603 3.57706,0.0749 1.45545,0.35695 2.21983,1.76794 3.02435,2.89671 0.87397,1.32969 1.71395,2.68137 2.5722,4.02122 0.87368,0 1.74736,0 2.62104,0 -1.05516,-1.62664 -2.06465,-3.28385 -3.15312,-4.88823 -0.67942,-0.93197 -1.48775,-1.82155 -2.57212,-2.27672 1.55192,-0.18502 3.22022,-0.84643 3.96899,-2.3133 1.04608,-1.97774 0.31113,-4.85138 -1.80387,-5.78528 -1.71757,-0.66497 -3.5909,-0.44254 -5.39322,-0.48434 -1.64179,0 -3.28361,0 -4.9254,0 z"
       id="text3891"
       inkscape:connector-curvature="0" />
    <g
       aria-label="W"
       style=""
       id="text3893">
      <path
         d="m 69.070312,352.66666 -4.17871,-15.74805 h 2.137695 l 2.395508,10.32324 q 0.386718,1.62207 0.666015,3.22266 0.601563,-2.52442 0.708985,-2.91113 l 2.99707,-10.63477 h 2.513672 l 2.255859,7.9707 q 0.848633,2.96485 1.22461,5.5752 0.300781,-1.49317 0.784179,-3.42676 l 2.470703,-10.11914 h 2.094727 l -4.318359,15.74805 H 78.813477 L 75.494141,340.66763 Q 75.075195,339.16373 75,338.81998 q -0.24707,1.08496 -0.461914,1.84765 l -3.34082,11.99903 z"
         style=""
         id="path4833" />
    </g>
    <g
       aria-label="A"
       id="text3895">
      <path
         style="stroke-width:3.77952743"
         d="m 388.71289,1272.0859 -22.85742,59.5196 h 8.36328 c 5.04813,-14.0193 10.55808,-29.1161 15.34765,-41.8982 1.40531,-3.7531 2.16791,-6.0527 3.45703,-9.7753 1.18543,3.221 2.07795,5.7426 3.97265,10.7499 l 6.21094,16.4825 h -12.66211 l -2.30859,6.416 h 17.4082 l 6.94141,18.0254 h 8.97265 l -24.35937,-59.5196 z"
         id="path3983"
         inkscape:connector-curvature="0"
         sodipodi:nodetypes="cccccccccccccc"
         transform="matrix(0.26458334,0,0,0.26458334,0.82082342,0.34591844)" />
    </g>
    <g
       aria-label="C"
       style=""
       id="text3897">
      <path
         d="m 139.98437,347.14517 2.08399,0.52637 q -0.65527,2.56738 -2.36328,3.9209 -1.69727,1.34277 -4.15723,1.34277 -2.5459,0 -4.14648,-1.03125 -1.58985,-1.04199 -2.42774,-3.00781 -0.82715,-1.96582 -0.82715,-4.22168 0,-2.45996 0.93457,-4.28613 0.94532,-1.83692 2.67481,-2.78223 1.74023,-0.95606 3.82422,-0.95606 2.36328,0 3.97461,1.20313 1.61133,1.20312 2.24511,3.38379 l -2.05175,0.4834 q -0.54785,-1.71875 -1.58985,-2.50293 -1.04199,-0.78418 -2.62109,-0.78418 -1.81543,0 -3.04004,0.87012 -1.21387,0.87011 -1.70801,2.34179 -0.49414,1.46094 -0.49414,3.01856 0,2.00879 0.58008,3.51269 0.59082,1.49317 1.82617,2.23438 1.23535,0.74121 2.67481,0.74121 1.75097,0 2.96484,-1.00977 1.21387,-1.00976 1.64355,-2.99707 z"
         style=""
         id="path4842" />
    </g>
    <g
       aria-label="H"
       style=""
       id="text3899">
      <path
         d="m 158.8125,352.66666 v -15.74805 h 2.08398 v 6.4668 h 8.18555 v -6.4668 h 2.08399 v 15.74805 h -2.08399 v -7.42286 h -8.18555 v 7.42286 z"
         style=""
         id="path4845" />
    </g>
    <g
       aria-label="T"
       style=""
       id="text3901">
      <path
         d="m 193.97949,352.66666 v -13.88965 h -5.18847 v -1.8584 h 12.48242 v 1.8584 h -5.20996 v 13.88965 z"
         style=""
         id="path4854" />
    </g>
    <g
       aria-label="Z"
       style=""
       id="text3903">
      <path
         d="m 218.71582,352.66666 v -1.9336 l 8.06738,-10.08691 q 0.85938,-1.07422 1.63282,-1.86914 h -8.78711 v -1.8584 h 11.27929 v 1.8584 l -8.84082,10.9248 -0.95605,1.10645 h 10.05469 v 1.8584 z"
         style=""
         id="path4857" />
    </g>
    <g
       aria-label="E"
       style=""
       id="text3905">
      <path
         d="m 249.39258,352.66666 v -15.74805 h 11.38672 v 1.8584 h -9.30274 v 4.82324 h 8.71192 v 1.84766 h -8.71192 v 5.36035 h 9.66797 v 1.8584 z"
         style=""
         id="path4866" />
    </g>
    <g
       aria-label="H"
       style=""
       id="text3907">
      <path
         d="m 278.8125,352.66666 v -15.74805 h 2.08398 v 6.4668 h 8.18555 v -6.4668 h 2.08399 v 15.74805 h -2.08399 v -7.42286 h -8.18555 v 7.42286 z"
         style=""
         id="path4869" />
    </g>
    <g
       aria-label="N"
       style=""
       id="text3909">
      <path
         d="m 308.72656,352.66666 v -15.74805 h 2.1377 l 8.27148,12.36426 v -12.36426 h 1.99805 v 15.74805 h -2.1377 l -8.27148,-12.375 v 12.375 z"
         style=""
         id="path4875" />
    </g>
    <path
       style="stroke-width:1"
       d="m 338.78006,336.91865 c 0,0.58 0,1.15996 0,1.73996 2.53084,0.0107 5.06269,-0.0222 7.5929,0.0176 1.09546,0.0368 2.29868,0.53435 2.69253,1.63785 0.51234,1.2918 -0.22336,2.93211 -1.59067,3.2998 -1.39015,0.38939 -2.84697,0.215 -4.27191,0.25479 -1.4754,7.7e-4 -2.94762,-0.002 -4.42285,-10e-4 0,2.93299 0,5.86597 0,8.79896 0.69469,0 1.3894,0 2.08409,0 0,-2.33095 0,-4.66191 0,-6.99286 1.19219,0.0234 2.39112,-0.0603 3.57706,0.0749 1.45582,0.35655 2.22023,1.76784 3.02485,2.89671 0.87397,1.32969 1.71397,2.68137 2.57223,4.02122 0.87368,0 1.74733,0 2.62101,0 -1.05534,-1.62666 -2.06504,-3.28382 -3.15362,-4.88826 -0.67942,-0.93194 -1.48775,-1.82152 -2.57212,-2.27668 1.55194,-0.18519 3.22075,-0.84614 3.96936,-2.31331 1.04537,-1.97781 0.31086,-4.85098 -1.80377,-5.78527 -1.71773,-0.66498 -3.59122,-0.4426 -5.39372,-0.48438 -1.64179,0 -3.28358,0 -4.92537,0 z"
       id="text3911"
       inkscape:connector-curvature="0" />
    <g
       aria-label="S"
       style=""
       id="text3913">
      <path
         d="m 368.64062,347.60709 1.96583,-0.17188 q 0.13964,1.18164 0.64453,1.94434 0.51562,0.75195 1.58984,1.22461 1.07422,0.46191 2.41699,0.46191 1.19239,0 2.10547,-0.35449 0.91309,-0.35449 1.35352,-0.9668 0.45117,-0.62305 0.45117,-1.35351 0,-0.74122 -0.42969,-1.28907 -0.42969,-0.55859 -1.41797,-0.93457 -0.63379,-0.24707 -2.80371,-0.76269 -2.16992,-0.52637 -3.04004,-0.98828 -1.12793,-0.59082 -1.68652,-1.46094 -0.54785,-0.88086 -0.54785,-1.96582 0,-1.19238 0.67676,-2.22363 0.67675,-1.042 1.97656,-1.57911 1.2998,-0.53711 2.88965,-0.53711 1.75097,0 3.083,0.56934 1.34278,0.55859 2.0625,1.6543 0.71973,1.0957 0.77344,2.48144 l -1.99805,0.15039 q -0.16113,-1.49316 -1.0957,-2.25586 -0.92383,-0.76269 -2.73926,-0.76269 -1.89062,0 -2.76074,0.69824 -0.85937,0.6875 -0.85937,1.66504 0,0.84863 0.6123,1.39648 0.60156,0.54786 3.13672,1.12793 2.5459,0.56934 3.49121,0.99903 1.375,0.63379 2.03027,1.61133 0.65528,0.96679 0.65528,2.23437 0,1.25684 -0.71973,2.37402 -0.71973,1.10645 -2.07324,1.7295 -1.34277,0.6123 -3.0293,0.6123 -2.13769,0 -3.58789,-0.62305 -1.43945,-0.62304 -2.2666,-1.86914 -0.81641,-1.25683 -0.85938,-2.83593 z"
         style=""
         id="path4884" />
    </g>
    <path
       style="stroke-width:3.77952743"
       d="M 258.68164 1398.0703 L 258.68164 1457.5898 L 281.37695 1457.5898 C 285.16632 1457.5898 288.36056 1457.2648 290.95898 1456.6152 C 293.58448 1455.9386 295.76381 1454.9516 297.49609 1453.6523 C 299.22838 1452.3531 300.67597 1450.5127 301.83984 1448.1309 C 303.03079 1445.7219 303.62695 1443.1238 303.62695 1440.3359 C 303.62695 1436.8714 302.65194 1433.8666 300.70312 1431.3223 C 298.78139 1428.778 296.01982 1426.9775 292.41992 1425.9219 C 295.20782 1424.5415 297.29341 1422.727 298.67383 1420.4805 C 300.05424 1418.2339 300.74414 1415.8392 300.74414 1413.2949 C 300.74414 1410.5612 299.95855 1407.9491 298.38867 1405.459 C 296.84586 1402.9418 294.69442 1401.0874 291.93359 1399.8965 C 289.19983 1398.6785 285.55896 1398.0703 281.01172 1398.0703 L 275.08398 1398.0703 L 275.08398 1405.0938 L 278.45312 1405.0938 C 282.7297 1405.0938 285.74846 1405.3789 287.50781 1405.9473 C 289.26716 1406.4886 290.62102 1407.5157 291.56836 1409.0312 C 292.5157 1410.5199 292.98828 1412.2526 292.98828 1414.2285 C 292.98828 1416.3127 292.47386 1418.0454 291.44531 1419.4258 C 290.44384 1420.8062 288.94241 1421.7932 286.93945 1422.3887 C 285.42371 1422.8488 282.91937 1423.0801 279.42773 1423.0801 L 275.08398 1423.0801 L 275.08398 1430.1035 L 280.32227 1430.1035 C 284.11164 1430.1035 287.00681 1430.4425 289.00977 1431.1191 C 291.03979 1431.7687 292.62295 1432.9192 293.75977 1434.5703 C 294.89658 1436.1943 295.46484 1438.1164 295.46484 1440.3359 C 295.46484 1442.2306 295.074 1443.9075 294.28906 1445.3691 C 293.50412 1446.8037 292.50121 1447.9003 291.2832 1448.6582 C 290.06519 1449.4161 288.54981 1449.9566 286.73633 1450.2812 C 285.70778 1450.4707 283.92124 1450.5664 281.37695 1450.5664 L 266.55859 1450.5664 L 266.55859 1430.1035 L 266.56836 1430.1035 L 266.5625 1423.0801 L 266.55859 1423.0801 L 266.55859 1405.0938 L 266.5625 1405.0938 L 266.55859 1398.0703 L 258.68164 1398.0703 z "
       transform="matrix(0.26458334,0,0,0.26458334,0.82082342,0.34591844)"
       id="text3915" />
    <g
       aria-label="S"
       style=""
       id="text3917">
      <path
         d="m 98.640625,380.94043 1.965825,-0.17188 q 0.13964,1.18165 0.64453,1.94434 0.51562,0.75195 1.58984,1.22461 1.07422,0.46191 2.41699,0.46191 1.19239,0 2.10547,-0.35449 0.91309,-0.35449 1.35352,-0.9668 0.45117,-0.62304 0.45117,-1.35351 0,-0.74121 -0.42969,-1.28906 -0.42969,-0.5586 -1.41797,-0.93457 -0.63379,-0.24707 -2.80371,-0.7627 -2.16992,-0.52637 -3.04004,-0.98828 -1.12793,-0.59082 -1.686521,-1.46094 -0.547852,-0.88086 -0.547852,-1.96582 0,-1.19238 0.676758,-2.22363 0.676755,-1.04199 1.976565,-1.5791 1.2998,-0.53711 2.88965,-0.53711 1.75097,0 3.083,0.56933 1.34278,0.5586 2.0625,1.6543 0.71973,1.0957 0.77344,2.48145 l -1.99805,0.15039 q -0.16113,-1.49317 -1.0957,-2.25586 -0.92383,-0.7627 -2.73926,-0.7627 -1.89062,0 -2.76074,0.69824 -0.85937,0.6875 -0.85937,1.66504 0,0.84864 0.6123,1.39649 0.60156,0.54785 3.13672,1.12793 2.5459,0.56933 3.49121,0.99902 1.375,0.63379 2.03027,1.61133 0.65528,0.9668 0.65528,2.23437 0,1.25684 -0.71973,2.37403 -0.71973,1.10644 -2.07324,1.72949 -1.34277,0.6123 -3.0293,0.6123 -2.13769,0 -3.58789,-0.62304 -1.43945,-0.62305 -2.2666,-1.86914 -0.816406,-1.25684 -0.859375,-2.83594 z"
         style=""
         id="path4836" />
    </g>
    <g
       aria-label="E"
       style=""
       id="text3919">
      <path
         d="m 129.39258,386 v -15.74805 h 11.38672 v 1.8584 h -9.30274 v 4.82324 h 8.71192 v 1.84766 h -8.71192 v 5.36035 h 9.66797 V 386 Z"
         style=""
         id="path4839" />
    </g>
    <g
       aria-label="C"
       style=""
       id="text3921">
      <path
         d="m 169.98437,380.47852 2.08399,0.52636 q -0.65527,2.56739 -2.36328,3.9209 -1.69727,1.34277 -4.15723,1.34277 -2.5459,0 -4.14648,-1.03125 -1.58985,-1.04199 -2.42774,-3.00781 -0.82715,-1.96582 -0.82715,-4.22168 0,-2.45996 0.93457,-4.28613 0.94532,-1.83691 2.67481,-2.78223 1.74023,-0.95605 3.82422,-0.95605 2.36328,0 3.97461,1.20312 1.61133,1.20313 2.24511,3.38379 l -2.05175,0.4834 q -0.54785,-1.71875 -1.58985,-2.50293 -1.04199,-0.78418 -2.62109,-0.78418 -1.81543,0 -3.04004,0.87012 -1.21387,0.87012 -1.70801,2.3418 -0.49414,1.46093 -0.49414,3.01855 0,2.00879 0.58008,3.5127 0.59082,1.49316 1.82617,2.23437 1.23535,0.74121 2.67481,0.74121 1.75097,0 2.96484,-1.00976 1.21387,-1.00977 1.64355,-2.99707 z"
         style=""
         id="path4848" />
    </g>
    <g
       aria-label="H"
       style=""
       id="text3923">
      <path
         d="m 188.8125,386 v -15.74805 h 2.08398 v 6.4668 h 8.18555 v -6.4668 h 2.08399 V 386 h -2.08399 v -7.42285 h -8.18555 V 386 Z"
         style=""
         id="path4851" />
    </g>
    <g
       aria-label="S"
       style=""
       id="text3925">
      <path
         d="m 218.64062,380.94043 1.96583,-0.17188 q 0.13964,1.18165 0.64453,1.94434 0.51562,0.75195 1.58984,1.22461 1.07422,0.46191 2.41699,0.46191 1.19239,0 2.10547,-0.35449 0.91309,-0.35449 1.35352,-0.9668 0.45117,-0.62304 0.45117,-1.35351 0,-0.74121 -0.42969,-1.28906 -0.42969,-0.5586 -1.41797,-0.93457 -0.63379,-0.24707 -2.80371,-0.7627 -2.16992,-0.52637 -3.04004,-0.98828 -1.12793,-0.59082 -1.68652,-1.46094 -0.54785,-0.88086 -0.54785,-1.96582 0,-1.19238 0.67676,-2.22363 0.67675,-1.04199 1.97656,-1.5791 1.2998,-0.53711 2.88965,-0.53711 1.75097,0 3.083,0.56933 1.34278,0.5586 2.0625,1.6543 0.71973,1.0957 0.77344,2.48145 l -1.99805,0.15039 q -0.16113,-1.49317 -1.0957,-2.25586 -0.92383,-0.7627 -2.73926,-0.7627 -1.89062,0 -2.76074,0.69824 -0.85937,0.6875 -0.85937,1.66504 0,0.84864 0.6123,1.39649 0.60156,0.54785 3.13672,1.12793 2.5459,0.56933 3.49121,0.99902 1.375,0.63379 2.03027,1.61133 0.65528,0.9668 0.65528,2.23437 0,1.25684 -0.71973,2.37403 -0.71973,1.10644 -2.07324,1.72949 -1.34277,0.6123 -3.0293,0.6123 -2.13769,0 -3.58789,-0.62304 -1.43945,-0.62305 -2.2666,-1.86914 -0.81641,-1.25684 -0.85938,-2.83594 z"
         style=""
         id="path4860" />
    </g>
    <g
       aria-label="F"
       style=""
       id="text3927">
      <path
         d="m 250.08008,386 v -15.74805 h 10.62402 v 1.8584 h -8.54004 v 4.87695 h 7.39063 v 1.8584 h -7.39063 V 386 Z"
         style=""
         id="path4863" />
    </g>
    <g
       aria-label="M"
       style=""
       id="text3929">
      <path
         d="m 277.45898,386 v -15.74805 h 3.13672 l 3.72754,11.15039 q 0.51563,1.55762 0.75196,2.33106 0.26855,-0.85938 0.83789,-2.52442 l 3.7705,-10.95703 h 2.80371 V 386 h -2.00878 V 372.81934 L 285.90234,386 h -1.87988 l -4.55469,-13.40625 V 386 Z"
         style=""
         id="path4872" />
    </g>
    <g
       aria-label="U"
       style=""
       id="text3931">
      <path
         d="m 319.08203,370.25195 h 2.08399 v 9.09864 q 0,2.37402 -0.53711,3.7705 -0.53711,1.39649 -1.94434,2.27735 -1.39648,0.87011 -3.67383,0.87011 -2.21289,0 -3.62012,-0.76269 -1.40722,-0.7627 -2.00878,-2.20215 -0.60157,-1.45019 -0.60157,-3.95312 v -9.09864 h 2.08399 v 9.08789 q 0,2.05176 0.37597,3.0293 0.38672,0.9668 1.31055,1.49316 0.93457,0.52637 2.27734,0.52637 2.29883,0 3.27637,-1.04199 0.97754,-1.04199 0.97754,-4.00684 z"
         style=""
         id="path4878" />
    </g>
    <g
       aria-label="H"
       style=""
       id="text3933">
      <path
         d="m 338.8125,386 v -15.74805 h 2.08398 v 6.4668 h 8.18555 v -6.4668 h 2.08399 V 386 h -2.08399 v -7.42285 h -8.18555 V 386 Z"
         style=""
         id="path4881" />
    </g>
    <path
       style="stroke-width:1"
       d="m 368.78029,370.25203 c 0,0.58068 0,1.16133 0,1.74201 2.53039,0.008 5.06156,-0.0243 7.59238,0.0155 1.09545,0.0368 2.29867,0.53438 2.69253,1.63785 0.49366,1.2541 -0.17598,2.85099 -1.48701,3.26469 -1.38822,0.43553 -2.85973,0.24834 -4.2916,0.28991 -1.50434,10e-4 -3.00236,-0.003 -4.5063,-5.3e-4 0,2.9328 0,5.86563 0,8.79843 0.69469,0 1.3894,0 2.08409,0 0,-2.33096 0,-4.66188 0,-6.99284 1.19219,0.0234 2.39112,-0.0603 3.57706,0.0749 1.45548,0.35693 2.21981,1.76795 3.02435,2.89672 0.874,1.32966 1.71395,2.68134 2.5722,4.02119 0.87368,0 1.74736,0 2.62104,0 -1.05516,-1.62666 -2.0647,-3.28388 -3.15312,-4.88831 -0.67923,-0.93213 -1.48748,-1.82187 -2.57212,-2.27661 1.55192,-0.18508 3.22025,-0.84646 3.96899,-2.31331 1.04608,-1.97776 0.31113,-4.85137 -1.80387,-5.78527 -1.71757,-0.665 -3.5909,-0.44257 -5.39322,-0.48437 -1.64179,0 -3.28361,0 -4.9254,0 z"
       id="text3935"
       inkscape:connector-curvature="0" />
    <circle
       cx="20"
       cy="20"
       r="2.5"
       id="circle3937"
       style="fill:#0000ff" />
    <circle
       cx="430"
       cy="20"
       r="2.5"
       id="circle3939"
       style="fill:#0000ff" />
    <circle
       cx="20"
       cy="430"
       r="2.5"
       id="circle3941"
       style="fill:#0000ff" />
    <circle
       cx="430"
       cy="430"
       r="2.5"
       id="circle3943"
       style="fill:#0000ff" />
  </g>
</svg>
